<?xml version="1.0" encoding="UTF-8" standalone="no"?><svg xmlns="http://www.w3.org/2000/svg" xmlns:xlink="http://www.w3.org/1999/xlink" contentScriptType="application/ecmascript" contentStyleType="text/css" height="662px" preserveAspectRatio="none" style="width:1127px;height:662px;" version="1.1" viewBox="0 0 1127 662" width="1127px" zoomAndPan="magnify"><defs/><g><!--cluster NeoFS--><polygon fill="#FFFFFF" points="72.5,32,128.5,32,135.5,54.2969,1105.5,54.2969,1105.5,650,72.5,650,72.5,32" style="stroke: #000000; stroke-width: 1.5;"/><line style="stroke: #000000; stroke-width: 1.5;" x1="72.5" x2="135.5" y1="54.2969" y2="54.2969"/><text fill="#000000" font-family="sans-serif" font-size="14" font-weight="bold" lengthAdjust="spacingAndGlyphs" textLength="50" x="76.5" y="46.9951">NeoFS</text><!--cluster ORN_BL--><polygon fill="#FFFFFF" points="198.5,83,405.5,83,412.5,105.2969,1073.5,105.2969,1073.5,366,198.5,366,198.5,83" style="stroke: #000000; stroke-width: 1.5;"/><line style="stroke: #000000; stroke-width: 1.5;" x1="198.5" x2="412.5" y1="105.2969" y2="105.2969"/><text fill="#000000" font-family="sans-serif" font-size="14" font-weight="bold" lengthAdjust="spacingAndGlyphs" textLength="201" x="202.5" y="97.9951">OuterRing (Network map)</text><!--cluster InnerRing--><polygon fill="#FFFFFF" points="767.5,126,848.5,126,855.5,148.2969,1049.5,148.2969,1049.5,342,767.5,342,767.5,126" style="stroke: #000000; stroke-width: 1.5;"/><line style="stroke: #000000; stroke-width: 1.5;" x1="767.5" x2="855.5" y1="148.2969" y2="148.2969"/><text fill="#000000" font-family="sans-serif" font-size="14" font-weight="bold" lengthAdjust="spacingAndGlyphs" textLength="75" x="771.5" y="140.9951">InnerRing</text><!--cluster NBN_BL--><polygon fill="#FFFFFF" points="416.5,398,542.5,398,549.5,420.2969,816.5,420.2969,816.5,610,416.5,610,416.5,398" style="stroke: #000000; stroke-width: 1.5;"/><line style="stroke: #000000; stroke-width: 1.5;" x1="416.5" x2="549.5" y1="420.2969" y2="420.2969"/><text fill="#000000" font-family="sans-serif" font-size="14" font-weight="bold" lengthAdjust="spacingAndGlyphs" textLength="120" x="420.5" y="412.9951">Neo blockchain</text><!--entity consumer--><ellipse cx="147.5" cy="154.5" fill="#F8F8F8" rx="8" ry="8" style="stroke: #383838; stroke-width: 2.0;"/><path d="M147.5,162.5 L147.5,189.5 M134.5,170.5 L160.5,170.5 M147.5,189.5 L134.5,204.5 M147.5,189.5 L160.5,204.5 " fill="none" style="stroke: #383838; stroke-width: 2.0;"/><text fill="#000000" font-family="sans-serif" font-size="14" lengthAdjust="spacingAndGlyphs" textLength="64" x="115.5" y="220.4951">Publisher</text><!--entity host--><ellipse cx="735.5" cy="154.5" fill="#F8F8F8" rx="8" ry="8" style="stroke: #383838; stroke-width: 2.0;"/><path d="M735.5,162.5 L735.5,189.5 M722.5,170.5 L748.5,170.5 M735.5,189.5 L722.5,204.5 M735.5,189.5 L748.5,204.5 " fill="none" style="stroke: #383838; stroke-width: 2.0;"/><text fill="#000000" font-family="sans-serif" font-size="14" lengthAdjust="spacingAndGlyphs" textLength="32" x="719.5" y="220.4951">Host</text><!--entity ORN--><polygon fill="#F8F8F8" points="343,293.5,353,283.5,506,283.5,506,319.7969,496,329.7969,343,329.7969,343,293.5" style="stroke: #000000; stroke-width: 1.5;"/><line style="stroke: #000000; stroke-width: 1.5;" x1="496" x2="505" y1="293.5" y2="284.5"/><line style="stroke: #000000; stroke-width: 1.5;" x1="343" x2="496" y1="293.5" y2="293.5"/><line style="stroke: #000000; stroke-width: 1.5;" x1="496" x2="496" y1="293.5" y2="329.7969"/><text fill="#000000" font-family="sans-serif" font-size="14" lengthAdjust="spacingAndGlyphs" textLength="123" x="358" y="316.4951">Outer Ring Nodes</text><!--entity data--><rect fill="#F8F8F8" height="39.2969" style="stroke: #000000; stroke-width: 1.5;" width="153" x="531" y="164.5"/><polygon fill="#F8F8F8" points="667,169.5,667,183.5,679,183.5,679,175.5,673,169.5,667,169.5" style="stroke: #000000; stroke-width: 1.5;"/><line style="stroke: #000000; stroke-width: 1.5;" x1="673" x2="673" y1="169.5" y2="175.5"/><line style="stroke: #000000; stroke-width: 1.5;" x1="679" x2="673" y1="175.5" y2="175.5"/><text fill="#000000" font-family="sans-serif" font-size="14" lengthAdjust="spacingAndGlyphs" textLength="123" x="541" y="190.4951">User data storage</text><!--entity DR--><rect fill="#F8F8F8" height="39.2969" style="stroke: #000000; stroke-width: 1.5;" width="142" x="353.5" y="164.5"/><polygon fill="#F8F8F8" points="478.5,169.5,478.5,183.5,490.5,183.5,490.5,175.5,484.5,169.5,478.5,169.5" style="stroke: #000000; stroke-width: 1.5;"/><line style="stroke: #000000; stroke-width: 1.5;" x1="484.5" x2="484.5" y1="169.5" y2="175.5"/><line style="stroke: #000000; stroke-width: 1.5;" x1="490.5" x2="484.5" y1="175.5" y2="175.5"/><text fill="#000000" font-family="sans-serif" font-size="14" lengthAdjust="spacingAndGlyphs" textLength="112" x="363.5" y="190.4951">Data Replication</text><!--entity RB--><rect fill="#F8F8F8" height="39.2969" style="stroke: #000000; stroke-width: 1.5;" width="103" x="215" y="164.5"/><polygon fill="#F8F8F8" points="301,169.5,301,183.5,313,183.5,313,175.5,307,169.5,301,169.5" style="stroke: #000000; stroke-width: 1.5;"/><line style="stroke: #000000; stroke-width: 1.5;" x1="307" x2="307" y1="169.5" y2="175.5"/><line style="stroke: #000000; stroke-width: 1.5;" x1="313" x2="307" y1="175.5" y2="175.5"/><text fill="#000000" font-family="sans-serif" font-size="14" lengthAdjust="spacingAndGlyphs" textLength="73" x="225" y="190.4951">Rebalance</text><!--entity IRN--><polygon fill="#F8F8F8" points="829,171,839,161,988,161,988,197.2969,978,207.2969,829,207.2969,829,171" style="stroke: #000000; stroke-width: 1.5;"/><line style="stroke: #000000; stroke-width: 1.5;" x1="978" x2="987" y1="171" y2="162"/><line style="stroke: #000000; stroke-width: 1.5;" x1="829" x2="978" y1="171" y2="171"/><line style="stroke: #000000; stroke-width: 1.5;" x1="978" x2="978" y1="171" y2="207.2969"/><text fill="#000000" font-family="sans-serif" font-size="14" lengthAdjust="spacingAndGlyphs" textLength="119" x="844" y="193.9951">Inner Ring Nodes</text><!--entity inter_data--><rect fill="#F8F8F8" height="39.2969" style="stroke: #000000; stroke-width: 1.5;" width="250" x="783.5" y="287"/><polygon fill="#F8F8F8" points="1016.5,292,1016.5,306,1028.5,306,1028.5,298,1022.5,292,1016.5,292" style="stroke: #000000; stroke-width: 1.5;"/><line style="stroke: #000000; stroke-width: 1.5;" x1="1022.5" x2="1022.5" y1="292" y2="298"/><line style="stroke: #000000; stroke-width: 1.5;" x1="1028.5" x2="1022.5" y1="298" y2="298"/><text fill="#000000" font-family="sans-serif" font-size="14" lengthAdjust="spacingAndGlyphs" textLength="220" x="793.5" y="312.9951">State control and data validation</text><!--entity Contract--><polygon fill="#F8F8F8" points="617,451,627,441,792,441,792,477.2969,782,487.2969,617,487.2969,617,451" style="stroke: #000000; stroke-width: 1.5;"/><line style="stroke: #000000; stroke-width: 1.5;" x1="782" x2="791" y1="451" y2="442"/><line style="stroke: #000000; stroke-width: 1.5;" x1="617" x2="782" y1="451" y2="451"/><line style="stroke: #000000; stroke-width: 1.5;" x1="782" x2="782" y1="451" y2="487.2969"/><text fill="#000000" font-family="sans-serif" font-size="14" lengthAdjust="spacingAndGlyphs" textLength="135" x="632" y="473.9951">Neo Smart Contract</text><!--entity NID--><polygon fill="#F8F8F8" points="459.5,451,469.5,441,581.5,441,581.5,477.2969,571.5,487.2969,459.5,487.2969,459.5,451" style="stroke: #000000; stroke-width: 1.5;"/><line style="stroke: #000000; stroke-width: 1.5;" x1="571.5" x2="580.5" y1="451" y2="442"/><line style="stroke: #000000; stroke-width: 1.5;" x1="459.5" x2="571.5" y1="451" y2="451"/><line style="stroke: #000000; stroke-width: 1.5;" x1="571.5" x2="571.5" y1="451" y2="487.2969"/><text fill="#000000" font-family="sans-serif" font-size="14" lengthAdjust="spacingAndGlyphs" textLength="82" x="474.5" y="473.9951">Neo Identity</text><!--entity Payment--><rect fill="#F8F8F8" height="39.2969" style="stroke: #000000; stroke-width: 1.5;" width="90" x="659.5" y="547"/><polygon fill="#F8F8F8" points="732.5,552,732.5,566,744.5,566,744.5,558,738.5,552,732.5,552" style="stroke: #000000; stroke-width: 1.5;"/><line style="stroke: #000000; stroke-width: 1.5;" x1="738.5" x2="738.5" y1="552" y2="558"/><line style="stroke: #000000; stroke-width: 1.5;" x1="744.5" x2="738.5" y1="558" y2="558"/><text fill="#000000" font-family="sans-serif" font-size="14" lengthAdjust="spacingAndGlyphs" textLength="60" x="669.5" y="572.9951">Payment</text><!--entity client--><ellipse cx="25.5" cy="154.5" fill="#F8F8F8" rx="8" ry="8" style="stroke: #383838; stroke-width: 2.0;"/><path d="M25.5,162.5 L25.5,189.5 M12.5,170.5 L38.5,170.5 M25.5,189.5 L12.5,204.5 M25.5,189.5 L38.5,204.5 " fill="none" style="stroke: #383838; stroke-width: 2.0;"/><text fill="#000000" font-family="sans-serif" font-size="14" lengthAdjust="spacingAndGlyphs" textLength="39" x="6" y="220.4951">Client</text><!--link ORN to NBN_BL--><!--link client to NeoFS--><!--link IRN to inter_data--><path d="M908.5,207.102 C908.5,228.236 908.5,260.01 908.5,281.695 " fill="none" id="IRN-inter_data" style="stroke: #383838; stroke-width: 1.0;"/><polygon fill="#383838" points="908.5,286.705,912.5,277.705,908.5,281.705,904.5,277.705,908.5,286.705" style="stroke: #383838; stroke-width: 1.0;"/><!--link data to ORN--><path d="M574.98,206.413 C542.032,228.108 491.304,261.511 458.007,283.437 " fill="none" id="data-ORN" style="stroke: #383838; stroke-width: 1.0;"/><polygon fill="#383838" points="579.307,203.564,569.5905,205.1735,575.1312,206.3141,573.9906,211.8547,579.307,203.564" style="stroke: #383838; stroke-width: 1.0;"/><!--link DR to ORN--><path d="M424.5,208.575 C424.5,230.278 424.5,262.227 424.5,283.437 " fill="none" id="DR-ORN" style="stroke: #383838; stroke-width: 1.0;"/><polygon fill="#383838" points="424.5,203.564,420.5,212.564,424.5,208.564,428.5,212.564,424.5,203.564" style="stroke: #383838; stroke-width: 1.0;"/><!--link RB to ORN--><path d="M294.926,206.68 C323.381,228.381 366.939,261.601 395.571,283.437 " fill="none" id="RB-ORN" style="stroke: #383838; stroke-width: 1.0;"/><polygon fill="#383838" points="290.841,203.564,295.5725,212.2019,294.817,206.5957,300.4232,205.8402,290.841,203.564" style="stroke: #383838; stroke-width: 1.0;"/><!--link Contract to Payment--><path d="M704.5,487.304 C704.5,503.41 704.5,525.133 704.5,541.595 " fill="none" id="Contract-Payment" style="stroke: #383838; stroke-width: 1.0;"/><polygon fill="#383838" points="704.5,546.961,708.5,537.961,704.5,541.961,700.5,537.961,704.5,546.961" style="stroke: #383838; stroke-width: 1.0;"/><!--
@startuml
skinparam monochrome true
skinparam shadowing false

package "NeoFS" {

actor "Publisher" as consumer

package "OuterRing (Network map)" as ORN_BL {

  
  actor "Host" as host
  node "Outer Ring Nodes" as ORN
  
  artifact "User data storage" as data
  artifact "Data Replication" as DR
  artifact "Rebalance" as RB
  
    package "InnerRing" {

       node "Inner Ring Nodes" as IRN
       artifact "State control and data validation" as inter_data

    }
  }
  
  package "Neo blockchain" as NBN_BL {

    node "Neo Smart Contract" as Contract
    node "Neo Identity" as NID
    artifact "Payment" as Payment
    
    
}
  
}


actor "Client" as client




ORN -[hidden]down-> NBN_BL

client -[hidden]right-> NeoFS
inter_data <-up- IRN

data <-down- ORN
DR <-down- ORN
RB <-down- ORN

Contract -down-> Payment
@enduml

PlantUML version 1.2019.00(Sun Jan 13 15:46:42 UTC 2019)
(GPL source distribution)
Java Runtime: Java(TM) SE Runtime Environment
JVM: Java HotSpot(TM) 64-Bit Server VM
Java Version: 1.7.0_25-b15
Operating System: Linux
Default Encoding: UTF-8
Language: en
Country: US
--></g></svg>