<?xml version="1.0" encoding="UTF-8" standalone="no"?><svg xmlns="http://www.w3.org/2000/svg" xmlns:xlink="http://www.w3.org/1999/xlink" contentScriptType="application/ecmascript" contentStyleType="text/css" height="596px" preserveAspectRatio="none" style="width:1273px;height:596px;" version="1.1" viewBox="0 0 1273 596" width="1273px" zoomAndPan="magnify"><defs/><g><!--cluster NM--><polygon fill="#FFFFFF" points="22,24,133,24,140,46.2969,1251,46.2969,1251,584,22,584,22,24" style="stroke: #000000; stroke-width: 1.5;"/><line style="stroke: #000000; stroke-width: 1.5;" x1="22" x2="140" y1="46.2969" y2="46.2969"/><text fill="#000000" font-family="sans-serif" font-size="14" font-weight="bold" lengthAdjust="spacingAndGlyphs" textLength="105" x="26" y="38.9951">Network map</text><!--cluster CN--><polygon fill="#FFFFFF" points="46,67,129,67,136,89.2969,874,89.2969,874,560,46,560,46,67" style="stroke: #000000; stroke-width: 1.5;"/><line style="stroke: #000000; stroke-width: 1.5;" x1="46" x2="136" y1="89.2969" y2="89.2969"/><text fill="#000000" font-family="sans-serif" font-size="14" font-weight="bold" lengthAdjust="spacingAndGlyphs" textLength="77" x="50" y="81.9951">Container</text><!--entity CA--><rect fill="#FFFFFF" height="36.2969" rx="35" ry="35" style="stroke: #000000; stroke-width: 1.5;" width="71" x="981.5" y="199"/><text fill="#000000" font-family="sans-serif" font-size="14" lengthAdjust="spacingAndGlyphs" textLength="51" x="991.5" y="221.9951">Loc: Ca</text><!--entity N17--><rect fill="#FFFFFF" height="45" rx="35" ry="35" style="stroke: #000000; stroke-width: 1.5;" width="59" x="892.5" y="499"/><svg x="902.5" y="509"><!--Generated by the Batik Graphics2D SVG Generator--><defs id="genericDefs"
  /><g
  ><g transform="scale(20,20) translate(0.2,0.8833)" style="font-size:1; text-rendering:geometricPrecision; color-rendering:optimizeQuality; image-rendering:optimizeQuality; font-family:&apos;jlm_cmmi10&apos;; color-interpolation:linearRGB;"
    ><path style="stroke:none;" d="M0.75 -0.5781 L0.6094 -0.0156 Q0.6094 0 0.6094 0 L0.6094 0 L0.5938 0 Q0.5938 0 0.5781 -0.0156 Q0.5781 -0.0156 0.5781 -0.0156 L0.3281 -0.6094 L0.3281 -0.625 L0.1875 -0.0938 Q0.1875 -0.0781 0.1875 -0.0781 Q0.1875 -0.0469 0.2344 -0.0312 Q0.2344 -0.0312 0.25 -0.0312 Q0.2656 -0.0312 0.2656 -0.0156 Q0.2656 0 0.25 0 L0.1562 0 L0.1562 0 L0.0469 0 L0.0469 0 Q0.0312 0 0.0312 -0.0156 Q0.0312 -0.0312 0.0625 -0.0312 Q0.1406 -0.0312 0.1562 -0.0781 Q0.1562 -0.0938 0.1562 -0.1094 L0.2969 -0.6406 Q0.2969 -0.6562 0.2344 -0.6562 Q0.2031 -0.6562 0.2031 -0.6562 Q0.2031 -0.6875 0.2188 -0.6875 L0.2344 -0.6875 L0.3594 -0.6875 Q0.3906 -0.6875 0.3906 -0.6719 Q0.3906 -0.6719 0.3906 -0.6562 L0.625 -0.1406 L0.7344 -0.5938 Q0.7344 -0.5938 0.7344 -0.6094 Q0.7344 -0.6562 0.6719 -0.6562 Q0.6406 -0.6562 0.6406 -0.6562 Q0.6406 -0.6875 0.6719 -0.6875 L0.7656 -0.6875 L0.7656 -0.6875 L0.8594 -0.6875 L0.875 -0.6875 Q0.875 -0.6875 0.875 -0.6719 Q0.875 -0.6562 0.8594 -0.6562 Q0.7812 -0.6562 0.7656 -0.6094 L0.7656 -0.6094 Q0.7656 -0.5938 0.75 -0.5781 Z"
    /></g
    ><g transform="matrix(20,0,0,20,0,0) translate(1.0035,1.0333) scale(0.7,0.7)" style="font-size:1; text-rendering:geometricPrecision; color-rendering:optimizeQuality; image-rendering:optimizeQuality; font-family:&apos;jlm_cmr10&apos;; color-interpolation:linearRGB;"
    ><path style="stroke:none;" d="M0.2969 -0.6406 L0.2969 -0.0781 Q0.2969 -0.0469 0.3125 -0.0469 Q0.3281 -0.0312 0.3906 -0.0312 L0.4219 -0.0312 L0.4219 0 Q0.3906 0 0.25 0 Q0.125 0 0.0938 0 L0.0938 -0.0312 L0.125 -0.0312 Q0.2031 -0.0312 0.2188 -0.0469 L0.2188 -0.0469 Q0.2188 -0.0625 0.2188 -0.0781 L0.2188 -0.5938 Q0.1719 -0.5781 0.0938 -0.5781 L0.0938 -0.6094 Q0.2031 -0.6094 0.2656 -0.6719 Q0.2969 -0.6719 0.2969 -0.6562 L0.2969 -0.6562 L0.2969 -0.6562 Q0.2969 -0.6562 0.2969 -0.6406 Z"
    /></g
    ><g transform="matrix(20,0,0,20,0,0) translate(1.3535,1.0333) scale(0.7,0.7)" style="font-size:1; text-rendering:geometricPrecision; color-rendering:optimizeQuality; image-rendering:optimizeQuality; font-family:&apos;jlm_cmr10&apos;; color-interpolation:linearRGB;"
    ><path style="stroke:none;" d="M0.4688 -0.6094 L0.3438 -0.4219 Q0.2969 -0.3594 0.2812 -0.25 Q0.2656 -0.1719 0.2656 -0.0781 L0.2656 -0.0312 Q0.2656 0.0156 0.2188 0.0156 Q0.1719 0.0156 0.1719 -0.0312 Q0.1719 -0.2031 0.2656 -0.375 L0.2969 -0.4062 L0.4062 -0.5625 L0.2031 -0.5625 Q0.1094 -0.5625 0.1094 -0.5625 Q0.0938 -0.5469 0.0781 -0.4688 L0.0625 -0.4688 L0.0938 -0.6719 L0.1094 -0.6719 Q0.125 -0.6562 0.125 -0.6562 L0.1406 -0.6562 L0.1406 -0.6562 Q0.1562 -0.6406 0.2344 -0.6406 L0.4844 -0.6406 Q0.4844 -0.625 0.4688 -0.6094 Z"
    /></g
  ></g
></svg
>
<!--entity N18--><rect fill="#FFFFFF" height="45" rx="35" ry="35" style="stroke: #000000; stroke-width: 1.5;" width="59" x="986.5" y="499"/><svg x="996.5" y="509"><!--Generated by the Batik Graphics2D SVG Generator--><defs id="genericDefs"
  /><g
  ><g transform="scale(20,20) translate(0.2,0.8833)" style="font-size:1; text-rendering:geometricPrecision; color-rendering:optimizeQuality; image-rendering:optimizeQuality; font-family:&apos;jlm_cmmi10&apos;; color-interpolation:linearRGB;"
    ><path style="stroke:none;" d="M0.75 -0.5781 L0.6094 -0.0156 Q0.6094 0 0.6094 0 L0.6094 0 L0.5938 0 Q0.5938 0 0.5781 -0.0156 Q0.5781 -0.0156 0.5781 -0.0156 L0.3281 -0.6094 L0.3281 -0.625 L0.1875 -0.0938 Q0.1875 -0.0781 0.1875 -0.0781 Q0.1875 -0.0469 0.2344 -0.0312 Q0.2344 -0.0312 0.25 -0.0312 Q0.2656 -0.0312 0.2656 -0.0156 Q0.2656 0 0.25 0 L0.1562 0 L0.1562 0 L0.0469 0 L0.0469 0 Q0.0312 0 0.0312 -0.0156 Q0.0312 -0.0312 0.0625 -0.0312 Q0.1406 -0.0312 0.1562 -0.0781 Q0.1562 -0.0938 0.1562 -0.1094 L0.2969 -0.6406 Q0.2969 -0.6562 0.2344 -0.6562 Q0.2031 -0.6562 0.2031 -0.6562 Q0.2031 -0.6875 0.2188 -0.6875 L0.2344 -0.6875 L0.3594 -0.6875 Q0.3906 -0.6875 0.3906 -0.6719 Q0.3906 -0.6719 0.3906 -0.6562 L0.625 -0.1406 L0.7344 -0.5938 Q0.7344 -0.5938 0.7344 -0.6094 Q0.7344 -0.6562 0.6719 -0.6562 Q0.6406 -0.6562 0.6406 -0.6562 Q0.6406 -0.6875 0.6719 -0.6875 L0.7656 -0.6875 L0.7656 -0.6875 L0.8594 -0.6875 L0.875 -0.6875 Q0.875 -0.6875 0.875 -0.6719 Q0.875 -0.6562 0.8594 -0.6562 Q0.7812 -0.6562 0.7656 -0.6094 L0.7656 -0.6094 Q0.7656 -0.5938 0.75 -0.5781 Z"
    /></g
    ><g transform="matrix(20,0,0,20,0,0) translate(1.0035,1.0333) scale(0.7,0.7)" style="font-size:1; text-rendering:geometricPrecision; color-rendering:optimizeQuality; image-rendering:optimizeQuality; font-family:&apos;jlm_cmr10&apos;; color-interpolation:linearRGB;"
    ><path style="stroke:none;" d="M0.2969 -0.6406 L0.2969 -0.0781 Q0.2969 -0.0469 0.3125 -0.0469 Q0.3281 -0.0312 0.3906 -0.0312 L0.4219 -0.0312 L0.4219 0 Q0.3906 0 0.25 0 Q0.125 0 0.0938 0 L0.0938 -0.0312 L0.125 -0.0312 Q0.2031 -0.0312 0.2188 -0.0469 L0.2188 -0.0469 Q0.2188 -0.0625 0.2188 -0.0781 L0.2188 -0.5938 Q0.1719 -0.5781 0.0938 -0.5781 L0.0938 -0.6094 Q0.2031 -0.6094 0.2656 -0.6719 Q0.2969 -0.6719 0.2969 -0.6562 L0.2969 -0.6562 L0.2969 -0.6562 Q0.2969 -0.6562 0.2969 -0.6406 Z"
    /></g
    ><g transform="matrix(20,0,0,20,0,0) translate(1.3535,1.0333) scale(0.7,0.7)" style="font-size:1; text-rendering:geometricPrecision; color-rendering:optimizeQuality; image-rendering:optimizeQuality; font-family:&apos;jlm_cmr10&apos;; color-interpolation:linearRGB;"
    ><path style="stroke:none;" d="M0.1562 -0.4531 L0.2812 -0.375 Q0.3906 -0.4375 0.3906 -0.5156 Q0.3906 -0.5781 0.3281 -0.625 Q0.2969 -0.6406 0.25 -0.6406 Q0.1719 -0.6406 0.1406 -0.5938 L0.1406 -0.5938 L0.1406 -0.5938 Q0.1094 -0.5625 0.1094 -0.5312 Q0.1094 -0.4844 0.1562 -0.4531 ZM0.3125 -0.3594 L0.3125 -0.3594 Q0.3906 -0.3125 0.4062 -0.2969 Q0.4062 -0.2969 0.4062 -0.2969 Q0.4531 -0.2344 0.4531 -0.1719 Q0.4531 -0.0781 0.3906 -0.0156 Q0.3281 0.0156 0.25 0.0156 Q0.1562 0.0156 0.0938 -0.0312 Q0.0469 -0.0781 0.0469 -0.1562 Q0.0469 -0.2656 0.1875 -0.3281 Q0.125 -0.375 0.1094 -0.3906 Q0.0625 -0.4375 0.0625 -0.5 Q0.0625 -0.5781 0.1406 -0.625 Q0.1875 -0.6719 0.25 -0.6719 Q0.3438 -0.6719 0.3906 -0.6094 Q0.4375 -0.5781 0.4375 -0.5156 Q0.4375 -0.4219 0.3125 -0.3594 ZM0.2031 -0.3125 L0.2031 -0.3125 Q0.0938 -0.25 0.0938 -0.1562 Q0.0938 -0.0781 0.1562 -0.0312 Q0.2031 0 0.25 0 Q0.3281 0 0.375 -0.0625 Q0.4062 -0.0938 0.4062 -0.125 Q0.4062 -0.1875 0.3438 -0.2344 Q0.3438 -0.2344 0.3281 -0.2344 L0.2031 -0.3125 Z"
    /></g
  ></g
></svg
>
<!--entity N19--><rect fill="#FFFFFF" height="45" rx="35" ry="35" style="stroke: #000000; stroke-width: 1.5;" width="59" x="893.5" y="296"/><svg x="903.5" y="306"><!--Generated by the Batik Graphics2D SVG Generator--><defs id="genericDefs"
  /><g
  ><g transform="scale(20,20) translate(0.2,0.8833)" style="font-size:1; text-rendering:geometricPrecision; color-rendering:optimizeQuality; image-rendering:optimizeQuality; font-family:&apos;jlm_cmmi10&apos;; color-interpolation:linearRGB;"
    ><path style="stroke:none;" d="M0.75 -0.5781 L0.6094 -0.0156 Q0.6094 0 0.6094 0 L0.6094 0 L0.5938 0 Q0.5938 0 0.5781 -0.0156 Q0.5781 -0.0156 0.5781 -0.0156 L0.3281 -0.6094 L0.3281 -0.625 L0.1875 -0.0938 Q0.1875 -0.0781 0.1875 -0.0781 Q0.1875 -0.0469 0.2344 -0.0312 Q0.2344 -0.0312 0.25 -0.0312 Q0.2656 -0.0312 0.2656 -0.0156 Q0.2656 0 0.25 0 L0.1562 0 L0.1562 0 L0.0469 0 L0.0469 0 Q0.0312 0 0.0312 -0.0156 Q0.0312 -0.0312 0.0625 -0.0312 Q0.1406 -0.0312 0.1562 -0.0781 Q0.1562 -0.0938 0.1562 -0.1094 L0.2969 -0.6406 Q0.2969 -0.6562 0.2344 -0.6562 Q0.2031 -0.6562 0.2031 -0.6562 Q0.2031 -0.6875 0.2188 -0.6875 L0.2344 -0.6875 L0.3594 -0.6875 Q0.3906 -0.6875 0.3906 -0.6719 Q0.3906 -0.6719 0.3906 -0.6562 L0.625 -0.1406 L0.7344 -0.5938 Q0.7344 -0.5938 0.7344 -0.6094 Q0.7344 -0.6562 0.6719 -0.6562 Q0.6406 -0.6562 0.6406 -0.6562 Q0.6406 -0.6875 0.6719 -0.6875 L0.7656 -0.6875 L0.7656 -0.6875 L0.8594 -0.6875 L0.875 -0.6875 Q0.875 -0.6875 0.875 -0.6719 Q0.875 -0.6562 0.8594 -0.6562 Q0.7812 -0.6562 0.7656 -0.6094 L0.7656 -0.6094 Q0.7656 -0.5938 0.75 -0.5781 Z"
    /></g
    ><g transform="matrix(20,0,0,20,0,0) translate(1.0035,1.0333) scale(0.7,0.7)" style="font-size:1; text-rendering:geometricPrecision; color-rendering:optimizeQuality; image-rendering:optimizeQuality; font-family:&apos;jlm_cmr10&apos;; color-interpolation:linearRGB;"
    ><path style="stroke:none;" d="M0.2969 -0.6406 L0.2969 -0.0781 Q0.2969 -0.0469 0.3125 -0.0469 Q0.3281 -0.0312 0.3906 -0.0312 L0.4219 -0.0312 L0.4219 0 Q0.3906 0 0.25 0 Q0.125 0 0.0938 0 L0.0938 -0.0312 L0.125 -0.0312 Q0.2031 -0.0312 0.2188 -0.0469 L0.2188 -0.0469 Q0.2188 -0.0625 0.2188 -0.0781 L0.2188 -0.5938 Q0.1719 -0.5781 0.0938 -0.5781 L0.0938 -0.6094 Q0.2031 -0.6094 0.2656 -0.6719 Q0.2969 -0.6719 0.2969 -0.6562 L0.2969 -0.6562 L0.2969 -0.6562 Q0.2969 -0.6562 0.2969 -0.6406 Z"
    /></g
    ><g transform="matrix(20,0,0,20,0,0) translate(1.3535,1.0333) scale(0.7,0.7)" style="font-size:1; text-rendering:geometricPrecision; color-rendering:optimizeQuality; image-rendering:optimizeQuality; font-family:&apos;jlm_cmr10&apos;; color-interpolation:linearRGB;"
    ><path style="stroke:none;" d="M0.3594 -0.3125 Q0.3281 -0.2188 0.2344 -0.2188 Q0.1562 -0.2188 0.0938 -0.2969 L0.0938 -0.2969 Q0.0469 -0.3594 0.0469 -0.4453 Q0.0469 -0.5312 0.0938 -0.5938 L0.1094 -0.6094 Q0.1719 -0.6719 0.25 -0.6719 Q0.3594 -0.6719 0.4062 -0.5625 Q0.4531 -0.4844 0.4531 -0.3281 Q0.4531 -0.1562 0.3594 -0.0625 Q0.2969 0.0156 0.2031 0.0156 Q0.1094 0.0156 0.0781 -0.0312 Q0.0625 -0.0625 0.0625 -0.0938 Q0.0625 -0.125 0.1094 -0.1406 Q0.1094 -0.1406 0.1094 -0.1406 Q0.1406 -0.1406 0.1562 -0.1094 Q0.1562 -0.0938 0.1562 -0.0938 Q0.1562 -0.0469 0.125 -0.0469 Q0.1094 -0.0469 0.1094 -0.0469 Q0.1406 0 0.2031 0 Q0.2812 0 0.3281 -0.0781 Q0.3594 -0.1562 0.3594 -0.2812 L0.3594 -0.3125 ZM0.25 -0.2344 Q0.3281 -0.2344 0.3594 -0.3281 Q0.3594 -0.375 0.3594 -0.4219 Q0.3594 -0.5156 0.3438 -0.5625 Q0.3281 -0.625 0.2656 -0.6406 Q0.2656 -0.6406 0.25 -0.6406 Q0.1875 -0.6406 0.1562 -0.5781 Q0.125 -0.5469 0.125 -0.4531 L0.125 -0.4375 Q0.125 -0.3438 0.1562 -0.2969 Q0.1875 -0.2344 0.25 -0.2344 Z"
    /></g
  ></g
></svg
>
<!--entity N20--><rect fill="#FFFFFF" height="45" rx="35" ry="35" style="stroke: #000000; stroke-width: 1.5;" width="59" x="987.5" y="296"/><svg x="997.5" y="306"><!--Generated by the Batik Graphics2D SVG Generator--><defs id="genericDefs"
  /><g
  ><g transform="scale(20,20) translate(0.2,0.8833)" style="font-size:1; text-rendering:geometricPrecision; color-rendering:optimizeQuality; image-rendering:optimizeQuality; font-family:&apos;jlm_cmmi10&apos;; color-interpolation:linearRGB;"
    ><path style="stroke:none;" d="M0.75 -0.5781 L0.6094 -0.0156 Q0.6094 0 0.6094 0 L0.6094 0 L0.5938 0 Q0.5938 0 0.5781 -0.0156 Q0.5781 -0.0156 0.5781 -0.0156 L0.3281 -0.6094 L0.3281 -0.625 L0.1875 -0.0938 Q0.1875 -0.0781 0.1875 -0.0781 Q0.1875 -0.0469 0.2344 -0.0312 Q0.2344 -0.0312 0.25 -0.0312 Q0.2656 -0.0312 0.2656 -0.0156 Q0.2656 0 0.25 0 L0.1562 0 L0.1562 0 L0.0469 0 L0.0469 0 Q0.0312 0 0.0312 -0.0156 Q0.0312 -0.0312 0.0625 -0.0312 Q0.1406 -0.0312 0.1562 -0.0781 Q0.1562 -0.0938 0.1562 -0.1094 L0.2969 -0.6406 Q0.2969 -0.6562 0.2344 -0.6562 Q0.2031 -0.6562 0.2031 -0.6562 Q0.2031 -0.6875 0.2188 -0.6875 L0.2344 -0.6875 L0.3594 -0.6875 Q0.3906 -0.6875 0.3906 -0.6719 Q0.3906 -0.6719 0.3906 -0.6562 L0.625 -0.1406 L0.7344 -0.5938 Q0.7344 -0.5938 0.7344 -0.6094 Q0.7344 -0.6562 0.6719 -0.6562 Q0.6406 -0.6562 0.6406 -0.6562 Q0.6406 -0.6875 0.6719 -0.6875 L0.7656 -0.6875 L0.7656 -0.6875 L0.8594 -0.6875 L0.875 -0.6875 Q0.875 -0.6875 0.875 -0.6719 Q0.875 -0.6562 0.8594 -0.6562 Q0.7812 -0.6562 0.7656 -0.6094 L0.7656 -0.6094 Q0.7656 -0.5938 0.75 -0.5781 Z"
    /></g
    ><g transform="matrix(20,0,0,20,0,0) translate(1.0035,1.0333) scale(0.7,0.7)" style="font-size:1; text-rendering:geometricPrecision; color-rendering:optimizeQuality; image-rendering:optimizeQuality; font-family:&apos;jlm_cmr10&apos;; color-interpolation:linearRGB;"
    ><path style="stroke:none;" d="M0.4531 -0.1719 L0.4531 -0.1719 L0.4219 0 L0.0469 0 Q0.0469 -0.0312 0.0625 -0.0312 L0.0625 -0.0312 L0.25 -0.25 Q0.3594 -0.375 0.3594 -0.4688 Q0.3594 -0.5625 0.2969 -0.6094 L0.2969 -0.6094 L0.2969 -0.6094 Q0.2656 -0.6406 0.2188 -0.6406 Q0.1562 -0.6406 0.1094 -0.5781 Q0.0938 -0.5625 0.0938 -0.5312 Q0.0938 -0.5312 0.1094 -0.5312 Q0.1406 -0.5312 0.1562 -0.5 L0.1562 -0.5 Q0.1562 -0.4844 0.1562 -0.4844 Q0.1562 -0.4375 0.1094 -0.4375 Q0.1094 -0.4219 0.1094 -0.4219 Q0.0625 -0.4219 0.0469 -0.4531 Q0.0469 -0.4688 0.0469 -0.4844 Q0.0469 -0.5625 0.1094 -0.6094 Q0.1562 -0.6719 0.2344 -0.6719 Q0.3438 -0.6719 0.4062 -0.5938 Q0.4375 -0.5469 0.4531 -0.4844 Q0.4531 -0.4844 0.4531 -0.4688 Q0.4531 -0.4062 0.3906 -0.3281 Q0.3594 -0.2969 0.2969 -0.25 L0.25 -0.1875 L0.2344 -0.1875 L0.125 -0.0781 L0.3125 -0.0781 Q0.3906 -0.0781 0.4062 -0.0781 Q0.4062 -0.0938 0.4219 -0.1719 L0.4531 -0.1719 Z"
    /></g
    ><g transform="matrix(20,0,0,20,0,0) translate(1.3535,1.0333) scale(0.7,0.7)" style="font-size:1; text-rendering:geometricPrecision; color-rendering:optimizeQuality; image-rendering:optimizeQuality; font-family:&apos;jlm_cmr10&apos;; color-interpolation:linearRGB;"
    ><path style="stroke:none;" d="M0.4531 -0.3125 Q0.4531 -0.1719 0.4219 -0.0938 Q0.3594 0.0156 0.25 0.0156 Q0.1562 0.0156 0.1094 -0.0469 Q0.0938 -0.0625 0.0781 -0.0781 Q0.0312 -0.1562 0.0312 -0.3125 Q0.0312 -0.4688 0.0781 -0.5469 Q0.125 -0.6562 0.2344 -0.6719 L0.25 -0.6719 Q0.3438 -0.6719 0.3906 -0.5938 L0.3906 -0.5938 Q0.4062 -0.5781 0.4219 -0.5469 Q0.4531 -0.4688 0.4531 -0.3125 ZM0.25 0 L0.25 0 Q0.3125 0 0.3438 -0.0625 Q0.3594 -0.0938 0.3594 -0.125 Q0.375 -0.1875 0.375 -0.3281 Q0.375 -0.4688 0.3594 -0.5312 Q0.3438 -0.625 0.2812 -0.6406 Q0.2656 -0.6406 0.25 -0.6406 Q0.1719 -0.6406 0.1406 -0.5781 Q0.1406 -0.5469 0.125 -0.5156 Q0.125 -0.4688 0.125 -0.3281 Q0.125 -0.1875 0.1406 -0.125 Q0.1562 -0.0312 0.2188 0 Q0.2344 0 0.25 0 Z"
    /></g
  ></g
></svg
>
<!--entity N21--><rect fill="#FFFFFF" height="45" rx="35" ry="35" style="stroke: #000000; stroke-width: 1.5;" width="59" x="1081.5" y="296"/><svg x="1091.5" y="306"><!--Generated by the Batik Graphics2D SVG Generator--><defs id="genericDefs"
  /><g
  ><g transform="scale(20,20) translate(0.2,0.8833)" style="font-size:1; text-rendering:geometricPrecision; color-rendering:optimizeQuality; image-rendering:optimizeQuality; font-family:&apos;jlm_cmmi10&apos;; color-interpolation:linearRGB;"
    ><path style="stroke:none;" d="M0.75 -0.5781 L0.6094 -0.0156 Q0.6094 0 0.6094 0 L0.6094 0 L0.5938 0 Q0.5938 0 0.5781 -0.0156 Q0.5781 -0.0156 0.5781 -0.0156 L0.3281 -0.6094 L0.3281 -0.625 L0.1875 -0.0938 Q0.1875 -0.0781 0.1875 -0.0781 Q0.1875 -0.0469 0.2344 -0.0312 Q0.2344 -0.0312 0.25 -0.0312 Q0.2656 -0.0312 0.2656 -0.0156 Q0.2656 0 0.25 0 L0.1562 0 L0.1562 0 L0.0469 0 L0.0469 0 Q0.0312 0 0.0312 -0.0156 Q0.0312 -0.0312 0.0625 -0.0312 Q0.1406 -0.0312 0.1562 -0.0781 Q0.1562 -0.0938 0.1562 -0.1094 L0.2969 -0.6406 Q0.2969 -0.6562 0.2344 -0.6562 Q0.2031 -0.6562 0.2031 -0.6562 Q0.2031 -0.6875 0.2188 -0.6875 L0.2344 -0.6875 L0.3594 -0.6875 Q0.3906 -0.6875 0.3906 -0.6719 Q0.3906 -0.6719 0.3906 -0.6562 L0.625 -0.1406 L0.7344 -0.5938 Q0.7344 -0.5938 0.7344 -0.6094 Q0.7344 -0.6562 0.6719 -0.6562 Q0.6406 -0.6562 0.6406 -0.6562 Q0.6406 -0.6875 0.6719 -0.6875 L0.7656 -0.6875 L0.7656 -0.6875 L0.8594 -0.6875 L0.875 -0.6875 Q0.875 -0.6875 0.875 -0.6719 Q0.875 -0.6562 0.8594 -0.6562 Q0.7812 -0.6562 0.7656 -0.6094 L0.7656 -0.6094 Q0.7656 -0.5938 0.75 -0.5781 Z"
    /></g
    ><g transform="matrix(20,0,0,20,0,0) translate(1.0035,1.0333) scale(0.7,0.7)" style="font-size:1; text-rendering:geometricPrecision; color-rendering:optimizeQuality; image-rendering:optimizeQuality; font-family:&apos;jlm_cmr10&apos;; color-interpolation:linearRGB;"
    ><path style="stroke:none;" d="M0.4531 -0.1719 L0.4531 -0.1719 L0.4219 0 L0.0469 0 Q0.0469 -0.0312 0.0625 -0.0312 L0.0625 -0.0312 L0.25 -0.25 Q0.3594 -0.375 0.3594 -0.4688 Q0.3594 -0.5625 0.2969 -0.6094 L0.2969 -0.6094 L0.2969 -0.6094 Q0.2656 -0.6406 0.2188 -0.6406 Q0.1562 -0.6406 0.1094 -0.5781 Q0.0938 -0.5625 0.0938 -0.5312 Q0.0938 -0.5312 0.1094 -0.5312 Q0.1406 -0.5312 0.1562 -0.5 L0.1562 -0.5 Q0.1562 -0.4844 0.1562 -0.4844 Q0.1562 -0.4375 0.1094 -0.4375 Q0.1094 -0.4219 0.1094 -0.4219 Q0.0625 -0.4219 0.0469 -0.4531 Q0.0469 -0.4688 0.0469 -0.4844 Q0.0469 -0.5625 0.1094 -0.6094 Q0.1562 -0.6719 0.2344 -0.6719 Q0.3438 -0.6719 0.4062 -0.5938 Q0.4375 -0.5469 0.4531 -0.4844 Q0.4531 -0.4844 0.4531 -0.4688 Q0.4531 -0.4062 0.3906 -0.3281 Q0.3594 -0.2969 0.2969 -0.25 L0.25 -0.1875 L0.2344 -0.1875 L0.125 -0.0781 L0.3125 -0.0781 Q0.3906 -0.0781 0.4062 -0.0781 Q0.4062 -0.0938 0.4219 -0.1719 L0.4531 -0.1719 Z"
    /></g
    ><g transform="matrix(20,0,0,20,0,0) translate(1.3535,1.0333) scale(0.7,0.7)" style="font-size:1; text-rendering:geometricPrecision; color-rendering:optimizeQuality; image-rendering:optimizeQuality; font-family:&apos;jlm_cmr10&apos;; color-interpolation:linearRGB;"
    ><path style="stroke:none;" d="M0.2969 -0.6406 L0.2969 -0.0781 Q0.2969 -0.0469 0.3125 -0.0469 Q0.3281 -0.0312 0.3906 -0.0312 L0.4219 -0.0312 L0.4219 0 Q0.3906 0 0.25 0 Q0.125 0 0.0938 0 L0.0938 -0.0312 L0.125 -0.0312 Q0.2031 -0.0312 0.2188 -0.0469 L0.2188 -0.0469 Q0.2188 -0.0625 0.2188 -0.0781 L0.2188 -0.5938 Q0.1719 -0.5781 0.0938 -0.5781 L0.0938 -0.6094 Q0.2031 -0.6094 0.2656 -0.6719 Q0.2969 -0.6719 0.2969 -0.6562 L0.2969 -0.6562 L0.2969 -0.6562 Q0.2969 -0.6562 0.2969 -0.6406 Z"
    /></g
  ></g
></svg
>
<!--entity N22--><rect fill="#FFFFFF" height="45" rx="35" ry="35" style="stroke: #000000; stroke-width: 1.5;" width="59" x="1175.5" y="296"/><svg x="1185.5" y="306"><!--Generated by the Batik Graphics2D SVG Generator--><defs id="genericDefs"
  /><g
  ><g transform="scale(20,20) translate(0.2,0.8833)" style="font-size:1; text-rendering:geometricPrecision; color-rendering:optimizeQuality; image-rendering:optimizeQuality; font-family:&apos;jlm_cmmi10&apos;; color-interpolation:linearRGB;"
    ><path style="stroke:none;" d="M0.75 -0.5781 L0.6094 -0.0156 Q0.6094 0 0.6094 0 L0.6094 0 L0.5938 0 Q0.5938 0 0.5781 -0.0156 Q0.5781 -0.0156 0.5781 -0.0156 L0.3281 -0.6094 L0.3281 -0.625 L0.1875 -0.0938 Q0.1875 -0.0781 0.1875 -0.0781 Q0.1875 -0.0469 0.2344 -0.0312 Q0.2344 -0.0312 0.25 -0.0312 Q0.2656 -0.0312 0.2656 -0.0156 Q0.2656 0 0.25 0 L0.1562 0 L0.1562 0 L0.0469 0 L0.0469 0 Q0.0312 0 0.0312 -0.0156 Q0.0312 -0.0312 0.0625 -0.0312 Q0.1406 -0.0312 0.1562 -0.0781 Q0.1562 -0.0938 0.1562 -0.1094 L0.2969 -0.6406 Q0.2969 -0.6562 0.2344 -0.6562 Q0.2031 -0.6562 0.2031 -0.6562 Q0.2031 -0.6875 0.2188 -0.6875 L0.2344 -0.6875 L0.3594 -0.6875 Q0.3906 -0.6875 0.3906 -0.6719 Q0.3906 -0.6719 0.3906 -0.6562 L0.625 -0.1406 L0.7344 -0.5938 Q0.7344 -0.5938 0.7344 -0.6094 Q0.7344 -0.6562 0.6719 -0.6562 Q0.6406 -0.6562 0.6406 -0.6562 Q0.6406 -0.6875 0.6719 -0.6875 L0.7656 -0.6875 L0.7656 -0.6875 L0.8594 -0.6875 L0.875 -0.6875 Q0.875 -0.6875 0.875 -0.6719 Q0.875 -0.6562 0.8594 -0.6562 Q0.7812 -0.6562 0.7656 -0.6094 L0.7656 -0.6094 Q0.7656 -0.5938 0.75 -0.5781 Z"
    /></g
    ><g transform="matrix(20,0,0,20,0,0) translate(1.0035,1.0333) scale(0.7,0.7)" style="font-size:1; text-rendering:geometricPrecision; color-rendering:optimizeQuality; image-rendering:optimizeQuality; font-family:&apos;jlm_cmr10&apos;; color-interpolation:linearRGB;"
    ><path style="stroke:none;" d="M0.4531 -0.1719 L0.4531 -0.1719 L0.4219 0 L0.0469 0 Q0.0469 -0.0312 0.0625 -0.0312 L0.0625 -0.0312 L0.25 -0.25 Q0.3594 -0.375 0.3594 -0.4688 Q0.3594 -0.5625 0.2969 -0.6094 L0.2969 -0.6094 L0.2969 -0.6094 Q0.2656 -0.6406 0.2188 -0.6406 Q0.1562 -0.6406 0.1094 -0.5781 Q0.0938 -0.5625 0.0938 -0.5312 Q0.0938 -0.5312 0.1094 -0.5312 Q0.1406 -0.5312 0.1562 -0.5 L0.1562 -0.5 Q0.1562 -0.4844 0.1562 -0.4844 Q0.1562 -0.4375 0.1094 -0.4375 Q0.1094 -0.4219 0.1094 -0.4219 Q0.0625 -0.4219 0.0469 -0.4531 Q0.0469 -0.4688 0.0469 -0.4844 Q0.0469 -0.5625 0.1094 -0.6094 Q0.1562 -0.6719 0.2344 -0.6719 Q0.3438 -0.6719 0.4062 -0.5938 Q0.4375 -0.5469 0.4531 -0.4844 Q0.4531 -0.4844 0.4531 -0.4688 Q0.4531 -0.4062 0.3906 -0.3281 Q0.3594 -0.2969 0.2969 -0.25 L0.25 -0.1875 L0.2344 -0.1875 L0.125 -0.0781 L0.3125 -0.0781 Q0.3906 -0.0781 0.4062 -0.0781 Q0.4062 -0.0938 0.4219 -0.1719 L0.4531 -0.1719 Z"
    /></g
    ><g transform="matrix(20,0,0,20,0,0) translate(1.3535,1.0333) scale(0.7,0.7)" style="font-size:1; text-rendering:geometricPrecision; color-rendering:optimizeQuality; image-rendering:optimizeQuality; font-family:&apos;jlm_cmr10&apos;; color-interpolation:linearRGB;"
    ><path style="stroke:none;" d="M0.4531 -0.1719 L0.4531 -0.1719 L0.4219 0 L0.0469 0 Q0.0469 -0.0312 0.0625 -0.0312 L0.0625 -0.0312 L0.25 -0.25 Q0.3594 -0.375 0.3594 -0.4688 Q0.3594 -0.5625 0.2969 -0.6094 L0.2969 -0.6094 L0.2969 -0.6094 Q0.2656 -0.6406 0.2188 -0.6406 Q0.1562 -0.6406 0.1094 -0.5781 Q0.0938 -0.5625 0.0938 -0.5312 Q0.0938 -0.5312 0.1094 -0.5312 Q0.1406 -0.5312 0.1562 -0.5 L0.1562 -0.5 Q0.1562 -0.4844 0.1562 -0.4844 Q0.1562 -0.4375 0.1094 -0.4375 Q0.1094 -0.4219 0.1094 -0.4219 Q0.0625 -0.4219 0.0469 -0.4531 Q0.0469 -0.4688 0.0469 -0.4844 Q0.0469 -0.5625 0.1094 -0.6094 Q0.1562 -0.6719 0.2344 -0.6719 Q0.3438 -0.6719 0.4062 -0.5938 Q0.4375 -0.5469 0.4531 -0.4844 Q0.4531 -0.4844 0.4531 -0.4688 Q0.4531 -0.4062 0.3906 -0.3281 Q0.3594 -0.2969 0.2969 -0.25 L0.25 -0.1875 L0.2344 -0.1875 L0.125 -0.0781 L0.3125 -0.0781 Q0.3906 -0.0781 0.4062 -0.0781 Q0.4062 -0.0938 0.4219 -0.1719 L0.4531 -0.1719 Z"
    /></g
  ></g
></svg
>
<!--entity root--><rect fill="#90EE90" height="36.2969" rx="35" ry="35" style="stroke: #000000; stroke-width: 1.5;" width="48" x="796" y="102"/><text fill="#000000" font-family="sans-serif" font-size="14" lengthAdjust="spacingAndGlyphs" textLength="28" x="806" y="124.9951">root</text><!--entity US--><rect fill="#90EE90" height="36.2969" rx="35" ry="35" style="stroke: #000000; stroke-width: 1.5;" width="72" x="226" y="199"/><text fill="#000000" font-family="sans-serif" font-size="14" lengthAdjust="spacingAndGlyphs" textLength="52" x="236" y="221.9951">Loc: US</text><!--entity EU--><rect fill="#90EE90" height="36.2969" rx="35" ry="35" style="stroke: #000000; stroke-width: 1.5;" width="72" x="635" y="199"/><text fill="#000000" font-family="sans-serif" font-size="14" lengthAdjust="spacingAndGlyphs" textLength="52" x="645" y="221.9951">Loc: EU</text><!--entity RU--><rect fill="#FFFFFF" height="36.2969" rx="35" ry="35" style="stroke: #000000; stroke-width: 1.5;" width="73" x="321.5" y="402"/><text fill="#000000" font-family="sans-serif" font-size="14" lengthAdjust="spacingAndGlyphs" textLength="53" x="331.5" y="424.9951">Loc: RU</text><!--entity JA--><rect fill="#F08080" height="36.2969" rx="35" ry="35" style="stroke: #000000; stroke-width: 1.5;" width="64" x="794" y="402"/><text fill="#000000" font-family="sans-serif" font-size="14" lengthAdjust="spacingAndGlyphs" textLength="44" x="804" y="424.9951">Loc: Ja</text><!--entity N1--><rect fill="#FFFFFF" height="45" rx="35" ry="35" style="stroke: #000000; stroke-width: 1.5;" width="52" x="62" y="296"/><svg x="72" y="306"><!--Generated by the Batik Graphics2D SVG Generator--><defs id="genericDefs"
  /><g
  ><g transform="scale(20,20) translate(0.2,0.8833)" style="font-size:1; text-rendering:geometricPrecision; color-rendering:optimizeQuality; image-rendering:optimizeQuality; font-family:&apos;jlm_cmmi10&apos;; color-interpolation:linearRGB;"
    ><path style="stroke:none;" d="M0.75 -0.5781 L0.6094 -0.0156 Q0.6094 0 0.6094 0 L0.6094 0 L0.5938 0 Q0.5938 0 0.5781 -0.0156 Q0.5781 -0.0156 0.5781 -0.0156 L0.3281 -0.6094 L0.3281 -0.625 L0.1875 -0.0938 Q0.1875 -0.0781 0.1875 -0.0781 Q0.1875 -0.0469 0.2344 -0.0312 Q0.2344 -0.0312 0.25 -0.0312 Q0.2656 -0.0312 0.2656 -0.0156 Q0.2656 0 0.25 0 L0.1562 0 L0.1562 0 L0.0469 0 L0.0469 0 Q0.0312 0 0.0312 -0.0156 Q0.0312 -0.0312 0.0625 -0.0312 Q0.1406 -0.0312 0.1562 -0.0781 Q0.1562 -0.0938 0.1562 -0.1094 L0.2969 -0.6406 Q0.2969 -0.6562 0.2344 -0.6562 Q0.2031 -0.6562 0.2031 -0.6562 Q0.2031 -0.6875 0.2188 -0.6875 L0.2344 -0.6875 L0.3594 -0.6875 Q0.3906 -0.6875 0.3906 -0.6719 Q0.3906 -0.6719 0.3906 -0.6562 L0.625 -0.1406 L0.7344 -0.5938 Q0.7344 -0.5938 0.7344 -0.6094 Q0.7344 -0.6562 0.6719 -0.6562 Q0.6406 -0.6562 0.6406 -0.6562 Q0.6406 -0.6875 0.6719 -0.6875 L0.7656 -0.6875 L0.7656 -0.6875 L0.8594 -0.6875 L0.875 -0.6875 Q0.875 -0.6875 0.875 -0.6719 Q0.875 -0.6562 0.8594 -0.6562 Q0.7812 -0.6562 0.7656 -0.6094 L0.7656 -0.6094 Q0.7656 -0.5938 0.75 -0.5781 Z"
    /></g
    ><g transform="matrix(20,0,0,20,0,0) translate(1.0035,1.0333) scale(0.7,0.7)" style="font-size:1; text-rendering:geometricPrecision; color-rendering:optimizeQuality; image-rendering:optimizeQuality; font-family:&apos;jlm_cmr10&apos;; color-interpolation:linearRGB;"
    ><path style="stroke:none;" d="M0.2969 -0.6406 L0.2969 -0.0781 Q0.2969 -0.0469 0.3125 -0.0469 Q0.3281 -0.0312 0.3906 -0.0312 L0.4219 -0.0312 L0.4219 0 Q0.3906 0 0.25 0 Q0.125 0 0.0938 0 L0.0938 -0.0312 L0.125 -0.0312 Q0.2031 -0.0312 0.2188 -0.0469 L0.2188 -0.0469 Q0.2188 -0.0625 0.2188 -0.0781 L0.2188 -0.5938 Q0.1719 -0.5781 0.0938 -0.5781 L0.0938 -0.6094 Q0.2031 -0.6094 0.2656 -0.6719 Q0.2969 -0.6719 0.2969 -0.6562 L0.2969 -0.6562 L0.2969 -0.6562 Q0.2969 -0.6562 0.2969 -0.6406 Z"
    /></g
  ></g
></svg
>
<!--entity N2--><rect fill="#90EE90" height="45" rx="35" ry="35" style="stroke: #000000; stroke-width: 1.5;" width="52" x="149" y="296"/><svg x="159" y="306"><!--Generated by the Batik Graphics2D SVG Generator--><defs id="genericDefs"
  /><g
  ><g transform="scale(20,20) translate(0.2,0.8833)" style="font-size:1; text-rendering:geometricPrecision; color-rendering:optimizeQuality; image-rendering:optimizeQuality; font-family:&apos;jlm_cmmi10&apos;; color-interpolation:linearRGB;"
    ><path style="stroke:none;" d="M0.75 -0.5781 L0.6094 -0.0156 Q0.6094 0 0.6094 0 L0.6094 0 L0.5938 0 Q0.5938 0 0.5781 -0.0156 Q0.5781 -0.0156 0.5781 -0.0156 L0.3281 -0.6094 L0.3281 -0.625 L0.1875 -0.0938 Q0.1875 -0.0781 0.1875 -0.0781 Q0.1875 -0.0469 0.2344 -0.0312 Q0.2344 -0.0312 0.25 -0.0312 Q0.2656 -0.0312 0.2656 -0.0156 Q0.2656 0 0.25 0 L0.1562 0 L0.1562 0 L0.0469 0 L0.0469 0 Q0.0312 0 0.0312 -0.0156 Q0.0312 -0.0312 0.0625 -0.0312 Q0.1406 -0.0312 0.1562 -0.0781 Q0.1562 -0.0938 0.1562 -0.1094 L0.2969 -0.6406 Q0.2969 -0.6562 0.2344 -0.6562 Q0.2031 -0.6562 0.2031 -0.6562 Q0.2031 -0.6875 0.2188 -0.6875 L0.2344 -0.6875 L0.3594 -0.6875 Q0.3906 -0.6875 0.3906 -0.6719 Q0.3906 -0.6719 0.3906 -0.6562 L0.625 -0.1406 L0.7344 -0.5938 Q0.7344 -0.5938 0.7344 -0.6094 Q0.7344 -0.6562 0.6719 -0.6562 Q0.6406 -0.6562 0.6406 -0.6562 Q0.6406 -0.6875 0.6719 -0.6875 L0.7656 -0.6875 L0.7656 -0.6875 L0.8594 -0.6875 L0.875 -0.6875 Q0.875 -0.6875 0.875 -0.6719 Q0.875 -0.6562 0.8594 -0.6562 Q0.7812 -0.6562 0.7656 -0.6094 L0.7656 -0.6094 Q0.7656 -0.5938 0.75 -0.5781 Z"
    /></g
    ><g transform="matrix(20,0,0,20,0,0) translate(1.0035,1.0333) scale(0.7,0.7)" style="font-size:1; text-rendering:geometricPrecision; color-rendering:optimizeQuality; image-rendering:optimizeQuality; font-family:&apos;jlm_cmr10&apos;; color-interpolation:linearRGB;"
    ><path style="stroke:none;" d="M0.4531 -0.1719 L0.4531 -0.1719 L0.4219 0 L0.0469 0 Q0.0469 -0.0312 0.0625 -0.0312 L0.0625 -0.0312 L0.25 -0.25 Q0.3594 -0.375 0.3594 -0.4688 Q0.3594 -0.5625 0.2969 -0.6094 L0.2969 -0.6094 L0.2969 -0.6094 Q0.2656 -0.6406 0.2188 -0.6406 Q0.1562 -0.6406 0.1094 -0.5781 Q0.0938 -0.5625 0.0938 -0.5312 Q0.0938 -0.5312 0.1094 -0.5312 Q0.1406 -0.5312 0.1562 -0.5 L0.1562 -0.5 Q0.1562 -0.4844 0.1562 -0.4844 Q0.1562 -0.4375 0.1094 -0.4375 Q0.1094 -0.4219 0.1094 -0.4219 Q0.0625 -0.4219 0.0469 -0.4531 Q0.0469 -0.4688 0.0469 -0.4844 Q0.0469 -0.5625 0.1094 -0.6094 Q0.1562 -0.6719 0.2344 -0.6719 Q0.3438 -0.6719 0.4062 -0.5938 Q0.4375 -0.5469 0.4531 -0.4844 Q0.4531 -0.4844 0.4531 -0.4688 Q0.4531 -0.4062 0.3906 -0.3281 Q0.3594 -0.2969 0.2969 -0.25 L0.25 -0.1875 L0.2344 -0.1875 L0.125 -0.0781 L0.3125 -0.0781 Q0.3906 -0.0781 0.4062 -0.0781 Q0.4062 -0.0938 0.4219 -0.1719 L0.4531 -0.1719 Z"
    /></g
  ></g
></svg
>
<!--entity N3--><rect fill="#FFFFFF" height="45" rx="35" ry="35" style="stroke: #000000; stroke-width: 1.5;" width="52" x="236" y="296"/><svg x="246" y="306"><!--Generated by the Batik Graphics2D SVG Generator--><defs id="genericDefs"
  /><g
  ><g transform="scale(20,20) translate(0.2,0.8833)" style="font-size:1; text-rendering:geometricPrecision; color-rendering:optimizeQuality; image-rendering:optimizeQuality; font-family:&apos;jlm_cmmi10&apos;; color-interpolation:linearRGB;"
    ><path style="stroke:none;" d="M0.75 -0.5781 L0.6094 -0.0156 Q0.6094 0 0.6094 0 L0.6094 0 L0.5938 0 Q0.5938 0 0.5781 -0.0156 Q0.5781 -0.0156 0.5781 -0.0156 L0.3281 -0.6094 L0.3281 -0.625 L0.1875 -0.0938 Q0.1875 -0.0781 0.1875 -0.0781 Q0.1875 -0.0469 0.2344 -0.0312 Q0.2344 -0.0312 0.25 -0.0312 Q0.2656 -0.0312 0.2656 -0.0156 Q0.2656 0 0.25 0 L0.1562 0 L0.1562 0 L0.0469 0 L0.0469 0 Q0.0312 0 0.0312 -0.0156 Q0.0312 -0.0312 0.0625 -0.0312 Q0.1406 -0.0312 0.1562 -0.0781 Q0.1562 -0.0938 0.1562 -0.1094 L0.2969 -0.6406 Q0.2969 -0.6562 0.2344 -0.6562 Q0.2031 -0.6562 0.2031 -0.6562 Q0.2031 -0.6875 0.2188 -0.6875 L0.2344 -0.6875 L0.3594 -0.6875 Q0.3906 -0.6875 0.3906 -0.6719 Q0.3906 -0.6719 0.3906 -0.6562 L0.625 -0.1406 L0.7344 -0.5938 Q0.7344 -0.5938 0.7344 -0.6094 Q0.7344 -0.6562 0.6719 -0.6562 Q0.6406 -0.6562 0.6406 -0.6562 Q0.6406 -0.6875 0.6719 -0.6875 L0.7656 -0.6875 L0.7656 -0.6875 L0.8594 -0.6875 L0.875 -0.6875 Q0.875 -0.6875 0.875 -0.6719 Q0.875 -0.6562 0.8594 -0.6562 Q0.7812 -0.6562 0.7656 -0.6094 L0.7656 -0.6094 Q0.7656 -0.5938 0.75 -0.5781 Z"
    /></g
    ><g transform="matrix(20,0,0,20,0,0) translate(1.0035,1.0333) scale(0.7,0.7)" style="font-size:1; text-rendering:geometricPrecision; color-rendering:optimizeQuality; image-rendering:optimizeQuality; font-family:&apos;jlm_cmr10&apos;; color-interpolation:linearRGB;"
    ><path style="stroke:none;" d="M0.2969 -0.3594 L0.2969 -0.3594 Q0.3906 -0.3281 0.4375 -0.25 Q0.4531 -0.2188 0.4531 -0.1719 Q0.4531 -0.0938 0.3906 -0.0312 Q0.3281 0.0156 0.25 0.0156 Q0.1406 0.0156 0.0781 -0.0312 Q0.0469 -0.0781 0.0469 -0.1406 Q0.0469 -0.1875 0.0781 -0.1875 Q0.0938 -0.1875 0.0938 -0.1875 Q0.1406 -0.1875 0.1562 -0.1562 Q0.1562 -0.1406 0.1562 -0.1406 Q0.1562 -0.0938 0.125 -0.0781 Q0.1094 -0.0781 0.0938 -0.0781 Q0.125 -0.0156 0.2188 -0.0156 Q0.2344 0 0.2344 0 Q0.3125 0 0.3281 -0.0625 Q0.3594 -0.1094 0.3594 -0.1719 Q0.3594 -0.2969 0.2812 -0.3281 Q0.25 -0.3438 0.2344 -0.3438 L0.1875 -0.3438 Q0.1719 -0.3438 0.1719 -0.3438 Q0.1719 -0.3594 0.1875 -0.3594 Q0.2031 -0.3594 0.2188 -0.3594 Q0.2656 -0.3594 0.2969 -0.4062 L0.2969 -0.4062 L0.2969 -0.4062 L0.2969 -0.4062 L0.2969 -0.4062 L0.3125 -0.4219 Q0.3438 -0.4688 0.3438 -0.5312 Q0.3438 -0.625 0.2656 -0.6406 Q0.25 -0.6406 0.2344 -0.6406 Q0.1719 -0.6406 0.125 -0.5938 Q0.1094 -0.5938 0.1094 -0.5781 Q0.1719 -0.5781 0.1719 -0.5312 Q0.1719 -0.5 0.1406 -0.4844 Q0.125 -0.4844 0.125 -0.4844 Q0.0781 -0.4844 0.0781 -0.5156 L0.0781 -0.5156 L0.0781 -0.5156 Q0.0625 -0.5156 0.0625 -0.5312 Q0.0625 -0.5938 0.1406 -0.6406 Q0.1875 -0.6719 0.25 -0.6719 Q0.3438 -0.6719 0.3906 -0.6094 L0.3906 -0.6094 Q0.4375 -0.5781 0.4375 -0.5312 Q0.4375 -0.4375 0.3594 -0.3906 Q0.3281 -0.3594 0.2969 -0.3594 Z"
    /></g
  ></g
></svg
>
<!--entity N4--><rect fill="#90EE90" height="45" rx="35" ry="35" style="stroke: #000000; stroke-width: 1.5;" width="52" x="323" y="296"/><svg x="333" y="306"><!--Generated by the Batik Graphics2D SVG Generator--><defs id="genericDefs"
  /><g
  ><g transform="scale(20,20) translate(0.2,0.8833)" style="font-size:1; text-rendering:geometricPrecision; color-rendering:optimizeQuality; image-rendering:optimizeQuality; font-family:&apos;jlm_cmmi10&apos;; color-interpolation:linearRGB;"
    ><path style="stroke:none;" d="M0.75 -0.5781 L0.6094 -0.0156 Q0.6094 0 0.6094 0 L0.6094 0 L0.5938 0 Q0.5938 0 0.5781 -0.0156 Q0.5781 -0.0156 0.5781 -0.0156 L0.3281 -0.6094 L0.3281 -0.625 L0.1875 -0.0938 Q0.1875 -0.0781 0.1875 -0.0781 Q0.1875 -0.0469 0.2344 -0.0312 Q0.2344 -0.0312 0.25 -0.0312 Q0.2656 -0.0312 0.2656 -0.0156 Q0.2656 0 0.25 0 L0.1562 0 L0.1562 0 L0.0469 0 L0.0469 0 Q0.0312 0 0.0312 -0.0156 Q0.0312 -0.0312 0.0625 -0.0312 Q0.1406 -0.0312 0.1562 -0.0781 Q0.1562 -0.0938 0.1562 -0.1094 L0.2969 -0.6406 Q0.2969 -0.6562 0.2344 -0.6562 Q0.2031 -0.6562 0.2031 -0.6562 Q0.2031 -0.6875 0.2188 -0.6875 L0.2344 -0.6875 L0.3594 -0.6875 Q0.3906 -0.6875 0.3906 -0.6719 Q0.3906 -0.6719 0.3906 -0.6562 L0.625 -0.1406 L0.7344 -0.5938 Q0.7344 -0.5938 0.7344 -0.6094 Q0.7344 -0.6562 0.6719 -0.6562 Q0.6406 -0.6562 0.6406 -0.6562 Q0.6406 -0.6875 0.6719 -0.6875 L0.7656 -0.6875 L0.7656 -0.6875 L0.8594 -0.6875 L0.875 -0.6875 Q0.875 -0.6875 0.875 -0.6719 Q0.875 -0.6562 0.8594 -0.6562 Q0.7812 -0.6562 0.7656 -0.6094 L0.7656 -0.6094 Q0.7656 -0.5938 0.75 -0.5781 Z"
    /></g
    ><g transform="matrix(20,0,0,20,0,0) translate(1.0035,1.0333) scale(0.7,0.7)" style="font-size:1; text-rendering:geometricPrecision; color-rendering:optimizeQuality; image-rendering:optimizeQuality; font-family:&apos;jlm_cmr10&apos;; color-interpolation:linearRGB;"
    ><path style="stroke:none;" d="M0.0312 -0.1719 L0.0312 -0.2031 L0.3281 -0.6719 Q0.3438 -0.6719 0.3594 -0.6719 Q0.375 -0.6719 0.375 -0.6719 L0.375 -0.6562 L0.375 -0.2031 L0.4688 -0.2031 L0.4688 -0.1719 L0.375 -0.1719 L0.375 -0.0781 Q0.375 -0.0469 0.3906 -0.0469 Q0.3906 -0.0312 0.4531 -0.0312 L0.4688 -0.0312 L0.4688 0 Q0.4219 0 0.3281 0 Q0.2344 0 0.2031 0 L0.2031 -0.0312 L0.2188 -0.0312 Q0.2812 -0.0312 0.2969 -0.0469 Q0.2969 -0.0625 0.2969 -0.0781 L0.2969 -0.1719 L0.0312 -0.1719 ZM0.2969 -0.2031 L0.2969 -0.5625 L0.0625 -0.2031 L0.2969 -0.2031 Z"
    /></g
  ></g
></svg
>
<!--entity N5--><rect fill="#90EE90" height="45" rx="35" ry="35" style="stroke: #000000; stroke-width: 1.5;" width="52" x="471" y="296"/><svg x="481" y="306"><!--Generated by the Batik Graphics2D SVG Generator--><defs id="genericDefs"
  /><g
  ><g transform="scale(20,20) translate(0.2,0.8833)" style="font-size:1; text-rendering:geometricPrecision; color-rendering:optimizeQuality; image-rendering:optimizeQuality; font-family:&apos;jlm_cmmi10&apos;; color-interpolation:linearRGB;"
    ><path style="stroke:none;" d="M0.75 -0.5781 L0.6094 -0.0156 Q0.6094 0 0.6094 0 L0.6094 0 L0.5938 0 Q0.5938 0 0.5781 -0.0156 Q0.5781 -0.0156 0.5781 -0.0156 L0.3281 -0.6094 L0.3281 -0.625 L0.1875 -0.0938 Q0.1875 -0.0781 0.1875 -0.0781 Q0.1875 -0.0469 0.2344 -0.0312 Q0.2344 -0.0312 0.25 -0.0312 Q0.2656 -0.0312 0.2656 -0.0156 Q0.2656 0 0.25 0 L0.1562 0 L0.1562 0 L0.0469 0 L0.0469 0 Q0.0312 0 0.0312 -0.0156 Q0.0312 -0.0312 0.0625 -0.0312 Q0.1406 -0.0312 0.1562 -0.0781 Q0.1562 -0.0938 0.1562 -0.1094 L0.2969 -0.6406 Q0.2969 -0.6562 0.2344 -0.6562 Q0.2031 -0.6562 0.2031 -0.6562 Q0.2031 -0.6875 0.2188 -0.6875 L0.2344 -0.6875 L0.3594 -0.6875 Q0.3906 -0.6875 0.3906 -0.6719 Q0.3906 -0.6719 0.3906 -0.6562 L0.625 -0.1406 L0.7344 -0.5938 Q0.7344 -0.5938 0.7344 -0.6094 Q0.7344 -0.6562 0.6719 -0.6562 Q0.6406 -0.6562 0.6406 -0.6562 Q0.6406 -0.6875 0.6719 -0.6875 L0.7656 -0.6875 L0.7656 -0.6875 L0.8594 -0.6875 L0.875 -0.6875 Q0.875 -0.6875 0.875 -0.6719 Q0.875 -0.6562 0.8594 -0.6562 Q0.7812 -0.6562 0.7656 -0.6094 L0.7656 -0.6094 Q0.7656 -0.5938 0.75 -0.5781 Z"
    /></g
    ><g transform="matrix(20,0,0,20,0,0) translate(1.0035,1.0333) scale(0.7,0.7)" style="font-size:1; text-rendering:geometricPrecision; color-rendering:optimizeQuality; image-rendering:optimizeQuality; font-family:&apos;jlm_cmr10&apos;; color-interpolation:linearRGB;"
    ><path style="stroke:none;" d="M0.4531 -0.2031 L0.4531 -0.2031 Q0.4531 -0.0938 0.375 -0.0312 Q0.3125 0.0156 0.2344 0.0156 Q0.1406 0.0156 0.0781 -0.0625 Q0.0469 -0.1094 0.0469 -0.1562 Q0.0469 -0.2031 0.0938 -0.2188 Q0.0938 -0.2188 0.0938 -0.2188 Q0.1406 -0.2188 0.1406 -0.1875 Q0.1562 -0.1719 0.1562 -0.1719 Q0.1562 -0.1406 0.125 -0.125 Q0.1094 -0.1094 0.0938 -0.1094 Q0.0938 -0.1094 0.0781 -0.125 Q0.0938 -0.0625 0.1562 -0.0312 Q0.1875 0 0.2344 0 Q0.2969 0 0.3438 -0.0781 Q0.3594 -0.1094 0.3594 -0.2031 Q0.3594 -0.2969 0.3438 -0.3281 Q0.3125 -0.3906 0.25 -0.3906 Q0.1719 -0.3906 0.125 -0.3281 Q0.125 -0.3125 0.1094 -0.3125 Q0.1094 -0.3125 0.0938 -0.3281 L0.0938 -0.3438 L0.0938 -0.6406 Q0.0938 -0.6562 0.1094 -0.6719 Q0.1094 -0.6719 0.125 -0.6562 Q0.1875 -0.6406 0.25 -0.6406 Q0.3281 -0.6406 0.3906 -0.6562 Q0.3906 -0.6719 0.4062 -0.6719 Q0.4062 -0.6719 0.4062 -0.6562 Q0.4062 -0.6406 0.375 -0.6094 Q0.3125 -0.5469 0.2188 -0.5469 Q0.1719 -0.5469 0.125 -0.5625 L0.125 -0.375 Q0.1875 -0.4219 0.2656 -0.4219 Q0.3438 -0.4219 0.4062 -0.3438 Q0.4531 -0.2812 0.4531 -0.2031 Z"
    /></g
  ></g
></svg
>
<!--entity N6--><rect fill="#90EE90" height="45" rx="35" ry="35" style="stroke: #000000; stroke-width: 1.5;" width="52" x="558" y="296"/><svg x="568" y="306"><!--Generated by the Batik Graphics2D SVG Generator--><defs id="genericDefs"
  /><g
  ><g transform="scale(20,20) translate(0.2,0.8833)" style="font-size:1; text-rendering:geometricPrecision; color-rendering:optimizeQuality; image-rendering:optimizeQuality; font-family:&apos;jlm_cmmi10&apos;; color-interpolation:linearRGB;"
    ><path style="stroke:none;" d="M0.75 -0.5781 L0.6094 -0.0156 Q0.6094 0 0.6094 0 L0.6094 0 L0.5938 0 Q0.5938 0 0.5781 -0.0156 Q0.5781 -0.0156 0.5781 -0.0156 L0.3281 -0.6094 L0.3281 -0.625 L0.1875 -0.0938 Q0.1875 -0.0781 0.1875 -0.0781 Q0.1875 -0.0469 0.2344 -0.0312 Q0.2344 -0.0312 0.25 -0.0312 Q0.2656 -0.0312 0.2656 -0.0156 Q0.2656 0 0.25 0 L0.1562 0 L0.1562 0 L0.0469 0 L0.0469 0 Q0.0312 0 0.0312 -0.0156 Q0.0312 -0.0312 0.0625 -0.0312 Q0.1406 -0.0312 0.1562 -0.0781 Q0.1562 -0.0938 0.1562 -0.1094 L0.2969 -0.6406 Q0.2969 -0.6562 0.2344 -0.6562 Q0.2031 -0.6562 0.2031 -0.6562 Q0.2031 -0.6875 0.2188 -0.6875 L0.2344 -0.6875 L0.3594 -0.6875 Q0.3906 -0.6875 0.3906 -0.6719 Q0.3906 -0.6719 0.3906 -0.6562 L0.625 -0.1406 L0.7344 -0.5938 Q0.7344 -0.5938 0.7344 -0.6094 Q0.7344 -0.6562 0.6719 -0.6562 Q0.6406 -0.6562 0.6406 -0.6562 Q0.6406 -0.6875 0.6719 -0.6875 L0.7656 -0.6875 L0.7656 -0.6875 L0.8594 -0.6875 L0.875 -0.6875 Q0.875 -0.6875 0.875 -0.6719 Q0.875 -0.6562 0.8594 -0.6562 Q0.7812 -0.6562 0.7656 -0.6094 L0.7656 -0.6094 Q0.7656 -0.5938 0.75 -0.5781 Z"
    /></g
    ><g transform="matrix(20,0,0,20,0,0) translate(1.0035,1.0333) scale(0.7,0.7)" style="font-size:1; text-rendering:geometricPrecision; color-rendering:optimizeQuality; image-rendering:optimizeQuality; font-family:&apos;jlm_cmr10&apos;; color-interpolation:linearRGB;"
    ><path style="stroke:none;" d="M0.125 -0.3281 L0.125 -0.3281 Q0.1719 -0.4219 0.25 -0.4219 Q0.3438 -0.4219 0.4062 -0.3438 Q0.4375 -0.3125 0.4531 -0.25 Q0.4531 -0.2344 0.4531 -0.2031 Q0.4531 -0.0938 0.375 -0.0312 Q0.3281 0.0156 0.25 0.0156 Q0.1562 0.0156 0.0938 -0.0781 Q0.0469 -0.1562 0.0469 -0.3125 Q0.0469 -0.4844 0.1406 -0.5938 Q0.2188 -0.6719 0.3125 -0.6719 Q0.3906 -0.6719 0.4219 -0.6094 Q0.4375 -0.5781 0.4375 -0.5625 Q0.4375 -0.5156 0.3906 -0.5156 Q0.3906 -0.5156 0.3906 -0.5156 Q0.3594 -0.5156 0.3438 -0.5312 Q0.3438 -0.5469 0.3438 -0.5625 Q0.3438 -0.5938 0.3906 -0.5938 Q0.375 -0.6406 0.3125 -0.6406 Q0.2344 -0.6406 0.1875 -0.5781 Q0.125 -0.5 0.125 -0.3594 L0.125 -0.3281 ZM0.25 0 L0.25 0 Q0.3125 0 0.3438 -0.0781 Q0.3594 -0.1094 0.3594 -0.2031 Q0.3594 -0.3125 0.3438 -0.3438 Q0.3125 -0.4062 0.25 -0.4062 Q0.1719 -0.4062 0.1406 -0.3125 Q0.1406 -0.2656 0.1406 -0.2188 Q0.1406 -0.125 0.1562 -0.0781 Q0.1719 -0.0312 0.2188 -0.0156 Q0.2344 0 0.25 0 Z"
    /></g
  ></g
></svg
>
<!--entity N7--><rect fill="#FFFFFF" height="45" rx="35" ry="35" style="stroke: #000000; stroke-width: 1.5;" width="52" x="645" y="296"/><svg x="655" y="306"><!--Generated by the Batik Graphics2D SVG Generator--><defs id="genericDefs"
  /><g
  ><g transform="scale(20,20) translate(0.2,0.8833)" style="font-size:1; text-rendering:geometricPrecision; color-rendering:optimizeQuality; image-rendering:optimizeQuality; font-family:&apos;jlm_cmmi10&apos;; color-interpolation:linearRGB;"
    ><path style="stroke:none;" d="M0.75 -0.5781 L0.6094 -0.0156 Q0.6094 0 0.6094 0 L0.6094 0 L0.5938 0 Q0.5938 0 0.5781 -0.0156 Q0.5781 -0.0156 0.5781 -0.0156 L0.3281 -0.6094 L0.3281 -0.625 L0.1875 -0.0938 Q0.1875 -0.0781 0.1875 -0.0781 Q0.1875 -0.0469 0.2344 -0.0312 Q0.2344 -0.0312 0.25 -0.0312 Q0.2656 -0.0312 0.2656 -0.0156 Q0.2656 0 0.25 0 L0.1562 0 L0.1562 0 L0.0469 0 L0.0469 0 Q0.0312 0 0.0312 -0.0156 Q0.0312 -0.0312 0.0625 -0.0312 Q0.1406 -0.0312 0.1562 -0.0781 Q0.1562 -0.0938 0.1562 -0.1094 L0.2969 -0.6406 Q0.2969 -0.6562 0.2344 -0.6562 Q0.2031 -0.6562 0.2031 -0.6562 Q0.2031 -0.6875 0.2188 -0.6875 L0.2344 -0.6875 L0.3594 -0.6875 Q0.3906 -0.6875 0.3906 -0.6719 Q0.3906 -0.6719 0.3906 -0.6562 L0.625 -0.1406 L0.7344 -0.5938 Q0.7344 -0.5938 0.7344 -0.6094 Q0.7344 -0.6562 0.6719 -0.6562 Q0.6406 -0.6562 0.6406 -0.6562 Q0.6406 -0.6875 0.6719 -0.6875 L0.7656 -0.6875 L0.7656 -0.6875 L0.8594 -0.6875 L0.875 -0.6875 Q0.875 -0.6875 0.875 -0.6719 Q0.875 -0.6562 0.8594 -0.6562 Q0.7812 -0.6562 0.7656 -0.6094 L0.7656 -0.6094 Q0.7656 -0.5938 0.75 -0.5781 Z"
    /></g
    ><g transform="matrix(20,0,0,20,0,0) translate(1.0035,1.0333) scale(0.7,0.7)" style="font-size:1; text-rendering:geometricPrecision; color-rendering:optimizeQuality; image-rendering:optimizeQuality; font-family:&apos;jlm_cmr10&apos;; color-interpolation:linearRGB;"
    ><path style="stroke:none;" d="M0.4688 -0.6094 L0.3438 -0.4219 Q0.2969 -0.3594 0.2812 -0.25 Q0.2656 -0.1719 0.2656 -0.0781 L0.2656 -0.0312 Q0.2656 0.0156 0.2188 0.0156 Q0.1719 0.0156 0.1719 -0.0312 Q0.1719 -0.2031 0.2656 -0.375 L0.2969 -0.4062 L0.4062 -0.5625 L0.2031 -0.5625 Q0.1094 -0.5625 0.1094 -0.5625 Q0.0938 -0.5469 0.0781 -0.4688 L0.0625 -0.4688 L0.0938 -0.6719 L0.1094 -0.6719 Q0.125 -0.6562 0.125 -0.6562 L0.1406 -0.6562 L0.1406 -0.6562 Q0.1562 -0.6406 0.2344 -0.6406 L0.4844 -0.6406 Q0.4844 -0.625 0.4688 -0.6094 Z"
    /></g
  ></g
></svg
>
<!--entity N8--><rect fill="#FFFFFF" height="45" rx="35" ry="35" style="stroke: #000000; stroke-width: 1.5;" width="52" x="732" y="296"/><svg x="742" y="306"><!--Generated by the Batik Graphics2D SVG Generator--><defs id="genericDefs"
  /><g
  ><g transform="scale(20,20) translate(0.2,0.8833)" style="font-size:1; text-rendering:geometricPrecision; color-rendering:optimizeQuality; image-rendering:optimizeQuality; font-family:&apos;jlm_cmmi10&apos;; color-interpolation:linearRGB;"
    ><path style="stroke:none;" d="M0.75 -0.5781 L0.6094 -0.0156 Q0.6094 0 0.6094 0 L0.6094 0 L0.5938 0 Q0.5938 0 0.5781 -0.0156 Q0.5781 -0.0156 0.5781 -0.0156 L0.3281 -0.6094 L0.3281 -0.625 L0.1875 -0.0938 Q0.1875 -0.0781 0.1875 -0.0781 Q0.1875 -0.0469 0.2344 -0.0312 Q0.2344 -0.0312 0.25 -0.0312 Q0.2656 -0.0312 0.2656 -0.0156 Q0.2656 0 0.25 0 L0.1562 0 L0.1562 0 L0.0469 0 L0.0469 0 Q0.0312 0 0.0312 -0.0156 Q0.0312 -0.0312 0.0625 -0.0312 Q0.1406 -0.0312 0.1562 -0.0781 Q0.1562 -0.0938 0.1562 -0.1094 L0.2969 -0.6406 Q0.2969 -0.6562 0.2344 -0.6562 Q0.2031 -0.6562 0.2031 -0.6562 Q0.2031 -0.6875 0.2188 -0.6875 L0.2344 -0.6875 L0.3594 -0.6875 Q0.3906 -0.6875 0.3906 -0.6719 Q0.3906 -0.6719 0.3906 -0.6562 L0.625 -0.1406 L0.7344 -0.5938 Q0.7344 -0.5938 0.7344 -0.6094 Q0.7344 -0.6562 0.6719 -0.6562 Q0.6406 -0.6562 0.6406 -0.6562 Q0.6406 -0.6875 0.6719 -0.6875 L0.7656 -0.6875 L0.7656 -0.6875 L0.8594 -0.6875 L0.875 -0.6875 Q0.875 -0.6875 0.875 -0.6719 Q0.875 -0.6562 0.8594 -0.6562 Q0.7812 -0.6562 0.7656 -0.6094 L0.7656 -0.6094 Q0.7656 -0.5938 0.75 -0.5781 Z"
    /></g
    ><g transform="matrix(20,0,0,20,0,0) translate(1.0035,1.0333) scale(0.7,0.7)" style="font-size:1; text-rendering:geometricPrecision; color-rendering:optimizeQuality; image-rendering:optimizeQuality; font-family:&apos;jlm_cmr10&apos;; color-interpolation:linearRGB;"
    ><path style="stroke:none;" d="M0.1562 -0.4531 L0.2812 -0.375 Q0.3906 -0.4375 0.3906 -0.5156 Q0.3906 -0.5781 0.3281 -0.625 Q0.2969 -0.6406 0.25 -0.6406 Q0.1719 -0.6406 0.1406 -0.5938 L0.1406 -0.5938 L0.1406 -0.5938 Q0.1094 -0.5625 0.1094 -0.5312 Q0.1094 -0.4844 0.1562 -0.4531 ZM0.3125 -0.3594 L0.3125 -0.3594 Q0.3906 -0.3125 0.4062 -0.2969 Q0.4062 -0.2969 0.4062 -0.2969 Q0.4531 -0.2344 0.4531 -0.1719 Q0.4531 -0.0781 0.3906 -0.0156 Q0.3281 0.0156 0.25 0.0156 Q0.1562 0.0156 0.0938 -0.0312 Q0.0469 -0.0781 0.0469 -0.1562 Q0.0469 -0.2656 0.1875 -0.3281 Q0.125 -0.375 0.1094 -0.3906 Q0.0625 -0.4375 0.0625 -0.5 Q0.0625 -0.5781 0.1406 -0.625 Q0.1875 -0.6719 0.25 -0.6719 Q0.3438 -0.6719 0.3906 -0.6094 Q0.4375 -0.5781 0.4375 -0.5156 Q0.4375 -0.4219 0.3125 -0.3594 ZM0.2031 -0.3125 L0.2031 -0.3125 Q0.0938 -0.25 0.0938 -0.1562 Q0.0938 -0.0781 0.1562 -0.0312 Q0.2031 0 0.25 0 Q0.3281 0 0.375 -0.0625 Q0.4062 -0.0938 0.4062 -0.125 Q0.4062 -0.1875 0.3438 -0.2344 Q0.3438 -0.2344 0.3281 -0.2344 L0.2031 -0.3125 Z"
    /></g
  ></g
></svg
>
<!--entity N9--><rect fill="#FFFFFF" height="45" rx="35" ry="35" style="stroke: #000000; stroke-width: 1.5;" width="52" x="147" y="499"/><svg x="157" y="509"><!--Generated by the Batik Graphics2D SVG Generator--><defs id="genericDefs"
  /><g
  ><g transform="scale(20,20) translate(0.2,0.8833)" style="font-size:1; text-rendering:geometricPrecision; color-rendering:optimizeQuality; image-rendering:optimizeQuality; font-family:&apos;jlm_cmmi10&apos;; color-interpolation:linearRGB;"
    ><path style="stroke:none;" d="M0.75 -0.5781 L0.6094 -0.0156 Q0.6094 0 0.6094 0 L0.6094 0 L0.5938 0 Q0.5938 0 0.5781 -0.0156 Q0.5781 -0.0156 0.5781 -0.0156 L0.3281 -0.6094 L0.3281 -0.625 L0.1875 -0.0938 Q0.1875 -0.0781 0.1875 -0.0781 Q0.1875 -0.0469 0.2344 -0.0312 Q0.2344 -0.0312 0.25 -0.0312 Q0.2656 -0.0312 0.2656 -0.0156 Q0.2656 0 0.25 0 L0.1562 0 L0.1562 0 L0.0469 0 L0.0469 0 Q0.0312 0 0.0312 -0.0156 Q0.0312 -0.0312 0.0625 -0.0312 Q0.1406 -0.0312 0.1562 -0.0781 Q0.1562 -0.0938 0.1562 -0.1094 L0.2969 -0.6406 Q0.2969 -0.6562 0.2344 -0.6562 Q0.2031 -0.6562 0.2031 -0.6562 Q0.2031 -0.6875 0.2188 -0.6875 L0.2344 -0.6875 L0.3594 -0.6875 Q0.3906 -0.6875 0.3906 -0.6719 Q0.3906 -0.6719 0.3906 -0.6562 L0.625 -0.1406 L0.7344 -0.5938 Q0.7344 -0.5938 0.7344 -0.6094 Q0.7344 -0.6562 0.6719 -0.6562 Q0.6406 -0.6562 0.6406 -0.6562 Q0.6406 -0.6875 0.6719 -0.6875 L0.7656 -0.6875 L0.7656 -0.6875 L0.8594 -0.6875 L0.875 -0.6875 Q0.875 -0.6875 0.875 -0.6719 Q0.875 -0.6562 0.8594 -0.6562 Q0.7812 -0.6562 0.7656 -0.6094 L0.7656 -0.6094 Q0.7656 -0.5938 0.75 -0.5781 Z"
    /></g
    ><g transform="matrix(20,0,0,20,0,0) translate(1.0035,1.0333) scale(0.7,0.7)" style="font-size:1; text-rendering:geometricPrecision; color-rendering:optimizeQuality; image-rendering:optimizeQuality; font-family:&apos;jlm_cmr10&apos;; color-interpolation:linearRGB;"
    ><path style="stroke:none;" d="M0.3594 -0.3125 Q0.3281 -0.2188 0.2344 -0.2188 Q0.1562 -0.2188 0.0938 -0.2969 L0.0938 -0.2969 Q0.0469 -0.3594 0.0469 -0.4453 Q0.0469 -0.5312 0.0938 -0.5938 L0.1094 -0.6094 Q0.1719 -0.6719 0.25 -0.6719 Q0.3594 -0.6719 0.4062 -0.5625 Q0.4531 -0.4844 0.4531 -0.3281 Q0.4531 -0.1562 0.3594 -0.0625 Q0.2969 0.0156 0.2031 0.0156 Q0.1094 0.0156 0.0781 -0.0312 Q0.0625 -0.0625 0.0625 -0.0938 Q0.0625 -0.125 0.1094 -0.1406 Q0.1094 -0.1406 0.1094 -0.1406 Q0.1406 -0.1406 0.1562 -0.1094 Q0.1562 -0.0938 0.1562 -0.0938 Q0.1562 -0.0469 0.125 -0.0469 Q0.1094 -0.0469 0.1094 -0.0469 Q0.1406 0 0.2031 0 Q0.2812 0 0.3281 -0.0781 Q0.3594 -0.1562 0.3594 -0.2812 L0.3594 -0.3125 ZM0.25 -0.2344 Q0.3281 -0.2344 0.3594 -0.3281 Q0.3594 -0.375 0.3594 -0.4219 Q0.3594 -0.5156 0.3438 -0.5625 Q0.3281 -0.625 0.2656 -0.6406 Q0.2656 -0.6406 0.25 -0.6406 Q0.1875 -0.6406 0.1562 -0.5781 Q0.125 -0.5469 0.125 -0.4531 L0.125 -0.4375 Q0.125 -0.3438 0.1562 -0.2969 Q0.1875 -0.2344 0.25 -0.2344 Z"
    /></g
  ></g
></svg
>
<!--entity N10--><rect fill="#FFFFFF" height="45" rx="35" ry="35" style="stroke: #000000; stroke-width: 1.5;" width="59" x="234.5" y="499"/><svg x="244.5" y="509"><!--Generated by the Batik Graphics2D SVG Generator--><defs id="genericDefs"
  /><g
  ><g transform="scale(20,20) translate(0.2,0.8833)" style="font-size:1; text-rendering:geometricPrecision; color-rendering:optimizeQuality; image-rendering:optimizeQuality; font-family:&apos;jlm_cmmi10&apos;; color-interpolation:linearRGB;"
    ><path style="stroke:none;" d="M0.75 -0.5781 L0.6094 -0.0156 Q0.6094 0 0.6094 0 L0.6094 0 L0.5938 0 Q0.5938 0 0.5781 -0.0156 Q0.5781 -0.0156 0.5781 -0.0156 L0.3281 -0.6094 L0.3281 -0.625 L0.1875 -0.0938 Q0.1875 -0.0781 0.1875 -0.0781 Q0.1875 -0.0469 0.2344 -0.0312 Q0.2344 -0.0312 0.25 -0.0312 Q0.2656 -0.0312 0.2656 -0.0156 Q0.2656 0 0.25 0 L0.1562 0 L0.1562 0 L0.0469 0 L0.0469 0 Q0.0312 0 0.0312 -0.0156 Q0.0312 -0.0312 0.0625 -0.0312 Q0.1406 -0.0312 0.1562 -0.0781 Q0.1562 -0.0938 0.1562 -0.1094 L0.2969 -0.6406 Q0.2969 -0.6562 0.2344 -0.6562 Q0.2031 -0.6562 0.2031 -0.6562 Q0.2031 -0.6875 0.2188 -0.6875 L0.2344 -0.6875 L0.3594 -0.6875 Q0.3906 -0.6875 0.3906 -0.6719 Q0.3906 -0.6719 0.3906 -0.6562 L0.625 -0.1406 L0.7344 -0.5938 Q0.7344 -0.5938 0.7344 -0.6094 Q0.7344 -0.6562 0.6719 -0.6562 Q0.6406 -0.6562 0.6406 -0.6562 Q0.6406 -0.6875 0.6719 -0.6875 L0.7656 -0.6875 L0.7656 -0.6875 L0.8594 -0.6875 L0.875 -0.6875 Q0.875 -0.6875 0.875 -0.6719 Q0.875 -0.6562 0.8594 -0.6562 Q0.7812 -0.6562 0.7656 -0.6094 L0.7656 -0.6094 Q0.7656 -0.5938 0.75 -0.5781 Z"
    /></g
    ><g transform="matrix(20,0,0,20,0,0) translate(1.0035,1.0333) scale(0.7,0.7)" style="font-size:1; text-rendering:geometricPrecision; color-rendering:optimizeQuality; image-rendering:optimizeQuality; font-family:&apos;jlm_cmr10&apos;; color-interpolation:linearRGB;"
    ><path style="stroke:none;" d="M0.2969 -0.6406 L0.2969 -0.0781 Q0.2969 -0.0469 0.3125 -0.0469 Q0.3281 -0.0312 0.3906 -0.0312 L0.4219 -0.0312 L0.4219 0 Q0.3906 0 0.25 0 Q0.125 0 0.0938 0 L0.0938 -0.0312 L0.125 -0.0312 Q0.2031 -0.0312 0.2188 -0.0469 L0.2188 -0.0469 Q0.2188 -0.0625 0.2188 -0.0781 L0.2188 -0.5938 Q0.1719 -0.5781 0.0938 -0.5781 L0.0938 -0.6094 Q0.2031 -0.6094 0.2656 -0.6719 Q0.2969 -0.6719 0.2969 -0.6562 L0.2969 -0.6562 L0.2969 -0.6562 Q0.2969 -0.6562 0.2969 -0.6406 Z"
    /></g
    ><g transform="matrix(20,0,0,20,0,0) translate(1.3535,1.0333) scale(0.7,0.7)" style="font-size:1; text-rendering:geometricPrecision; color-rendering:optimizeQuality; image-rendering:optimizeQuality; font-family:&apos;jlm_cmr10&apos;; color-interpolation:linearRGB;"
    ><path style="stroke:none;" d="M0.4531 -0.3125 Q0.4531 -0.1719 0.4219 -0.0938 Q0.3594 0.0156 0.25 0.0156 Q0.1562 0.0156 0.1094 -0.0469 Q0.0938 -0.0625 0.0781 -0.0781 Q0.0312 -0.1562 0.0312 -0.3125 Q0.0312 -0.4688 0.0781 -0.5469 Q0.125 -0.6562 0.2344 -0.6719 L0.25 -0.6719 Q0.3438 -0.6719 0.3906 -0.5938 L0.3906 -0.5938 Q0.4062 -0.5781 0.4219 -0.5469 Q0.4531 -0.4688 0.4531 -0.3125 ZM0.25 0 L0.25 0 Q0.3125 0 0.3438 -0.0625 Q0.3594 -0.0938 0.3594 -0.125 Q0.375 -0.1875 0.375 -0.3281 Q0.375 -0.4688 0.3594 -0.5312 Q0.3438 -0.625 0.2812 -0.6406 Q0.2656 -0.6406 0.25 -0.6406 Q0.1719 -0.6406 0.1406 -0.5781 Q0.1406 -0.5469 0.125 -0.5156 Q0.125 -0.4688 0.125 -0.3281 Q0.125 -0.1875 0.1406 -0.125 Q0.1562 -0.0312 0.2188 0 Q0.2344 0 0.25 0 Z"
    /></g
  ></g
></svg
>
<!--entity N11--><rect fill="#FFFFFF" height="45" rx="35" ry="35" style="stroke: #000000; stroke-width: 1.5;" width="59" x="328.5" y="499"/><svg x="338.5" y="509"><!--Generated by the Batik Graphics2D SVG Generator--><defs id="genericDefs"
  /><g
  ><g transform="scale(20,20) translate(0.2,0.8833)" style="font-size:1; text-rendering:geometricPrecision; color-rendering:optimizeQuality; image-rendering:optimizeQuality; font-family:&apos;jlm_cmmi10&apos;; color-interpolation:linearRGB;"
    ><path style="stroke:none;" d="M0.75 -0.5781 L0.6094 -0.0156 Q0.6094 0 0.6094 0 L0.6094 0 L0.5938 0 Q0.5938 0 0.5781 -0.0156 Q0.5781 -0.0156 0.5781 -0.0156 L0.3281 -0.6094 L0.3281 -0.625 L0.1875 -0.0938 Q0.1875 -0.0781 0.1875 -0.0781 Q0.1875 -0.0469 0.2344 -0.0312 Q0.2344 -0.0312 0.25 -0.0312 Q0.2656 -0.0312 0.2656 -0.0156 Q0.2656 0 0.25 0 L0.1562 0 L0.1562 0 L0.0469 0 L0.0469 0 Q0.0312 0 0.0312 -0.0156 Q0.0312 -0.0312 0.0625 -0.0312 Q0.1406 -0.0312 0.1562 -0.0781 Q0.1562 -0.0938 0.1562 -0.1094 L0.2969 -0.6406 Q0.2969 -0.6562 0.2344 -0.6562 Q0.2031 -0.6562 0.2031 -0.6562 Q0.2031 -0.6875 0.2188 -0.6875 L0.2344 -0.6875 L0.3594 -0.6875 Q0.3906 -0.6875 0.3906 -0.6719 Q0.3906 -0.6719 0.3906 -0.6562 L0.625 -0.1406 L0.7344 -0.5938 Q0.7344 -0.5938 0.7344 -0.6094 Q0.7344 -0.6562 0.6719 -0.6562 Q0.6406 -0.6562 0.6406 -0.6562 Q0.6406 -0.6875 0.6719 -0.6875 L0.7656 -0.6875 L0.7656 -0.6875 L0.8594 -0.6875 L0.875 -0.6875 Q0.875 -0.6875 0.875 -0.6719 Q0.875 -0.6562 0.8594 -0.6562 Q0.7812 -0.6562 0.7656 -0.6094 L0.7656 -0.6094 Q0.7656 -0.5938 0.75 -0.5781 Z"
    /></g
    ><g transform="matrix(20,0,0,20,0,0) translate(1.0035,1.0333) scale(0.7,0.7)" style="font-size:1; text-rendering:geometricPrecision; color-rendering:optimizeQuality; image-rendering:optimizeQuality; font-family:&apos;jlm_cmr10&apos;; color-interpolation:linearRGB;"
    ><path style="stroke:none;" d="M0.2969 -0.6406 L0.2969 -0.0781 Q0.2969 -0.0469 0.3125 -0.0469 Q0.3281 -0.0312 0.3906 -0.0312 L0.4219 -0.0312 L0.4219 0 Q0.3906 0 0.25 0 Q0.125 0 0.0938 0 L0.0938 -0.0312 L0.125 -0.0312 Q0.2031 -0.0312 0.2188 -0.0469 L0.2188 -0.0469 Q0.2188 -0.0625 0.2188 -0.0781 L0.2188 -0.5938 Q0.1719 -0.5781 0.0938 -0.5781 L0.0938 -0.6094 Q0.2031 -0.6094 0.2656 -0.6719 Q0.2969 -0.6719 0.2969 -0.6562 L0.2969 -0.6562 L0.2969 -0.6562 Q0.2969 -0.6562 0.2969 -0.6406 Z"
    /></g
    ><g transform="matrix(20,0,0,20,0,0) translate(1.3535,1.0333) scale(0.7,0.7)" style="font-size:1; text-rendering:geometricPrecision; color-rendering:optimizeQuality; image-rendering:optimizeQuality; font-family:&apos;jlm_cmr10&apos;; color-interpolation:linearRGB;"
    ><path style="stroke:none;" d="M0.2969 -0.6406 L0.2969 -0.0781 Q0.2969 -0.0469 0.3125 -0.0469 Q0.3281 -0.0312 0.3906 -0.0312 L0.4219 -0.0312 L0.4219 0 Q0.3906 0 0.25 0 Q0.125 0 0.0938 0 L0.0938 -0.0312 L0.125 -0.0312 Q0.2031 -0.0312 0.2188 -0.0469 L0.2188 -0.0469 Q0.2188 -0.0625 0.2188 -0.0781 L0.2188 -0.5938 Q0.1719 -0.5781 0.0938 -0.5781 L0.0938 -0.6094 Q0.2031 -0.6094 0.2656 -0.6719 Q0.2969 -0.6719 0.2969 -0.6562 L0.2969 -0.6562 L0.2969 -0.6562 Q0.2969 -0.6562 0.2969 -0.6406 Z"
    /></g
  ></g
></svg
>
<!--entity N12--><rect fill="#FFFFFF" height="45" rx="35" ry="35" style="stroke: #000000; stroke-width: 1.5;" width="59" x="422.5" y="499"/><svg x="432.5" y="509"><!--Generated by the Batik Graphics2D SVG Generator--><defs id="genericDefs"
  /><g
  ><g transform="scale(20,20) translate(0.2,0.8833)" style="font-size:1; text-rendering:geometricPrecision; color-rendering:optimizeQuality; image-rendering:optimizeQuality; font-family:&apos;jlm_cmmi10&apos;; color-interpolation:linearRGB;"
    ><path style="stroke:none;" d="M0.75 -0.5781 L0.6094 -0.0156 Q0.6094 0 0.6094 0 L0.6094 0 L0.5938 0 Q0.5938 0 0.5781 -0.0156 Q0.5781 -0.0156 0.5781 -0.0156 L0.3281 -0.6094 L0.3281 -0.625 L0.1875 -0.0938 Q0.1875 -0.0781 0.1875 -0.0781 Q0.1875 -0.0469 0.2344 -0.0312 Q0.2344 -0.0312 0.25 -0.0312 Q0.2656 -0.0312 0.2656 -0.0156 Q0.2656 0 0.25 0 L0.1562 0 L0.1562 0 L0.0469 0 L0.0469 0 Q0.0312 0 0.0312 -0.0156 Q0.0312 -0.0312 0.0625 -0.0312 Q0.1406 -0.0312 0.1562 -0.0781 Q0.1562 -0.0938 0.1562 -0.1094 L0.2969 -0.6406 Q0.2969 -0.6562 0.2344 -0.6562 Q0.2031 -0.6562 0.2031 -0.6562 Q0.2031 -0.6875 0.2188 -0.6875 L0.2344 -0.6875 L0.3594 -0.6875 Q0.3906 -0.6875 0.3906 -0.6719 Q0.3906 -0.6719 0.3906 -0.6562 L0.625 -0.1406 L0.7344 -0.5938 Q0.7344 -0.5938 0.7344 -0.6094 Q0.7344 -0.6562 0.6719 -0.6562 Q0.6406 -0.6562 0.6406 -0.6562 Q0.6406 -0.6875 0.6719 -0.6875 L0.7656 -0.6875 L0.7656 -0.6875 L0.8594 -0.6875 L0.875 -0.6875 Q0.875 -0.6875 0.875 -0.6719 Q0.875 -0.6562 0.8594 -0.6562 Q0.7812 -0.6562 0.7656 -0.6094 L0.7656 -0.6094 Q0.7656 -0.5938 0.75 -0.5781 Z"
    /></g
    ><g transform="matrix(20,0,0,20,0,0) translate(1.0035,1.0333) scale(0.7,0.7)" style="font-size:1; text-rendering:geometricPrecision; color-rendering:optimizeQuality; image-rendering:optimizeQuality; font-family:&apos;jlm_cmr10&apos;; color-interpolation:linearRGB;"
    ><path style="stroke:none;" d="M0.2969 -0.6406 L0.2969 -0.0781 Q0.2969 -0.0469 0.3125 -0.0469 Q0.3281 -0.0312 0.3906 -0.0312 L0.4219 -0.0312 L0.4219 0 Q0.3906 0 0.25 0 Q0.125 0 0.0938 0 L0.0938 -0.0312 L0.125 -0.0312 Q0.2031 -0.0312 0.2188 -0.0469 L0.2188 -0.0469 Q0.2188 -0.0625 0.2188 -0.0781 L0.2188 -0.5938 Q0.1719 -0.5781 0.0938 -0.5781 L0.0938 -0.6094 Q0.2031 -0.6094 0.2656 -0.6719 Q0.2969 -0.6719 0.2969 -0.6562 L0.2969 -0.6562 L0.2969 -0.6562 Q0.2969 -0.6562 0.2969 -0.6406 Z"
    /></g
    ><g transform="matrix(20,0,0,20,0,0) translate(1.3535,1.0333) scale(0.7,0.7)" style="font-size:1; text-rendering:geometricPrecision; color-rendering:optimizeQuality; image-rendering:optimizeQuality; font-family:&apos;jlm_cmr10&apos;; color-interpolation:linearRGB;"
    ><path style="stroke:none;" d="M0.4531 -0.1719 L0.4531 -0.1719 L0.4219 0 L0.0469 0 Q0.0469 -0.0312 0.0625 -0.0312 L0.0625 -0.0312 L0.25 -0.25 Q0.3594 -0.375 0.3594 -0.4688 Q0.3594 -0.5625 0.2969 -0.6094 L0.2969 -0.6094 L0.2969 -0.6094 Q0.2656 -0.6406 0.2188 -0.6406 Q0.1562 -0.6406 0.1094 -0.5781 Q0.0938 -0.5625 0.0938 -0.5312 Q0.0938 -0.5312 0.1094 -0.5312 Q0.1406 -0.5312 0.1562 -0.5 L0.1562 -0.5 Q0.1562 -0.4844 0.1562 -0.4844 Q0.1562 -0.4375 0.1094 -0.4375 Q0.1094 -0.4219 0.1094 -0.4219 Q0.0625 -0.4219 0.0469 -0.4531 Q0.0469 -0.4688 0.0469 -0.4844 Q0.0469 -0.5625 0.1094 -0.6094 Q0.1562 -0.6719 0.2344 -0.6719 Q0.3438 -0.6719 0.4062 -0.5938 Q0.4375 -0.5469 0.4531 -0.4844 Q0.4531 -0.4844 0.4531 -0.4688 Q0.4531 -0.4062 0.3906 -0.3281 Q0.3594 -0.2969 0.2969 -0.25 L0.25 -0.1875 L0.2344 -0.1875 L0.125 -0.0781 L0.3125 -0.0781 Q0.3906 -0.0781 0.4062 -0.0781 Q0.4062 -0.0938 0.4219 -0.1719 L0.4531 -0.1719 Z"
    /></g
  ></g
></svg
>
<!--entity N13--><rect fill="#FFC0CB" height="45" rx="35" ry="35" style="stroke: #000000; stroke-width: 1.5;" width="59" x="516.5" y="499"/><svg x="526.5" y="509"><!--Generated by the Batik Graphics2D SVG Generator--><defs id="genericDefs"
  /><g
  ><g transform="scale(20,20) translate(0.2,0.8833)" style="font-size:1; text-rendering:geometricPrecision; color-rendering:optimizeQuality; image-rendering:optimizeQuality; font-family:&apos;jlm_cmmi10&apos;; color-interpolation:linearRGB;"
    ><path style="stroke:none;" d="M0.75 -0.5781 L0.6094 -0.0156 Q0.6094 0 0.6094 0 L0.6094 0 L0.5938 0 Q0.5938 0 0.5781 -0.0156 Q0.5781 -0.0156 0.5781 -0.0156 L0.3281 -0.6094 L0.3281 -0.625 L0.1875 -0.0938 Q0.1875 -0.0781 0.1875 -0.0781 Q0.1875 -0.0469 0.2344 -0.0312 Q0.2344 -0.0312 0.25 -0.0312 Q0.2656 -0.0312 0.2656 -0.0156 Q0.2656 0 0.25 0 L0.1562 0 L0.1562 0 L0.0469 0 L0.0469 0 Q0.0312 0 0.0312 -0.0156 Q0.0312 -0.0312 0.0625 -0.0312 Q0.1406 -0.0312 0.1562 -0.0781 Q0.1562 -0.0938 0.1562 -0.1094 L0.2969 -0.6406 Q0.2969 -0.6562 0.2344 -0.6562 Q0.2031 -0.6562 0.2031 -0.6562 Q0.2031 -0.6875 0.2188 -0.6875 L0.2344 -0.6875 L0.3594 -0.6875 Q0.3906 -0.6875 0.3906 -0.6719 Q0.3906 -0.6719 0.3906 -0.6562 L0.625 -0.1406 L0.7344 -0.5938 Q0.7344 -0.5938 0.7344 -0.6094 Q0.7344 -0.6562 0.6719 -0.6562 Q0.6406 -0.6562 0.6406 -0.6562 Q0.6406 -0.6875 0.6719 -0.6875 L0.7656 -0.6875 L0.7656 -0.6875 L0.8594 -0.6875 L0.875 -0.6875 Q0.875 -0.6875 0.875 -0.6719 Q0.875 -0.6562 0.8594 -0.6562 Q0.7812 -0.6562 0.7656 -0.6094 L0.7656 -0.6094 Q0.7656 -0.5938 0.75 -0.5781 Z"
    /></g
    ><g transform="matrix(20,0,0,20,0,0) translate(1.0035,1.0333) scale(0.7,0.7)" style="font-size:1; text-rendering:geometricPrecision; color-rendering:optimizeQuality; image-rendering:optimizeQuality; font-family:&apos;jlm_cmr10&apos;; color-interpolation:linearRGB;"
    ><path style="stroke:none;" d="M0.2969 -0.6406 L0.2969 -0.0781 Q0.2969 -0.0469 0.3125 -0.0469 Q0.3281 -0.0312 0.3906 -0.0312 L0.4219 -0.0312 L0.4219 0 Q0.3906 0 0.25 0 Q0.125 0 0.0938 0 L0.0938 -0.0312 L0.125 -0.0312 Q0.2031 -0.0312 0.2188 -0.0469 L0.2188 -0.0469 Q0.2188 -0.0625 0.2188 -0.0781 L0.2188 -0.5938 Q0.1719 -0.5781 0.0938 -0.5781 L0.0938 -0.6094 Q0.2031 -0.6094 0.2656 -0.6719 Q0.2969 -0.6719 0.2969 -0.6562 L0.2969 -0.6562 L0.2969 -0.6562 Q0.2969 -0.6562 0.2969 -0.6406 Z"
    /></g
    ><g transform="matrix(20,0,0,20,0,0) translate(1.3535,1.0333) scale(0.7,0.7)" style="font-size:1; text-rendering:geometricPrecision; color-rendering:optimizeQuality; image-rendering:optimizeQuality; font-family:&apos;jlm_cmr10&apos;; color-interpolation:linearRGB;"
    ><path style="stroke:none;" d="M0.2969 -0.3594 L0.2969 -0.3594 Q0.3906 -0.3281 0.4375 -0.25 Q0.4531 -0.2188 0.4531 -0.1719 Q0.4531 -0.0938 0.3906 -0.0312 Q0.3281 0.0156 0.25 0.0156 Q0.1406 0.0156 0.0781 -0.0312 Q0.0469 -0.0781 0.0469 -0.1406 Q0.0469 -0.1875 0.0781 -0.1875 Q0.0938 -0.1875 0.0938 -0.1875 Q0.1406 -0.1875 0.1562 -0.1562 Q0.1562 -0.1406 0.1562 -0.1406 Q0.1562 -0.0938 0.125 -0.0781 Q0.1094 -0.0781 0.0938 -0.0781 Q0.125 -0.0156 0.2188 -0.0156 Q0.2344 0 0.2344 0 Q0.3125 0 0.3281 -0.0625 Q0.3594 -0.1094 0.3594 -0.1719 Q0.3594 -0.2969 0.2812 -0.3281 Q0.25 -0.3438 0.2344 -0.3438 L0.1875 -0.3438 Q0.1719 -0.3438 0.1719 -0.3438 Q0.1719 -0.3594 0.1875 -0.3594 Q0.2031 -0.3594 0.2188 -0.3594 Q0.2656 -0.3594 0.2969 -0.4062 L0.2969 -0.4062 L0.2969 -0.4062 L0.2969 -0.4062 L0.2969 -0.4062 L0.3125 -0.4219 Q0.3438 -0.4688 0.3438 -0.5312 Q0.3438 -0.625 0.2656 -0.6406 Q0.25 -0.6406 0.2344 -0.6406 Q0.1719 -0.6406 0.125 -0.5938 Q0.1094 -0.5938 0.1094 -0.5781 Q0.1719 -0.5781 0.1719 -0.5312 Q0.1719 -0.5 0.1406 -0.4844 Q0.125 -0.4844 0.125 -0.4844 Q0.0781 -0.4844 0.0781 -0.5156 L0.0781 -0.5156 L0.0781 -0.5156 Q0.0625 -0.5156 0.0625 -0.5312 Q0.0625 -0.5938 0.1406 -0.6406 Q0.1875 -0.6719 0.25 -0.6719 Q0.3438 -0.6719 0.3906 -0.6094 L0.3906 -0.6094 Q0.4375 -0.5781 0.4375 -0.5312 Q0.4375 -0.4375 0.3594 -0.3906 Q0.3281 -0.3594 0.2969 -0.3594 Z"
    /></g
  ></g
></svg
>
<!--entity N14--><rect fill="#FFFFFF" height="45" rx="35" ry="35" style="stroke: #000000; stroke-width: 1.5;" width="59" x="610.5" y="499"/><svg x="620.5" y="509"><!--Generated by the Batik Graphics2D SVG Generator--><defs id="genericDefs"
  /><g
  ><g transform="scale(20,20) translate(0.2,0.8833)" style="font-size:1; text-rendering:geometricPrecision; color-rendering:optimizeQuality; image-rendering:optimizeQuality; font-family:&apos;jlm_cmmi10&apos;; color-interpolation:linearRGB;"
    ><path style="stroke:none;" d="M0.75 -0.5781 L0.6094 -0.0156 Q0.6094 0 0.6094 0 L0.6094 0 L0.5938 0 Q0.5938 0 0.5781 -0.0156 Q0.5781 -0.0156 0.5781 -0.0156 L0.3281 -0.6094 L0.3281 -0.625 L0.1875 -0.0938 Q0.1875 -0.0781 0.1875 -0.0781 Q0.1875 -0.0469 0.2344 -0.0312 Q0.2344 -0.0312 0.25 -0.0312 Q0.2656 -0.0312 0.2656 -0.0156 Q0.2656 0 0.25 0 L0.1562 0 L0.1562 0 L0.0469 0 L0.0469 0 Q0.0312 0 0.0312 -0.0156 Q0.0312 -0.0312 0.0625 -0.0312 Q0.1406 -0.0312 0.1562 -0.0781 Q0.1562 -0.0938 0.1562 -0.1094 L0.2969 -0.6406 Q0.2969 -0.6562 0.2344 -0.6562 Q0.2031 -0.6562 0.2031 -0.6562 Q0.2031 -0.6875 0.2188 -0.6875 L0.2344 -0.6875 L0.3594 -0.6875 Q0.3906 -0.6875 0.3906 -0.6719 Q0.3906 -0.6719 0.3906 -0.6562 L0.625 -0.1406 L0.7344 -0.5938 Q0.7344 -0.5938 0.7344 -0.6094 Q0.7344 -0.6562 0.6719 -0.6562 Q0.6406 -0.6562 0.6406 -0.6562 Q0.6406 -0.6875 0.6719 -0.6875 L0.7656 -0.6875 L0.7656 -0.6875 L0.8594 -0.6875 L0.875 -0.6875 Q0.875 -0.6875 0.875 -0.6719 Q0.875 -0.6562 0.8594 -0.6562 Q0.7812 -0.6562 0.7656 -0.6094 L0.7656 -0.6094 Q0.7656 -0.5938 0.75 -0.5781 Z"
    /></g
    ><g transform="matrix(20,0,0,20,0,0) translate(1.0035,1.0333) scale(0.7,0.7)" style="font-size:1; text-rendering:geometricPrecision; color-rendering:optimizeQuality; image-rendering:optimizeQuality; font-family:&apos;jlm_cmr10&apos;; color-interpolation:linearRGB;"
    ><path style="stroke:none;" d="M0.2969 -0.6406 L0.2969 -0.0781 Q0.2969 -0.0469 0.3125 -0.0469 Q0.3281 -0.0312 0.3906 -0.0312 L0.4219 -0.0312 L0.4219 0 Q0.3906 0 0.25 0 Q0.125 0 0.0938 0 L0.0938 -0.0312 L0.125 -0.0312 Q0.2031 -0.0312 0.2188 -0.0469 L0.2188 -0.0469 Q0.2188 -0.0625 0.2188 -0.0781 L0.2188 -0.5938 Q0.1719 -0.5781 0.0938 -0.5781 L0.0938 -0.6094 Q0.2031 -0.6094 0.2656 -0.6719 Q0.2969 -0.6719 0.2969 -0.6562 L0.2969 -0.6562 L0.2969 -0.6562 Q0.2969 -0.6562 0.2969 -0.6406 Z"
    /></g
    ><g transform="matrix(20,0,0,20,0,0) translate(1.3535,1.0333) scale(0.7,0.7)" style="font-size:1; text-rendering:geometricPrecision; color-rendering:optimizeQuality; image-rendering:optimizeQuality; font-family:&apos;jlm_cmr10&apos;; color-interpolation:linearRGB;"
    ><path style="stroke:none;" d="M0.0312 -0.1719 L0.0312 -0.2031 L0.3281 -0.6719 Q0.3438 -0.6719 0.3594 -0.6719 Q0.375 -0.6719 0.375 -0.6719 L0.375 -0.6562 L0.375 -0.2031 L0.4688 -0.2031 L0.4688 -0.1719 L0.375 -0.1719 L0.375 -0.0781 Q0.375 -0.0469 0.3906 -0.0469 Q0.3906 -0.0312 0.4531 -0.0312 L0.4688 -0.0312 L0.4688 0 Q0.4219 0 0.3281 0 Q0.2344 0 0.2031 0 L0.2031 -0.0312 L0.2188 -0.0312 Q0.2812 -0.0312 0.2969 -0.0469 Q0.2969 -0.0625 0.2969 -0.0781 L0.2969 -0.1719 L0.0312 -0.1719 ZM0.2969 -0.2031 L0.2969 -0.5625 L0.0625 -0.2031 L0.2969 -0.2031 Z"
    /></g
  ></g
></svg
>
<!--entity N15--><rect fill="#F08080" height="45" rx="35" ry="35" style="stroke: #000000; stroke-width: 1.5;" width="59" x="704.5" y="499"/><svg x="714.5" y="509"><!--Generated by the Batik Graphics2D SVG Generator--><defs id="genericDefs"
  /><g
  ><g transform="scale(20,20) translate(0.2,0.8833)" style="font-size:1; text-rendering:geometricPrecision; color-rendering:optimizeQuality; image-rendering:optimizeQuality; font-family:&apos;jlm_cmmi10&apos;; color-interpolation:linearRGB;"
    ><path style="stroke:none;" d="M0.75 -0.5781 L0.6094 -0.0156 Q0.6094 0 0.6094 0 L0.6094 0 L0.5938 0 Q0.5938 0 0.5781 -0.0156 Q0.5781 -0.0156 0.5781 -0.0156 L0.3281 -0.6094 L0.3281 -0.625 L0.1875 -0.0938 Q0.1875 -0.0781 0.1875 -0.0781 Q0.1875 -0.0469 0.2344 -0.0312 Q0.2344 -0.0312 0.25 -0.0312 Q0.2656 -0.0312 0.2656 -0.0156 Q0.2656 0 0.25 0 L0.1562 0 L0.1562 0 L0.0469 0 L0.0469 0 Q0.0312 0 0.0312 -0.0156 Q0.0312 -0.0312 0.0625 -0.0312 Q0.1406 -0.0312 0.1562 -0.0781 Q0.1562 -0.0938 0.1562 -0.1094 L0.2969 -0.6406 Q0.2969 -0.6562 0.2344 -0.6562 Q0.2031 -0.6562 0.2031 -0.6562 Q0.2031 -0.6875 0.2188 -0.6875 L0.2344 -0.6875 L0.3594 -0.6875 Q0.3906 -0.6875 0.3906 -0.6719 Q0.3906 -0.6719 0.3906 -0.6562 L0.625 -0.1406 L0.7344 -0.5938 Q0.7344 -0.5938 0.7344 -0.6094 Q0.7344 -0.6562 0.6719 -0.6562 Q0.6406 -0.6562 0.6406 -0.6562 Q0.6406 -0.6875 0.6719 -0.6875 L0.7656 -0.6875 L0.7656 -0.6875 L0.8594 -0.6875 L0.875 -0.6875 Q0.875 -0.6875 0.875 -0.6719 Q0.875 -0.6562 0.8594 -0.6562 Q0.7812 -0.6562 0.7656 -0.6094 L0.7656 -0.6094 Q0.7656 -0.5938 0.75 -0.5781 Z"
    /></g
    ><g transform="matrix(20,0,0,20,0,0) translate(1.0035,1.0333) scale(0.7,0.7)" style="font-size:1; text-rendering:geometricPrecision; color-rendering:optimizeQuality; image-rendering:optimizeQuality; font-family:&apos;jlm_cmr10&apos;; color-interpolation:linearRGB;"
    ><path style="stroke:none;" d="M0.2969 -0.6406 L0.2969 -0.0781 Q0.2969 -0.0469 0.3125 -0.0469 Q0.3281 -0.0312 0.3906 -0.0312 L0.4219 -0.0312 L0.4219 0 Q0.3906 0 0.25 0 Q0.125 0 0.0938 0 L0.0938 -0.0312 L0.125 -0.0312 Q0.2031 -0.0312 0.2188 -0.0469 L0.2188 -0.0469 Q0.2188 -0.0625 0.2188 -0.0781 L0.2188 -0.5938 Q0.1719 -0.5781 0.0938 -0.5781 L0.0938 -0.6094 Q0.2031 -0.6094 0.2656 -0.6719 Q0.2969 -0.6719 0.2969 -0.6562 L0.2969 -0.6562 L0.2969 -0.6562 Q0.2969 -0.6562 0.2969 -0.6406 Z"
    /></g
    ><g transform="matrix(20,0,0,20,0,0) translate(1.3535,1.0333) scale(0.7,0.7)" style="font-size:1; text-rendering:geometricPrecision; color-rendering:optimizeQuality; image-rendering:optimizeQuality; font-family:&apos;jlm_cmr10&apos;; color-interpolation:linearRGB;"
    ><path style="stroke:none;" d="M0.4531 -0.2031 L0.4531 -0.2031 Q0.4531 -0.0938 0.375 -0.0312 Q0.3125 0.0156 0.2344 0.0156 Q0.1406 0.0156 0.0781 -0.0625 Q0.0469 -0.1094 0.0469 -0.1562 Q0.0469 -0.2031 0.0938 -0.2188 Q0.0938 -0.2188 0.0938 -0.2188 Q0.1406 -0.2188 0.1406 -0.1875 Q0.1562 -0.1719 0.1562 -0.1719 Q0.1562 -0.1406 0.125 -0.125 Q0.1094 -0.1094 0.0938 -0.1094 Q0.0938 -0.1094 0.0781 -0.125 Q0.0938 -0.0625 0.1562 -0.0312 Q0.1875 0 0.2344 0 Q0.2969 0 0.3438 -0.0781 Q0.3594 -0.1094 0.3594 -0.2031 Q0.3594 -0.2969 0.3438 -0.3281 Q0.3125 -0.3906 0.25 -0.3906 Q0.1719 -0.3906 0.125 -0.3281 Q0.125 -0.3125 0.1094 -0.3125 Q0.1094 -0.3125 0.0938 -0.3281 L0.0938 -0.3438 L0.0938 -0.6406 Q0.0938 -0.6562 0.1094 -0.6719 Q0.1094 -0.6719 0.125 -0.6562 Q0.1875 -0.6406 0.25 -0.6406 Q0.3281 -0.6406 0.3906 -0.6562 Q0.3906 -0.6719 0.4062 -0.6719 Q0.4062 -0.6719 0.4062 -0.6562 Q0.4062 -0.6406 0.375 -0.6094 Q0.3125 -0.5469 0.2188 -0.5469 Q0.1719 -0.5469 0.125 -0.5625 L0.125 -0.375 Q0.1875 -0.4219 0.2656 -0.4219 Q0.3438 -0.4219 0.4062 -0.3438 Q0.4531 -0.2812 0.4531 -0.2031 Z"
    /></g
  ></g
></svg
>
<!--entity N16--><rect fill="#F08080" height="45" rx="35" ry="35" style="stroke: #000000; stroke-width: 1.5;" width="59" x="798.5" y="499"/><svg x="808.5" y="509"><!--Generated by the Batik Graphics2D SVG Generator--><defs id="genericDefs"
  /><g
  ><g transform="scale(20,20) translate(0.2,0.8833)" style="font-size:1; text-rendering:geometricPrecision; color-rendering:optimizeQuality; image-rendering:optimizeQuality; font-family:&apos;jlm_cmmi10&apos;; color-interpolation:linearRGB;"
    ><path style="stroke:none;" d="M0.75 -0.5781 L0.6094 -0.0156 Q0.6094 0 0.6094 0 L0.6094 0 L0.5938 0 Q0.5938 0 0.5781 -0.0156 Q0.5781 -0.0156 0.5781 -0.0156 L0.3281 -0.6094 L0.3281 -0.625 L0.1875 -0.0938 Q0.1875 -0.0781 0.1875 -0.0781 Q0.1875 -0.0469 0.2344 -0.0312 Q0.2344 -0.0312 0.25 -0.0312 Q0.2656 -0.0312 0.2656 -0.0156 Q0.2656 0 0.25 0 L0.1562 0 L0.1562 0 L0.0469 0 L0.0469 0 Q0.0312 0 0.0312 -0.0156 Q0.0312 -0.0312 0.0625 -0.0312 Q0.1406 -0.0312 0.1562 -0.0781 Q0.1562 -0.0938 0.1562 -0.1094 L0.2969 -0.6406 Q0.2969 -0.6562 0.2344 -0.6562 Q0.2031 -0.6562 0.2031 -0.6562 Q0.2031 -0.6875 0.2188 -0.6875 L0.2344 -0.6875 L0.3594 -0.6875 Q0.3906 -0.6875 0.3906 -0.6719 Q0.3906 -0.6719 0.3906 -0.6562 L0.625 -0.1406 L0.7344 -0.5938 Q0.7344 -0.5938 0.7344 -0.6094 Q0.7344 -0.6562 0.6719 -0.6562 Q0.6406 -0.6562 0.6406 -0.6562 Q0.6406 -0.6875 0.6719 -0.6875 L0.7656 -0.6875 L0.7656 -0.6875 L0.8594 -0.6875 L0.875 -0.6875 Q0.875 -0.6875 0.875 -0.6719 Q0.875 -0.6562 0.8594 -0.6562 Q0.7812 -0.6562 0.7656 -0.6094 L0.7656 -0.6094 Q0.7656 -0.5938 0.75 -0.5781 Z"
    /></g
    ><g transform="matrix(20,0,0,20,0,0) translate(1.0035,1.0333) scale(0.7,0.7)" style="font-size:1; text-rendering:geometricPrecision; color-rendering:optimizeQuality; image-rendering:optimizeQuality; font-family:&apos;jlm_cmr10&apos;; color-interpolation:linearRGB;"
    ><path style="stroke:none;" d="M0.2969 -0.6406 L0.2969 -0.0781 Q0.2969 -0.0469 0.3125 -0.0469 Q0.3281 -0.0312 0.3906 -0.0312 L0.4219 -0.0312 L0.4219 0 Q0.3906 0 0.25 0 Q0.125 0 0.0938 0 L0.0938 -0.0312 L0.125 -0.0312 Q0.2031 -0.0312 0.2188 -0.0469 L0.2188 -0.0469 Q0.2188 -0.0625 0.2188 -0.0781 L0.2188 -0.5938 Q0.1719 -0.5781 0.0938 -0.5781 L0.0938 -0.6094 Q0.2031 -0.6094 0.2656 -0.6719 Q0.2969 -0.6719 0.2969 -0.6562 L0.2969 -0.6562 L0.2969 -0.6562 Q0.2969 -0.6562 0.2969 -0.6406 Z"
    /></g
    ><g transform="matrix(20,0,0,20,0,0) translate(1.3535,1.0333) scale(0.7,0.7)" style="font-size:1; text-rendering:geometricPrecision; color-rendering:optimizeQuality; image-rendering:optimizeQuality; font-family:&apos;jlm_cmr10&apos;; color-interpolation:linearRGB;"
    ><path style="stroke:none;" d="M0.125 -0.3281 L0.125 -0.3281 Q0.1719 -0.4219 0.25 -0.4219 Q0.3438 -0.4219 0.4062 -0.3438 Q0.4375 -0.3125 0.4531 -0.25 Q0.4531 -0.2344 0.4531 -0.2031 Q0.4531 -0.0938 0.375 -0.0312 Q0.3281 0.0156 0.25 0.0156 Q0.1562 0.0156 0.0938 -0.0781 Q0.0469 -0.1562 0.0469 -0.3125 Q0.0469 -0.4844 0.1406 -0.5938 Q0.2188 -0.6719 0.3125 -0.6719 Q0.3906 -0.6719 0.4219 -0.6094 Q0.4375 -0.5781 0.4375 -0.5625 Q0.4375 -0.5156 0.3906 -0.5156 Q0.3906 -0.5156 0.3906 -0.5156 Q0.3594 -0.5156 0.3438 -0.5312 Q0.3438 -0.5469 0.3438 -0.5625 Q0.3438 -0.5938 0.3906 -0.5938 Q0.375 -0.6406 0.3125 -0.6406 Q0.2344 -0.6406 0.1875 -0.5781 Q0.125 -0.5 0.125 -0.3594 L0.125 -0.3281 ZM0.25 0 L0.25 0 Q0.3125 0 0.3438 -0.0781 Q0.3594 -0.1094 0.3594 -0.2031 Q0.3594 -0.3125 0.3438 -0.3438 Q0.3125 -0.4062 0.25 -0.4062 Q0.1719 -0.4062 0.1406 -0.3125 Q0.1406 -0.2656 0.1406 -0.2188 Q0.1406 -0.125 0.1562 -0.0781 Q0.1719 -0.0312 0.2188 -0.0156 Q0.2344 0 0.25 0 Z"
    /></g
  ></g
></svg
>
<!--link N4 to N5--><path d="M375.119,318.5 C400.325,318.5 438.521,318.5 465.422,318.5 " fill="none" id="N4-N5" style="stroke: #0000FF; stroke-width: 1.0;"/><polygon fill="#0000FF" points="470.645,318.5,461.645,314.5,465.645,318.5,461.645,322.5,470.645,318.5" style="stroke: #0000FF; stroke-width: 1.0;"/><text fill="#000000" font-family="sans-serif" font-size="13" lengthAdjust="spacingAndGlyphs" textLength="55" x="393.5" y="296.5669">replicate</text><text fill="#000000" font-family="sans-serif" font-size="13" lengthAdjust="spacingAndGlyphs" textLength="39" x="403.5" y="311.6997">object</text><!--link N4 to N5--><!--link N4 to N6--><path d="M375.187,299.797 C409.437,277.76 471.127,246.418 522.5,265.5 C537.21,270.964 550.756,281.699 561.369,292.087 " fill="none" id="N4-N6" style="stroke: #0000FF; stroke-width: 1.0;"/><polygon fill="#0000FF" points="565.144,295.888,561.6401,286.6835,561.6206,292.3403,555.9638,292.3209,565.144,295.888" style="stroke: #0000FF; stroke-width: 1.0;"/><!--link root to EU--><path d="M795.729,136.475 C770.211,152.745 729.977,178.397 702.137,196.148 " fill="none" id="root-EU" style="stroke: #000000; stroke-width: 1.0;"/><polygon fill="#000000" points="697.779,198.926,707.5184,197.4615,701.9953,196.2385,703.2183,190.7154,697.779,198.926" style="stroke: #000000; stroke-width: 1.0;"/><!--link root to US--><path d="M795.665,125.143 C708.734,139.943 412.896,190.31 303.29,208.97 " fill="none" id="root-US" style="stroke: #000000; stroke-width: 1.0;"/><polygon fill="#000000" points="298.213,209.835,307.757,212.2665,303.142,208.9952,306.4133,204.3801,298.213,209.835" style="stroke: #000000; stroke-width: 1.0;"/><!--link root to RU--><path d="M821.086,138.201 C823.639,184.738 827.923,311.593 801,341 C747.445,399.496 499.997,414.271 400.048,417.878 " fill="none" id="root-RU" style="stroke: #000000; stroke-width: 1.0;"/><polygon fill="#000000" points="394.826,418.061,403.961,421.7423,399.8229,417.8853,403.6799,413.7472,394.826,418.061" style="stroke: #000000; stroke-width: 1.0;"/><!--link root to JA--><path d="M824.124,138.297 C826.022,147.128 828.058,158.075 829,168 C836.99,252.214 831.139,353.026 827.842,396.848 " fill="none" id="root-JA" style="stroke: #000000; stroke-width: 1.0;"/><polygon fill="#000000" points="827.454,401.905,832.1313,393.2377,827.8368,396.9197,824.1548,392.6252,827.454,401.905" style="stroke: #000000; stroke-width: 1.0;"/><!--link root to CA--><path d="M844.156,132.649 C877.231,148.599 937.042,177.442 976.894,196.66 " fill="none" id="root-CA" style="stroke: #000000; stroke-width: 1.0;"/><polygon fill="#000000" points="981.652,198.954,975.2819,191.4426,977.148,196.7827,971.8079,198.6489,981.652,198.954" style="stroke: #000000; stroke-width: 1.0;"/><!--link US to N1--><path d="M232.088,235.105 C200.415,253.217 150.668,281.664 118.699,299.945 " fill="none" id="US-N1" style="stroke: #000000; stroke-width: 1.0;"/><polygon fill="#000000" points="114.116,302.566,123.9143,301.5689,118.456,300.0832,119.9417,294.6249,114.116,302.566" style="stroke: #000000; stroke-width: 1.0;"/><!--link US to N2--><path d="M246.846,235.332 C233.177,250.964 212.895,274.161 197.362,291.925 " fill="none" id="US-N2" style="stroke: #000000; stroke-width: 1.0;"/><polygon fill="#000000" points="193.925,295.856,202.8604,291.7137,197.2162,292.092,196.8379,286.4478,193.925,295.856" style="stroke: #000000; stroke-width: 1.0;"/><!--link US to N3--><path d="M262,235.332 C262,250.57 262,272.996 262,290.571 " fill="none" id="US-N3" style="stroke: #000000; stroke-width: 1.0;"/><polygon fill="#000000" points="262,295.856,266,286.856,262,290.856,258,286.856,262,295.856" style="stroke: #000000; stroke-width: 1.0;"/><!--link US to N4--><path d="M277.154,235.332 C290.823,250.964 311.105,274.161 326.638,291.925 " fill="none" id="US-N4" style="stroke: #000000; stroke-width: 1.0;"/><polygon fill="#000000" points="330.075,295.856,327.1621,286.4478,326.7838,292.092,321.1396,291.7137,330.075,295.856" style="stroke: #000000; stroke-width: 1.0;"/><!--link EU to N5--><path d="M641.088,235.105 C609.415,253.217 559.668,281.664 527.699,299.945 " fill="none" id="EU-N5" style="stroke: #000000; stroke-width: 1.0;"/><polygon fill="#000000" points="523.116,302.566,532.9143,301.5689,527.456,300.0832,528.9417,294.6249,523.116,302.566" style="stroke: #000000; stroke-width: 1.0;"/><!--link EU to N6--><path d="M655.846,235.332 C642.177,250.964 621.895,274.161 606.362,291.925 " fill="none" id="EU-N6" style="stroke: #000000; stroke-width: 1.0;"/><polygon fill="#000000" points="602.925,295.856,611.8604,291.7137,606.2162,292.092,605.8379,286.4478,602.925,295.856" style="stroke: #000000; stroke-width: 1.0;"/><!--link EU to N7--><path d="M671,235.332 C671,250.57 671,272.996 671,290.571 " fill="none" id="EU-N7" style="stroke: #000000; stroke-width: 1.0;"/><polygon fill="#000000" points="671,295.856,675,286.856,671,290.856,667,286.856,671,295.856" style="stroke: #000000; stroke-width: 1.0;"/><!--link EU to N8--><path d="M686.154,235.332 C699.823,250.964 720.105,274.161 735.638,291.925 " fill="none" id="EU-N8" style="stroke: #000000; stroke-width: 1.0;"/><polygon fill="#000000" points="739.075,295.856,736.1621,286.4478,735.7838,292.092,730.1396,291.7137,739.075,295.856" style="stroke: #000000; stroke-width: 1.0;"/><!--link RU to N9--><path d="M326.197,438.105 C291.791,456.61 237.324,485.904 203.453,504.1213 " fill="none" id="RU-N9" style="stroke: #000000; stroke-width: 1.0;"/><polygon fill="#000000" points="199.019,506.506,208.84,505.7655,203.4224,504.1375,205.0504,498.72,199.019,506.506" style="stroke: #000000; stroke-width: 1.0;"/><!--link RU to N10--><path d="M341.626,438.332 C326.858,453.964 304.944,477.161 288.162,494.925 " fill="none" id="RU-N10" style="stroke: #000000; stroke-width: 1.0;"/><polygon fill="#000000" points="284.447,498.856,293.5357,495.0619,287.8811,495.2219,287.7211,489.5673,284.447,498.856" style="stroke: #000000; stroke-width: 1.0;"/><!--link RU to N11--><path d="M358,438.332 C358,453.57 358,475.996 358,493.571 " fill="none" id="RU-N11" style="stroke: #000000; stroke-width: 1.0;"/><polygon fill="#000000" points="358,498.856,362,489.856,358,493.856,354,489.856,358,498.856" style="stroke: #000000; stroke-width: 1.0;"/><!--link RU to N12--><path d="M374.374,438.332 C389.142,453.964 411.056,477.161 427.838,494.925 " fill="none" id="RU-N12" style="stroke: #000000; stroke-width: 1.0;"/><polygon fill="#000000" points="431.553,498.856,428.2789,489.5673,428.1189,495.2219,422.4643,495.0619,431.553,498.856" style="stroke: #000000; stroke-width: 1.0;"/><!--link JA to N13--><path d="M793.959,430.545 C748.684,444.298 663.626,471.116 593,499 C588.832,500.6455 584.502,502.4672 580.231,504.3336 " fill="none" id="JA-N13" style="stroke: #000000; stroke-width: 1.0;"/><polygon fill="#000000" points="575.631,506.3703,585.4798,506.3842,580.2029,504.3461,582.2411,499.0691,575.631,506.3703" style="stroke: #000000; stroke-width: 1.0;"/><!--link JA to N14--><path d="M794.025,438.105 C760.626,455.972 708.424,483.897 674.213,502.1981 " fill="none" id="JA-N14" style="stroke: #000000; stroke-width: 1.0;"/><polygon fill="#000000" points="669.717,504.6032,679.5396,503.8849,674.1258,502.2447,675.766,496.8308,669.717,504.6032" style="stroke: #000000; stroke-width: 1.0;"/><!--link JA to N15--><path d="M809.975,438.332 C795.521,453.964 774.072,477.161 757.648,494.925 " fill="none" id="JA-N15" style="stroke: #000000; stroke-width: 1.0;"/><polygon fill="#000000" points="754.012,498.856,763.0588,494.9629,757.4062,495.1846,757.1845,489.5321,754.012,498.856" style="stroke: #000000; stroke-width: 1.0;"/><!--link JA to N16--><path d="M826.348,438.332 C826.655,453.57 827.105,475.996 827.459,493.571 " fill="none" id="JA-N16" style="stroke: #000000; stroke-width: 1.0;"/><polygon fill="#000000" points="827.565,498.856,831.3816,489.7767,827.4636,493.857,823.3832,489.939,827.565,498.856" style="stroke: #000000; stroke-width: 1.0;"/><!--link JA to N17--><path d="M842.722,438.332 C857.805,453.964 880.185,477.161 897.324,494.925 " fill="none" id="JA-N17" style="stroke: #000000; stroke-width: 1.0;"/><polygon fill="#000000" points="901.118,498.856,897.7465,489.6022,897.6459,495.2582,891.9899,495.1576,901.118,498.856" style="stroke: #000000; stroke-width: 1.0;"/><!--link JA to N18--><path d="M858.231,437.879 C892.58,455.867 946.746,484.233 981.823,502.6018 " fill="none" id="JA-N18" style="stroke: #000000; stroke-width: 1.0;"/><polygon fill="#000000" points="986.428,505.0137,980.3113,497.2945,981.9988,502.6938,976.5995,504.3813,986.428,505.0137" style="stroke: #000000; stroke-width: 1.0;"/><!--link CA to N19--><path d="M1000.626,235.332 C985.858,250.964 963.944,274.161 947.162,291.925 " fill="none" id="CA-N19" style="stroke: #000000; stroke-width: 1.0;"/><polygon fill="#000000" points="943.447,295.856,952.5357,292.0619,946.8811,292.2219,946.7211,286.5673,943.447,295.856" style="stroke: #000000; stroke-width: 1.0;"/><!--link CA to N20--><path d="M1017,235.332 C1017,250.57 1017,272.996 1017,290.571 " fill="none" id="CA-N20" style="stroke: #000000; stroke-width: 1.0;"/><polygon fill="#000000" points="1017,295.856,1021,286.856,1017,290.856,1013,286.856,1017,295.856" style="stroke: #000000; stroke-width: 1.0;"/><!--link CA to N21--><path d="M1033.37,235.332 C1048.14,250.964 1070.06,274.161 1086.84,291.925 " fill="none" id="CA-N21" style="stroke: #000000; stroke-width: 1.0;"/><polygon fill="#000000" points="1090.55,295.856,1087.2686,286.5699,1087.113,292.2246,1081.4583,292.069,1090.55,295.856" style="stroke: #000000; stroke-width: 1.0;"/><!--link CA to N22--><path d="M1049.32,235.105 C1083.18,253.025 1136.15,281.063 1170.73,299.361 " fill="none" id="CA-N22" style="stroke: #000000; stroke-width: 1.0;"/><polygon fill="#000000" points="1175.27,301.765,1169.1924,294.015,1170.8526,299.4227,1165.4448,301.0829,1175.27,301.765" style="stroke: #000000; stroke-width: 1.0;"/><!--link N1 to N2--><!--link N2 to N3--><!--link N3 to N4--><!--link N5 to N6--><!--link N6 to N7--><!--link N7 to N8--><!--link N9 to N10--><!--link N10 to N11--><!--link N11 to N12--><!--link N12 to N13--><!--link N13 to N14--><!--link N14 to N15--><!--
@startuml
skinparam shadowing false
skinparam ParticipantPadding 95


package "Network map" as NM {


storage "Loc: Ca" as CA  #white

package "Container" as CN {
storage root #lightgreen
storage "Loc: US" as US #lightgreen
storage "Loc: EU" as EU #lightgreen
storage "Loc: RU" as RU  #white
storage "Loc: Ja" as JA #lightcoral





storage "<math>N_1</math>" as N1  #white
storage "<math>N_2</math>" as N2 #lightgreen
storage "<math>N_3</math>" as N3  #white
storage "<math>N_4</math>" as N4 #lightgreen
storage "<math>N_5</math>" as N5 #lightgreen
storage "<math>N_6</math>" as N6 #lightgreen
storage "<math>N_7</math>" as N7   #white
storage "<math>N_8</math>" as N8   #white
storage "<math>N_9</math>" as N9   #white
storage "<math>N_10</math>" as N10   #white
storage "<math>N_11</math>" as N11   #white
storage "<math>N_12</math>" as N12   #white
storage "<math>N_13</math>" as N13 #pink
storage "<math>N_14</math>" as N14   #white
storage "<math>N_15</math>" as N15 #lightcoral
storage "<math>N_16</math>" as N16 #lightcoral



}

storage "<math>N_17</math>" as N17 #white
storage "<math>N_18</math>" as N18 #white
storage "<math>N_19</math>" as N19 #white
storage "<math>N_20</math>" as N20 #white
storage "<math>N_21</math>" as N21 #white
storage "<math>N_22</math>" as N22 #white

}


N4 -[#0000FF]> N5 : replicate \nobject
N4 -[#0000FF]> N6

root -down-> EU  #black
root -down-> US #black
root -down- - -> RU #black
root -down- - -> JA #black

root -down-> CA #black

US -down-> N1 #black
US -down-> N2 #black
US -down-> N3 #black
US -down-> N4 #black

EU -down-> N5 #black
EU -down-> N6 #black
EU -down-> N7 #black
EU -down-> N8 #black

RU -down-> N9 #black
RU -down-> N10 #black
RU -down-> N11 #black
RU -down-> N12 #black

JA -down-> N13 #black
JA -down-> N14 #black
JA -down-> N15 #black
JA -down-> N16 #black

JA -down-> N17 #black
JA -down-> N18 #black

CA -down-> N19 #black
CA -down-> N20 #black
CA -down-> N21 #black
CA -down-> N22 #black

N1 -[hidden]right-> N2 #black
N2 -[hidden]right-> N3 #black
N3 -[hidden]right-> N4 #black
N4 -[hidden]right-> N5 #black
N5 -[hidden]right-> N6 #black
N6 -[hidden]right-> N7 #black
N7 -[hidden]right-> N8 #black

N9 -[hidden]right-> N10
N10 -[hidden]right-> N11
N11 -[hidden]right-> N12
N12 -[hidden]right-> N13
N13 -[hidden]right-> N14
N14 -[hidden]right-> N15
@enduml

PlantUML version 1.2019.00(Sun Jan 13 15:46:42 UTC 2019)
(GPL source distribution)
Java Runtime: Java(TM) SE Runtime Environment
JVM: Java HotSpot(TM) 64-Bit Server VM
Java Version: 1.7.0_25-b15
Operating System: Linux
Default Encoding: UTF-8
Language: en
Country: US
--></g></svg>