<?xml version="1.0" encoding="UTF-8" standalone="no"?><svg xmlns="http://www.w3.org/2000/svg" xmlns:xlink="http://www.w3.org/1999/xlink" contentScriptType="application/ecmascript" contentStyleType="text/css" height="596px" preserveAspectRatio="none" style="width:1246px;height:596px;" version="1.1" viewBox="0 0 1246 596" width="1246px" zoomAndPan="magnify"><defs/><g><!--cluster NM--><polygon fill="#FFFFFF" points="22,24,133,24,140,46.2969,1224,46.2969,1224,584,22,584,22,24" style="stroke: #000000; stroke-width: 1.5;"/><line style="stroke: #000000; stroke-width: 1.5;" x1="22" x2="140" y1="46.2969" y2="46.2969"/><text fill="#000000" font-family="sans-serif" font-size="14" font-weight="bold" lengthAdjust="spacingAndGlyphs" textLength="105" x="26" y="38.9951">Network map</text><!--cluster CN--><polygon fill="#FFFFFF" points="46,67,129,67,136,89.2969,850,89.2969,850,560,46,560,46,67" style="stroke: #000000; stroke-width: 1.5;"/><line style="stroke: #000000; stroke-width: 1.5;" x1="46" x2="136" y1="89.2969" y2="89.2969"/><text fill="#000000" font-family="sans-serif" font-size="14" font-weight="bold" lengthAdjust="spacingAndGlyphs" textLength="77" x="50" y="81.9951">Container</text><!--entity CA--><rect fill="#FFFFFF" height="36.2969" rx="35" ry="35" style="stroke: #000000; stroke-width: 1.5;" width="71" x="954.5" y="199"/><text fill="#000000" font-family="sans-serif" font-size="14" lengthAdjust="spacingAndGlyphs" textLength="51" x="964.5" y="221.9951">Loc: Ca</text><!--entity N17--><rect fill="#FFFFFF" height="45" rx="35" ry="35" style="stroke: #000000; stroke-width: 1.5;" width="59" x="868.5" y="499"/><svg x="878.5" y="509"><!--Generated by the Batik Graphics2D SVG Generator--><defs id="genericDefs"
  /><g
  ><g transform="scale(20,20) translate(0.2,0.8833)" style="font-size:1; text-rendering:geometricPrecision; color-rendering:optimizeQuality; image-rendering:optimizeQuality; font-family:&apos;jlm_cmmi10&apos;; color-interpolation:linearRGB;"
    ><path style="stroke:none;" d="M0.75 -0.5781 L0.6094 -0.0156 Q0.6094 0 0.6094 0 L0.6094 0 L0.5938 0 Q0.5938 0 0.5781 -0.0156 Q0.5781 -0.0156 0.5781 -0.0156 L0.3281 -0.6094 L0.3281 -0.625 L0.1875 -0.0938 Q0.1875 -0.0781 0.1875 -0.0781 Q0.1875 -0.0469 0.2344 -0.0312 Q0.2344 -0.0312 0.25 -0.0312 Q0.2656 -0.0312 0.2656 -0.0156 Q0.2656 0 0.25 0 L0.1562 0 L0.1562 0 L0.0469 0 L0.0469 0 Q0.0312 0 0.0312 -0.0156 Q0.0312 -0.0312 0.0625 -0.0312 Q0.1406 -0.0312 0.1562 -0.0781 Q0.1562 -0.0938 0.1562 -0.1094 L0.2969 -0.6406 Q0.2969 -0.6562 0.2344 -0.6562 Q0.2031 -0.6562 0.2031 -0.6562 Q0.2031 -0.6875 0.2188 -0.6875 L0.2344 -0.6875 L0.3594 -0.6875 Q0.3906 -0.6875 0.3906 -0.6719 Q0.3906 -0.6719 0.3906 -0.6562 L0.625 -0.1406 L0.7344 -0.5938 Q0.7344 -0.5938 0.7344 -0.6094 Q0.7344 -0.6562 0.6719 -0.6562 Q0.6406 -0.6562 0.6406 -0.6562 Q0.6406 -0.6875 0.6719 -0.6875 L0.7656 -0.6875 L0.7656 -0.6875 L0.8594 -0.6875 L0.875 -0.6875 Q0.875 -0.6875 0.875 -0.6719 Q0.875 -0.6562 0.8594 -0.6562 Q0.7812 -0.6562 0.7656 -0.6094 L0.7656 -0.6094 Q0.7656 -0.5938 0.75 -0.5781 Z"
    /></g
    ><g transform="matrix(20,0,0,20,0,0) translate(1.0035,1.0333) scale(0.7,0.7)" style="font-size:1; text-rendering:geometricPrecision; color-rendering:optimizeQuality; image-rendering:optimizeQuality; font-family:&apos;jlm_cmr10&apos;; color-interpolation:linearRGB;"
    ><path style="stroke:none;" d="M0.2969 -0.6406 L0.2969 -0.0781 Q0.2969 -0.0469 0.3125 -0.0469 Q0.3281 -0.0312 0.3906 -0.0312 L0.4219 -0.0312 L0.4219 0 Q0.3906 0 0.25 0 Q0.125 0 0.0938 0 L0.0938 -0.0312 L0.125 -0.0312 Q0.2031 -0.0312 0.2188 -0.0469 L0.2188 -0.0469 Q0.2188 -0.0625 0.2188 -0.0781 L0.2188 -0.5938 Q0.1719 -0.5781 0.0938 -0.5781 L0.0938 -0.6094 Q0.2031 -0.6094 0.2656 -0.6719 Q0.2969 -0.6719 0.2969 -0.6562 L0.2969 -0.6562 L0.2969 -0.6562 Q0.2969 -0.6562 0.2969 -0.6406 Z"
    /></g
    ><g transform="matrix(20,0,0,20,0,0) translate(1.3535,1.0333) scale(0.7,0.7)" style="font-size:1; text-rendering:geometricPrecision; color-rendering:optimizeQuality; image-rendering:optimizeQuality; font-family:&apos;jlm_cmr10&apos;; color-interpolation:linearRGB;"
    ><path style="stroke:none;" d="M0.4688 -0.6094 L0.3438 -0.4219 Q0.2969 -0.3594 0.2812 -0.25 Q0.2656 -0.1719 0.2656 -0.0781 L0.2656 -0.0312 Q0.2656 0.0156 0.2188 0.0156 Q0.1719 0.0156 0.1719 -0.0312 Q0.1719 -0.2031 0.2656 -0.375 L0.2969 -0.4062 L0.4062 -0.5625 L0.2031 -0.5625 Q0.1094 -0.5625 0.1094 -0.5625 Q0.0938 -0.5469 0.0781 -0.4688 L0.0625 -0.4688 L0.0938 -0.6719 L0.1094 -0.6719 Q0.125 -0.6562 0.125 -0.6562 L0.1406 -0.6562 L0.1406 -0.6562 Q0.1562 -0.6406 0.2344 -0.6406 L0.4844 -0.6406 Q0.4844 -0.625 0.4688 -0.6094 Z"
    /></g
  ></g
></svg
>
<!--entity N18--><rect fill="#FFFFFF" height="45" rx="35" ry="35" style="stroke: #000000; stroke-width: 1.5;" width="59" x="962.5" y="499"/><svg x="972.5" y="509"><!--Generated by the Batik Graphics2D SVG Generator--><defs id="genericDefs"
  /><g
  ><g transform="scale(20,20) translate(0.2,0.8833)" style="font-size:1; text-rendering:geometricPrecision; color-rendering:optimizeQuality; image-rendering:optimizeQuality; font-family:&apos;jlm_cmmi10&apos;; color-interpolation:linearRGB;"
    ><path style="stroke:none;" d="M0.75 -0.5781 L0.6094 -0.0156 Q0.6094 0 0.6094 0 L0.6094 0 L0.5938 0 Q0.5938 0 0.5781 -0.0156 Q0.5781 -0.0156 0.5781 -0.0156 L0.3281 -0.6094 L0.3281 -0.625 L0.1875 -0.0938 Q0.1875 -0.0781 0.1875 -0.0781 Q0.1875 -0.0469 0.2344 -0.0312 Q0.2344 -0.0312 0.25 -0.0312 Q0.2656 -0.0312 0.2656 -0.0156 Q0.2656 0 0.25 0 L0.1562 0 L0.1562 0 L0.0469 0 L0.0469 0 Q0.0312 0 0.0312 -0.0156 Q0.0312 -0.0312 0.0625 -0.0312 Q0.1406 -0.0312 0.1562 -0.0781 Q0.1562 -0.0938 0.1562 -0.1094 L0.2969 -0.6406 Q0.2969 -0.6562 0.2344 -0.6562 Q0.2031 -0.6562 0.2031 -0.6562 Q0.2031 -0.6875 0.2188 -0.6875 L0.2344 -0.6875 L0.3594 -0.6875 Q0.3906 -0.6875 0.3906 -0.6719 Q0.3906 -0.6719 0.3906 -0.6562 L0.625 -0.1406 L0.7344 -0.5938 Q0.7344 -0.5938 0.7344 -0.6094 Q0.7344 -0.6562 0.6719 -0.6562 Q0.6406 -0.6562 0.6406 -0.6562 Q0.6406 -0.6875 0.6719 -0.6875 L0.7656 -0.6875 L0.7656 -0.6875 L0.8594 -0.6875 L0.875 -0.6875 Q0.875 -0.6875 0.875 -0.6719 Q0.875 -0.6562 0.8594 -0.6562 Q0.7812 -0.6562 0.7656 -0.6094 L0.7656 -0.6094 Q0.7656 -0.5938 0.75 -0.5781 Z"
    /></g
    ><g transform="matrix(20,0,0,20,0,0) translate(1.0035,1.0333) scale(0.7,0.7)" style="font-size:1; text-rendering:geometricPrecision; color-rendering:optimizeQuality; image-rendering:optimizeQuality; font-family:&apos;jlm_cmr10&apos;; color-interpolation:linearRGB;"
    ><path style="stroke:none;" d="M0.2969 -0.6406 L0.2969 -0.0781 Q0.2969 -0.0469 0.3125 -0.0469 Q0.3281 -0.0312 0.3906 -0.0312 L0.4219 -0.0312 L0.4219 0 Q0.3906 0 0.25 0 Q0.125 0 0.0938 0 L0.0938 -0.0312 L0.125 -0.0312 Q0.2031 -0.0312 0.2188 -0.0469 L0.2188 -0.0469 Q0.2188 -0.0625 0.2188 -0.0781 L0.2188 -0.5938 Q0.1719 -0.5781 0.0938 -0.5781 L0.0938 -0.6094 Q0.2031 -0.6094 0.2656 -0.6719 Q0.2969 -0.6719 0.2969 -0.6562 L0.2969 -0.6562 L0.2969 -0.6562 Q0.2969 -0.6562 0.2969 -0.6406 Z"
    /></g
    ><g transform="matrix(20,0,0,20,0,0) translate(1.3535,1.0333) scale(0.7,0.7)" style="font-size:1; text-rendering:geometricPrecision; color-rendering:optimizeQuality; image-rendering:optimizeQuality; font-family:&apos;jlm_cmr10&apos;; color-interpolation:linearRGB;"
    ><path style="stroke:none;" d="M0.1562 -0.4531 L0.2812 -0.375 Q0.3906 -0.4375 0.3906 -0.5156 Q0.3906 -0.5781 0.3281 -0.625 Q0.2969 -0.6406 0.25 -0.6406 Q0.1719 -0.6406 0.1406 -0.5938 L0.1406 -0.5938 L0.1406 -0.5938 Q0.1094 -0.5625 0.1094 -0.5312 Q0.1094 -0.4844 0.1562 -0.4531 ZM0.3125 -0.3594 L0.3125 -0.3594 Q0.3906 -0.3125 0.4062 -0.2969 Q0.4062 -0.2969 0.4062 -0.2969 Q0.4531 -0.2344 0.4531 -0.1719 Q0.4531 -0.0781 0.3906 -0.0156 Q0.3281 0.0156 0.25 0.0156 Q0.1562 0.0156 0.0938 -0.0312 Q0.0469 -0.0781 0.0469 -0.1562 Q0.0469 -0.2656 0.1875 -0.3281 Q0.125 -0.375 0.1094 -0.3906 Q0.0625 -0.4375 0.0625 -0.5 Q0.0625 -0.5781 0.1406 -0.625 Q0.1875 -0.6719 0.25 -0.6719 Q0.3438 -0.6719 0.3906 -0.6094 Q0.4375 -0.5781 0.4375 -0.5156 Q0.4375 -0.4219 0.3125 -0.3594 ZM0.2031 -0.3125 L0.2031 -0.3125 Q0.0938 -0.25 0.0938 -0.1562 Q0.0938 -0.0781 0.1562 -0.0312 Q0.2031 0 0.25 0 Q0.3281 0 0.375 -0.0625 Q0.4062 -0.0938 0.4062 -0.125 Q0.4062 -0.1875 0.3438 -0.2344 Q0.3438 -0.2344 0.3281 -0.2344 L0.2031 -0.3125 Z"
    /></g
  ></g
></svg
>
<!--entity N19--><rect fill="#FFFFFF" height="45" rx="35" ry="35" style="stroke: #000000; stroke-width: 1.5;" width="59" x="866.5" y="296"/><svg x="876.5" y="306"><!--Generated by the Batik Graphics2D SVG Generator--><defs id="genericDefs"
  /><g
  ><g transform="scale(20,20) translate(0.2,0.8833)" style="font-size:1; text-rendering:geometricPrecision; color-rendering:optimizeQuality; image-rendering:optimizeQuality; font-family:&apos;jlm_cmmi10&apos;; color-interpolation:linearRGB;"
    ><path style="stroke:none;" d="M0.75 -0.5781 L0.6094 -0.0156 Q0.6094 0 0.6094 0 L0.6094 0 L0.5938 0 Q0.5938 0 0.5781 -0.0156 Q0.5781 -0.0156 0.5781 -0.0156 L0.3281 -0.6094 L0.3281 -0.625 L0.1875 -0.0938 Q0.1875 -0.0781 0.1875 -0.0781 Q0.1875 -0.0469 0.2344 -0.0312 Q0.2344 -0.0312 0.25 -0.0312 Q0.2656 -0.0312 0.2656 -0.0156 Q0.2656 0 0.25 0 L0.1562 0 L0.1562 0 L0.0469 0 L0.0469 0 Q0.0312 0 0.0312 -0.0156 Q0.0312 -0.0312 0.0625 -0.0312 Q0.1406 -0.0312 0.1562 -0.0781 Q0.1562 -0.0938 0.1562 -0.1094 L0.2969 -0.6406 Q0.2969 -0.6562 0.2344 -0.6562 Q0.2031 -0.6562 0.2031 -0.6562 Q0.2031 -0.6875 0.2188 -0.6875 L0.2344 -0.6875 L0.3594 -0.6875 Q0.3906 -0.6875 0.3906 -0.6719 Q0.3906 -0.6719 0.3906 -0.6562 L0.625 -0.1406 L0.7344 -0.5938 Q0.7344 -0.5938 0.7344 -0.6094 Q0.7344 -0.6562 0.6719 -0.6562 Q0.6406 -0.6562 0.6406 -0.6562 Q0.6406 -0.6875 0.6719 -0.6875 L0.7656 -0.6875 L0.7656 -0.6875 L0.8594 -0.6875 L0.875 -0.6875 Q0.875 -0.6875 0.875 -0.6719 Q0.875 -0.6562 0.8594 -0.6562 Q0.7812 -0.6562 0.7656 -0.6094 L0.7656 -0.6094 Q0.7656 -0.5938 0.75 -0.5781 Z"
    /></g
    ><g transform="matrix(20,0,0,20,0,0) translate(1.0035,1.0333) scale(0.7,0.7)" style="font-size:1; text-rendering:geometricPrecision; color-rendering:optimizeQuality; image-rendering:optimizeQuality; font-family:&apos;jlm_cmr10&apos;; color-interpolation:linearRGB;"
    ><path style="stroke:none;" d="M0.2969 -0.6406 L0.2969 -0.0781 Q0.2969 -0.0469 0.3125 -0.0469 Q0.3281 -0.0312 0.3906 -0.0312 L0.4219 -0.0312 L0.4219 0 Q0.3906 0 0.25 0 Q0.125 0 0.0938 0 L0.0938 -0.0312 L0.125 -0.0312 Q0.2031 -0.0312 0.2188 -0.0469 L0.2188 -0.0469 Q0.2188 -0.0625 0.2188 -0.0781 L0.2188 -0.5938 Q0.1719 -0.5781 0.0938 -0.5781 L0.0938 -0.6094 Q0.2031 -0.6094 0.2656 -0.6719 Q0.2969 -0.6719 0.2969 -0.6562 L0.2969 -0.6562 L0.2969 -0.6562 Q0.2969 -0.6562 0.2969 -0.6406 Z"
    /></g
    ><g transform="matrix(20,0,0,20,0,0) translate(1.3535,1.0333) scale(0.7,0.7)" style="font-size:1; text-rendering:geometricPrecision; color-rendering:optimizeQuality; image-rendering:optimizeQuality; font-family:&apos;jlm_cmr10&apos;; color-interpolation:linearRGB;"
    ><path style="stroke:none;" d="M0.3594 -0.3125 Q0.3281 -0.2188 0.2344 -0.2188 Q0.1562 -0.2188 0.0938 -0.2969 L0.0938 -0.2969 Q0.0469 -0.3594 0.0469 -0.4453 Q0.0469 -0.5312 0.0938 -0.5938 L0.1094 -0.6094 Q0.1719 -0.6719 0.25 -0.6719 Q0.3594 -0.6719 0.4062 -0.5625 Q0.4531 -0.4844 0.4531 -0.3281 Q0.4531 -0.1562 0.3594 -0.0625 Q0.2969 0.0156 0.2031 0.0156 Q0.1094 0.0156 0.0781 -0.0312 Q0.0625 -0.0625 0.0625 -0.0938 Q0.0625 -0.125 0.1094 -0.1406 Q0.1094 -0.1406 0.1094 -0.1406 Q0.1406 -0.1406 0.1562 -0.1094 Q0.1562 -0.0938 0.1562 -0.0938 Q0.1562 -0.0469 0.125 -0.0469 Q0.1094 -0.0469 0.1094 -0.0469 Q0.1406 0 0.2031 0 Q0.2812 0 0.3281 -0.0781 Q0.3594 -0.1562 0.3594 -0.2812 L0.3594 -0.3125 ZM0.25 -0.2344 Q0.3281 -0.2344 0.3594 -0.3281 Q0.3594 -0.375 0.3594 -0.4219 Q0.3594 -0.5156 0.3438 -0.5625 Q0.3281 -0.625 0.2656 -0.6406 Q0.2656 -0.6406 0.25 -0.6406 Q0.1875 -0.6406 0.1562 -0.5781 Q0.125 -0.5469 0.125 -0.4531 L0.125 -0.4375 Q0.125 -0.3438 0.1562 -0.2969 Q0.1875 -0.2344 0.25 -0.2344 Z"
    /></g
  ></g
></svg
>
<!--entity N20--><rect fill="#FFFFFF" height="45" rx="35" ry="35" style="stroke: #000000; stroke-width: 1.5;" width="59" x="960.5" y="296"/><svg x="970.5" y="306"><!--Generated by the Batik Graphics2D SVG Generator--><defs id="genericDefs"
  /><g
  ><g transform="scale(20,20) translate(0.2,0.8833)" style="font-size:1; text-rendering:geometricPrecision; color-rendering:optimizeQuality; image-rendering:optimizeQuality; font-family:&apos;jlm_cmmi10&apos;; color-interpolation:linearRGB;"
    ><path style="stroke:none;" d="M0.75 -0.5781 L0.6094 -0.0156 Q0.6094 0 0.6094 0 L0.6094 0 L0.5938 0 Q0.5938 0 0.5781 -0.0156 Q0.5781 -0.0156 0.5781 -0.0156 L0.3281 -0.6094 L0.3281 -0.625 L0.1875 -0.0938 Q0.1875 -0.0781 0.1875 -0.0781 Q0.1875 -0.0469 0.2344 -0.0312 Q0.2344 -0.0312 0.25 -0.0312 Q0.2656 -0.0312 0.2656 -0.0156 Q0.2656 0 0.25 0 L0.1562 0 L0.1562 0 L0.0469 0 L0.0469 0 Q0.0312 0 0.0312 -0.0156 Q0.0312 -0.0312 0.0625 -0.0312 Q0.1406 -0.0312 0.1562 -0.0781 Q0.1562 -0.0938 0.1562 -0.1094 L0.2969 -0.6406 Q0.2969 -0.6562 0.2344 -0.6562 Q0.2031 -0.6562 0.2031 -0.6562 Q0.2031 -0.6875 0.2188 -0.6875 L0.2344 -0.6875 L0.3594 -0.6875 Q0.3906 -0.6875 0.3906 -0.6719 Q0.3906 -0.6719 0.3906 -0.6562 L0.625 -0.1406 L0.7344 -0.5938 Q0.7344 -0.5938 0.7344 -0.6094 Q0.7344 -0.6562 0.6719 -0.6562 Q0.6406 -0.6562 0.6406 -0.6562 Q0.6406 -0.6875 0.6719 -0.6875 L0.7656 -0.6875 L0.7656 -0.6875 L0.8594 -0.6875 L0.875 -0.6875 Q0.875 -0.6875 0.875 -0.6719 Q0.875 -0.6562 0.8594 -0.6562 Q0.7812 -0.6562 0.7656 -0.6094 L0.7656 -0.6094 Q0.7656 -0.5938 0.75 -0.5781 Z"
    /></g
    ><g transform="matrix(20,0,0,20,0,0) translate(1.0035,1.0333) scale(0.7,0.7)" style="font-size:1; text-rendering:geometricPrecision; color-rendering:optimizeQuality; image-rendering:optimizeQuality; font-family:&apos;jlm_cmr10&apos;; color-interpolation:linearRGB;"
    ><path style="stroke:none;" d="M0.4531 -0.1719 L0.4531 -0.1719 L0.4219 0 L0.0469 0 Q0.0469 -0.0312 0.0625 -0.0312 L0.0625 -0.0312 L0.25 -0.25 Q0.3594 -0.375 0.3594 -0.4688 Q0.3594 -0.5625 0.2969 -0.6094 L0.2969 -0.6094 L0.2969 -0.6094 Q0.2656 -0.6406 0.2188 -0.6406 Q0.1562 -0.6406 0.1094 -0.5781 Q0.0938 -0.5625 0.0938 -0.5312 Q0.0938 -0.5312 0.1094 -0.5312 Q0.1406 -0.5312 0.1562 -0.5 L0.1562 -0.5 Q0.1562 -0.4844 0.1562 -0.4844 Q0.1562 -0.4375 0.1094 -0.4375 Q0.1094 -0.4219 0.1094 -0.4219 Q0.0625 -0.4219 0.0469 -0.4531 Q0.0469 -0.4688 0.0469 -0.4844 Q0.0469 -0.5625 0.1094 -0.6094 Q0.1562 -0.6719 0.2344 -0.6719 Q0.3438 -0.6719 0.4062 -0.5938 Q0.4375 -0.5469 0.4531 -0.4844 Q0.4531 -0.4844 0.4531 -0.4688 Q0.4531 -0.4062 0.3906 -0.3281 Q0.3594 -0.2969 0.2969 -0.25 L0.25 -0.1875 L0.2344 -0.1875 L0.125 -0.0781 L0.3125 -0.0781 Q0.3906 -0.0781 0.4062 -0.0781 Q0.4062 -0.0938 0.4219 -0.1719 L0.4531 -0.1719 Z"
    /></g
    ><g transform="matrix(20,0,0,20,0,0) translate(1.3535,1.0333) scale(0.7,0.7)" style="font-size:1; text-rendering:geometricPrecision; color-rendering:optimizeQuality; image-rendering:optimizeQuality; font-family:&apos;jlm_cmr10&apos;; color-interpolation:linearRGB;"
    ><path style="stroke:none;" d="M0.4531 -0.3125 Q0.4531 -0.1719 0.4219 -0.0938 Q0.3594 0.0156 0.25 0.0156 Q0.1562 0.0156 0.1094 -0.0469 Q0.0938 -0.0625 0.0781 -0.0781 Q0.0312 -0.1562 0.0312 -0.3125 Q0.0312 -0.4688 0.0781 -0.5469 Q0.125 -0.6562 0.2344 -0.6719 L0.25 -0.6719 Q0.3438 -0.6719 0.3906 -0.5938 L0.3906 -0.5938 Q0.4062 -0.5781 0.4219 -0.5469 Q0.4531 -0.4688 0.4531 -0.3125 ZM0.25 0 L0.25 0 Q0.3125 0 0.3438 -0.0625 Q0.3594 -0.0938 0.3594 -0.125 Q0.375 -0.1875 0.375 -0.3281 Q0.375 -0.4688 0.3594 -0.5312 Q0.3438 -0.625 0.2812 -0.6406 Q0.2656 -0.6406 0.25 -0.6406 Q0.1719 -0.6406 0.1406 -0.5781 Q0.1406 -0.5469 0.125 -0.5156 Q0.125 -0.4688 0.125 -0.3281 Q0.125 -0.1875 0.1406 -0.125 Q0.1562 -0.0312 0.2188 0 Q0.2344 0 0.25 0 Z"
    /></g
  ></g
></svg
>
<!--entity N21--><rect fill="#FFFFFF" height="45" rx="35" ry="35" style="stroke: #000000; stroke-width: 1.5;" width="59" x="1054.5" y="296"/><svg x="1064.5" y="306"><!--Generated by the Batik Graphics2D SVG Generator--><defs id="genericDefs"
  /><g
  ><g transform="scale(20,20) translate(0.2,0.8833)" style="font-size:1; text-rendering:geometricPrecision; color-rendering:optimizeQuality; image-rendering:optimizeQuality; font-family:&apos;jlm_cmmi10&apos;; color-interpolation:linearRGB;"
    ><path style="stroke:none;" d="M0.75 -0.5781 L0.6094 -0.0156 Q0.6094 0 0.6094 0 L0.6094 0 L0.5938 0 Q0.5938 0 0.5781 -0.0156 Q0.5781 -0.0156 0.5781 -0.0156 L0.3281 -0.6094 L0.3281 -0.625 L0.1875 -0.0938 Q0.1875 -0.0781 0.1875 -0.0781 Q0.1875 -0.0469 0.2344 -0.0312 Q0.2344 -0.0312 0.25 -0.0312 Q0.2656 -0.0312 0.2656 -0.0156 Q0.2656 0 0.25 0 L0.1562 0 L0.1562 0 L0.0469 0 L0.0469 0 Q0.0312 0 0.0312 -0.0156 Q0.0312 -0.0312 0.0625 -0.0312 Q0.1406 -0.0312 0.1562 -0.0781 Q0.1562 -0.0938 0.1562 -0.1094 L0.2969 -0.6406 Q0.2969 -0.6562 0.2344 -0.6562 Q0.2031 -0.6562 0.2031 -0.6562 Q0.2031 -0.6875 0.2188 -0.6875 L0.2344 -0.6875 L0.3594 -0.6875 Q0.3906 -0.6875 0.3906 -0.6719 Q0.3906 -0.6719 0.3906 -0.6562 L0.625 -0.1406 L0.7344 -0.5938 Q0.7344 -0.5938 0.7344 -0.6094 Q0.7344 -0.6562 0.6719 -0.6562 Q0.6406 -0.6562 0.6406 -0.6562 Q0.6406 -0.6875 0.6719 -0.6875 L0.7656 -0.6875 L0.7656 -0.6875 L0.8594 -0.6875 L0.875 -0.6875 Q0.875 -0.6875 0.875 -0.6719 Q0.875 -0.6562 0.8594 -0.6562 Q0.7812 -0.6562 0.7656 -0.6094 L0.7656 -0.6094 Q0.7656 -0.5938 0.75 -0.5781 Z"
    /></g
    ><g transform="matrix(20,0,0,20,0,0) translate(1.0035,1.0333) scale(0.7,0.7)" style="font-size:1; text-rendering:geometricPrecision; color-rendering:optimizeQuality; image-rendering:optimizeQuality; font-family:&apos;jlm_cmr10&apos;; color-interpolation:linearRGB;"
    ><path style="stroke:none;" d="M0.4531 -0.1719 L0.4531 -0.1719 L0.4219 0 L0.0469 0 Q0.0469 -0.0312 0.0625 -0.0312 L0.0625 -0.0312 L0.25 -0.25 Q0.3594 -0.375 0.3594 -0.4688 Q0.3594 -0.5625 0.2969 -0.6094 L0.2969 -0.6094 L0.2969 -0.6094 Q0.2656 -0.6406 0.2188 -0.6406 Q0.1562 -0.6406 0.1094 -0.5781 Q0.0938 -0.5625 0.0938 -0.5312 Q0.0938 -0.5312 0.1094 -0.5312 Q0.1406 -0.5312 0.1562 -0.5 L0.1562 -0.5 Q0.1562 -0.4844 0.1562 -0.4844 Q0.1562 -0.4375 0.1094 -0.4375 Q0.1094 -0.4219 0.1094 -0.4219 Q0.0625 -0.4219 0.0469 -0.4531 Q0.0469 -0.4688 0.0469 -0.4844 Q0.0469 -0.5625 0.1094 -0.6094 Q0.1562 -0.6719 0.2344 -0.6719 Q0.3438 -0.6719 0.4062 -0.5938 Q0.4375 -0.5469 0.4531 -0.4844 Q0.4531 -0.4844 0.4531 -0.4688 Q0.4531 -0.4062 0.3906 -0.3281 Q0.3594 -0.2969 0.2969 -0.25 L0.25 -0.1875 L0.2344 -0.1875 L0.125 -0.0781 L0.3125 -0.0781 Q0.3906 -0.0781 0.4062 -0.0781 Q0.4062 -0.0938 0.4219 -0.1719 L0.4531 -0.1719 Z"
    /></g
    ><g transform="matrix(20,0,0,20,0,0) translate(1.3535,1.0333) scale(0.7,0.7)" style="font-size:1; text-rendering:geometricPrecision; color-rendering:optimizeQuality; image-rendering:optimizeQuality; font-family:&apos;jlm_cmr10&apos;; color-interpolation:linearRGB;"
    ><path style="stroke:none;" d="M0.2969 -0.6406 L0.2969 -0.0781 Q0.2969 -0.0469 0.3125 -0.0469 Q0.3281 -0.0312 0.3906 -0.0312 L0.4219 -0.0312 L0.4219 0 Q0.3906 0 0.25 0 Q0.125 0 0.0938 0 L0.0938 -0.0312 L0.125 -0.0312 Q0.2031 -0.0312 0.2188 -0.0469 L0.2188 -0.0469 Q0.2188 -0.0625 0.2188 -0.0781 L0.2188 -0.5938 Q0.1719 -0.5781 0.0938 -0.5781 L0.0938 -0.6094 Q0.2031 -0.6094 0.2656 -0.6719 Q0.2969 -0.6719 0.2969 -0.6562 L0.2969 -0.6562 L0.2969 -0.6562 Q0.2969 -0.6562 0.2969 -0.6406 Z"
    /></g
  ></g
></svg
>
<!--entity N22--><rect fill="#FFFFFF" height="45" rx="35" ry="35" style="stroke: #000000; stroke-width: 1.5;" width="59" x="1148.5" y="296"/><svg x="1158.5" y="306"><!--Generated by the Batik Graphics2D SVG Generator--><defs id="genericDefs"
  /><g
  ><g transform="scale(20,20) translate(0.2,0.8833)" style="font-size:1; text-rendering:geometricPrecision; color-rendering:optimizeQuality; image-rendering:optimizeQuality; font-family:&apos;jlm_cmmi10&apos;; color-interpolation:linearRGB;"
    ><path style="stroke:none;" d="M0.75 -0.5781 L0.6094 -0.0156 Q0.6094 0 0.6094 0 L0.6094 0 L0.5938 0 Q0.5938 0 0.5781 -0.0156 Q0.5781 -0.0156 0.5781 -0.0156 L0.3281 -0.6094 L0.3281 -0.625 L0.1875 -0.0938 Q0.1875 -0.0781 0.1875 -0.0781 Q0.1875 -0.0469 0.2344 -0.0312 Q0.2344 -0.0312 0.25 -0.0312 Q0.2656 -0.0312 0.2656 -0.0156 Q0.2656 0 0.25 0 L0.1562 0 L0.1562 0 L0.0469 0 L0.0469 0 Q0.0312 0 0.0312 -0.0156 Q0.0312 -0.0312 0.0625 -0.0312 Q0.1406 -0.0312 0.1562 -0.0781 Q0.1562 -0.0938 0.1562 -0.1094 L0.2969 -0.6406 Q0.2969 -0.6562 0.2344 -0.6562 Q0.2031 -0.6562 0.2031 -0.6562 Q0.2031 -0.6875 0.2188 -0.6875 L0.2344 -0.6875 L0.3594 -0.6875 Q0.3906 -0.6875 0.3906 -0.6719 Q0.3906 -0.6719 0.3906 -0.6562 L0.625 -0.1406 L0.7344 -0.5938 Q0.7344 -0.5938 0.7344 -0.6094 Q0.7344 -0.6562 0.6719 -0.6562 Q0.6406 -0.6562 0.6406 -0.6562 Q0.6406 -0.6875 0.6719 -0.6875 L0.7656 -0.6875 L0.7656 -0.6875 L0.8594 -0.6875 L0.875 -0.6875 Q0.875 -0.6875 0.875 -0.6719 Q0.875 -0.6562 0.8594 -0.6562 Q0.7812 -0.6562 0.7656 -0.6094 L0.7656 -0.6094 Q0.7656 -0.5938 0.75 -0.5781 Z"
    /></g
    ><g transform="matrix(20,0,0,20,0,0) translate(1.0035,1.0333) scale(0.7,0.7)" style="font-size:1; text-rendering:geometricPrecision; color-rendering:optimizeQuality; image-rendering:optimizeQuality; font-family:&apos;jlm_cmr10&apos;; color-interpolation:linearRGB;"
    ><path style="stroke:none;" d="M0.4531 -0.1719 L0.4531 -0.1719 L0.4219 0 L0.0469 0 Q0.0469 -0.0312 0.0625 -0.0312 L0.0625 -0.0312 L0.25 -0.25 Q0.3594 -0.375 0.3594 -0.4688 Q0.3594 -0.5625 0.2969 -0.6094 L0.2969 -0.6094 L0.2969 -0.6094 Q0.2656 -0.6406 0.2188 -0.6406 Q0.1562 -0.6406 0.1094 -0.5781 Q0.0938 -0.5625 0.0938 -0.5312 Q0.0938 -0.5312 0.1094 -0.5312 Q0.1406 -0.5312 0.1562 -0.5 L0.1562 -0.5 Q0.1562 -0.4844 0.1562 -0.4844 Q0.1562 -0.4375 0.1094 -0.4375 Q0.1094 -0.4219 0.1094 -0.4219 Q0.0625 -0.4219 0.0469 -0.4531 Q0.0469 -0.4688 0.0469 -0.4844 Q0.0469 -0.5625 0.1094 -0.6094 Q0.1562 -0.6719 0.2344 -0.6719 Q0.3438 -0.6719 0.4062 -0.5938 Q0.4375 -0.5469 0.4531 -0.4844 Q0.4531 -0.4844 0.4531 -0.4688 Q0.4531 -0.4062 0.3906 -0.3281 Q0.3594 -0.2969 0.2969 -0.25 L0.25 -0.1875 L0.2344 -0.1875 L0.125 -0.0781 L0.3125 -0.0781 Q0.3906 -0.0781 0.4062 -0.0781 Q0.4062 -0.0938 0.4219 -0.1719 L0.4531 -0.1719 Z"
    /></g
    ><g transform="matrix(20,0,0,20,0,0) translate(1.3535,1.0333) scale(0.7,0.7)" style="font-size:1; text-rendering:geometricPrecision; color-rendering:optimizeQuality; image-rendering:optimizeQuality; font-family:&apos;jlm_cmr10&apos;; color-interpolation:linearRGB;"
    ><path style="stroke:none;" d="M0.4531 -0.1719 L0.4531 -0.1719 L0.4219 0 L0.0469 0 Q0.0469 -0.0312 0.0625 -0.0312 L0.0625 -0.0312 L0.25 -0.25 Q0.3594 -0.375 0.3594 -0.4688 Q0.3594 -0.5625 0.2969 -0.6094 L0.2969 -0.6094 L0.2969 -0.6094 Q0.2656 -0.6406 0.2188 -0.6406 Q0.1562 -0.6406 0.1094 -0.5781 Q0.0938 -0.5625 0.0938 -0.5312 Q0.0938 -0.5312 0.1094 -0.5312 Q0.1406 -0.5312 0.1562 -0.5 L0.1562 -0.5 Q0.1562 -0.4844 0.1562 -0.4844 Q0.1562 -0.4375 0.1094 -0.4375 Q0.1094 -0.4219 0.1094 -0.4219 Q0.0625 -0.4219 0.0469 -0.4531 Q0.0469 -0.4688 0.0469 -0.4844 Q0.0469 -0.5625 0.1094 -0.6094 Q0.1562 -0.6719 0.2344 -0.6719 Q0.3438 -0.6719 0.4062 -0.5938 Q0.4375 -0.5469 0.4531 -0.4844 Q0.4531 -0.4844 0.4531 -0.4688 Q0.4531 -0.4062 0.3906 -0.3281 Q0.3594 -0.2969 0.2969 -0.25 L0.25 -0.1875 L0.2344 -0.1875 L0.125 -0.0781 L0.3125 -0.0781 Q0.3906 -0.0781 0.4062 -0.0781 Q0.4062 -0.0938 0.4219 -0.1719 L0.4531 -0.1719 Z"
    /></g
  ></g
></svg
>
<!--entity root--><rect fill="#90EE90" height="36.2969" rx="35" ry="35" style="stroke: #000000; stroke-width: 1.5;" width="48" x="735" y="102"/><text fill="#000000" font-family="sans-serif" font-size="14" lengthAdjust="spacingAndGlyphs" textLength="28" x="745" y="124.9951">root</text><!--entity US--><rect fill="#90EE90" height="36.2969" rx="35" ry="35" style="stroke: #000000; stroke-width: 1.5;" width="72" x="226" y="199"/><text fill="#000000" font-family="sans-serif" font-size="14" lengthAdjust="spacingAndGlyphs" textLength="52" x="236" y="221.9951">Loc: US</text><!--entity EU--><rect fill="#FFFFFF" height="36.2969" rx="35" ry="35" style="stroke: #000000; stroke-width: 1.5;" width="72" x="574" y="199"/><text fill="#000000" font-family="sans-serif" font-size="14" lengthAdjust="spacingAndGlyphs" textLength="52" x="584" y="221.9951">Loc: EU</text><!--entity RU--><rect fill="#FFFFFF" height="36.2969" rx="35" ry="35" style="stroke: #000000; stroke-width: 1.5;" width="73" x="236.5" y="402"/><text fill="#000000" font-family="sans-serif" font-size="14" lengthAdjust="spacingAndGlyphs" textLength="53" x="246.5" y="424.9951">Loc: RU</text><!--entity JA--><rect fill="#90EE90" height="36.2969" rx="35" ry="35" style="stroke: #000000; stroke-width: 1.5;" width="64" x="764" y="402"/><text fill="#000000" font-family="sans-serif" font-size="14" lengthAdjust="spacingAndGlyphs" textLength="44" x="774" y="424.9951">Loc: Ja</text><!--entity N1--><rect fill="#FFFFFF" height="45" rx="35" ry="35" style="stroke: #000000; stroke-width: 1.5;" width="52" x="62" y="296"/><svg x="72" y="306"><!--Generated by the Batik Graphics2D SVG Generator--><defs id="genericDefs"
  /><g
  ><g transform="scale(20,20) translate(0.2,0.8833)" style="font-size:1; text-rendering:geometricPrecision; color-rendering:optimizeQuality; image-rendering:optimizeQuality; font-family:&apos;jlm_cmmi10&apos;; color-interpolation:linearRGB;"
    ><path style="stroke:none;" d="M0.75 -0.5781 L0.6094 -0.0156 Q0.6094 0 0.6094 0 L0.6094 0 L0.5938 0 Q0.5938 0 0.5781 -0.0156 Q0.5781 -0.0156 0.5781 -0.0156 L0.3281 -0.6094 L0.3281 -0.625 L0.1875 -0.0938 Q0.1875 -0.0781 0.1875 -0.0781 Q0.1875 -0.0469 0.2344 -0.0312 Q0.2344 -0.0312 0.25 -0.0312 Q0.2656 -0.0312 0.2656 -0.0156 Q0.2656 0 0.25 0 L0.1562 0 L0.1562 0 L0.0469 0 L0.0469 0 Q0.0312 0 0.0312 -0.0156 Q0.0312 -0.0312 0.0625 -0.0312 Q0.1406 -0.0312 0.1562 -0.0781 Q0.1562 -0.0938 0.1562 -0.1094 L0.2969 -0.6406 Q0.2969 -0.6562 0.2344 -0.6562 Q0.2031 -0.6562 0.2031 -0.6562 Q0.2031 -0.6875 0.2188 -0.6875 L0.2344 -0.6875 L0.3594 -0.6875 Q0.3906 -0.6875 0.3906 -0.6719 Q0.3906 -0.6719 0.3906 -0.6562 L0.625 -0.1406 L0.7344 -0.5938 Q0.7344 -0.5938 0.7344 -0.6094 Q0.7344 -0.6562 0.6719 -0.6562 Q0.6406 -0.6562 0.6406 -0.6562 Q0.6406 -0.6875 0.6719 -0.6875 L0.7656 -0.6875 L0.7656 -0.6875 L0.8594 -0.6875 L0.875 -0.6875 Q0.875 -0.6875 0.875 -0.6719 Q0.875 -0.6562 0.8594 -0.6562 Q0.7812 -0.6562 0.7656 -0.6094 L0.7656 -0.6094 Q0.7656 -0.5938 0.75 -0.5781 Z"
    /></g
    ><g transform="matrix(20,0,0,20,0,0) translate(1.0035,1.0333) scale(0.7,0.7)" style="font-size:1; text-rendering:geometricPrecision; color-rendering:optimizeQuality; image-rendering:optimizeQuality; font-family:&apos;jlm_cmr10&apos;; color-interpolation:linearRGB;"
    ><path style="stroke:none;" d="M0.2969 -0.6406 L0.2969 -0.0781 Q0.2969 -0.0469 0.3125 -0.0469 Q0.3281 -0.0312 0.3906 -0.0312 L0.4219 -0.0312 L0.4219 0 Q0.3906 0 0.25 0 Q0.125 0 0.0938 0 L0.0938 -0.0312 L0.125 -0.0312 Q0.2031 -0.0312 0.2188 -0.0469 L0.2188 -0.0469 Q0.2188 -0.0625 0.2188 -0.0781 L0.2188 -0.5938 Q0.1719 -0.5781 0.0938 -0.5781 L0.0938 -0.6094 Q0.2031 -0.6094 0.2656 -0.6719 Q0.2969 -0.6719 0.2969 -0.6562 L0.2969 -0.6562 L0.2969 -0.6562 Q0.2969 -0.6562 0.2969 -0.6406 Z"
    /></g
  ></g
></svg
>
<!--entity N2--><rect fill="#90EE90" height="45" rx="35" ry="35" style="stroke: #000000; stroke-width: 1.5;" width="52" x="149" y="296"/><svg x="159" y="306"><!--Generated by the Batik Graphics2D SVG Generator--><defs id="genericDefs"
  /><g
  ><g transform="scale(20,20) translate(0.2,0.8833)" style="font-size:1; text-rendering:geometricPrecision; color-rendering:optimizeQuality; image-rendering:optimizeQuality; font-family:&apos;jlm_cmmi10&apos;; color-interpolation:linearRGB;"
    ><path style="stroke:none;" d="M0.75 -0.5781 L0.6094 -0.0156 Q0.6094 0 0.6094 0 L0.6094 0 L0.5938 0 Q0.5938 0 0.5781 -0.0156 Q0.5781 -0.0156 0.5781 -0.0156 L0.3281 -0.6094 L0.3281 -0.625 L0.1875 -0.0938 Q0.1875 -0.0781 0.1875 -0.0781 Q0.1875 -0.0469 0.2344 -0.0312 Q0.2344 -0.0312 0.25 -0.0312 Q0.2656 -0.0312 0.2656 -0.0156 Q0.2656 0 0.25 0 L0.1562 0 L0.1562 0 L0.0469 0 L0.0469 0 Q0.0312 0 0.0312 -0.0156 Q0.0312 -0.0312 0.0625 -0.0312 Q0.1406 -0.0312 0.1562 -0.0781 Q0.1562 -0.0938 0.1562 -0.1094 L0.2969 -0.6406 Q0.2969 -0.6562 0.2344 -0.6562 Q0.2031 -0.6562 0.2031 -0.6562 Q0.2031 -0.6875 0.2188 -0.6875 L0.2344 -0.6875 L0.3594 -0.6875 Q0.3906 -0.6875 0.3906 -0.6719 Q0.3906 -0.6719 0.3906 -0.6562 L0.625 -0.1406 L0.7344 -0.5938 Q0.7344 -0.5938 0.7344 -0.6094 Q0.7344 -0.6562 0.6719 -0.6562 Q0.6406 -0.6562 0.6406 -0.6562 Q0.6406 -0.6875 0.6719 -0.6875 L0.7656 -0.6875 L0.7656 -0.6875 L0.8594 -0.6875 L0.875 -0.6875 Q0.875 -0.6875 0.875 -0.6719 Q0.875 -0.6562 0.8594 -0.6562 Q0.7812 -0.6562 0.7656 -0.6094 L0.7656 -0.6094 Q0.7656 -0.5938 0.75 -0.5781 Z"
    /></g
    ><g transform="matrix(20,0,0,20,0,0) translate(1.0035,1.0333) scale(0.7,0.7)" style="font-size:1; text-rendering:geometricPrecision; color-rendering:optimizeQuality; image-rendering:optimizeQuality; font-family:&apos;jlm_cmr10&apos;; color-interpolation:linearRGB;"
    ><path style="stroke:none;" d="M0.4531 -0.1719 L0.4531 -0.1719 L0.4219 0 L0.0469 0 Q0.0469 -0.0312 0.0625 -0.0312 L0.0625 -0.0312 L0.25 -0.25 Q0.3594 -0.375 0.3594 -0.4688 Q0.3594 -0.5625 0.2969 -0.6094 L0.2969 -0.6094 L0.2969 -0.6094 Q0.2656 -0.6406 0.2188 -0.6406 Q0.1562 -0.6406 0.1094 -0.5781 Q0.0938 -0.5625 0.0938 -0.5312 Q0.0938 -0.5312 0.1094 -0.5312 Q0.1406 -0.5312 0.1562 -0.5 L0.1562 -0.5 Q0.1562 -0.4844 0.1562 -0.4844 Q0.1562 -0.4375 0.1094 -0.4375 Q0.1094 -0.4219 0.1094 -0.4219 Q0.0625 -0.4219 0.0469 -0.4531 Q0.0469 -0.4688 0.0469 -0.4844 Q0.0469 -0.5625 0.1094 -0.6094 Q0.1562 -0.6719 0.2344 -0.6719 Q0.3438 -0.6719 0.4062 -0.5938 Q0.4375 -0.5469 0.4531 -0.4844 Q0.4531 -0.4844 0.4531 -0.4688 Q0.4531 -0.4062 0.3906 -0.3281 Q0.3594 -0.2969 0.2969 -0.25 L0.25 -0.1875 L0.2344 -0.1875 L0.125 -0.0781 L0.3125 -0.0781 Q0.3906 -0.0781 0.4062 -0.0781 Q0.4062 -0.0938 0.4219 -0.1719 L0.4531 -0.1719 Z"
    /></g
  ></g
></svg
>
<!--entity N3--><rect fill="#FFFFFF" height="45" rx="35" ry="35" style="stroke: #000000; stroke-width: 1.5;" width="52" x="236" y="296"/><svg x="246" y="306"><!--Generated by the Batik Graphics2D SVG Generator--><defs id="genericDefs"
  /><g
  ><g transform="scale(20,20) translate(0.2,0.8833)" style="font-size:1; text-rendering:geometricPrecision; color-rendering:optimizeQuality; image-rendering:optimizeQuality; font-family:&apos;jlm_cmmi10&apos;; color-interpolation:linearRGB;"
    ><path style="stroke:none;" d="M0.75 -0.5781 L0.6094 -0.0156 Q0.6094 0 0.6094 0 L0.6094 0 L0.5938 0 Q0.5938 0 0.5781 -0.0156 Q0.5781 -0.0156 0.5781 -0.0156 L0.3281 -0.6094 L0.3281 -0.625 L0.1875 -0.0938 Q0.1875 -0.0781 0.1875 -0.0781 Q0.1875 -0.0469 0.2344 -0.0312 Q0.2344 -0.0312 0.25 -0.0312 Q0.2656 -0.0312 0.2656 -0.0156 Q0.2656 0 0.25 0 L0.1562 0 L0.1562 0 L0.0469 0 L0.0469 0 Q0.0312 0 0.0312 -0.0156 Q0.0312 -0.0312 0.0625 -0.0312 Q0.1406 -0.0312 0.1562 -0.0781 Q0.1562 -0.0938 0.1562 -0.1094 L0.2969 -0.6406 Q0.2969 -0.6562 0.2344 -0.6562 Q0.2031 -0.6562 0.2031 -0.6562 Q0.2031 -0.6875 0.2188 -0.6875 L0.2344 -0.6875 L0.3594 -0.6875 Q0.3906 -0.6875 0.3906 -0.6719 Q0.3906 -0.6719 0.3906 -0.6562 L0.625 -0.1406 L0.7344 -0.5938 Q0.7344 -0.5938 0.7344 -0.6094 Q0.7344 -0.6562 0.6719 -0.6562 Q0.6406 -0.6562 0.6406 -0.6562 Q0.6406 -0.6875 0.6719 -0.6875 L0.7656 -0.6875 L0.7656 -0.6875 L0.8594 -0.6875 L0.875 -0.6875 Q0.875 -0.6875 0.875 -0.6719 Q0.875 -0.6562 0.8594 -0.6562 Q0.7812 -0.6562 0.7656 -0.6094 L0.7656 -0.6094 Q0.7656 -0.5938 0.75 -0.5781 Z"
    /></g
    ><g transform="matrix(20,0,0,20,0,0) translate(1.0035,1.0333) scale(0.7,0.7)" style="font-size:1; text-rendering:geometricPrecision; color-rendering:optimizeQuality; image-rendering:optimizeQuality; font-family:&apos;jlm_cmr10&apos;; color-interpolation:linearRGB;"
    ><path style="stroke:none;" d="M0.2969 -0.3594 L0.2969 -0.3594 Q0.3906 -0.3281 0.4375 -0.25 Q0.4531 -0.2188 0.4531 -0.1719 Q0.4531 -0.0938 0.3906 -0.0312 Q0.3281 0.0156 0.25 0.0156 Q0.1406 0.0156 0.0781 -0.0312 Q0.0469 -0.0781 0.0469 -0.1406 Q0.0469 -0.1875 0.0781 -0.1875 Q0.0938 -0.1875 0.0938 -0.1875 Q0.1406 -0.1875 0.1562 -0.1562 Q0.1562 -0.1406 0.1562 -0.1406 Q0.1562 -0.0938 0.125 -0.0781 Q0.1094 -0.0781 0.0938 -0.0781 Q0.125 -0.0156 0.2188 -0.0156 Q0.2344 0 0.2344 0 Q0.3125 0 0.3281 -0.0625 Q0.3594 -0.1094 0.3594 -0.1719 Q0.3594 -0.2969 0.2812 -0.3281 Q0.25 -0.3438 0.2344 -0.3438 L0.1875 -0.3438 Q0.1719 -0.3438 0.1719 -0.3438 Q0.1719 -0.3594 0.1875 -0.3594 Q0.2031 -0.3594 0.2188 -0.3594 Q0.2656 -0.3594 0.2969 -0.4062 L0.2969 -0.4062 L0.2969 -0.4062 L0.2969 -0.4062 L0.2969 -0.4062 L0.3125 -0.4219 Q0.3438 -0.4688 0.3438 -0.5312 Q0.3438 -0.625 0.2656 -0.6406 Q0.25 -0.6406 0.2344 -0.6406 Q0.1719 -0.6406 0.125 -0.5938 Q0.1094 -0.5938 0.1094 -0.5781 Q0.1719 -0.5781 0.1719 -0.5312 Q0.1719 -0.5 0.1406 -0.4844 Q0.125 -0.4844 0.125 -0.4844 Q0.0781 -0.4844 0.0781 -0.5156 L0.0781 -0.5156 L0.0781 -0.5156 Q0.0625 -0.5156 0.0625 -0.5312 Q0.0625 -0.5938 0.1406 -0.6406 Q0.1875 -0.6719 0.25 -0.6719 Q0.3438 -0.6719 0.3906 -0.6094 L0.3906 -0.6094 Q0.4375 -0.5781 0.4375 -0.5312 Q0.4375 -0.4375 0.3594 -0.3906 Q0.3281 -0.3594 0.2969 -0.3594 Z"
    /></g
  ></g
></svg
>
<!--entity N4--><rect fill="#90EE90" height="45" rx="35" ry="35" style="stroke: #000000; stroke-width: 1.5;" width="52" x="323" y="296"/><svg x="333" y="306"><!--Generated by the Batik Graphics2D SVG Generator--><defs id="genericDefs"
  /><g
  ><g transform="scale(20,20) translate(0.2,0.8833)" style="font-size:1; text-rendering:geometricPrecision; color-rendering:optimizeQuality; image-rendering:optimizeQuality; font-family:&apos;jlm_cmmi10&apos;; color-interpolation:linearRGB;"
    ><path style="stroke:none;" d="M0.75 -0.5781 L0.6094 -0.0156 Q0.6094 0 0.6094 0 L0.6094 0 L0.5938 0 Q0.5938 0 0.5781 -0.0156 Q0.5781 -0.0156 0.5781 -0.0156 L0.3281 -0.6094 L0.3281 -0.625 L0.1875 -0.0938 Q0.1875 -0.0781 0.1875 -0.0781 Q0.1875 -0.0469 0.2344 -0.0312 Q0.2344 -0.0312 0.25 -0.0312 Q0.2656 -0.0312 0.2656 -0.0156 Q0.2656 0 0.25 0 L0.1562 0 L0.1562 0 L0.0469 0 L0.0469 0 Q0.0312 0 0.0312 -0.0156 Q0.0312 -0.0312 0.0625 -0.0312 Q0.1406 -0.0312 0.1562 -0.0781 Q0.1562 -0.0938 0.1562 -0.1094 L0.2969 -0.6406 Q0.2969 -0.6562 0.2344 -0.6562 Q0.2031 -0.6562 0.2031 -0.6562 Q0.2031 -0.6875 0.2188 -0.6875 L0.2344 -0.6875 L0.3594 -0.6875 Q0.3906 -0.6875 0.3906 -0.6719 Q0.3906 -0.6719 0.3906 -0.6562 L0.625 -0.1406 L0.7344 -0.5938 Q0.7344 -0.5938 0.7344 -0.6094 Q0.7344 -0.6562 0.6719 -0.6562 Q0.6406 -0.6562 0.6406 -0.6562 Q0.6406 -0.6875 0.6719 -0.6875 L0.7656 -0.6875 L0.7656 -0.6875 L0.8594 -0.6875 L0.875 -0.6875 Q0.875 -0.6875 0.875 -0.6719 Q0.875 -0.6562 0.8594 -0.6562 Q0.7812 -0.6562 0.7656 -0.6094 L0.7656 -0.6094 Q0.7656 -0.5938 0.75 -0.5781 Z"
    /></g
    ><g transform="matrix(20,0,0,20,0,0) translate(1.0035,1.0333) scale(0.7,0.7)" style="font-size:1; text-rendering:geometricPrecision; color-rendering:optimizeQuality; image-rendering:optimizeQuality; font-family:&apos;jlm_cmr10&apos;; color-interpolation:linearRGB;"
    ><path style="stroke:none;" d="M0.0312 -0.1719 L0.0312 -0.2031 L0.3281 -0.6719 Q0.3438 -0.6719 0.3594 -0.6719 Q0.375 -0.6719 0.375 -0.6719 L0.375 -0.6562 L0.375 -0.2031 L0.4688 -0.2031 L0.4688 -0.1719 L0.375 -0.1719 L0.375 -0.0781 Q0.375 -0.0469 0.3906 -0.0469 Q0.3906 -0.0312 0.4531 -0.0312 L0.4688 -0.0312 L0.4688 0 Q0.4219 0 0.3281 0 Q0.2344 0 0.2031 0 L0.2031 -0.0312 L0.2188 -0.0312 Q0.2812 -0.0312 0.2969 -0.0469 Q0.2969 -0.0625 0.2969 -0.0781 L0.2969 -0.1719 L0.0312 -0.1719 ZM0.2969 -0.2031 L0.2969 -0.5625 L0.0625 -0.2031 L0.2969 -0.2031 Z"
    /></g
  ></g
></svg
>
<!--entity N5--><rect fill="#FFFFFF" height="45" rx="35" ry="35" style="stroke: #000000; stroke-width: 1.5;" width="52" x="410" y="296"/><svg x="420" y="306"><!--Generated by the Batik Graphics2D SVG Generator--><defs id="genericDefs"
  /><g
  ><g transform="scale(20,20) translate(0.2,0.8833)" style="font-size:1; text-rendering:geometricPrecision; color-rendering:optimizeQuality; image-rendering:optimizeQuality; font-family:&apos;jlm_cmmi10&apos;; color-interpolation:linearRGB;"
    ><path style="stroke:none;" d="M0.75 -0.5781 L0.6094 -0.0156 Q0.6094 0 0.6094 0 L0.6094 0 L0.5938 0 Q0.5938 0 0.5781 -0.0156 Q0.5781 -0.0156 0.5781 -0.0156 L0.3281 -0.6094 L0.3281 -0.625 L0.1875 -0.0938 Q0.1875 -0.0781 0.1875 -0.0781 Q0.1875 -0.0469 0.2344 -0.0312 Q0.2344 -0.0312 0.25 -0.0312 Q0.2656 -0.0312 0.2656 -0.0156 Q0.2656 0 0.25 0 L0.1562 0 L0.1562 0 L0.0469 0 L0.0469 0 Q0.0312 0 0.0312 -0.0156 Q0.0312 -0.0312 0.0625 -0.0312 Q0.1406 -0.0312 0.1562 -0.0781 Q0.1562 -0.0938 0.1562 -0.1094 L0.2969 -0.6406 Q0.2969 -0.6562 0.2344 -0.6562 Q0.2031 -0.6562 0.2031 -0.6562 Q0.2031 -0.6875 0.2188 -0.6875 L0.2344 -0.6875 L0.3594 -0.6875 Q0.3906 -0.6875 0.3906 -0.6719 Q0.3906 -0.6719 0.3906 -0.6562 L0.625 -0.1406 L0.7344 -0.5938 Q0.7344 -0.5938 0.7344 -0.6094 Q0.7344 -0.6562 0.6719 -0.6562 Q0.6406 -0.6562 0.6406 -0.6562 Q0.6406 -0.6875 0.6719 -0.6875 L0.7656 -0.6875 L0.7656 -0.6875 L0.8594 -0.6875 L0.875 -0.6875 Q0.875 -0.6875 0.875 -0.6719 Q0.875 -0.6562 0.8594 -0.6562 Q0.7812 -0.6562 0.7656 -0.6094 L0.7656 -0.6094 Q0.7656 -0.5938 0.75 -0.5781 Z"
    /></g
    ><g transform="matrix(20,0,0,20,0,0) translate(1.0035,1.0333) scale(0.7,0.7)" style="font-size:1; text-rendering:geometricPrecision; color-rendering:optimizeQuality; image-rendering:optimizeQuality; font-family:&apos;jlm_cmr10&apos;; color-interpolation:linearRGB;"
    ><path style="stroke:none;" d="M0.4531 -0.2031 L0.4531 -0.2031 Q0.4531 -0.0938 0.375 -0.0312 Q0.3125 0.0156 0.2344 0.0156 Q0.1406 0.0156 0.0781 -0.0625 Q0.0469 -0.1094 0.0469 -0.1562 Q0.0469 -0.2031 0.0938 -0.2188 Q0.0938 -0.2188 0.0938 -0.2188 Q0.1406 -0.2188 0.1406 -0.1875 Q0.1562 -0.1719 0.1562 -0.1719 Q0.1562 -0.1406 0.125 -0.125 Q0.1094 -0.1094 0.0938 -0.1094 Q0.0938 -0.1094 0.0781 -0.125 Q0.0938 -0.0625 0.1562 -0.0312 Q0.1875 0 0.2344 0 Q0.2969 0 0.3438 -0.0781 Q0.3594 -0.1094 0.3594 -0.2031 Q0.3594 -0.2969 0.3438 -0.3281 Q0.3125 -0.3906 0.25 -0.3906 Q0.1719 -0.3906 0.125 -0.3281 Q0.125 -0.3125 0.1094 -0.3125 Q0.1094 -0.3125 0.0938 -0.3281 L0.0938 -0.3438 L0.0938 -0.6406 Q0.0938 -0.6562 0.1094 -0.6719 Q0.1094 -0.6719 0.125 -0.6562 Q0.1875 -0.6406 0.25 -0.6406 Q0.3281 -0.6406 0.3906 -0.6562 Q0.3906 -0.6719 0.4062 -0.6719 Q0.4062 -0.6719 0.4062 -0.6562 Q0.4062 -0.6406 0.375 -0.6094 Q0.3125 -0.5469 0.2188 -0.5469 Q0.1719 -0.5469 0.125 -0.5625 L0.125 -0.375 Q0.1875 -0.4219 0.2656 -0.4219 Q0.3438 -0.4219 0.4062 -0.3438 Q0.4531 -0.2812 0.4531 -0.2031 Z"
    /></g
  ></g
></svg
>
<!--entity N6--><rect fill="#FFFFFF" height="45" rx="35" ry="35" style="stroke: #000000; stroke-width: 1.5;" width="52" x="497" y="296"/><svg x="507" y="306"><!--Generated by the Batik Graphics2D SVG Generator--><defs id="genericDefs"
  /><g
  ><g transform="scale(20,20) translate(0.2,0.8833)" style="font-size:1; text-rendering:geometricPrecision; color-rendering:optimizeQuality; image-rendering:optimizeQuality; font-family:&apos;jlm_cmmi10&apos;; color-interpolation:linearRGB;"
    ><path style="stroke:none;" d="M0.75 -0.5781 L0.6094 -0.0156 Q0.6094 0 0.6094 0 L0.6094 0 L0.5938 0 Q0.5938 0 0.5781 -0.0156 Q0.5781 -0.0156 0.5781 -0.0156 L0.3281 -0.6094 L0.3281 -0.625 L0.1875 -0.0938 Q0.1875 -0.0781 0.1875 -0.0781 Q0.1875 -0.0469 0.2344 -0.0312 Q0.2344 -0.0312 0.25 -0.0312 Q0.2656 -0.0312 0.2656 -0.0156 Q0.2656 0 0.25 0 L0.1562 0 L0.1562 0 L0.0469 0 L0.0469 0 Q0.0312 0 0.0312 -0.0156 Q0.0312 -0.0312 0.0625 -0.0312 Q0.1406 -0.0312 0.1562 -0.0781 Q0.1562 -0.0938 0.1562 -0.1094 L0.2969 -0.6406 Q0.2969 -0.6562 0.2344 -0.6562 Q0.2031 -0.6562 0.2031 -0.6562 Q0.2031 -0.6875 0.2188 -0.6875 L0.2344 -0.6875 L0.3594 -0.6875 Q0.3906 -0.6875 0.3906 -0.6719 Q0.3906 -0.6719 0.3906 -0.6562 L0.625 -0.1406 L0.7344 -0.5938 Q0.7344 -0.5938 0.7344 -0.6094 Q0.7344 -0.6562 0.6719 -0.6562 Q0.6406 -0.6562 0.6406 -0.6562 Q0.6406 -0.6875 0.6719 -0.6875 L0.7656 -0.6875 L0.7656 -0.6875 L0.8594 -0.6875 L0.875 -0.6875 Q0.875 -0.6875 0.875 -0.6719 Q0.875 -0.6562 0.8594 -0.6562 Q0.7812 -0.6562 0.7656 -0.6094 L0.7656 -0.6094 Q0.7656 -0.5938 0.75 -0.5781 Z"
    /></g
    ><g transform="matrix(20,0,0,20,0,0) translate(1.0035,1.0333) scale(0.7,0.7)" style="font-size:1; text-rendering:geometricPrecision; color-rendering:optimizeQuality; image-rendering:optimizeQuality; font-family:&apos;jlm_cmr10&apos;; color-interpolation:linearRGB;"
    ><path style="stroke:none;" d="M0.125 -0.3281 L0.125 -0.3281 Q0.1719 -0.4219 0.25 -0.4219 Q0.3438 -0.4219 0.4062 -0.3438 Q0.4375 -0.3125 0.4531 -0.25 Q0.4531 -0.2344 0.4531 -0.2031 Q0.4531 -0.0938 0.375 -0.0312 Q0.3281 0.0156 0.25 0.0156 Q0.1562 0.0156 0.0938 -0.0781 Q0.0469 -0.1562 0.0469 -0.3125 Q0.0469 -0.4844 0.1406 -0.5938 Q0.2188 -0.6719 0.3125 -0.6719 Q0.3906 -0.6719 0.4219 -0.6094 Q0.4375 -0.5781 0.4375 -0.5625 Q0.4375 -0.5156 0.3906 -0.5156 Q0.3906 -0.5156 0.3906 -0.5156 Q0.3594 -0.5156 0.3438 -0.5312 Q0.3438 -0.5469 0.3438 -0.5625 Q0.3438 -0.5938 0.3906 -0.5938 Q0.375 -0.6406 0.3125 -0.6406 Q0.2344 -0.6406 0.1875 -0.5781 Q0.125 -0.5 0.125 -0.3594 L0.125 -0.3281 ZM0.25 0 L0.25 0 Q0.3125 0 0.3438 -0.0781 Q0.3594 -0.1094 0.3594 -0.2031 Q0.3594 -0.3125 0.3438 -0.3438 Q0.3125 -0.4062 0.25 -0.4062 Q0.1719 -0.4062 0.1406 -0.3125 Q0.1406 -0.2656 0.1406 -0.2188 Q0.1406 -0.125 0.1562 -0.0781 Q0.1719 -0.0312 0.2188 -0.0156 Q0.2344 0 0.25 0 Z"
    /></g
  ></g
></svg
>
<!--entity N7--><rect fill="#FFFFFF" height="45" rx="35" ry="35" style="stroke: #000000; stroke-width: 1.5;" width="52" x="584" y="296"/><svg x="594" y="306"><!--Generated by the Batik Graphics2D SVG Generator--><defs id="genericDefs"
  /><g
  ><g transform="scale(20,20) translate(0.2,0.8833)" style="font-size:1; text-rendering:geometricPrecision; color-rendering:optimizeQuality; image-rendering:optimizeQuality; font-family:&apos;jlm_cmmi10&apos;; color-interpolation:linearRGB;"
    ><path style="stroke:none;" d="M0.75 -0.5781 L0.6094 -0.0156 Q0.6094 0 0.6094 0 L0.6094 0 L0.5938 0 Q0.5938 0 0.5781 -0.0156 Q0.5781 -0.0156 0.5781 -0.0156 L0.3281 -0.6094 L0.3281 -0.625 L0.1875 -0.0938 Q0.1875 -0.0781 0.1875 -0.0781 Q0.1875 -0.0469 0.2344 -0.0312 Q0.2344 -0.0312 0.25 -0.0312 Q0.2656 -0.0312 0.2656 -0.0156 Q0.2656 0 0.25 0 L0.1562 0 L0.1562 0 L0.0469 0 L0.0469 0 Q0.0312 0 0.0312 -0.0156 Q0.0312 -0.0312 0.0625 -0.0312 Q0.1406 -0.0312 0.1562 -0.0781 Q0.1562 -0.0938 0.1562 -0.1094 L0.2969 -0.6406 Q0.2969 -0.6562 0.2344 -0.6562 Q0.2031 -0.6562 0.2031 -0.6562 Q0.2031 -0.6875 0.2188 -0.6875 L0.2344 -0.6875 L0.3594 -0.6875 Q0.3906 -0.6875 0.3906 -0.6719 Q0.3906 -0.6719 0.3906 -0.6562 L0.625 -0.1406 L0.7344 -0.5938 Q0.7344 -0.5938 0.7344 -0.6094 Q0.7344 -0.6562 0.6719 -0.6562 Q0.6406 -0.6562 0.6406 -0.6562 Q0.6406 -0.6875 0.6719 -0.6875 L0.7656 -0.6875 L0.7656 -0.6875 L0.8594 -0.6875 L0.875 -0.6875 Q0.875 -0.6875 0.875 -0.6719 Q0.875 -0.6562 0.8594 -0.6562 Q0.7812 -0.6562 0.7656 -0.6094 L0.7656 -0.6094 Q0.7656 -0.5938 0.75 -0.5781 Z"
    /></g
    ><g transform="matrix(20,0,0,20,0,0) translate(1.0035,1.0333) scale(0.7,0.7)" style="font-size:1; text-rendering:geometricPrecision; color-rendering:optimizeQuality; image-rendering:optimizeQuality; font-family:&apos;jlm_cmr10&apos;; color-interpolation:linearRGB;"
    ><path style="stroke:none;" d="M0.4688 -0.6094 L0.3438 -0.4219 Q0.2969 -0.3594 0.2812 -0.25 Q0.2656 -0.1719 0.2656 -0.0781 L0.2656 -0.0312 Q0.2656 0.0156 0.2188 0.0156 Q0.1719 0.0156 0.1719 -0.0312 Q0.1719 -0.2031 0.2656 -0.375 L0.2969 -0.4062 L0.4062 -0.5625 L0.2031 -0.5625 Q0.1094 -0.5625 0.1094 -0.5625 Q0.0938 -0.5469 0.0781 -0.4688 L0.0625 -0.4688 L0.0938 -0.6719 L0.1094 -0.6719 Q0.125 -0.6562 0.125 -0.6562 L0.1406 -0.6562 L0.1406 -0.6562 Q0.1562 -0.6406 0.2344 -0.6406 L0.4844 -0.6406 Q0.4844 -0.625 0.4688 -0.6094 Z"
    /></g
  ></g
></svg
>
<!--entity N8--><rect fill="#FFFFFF" height="45" rx="35" ry="35" style="stroke: #000000; stroke-width: 1.5;" width="52" x="671" y="296"/><svg x="681" y="306"><!--Generated by the Batik Graphics2D SVG Generator--><defs id="genericDefs"
  /><g
  ><g transform="scale(20,20) translate(0.2,0.8833)" style="font-size:1; text-rendering:geometricPrecision; color-rendering:optimizeQuality; image-rendering:optimizeQuality; font-family:&apos;jlm_cmmi10&apos;; color-interpolation:linearRGB;"
    ><path style="stroke:none;" d="M0.75 -0.5781 L0.6094 -0.0156 Q0.6094 0 0.6094 0 L0.6094 0 L0.5938 0 Q0.5938 0 0.5781 -0.0156 Q0.5781 -0.0156 0.5781 -0.0156 L0.3281 -0.6094 L0.3281 -0.625 L0.1875 -0.0938 Q0.1875 -0.0781 0.1875 -0.0781 Q0.1875 -0.0469 0.2344 -0.0312 Q0.2344 -0.0312 0.25 -0.0312 Q0.2656 -0.0312 0.2656 -0.0156 Q0.2656 0 0.25 0 L0.1562 0 L0.1562 0 L0.0469 0 L0.0469 0 Q0.0312 0 0.0312 -0.0156 Q0.0312 -0.0312 0.0625 -0.0312 Q0.1406 -0.0312 0.1562 -0.0781 Q0.1562 -0.0938 0.1562 -0.1094 L0.2969 -0.6406 Q0.2969 -0.6562 0.2344 -0.6562 Q0.2031 -0.6562 0.2031 -0.6562 Q0.2031 -0.6875 0.2188 -0.6875 L0.2344 -0.6875 L0.3594 -0.6875 Q0.3906 -0.6875 0.3906 -0.6719 Q0.3906 -0.6719 0.3906 -0.6562 L0.625 -0.1406 L0.7344 -0.5938 Q0.7344 -0.5938 0.7344 -0.6094 Q0.7344 -0.6562 0.6719 -0.6562 Q0.6406 -0.6562 0.6406 -0.6562 Q0.6406 -0.6875 0.6719 -0.6875 L0.7656 -0.6875 L0.7656 -0.6875 L0.8594 -0.6875 L0.875 -0.6875 Q0.875 -0.6875 0.875 -0.6719 Q0.875 -0.6562 0.8594 -0.6562 Q0.7812 -0.6562 0.7656 -0.6094 L0.7656 -0.6094 Q0.7656 -0.5938 0.75 -0.5781 Z"
    /></g
    ><g transform="matrix(20,0,0,20,0,0) translate(1.0035,1.0333) scale(0.7,0.7)" style="font-size:1; text-rendering:geometricPrecision; color-rendering:optimizeQuality; image-rendering:optimizeQuality; font-family:&apos;jlm_cmr10&apos;; color-interpolation:linearRGB;"
    ><path style="stroke:none;" d="M0.1562 -0.4531 L0.2812 -0.375 Q0.3906 -0.4375 0.3906 -0.5156 Q0.3906 -0.5781 0.3281 -0.625 Q0.2969 -0.6406 0.25 -0.6406 Q0.1719 -0.6406 0.1406 -0.5938 L0.1406 -0.5938 L0.1406 -0.5938 Q0.1094 -0.5625 0.1094 -0.5312 Q0.1094 -0.4844 0.1562 -0.4531 ZM0.3125 -0.3594 L0.3125 -0.3594 Q0.3906 -0.3125 0.4062 -0.2969 Q0.4062 -0.2969 0.4062 -0.2969 Q0.4531 -0.2344 0.4531 -0.1719 Q0.4531 -0.0781 0.3906 -0.0156 Q0.3281 0.0156 0.25 0.0156 Q0.1562 0.0156 0.0938 -0.0312 Q0.0469 -0.0781 0.0469 -0.1562 Q0.0469 -0.2656 0.1875 -0.3281 Q0.125 -0.375 0.1094 -0.3906 Q0.0625 -0.4375 0.0625 -0.5 Q0.0625 -0.5781 0.1406 -0.625 Q0.1875 -0.6719 0.25 -0.6719 Q0.3438 -0.6719 0.3906 -0.6094 Q0.4375 -0.5781 0.4375 -0.5156 Q0.4375 -0.4219 0.3125 -0.3594 ZM0.2031 -0.3125 L0.2031 -0.3125 Q0.0938 -0.25 0.0938 -0.1562 Q0.0938 -0.0781 0.1562 -0.0312 Q0.2031 0 0.25 0 Q0.3281 0 0.375 -0.0625 Q0.4062 -0.0938 0.4062 -0.125 Q0.4062 -0.1875 0.3438 -0.2344 Q0.3438 -0.2344 0.3281 -0.2344 L0.2031 -0.3125 Z"
    /></g
  ></g
></svg
>
<!--entity N9--><rect fill="#FFFFFF" height="45" rx="35" ry="35" style="stroke: #000000; stroke-width: 1.5;" width="52" x="62" y="499"/><svg x="72" y="509"><!--Generated by the Batik Graphics2D SVG Generator--><defs id="genericDefs"
  /><g
  ><g transform="scale(20,20) translate(0.2,0.8833)" style="font-size:1; text-rendering:geometricPrecision; color-rendering:optimizeQuality; image-rendering:optimizeQuality; font-family:&apos;jlm_cmmi10&apos;; color-interpolation:linearRGB;"
    ><path style="stroke:none;" d="M0.75 -0.5781 L0.6094 -0.0156 Q0.6094 0 0.6094 0 L0.6094 0 L0.5938 0 Q0.5938 0 0.5781 -0.0156 Q0.5781 -0.0156 0.5781 -0.0156 L0.3281 -0.6094 L0.3281 -0.625 L0.1875 -0.0938 Q0.1875 -0.0781 0.1875 -0.0781 Q0.1875 -0.0469 0.2344 -0.0312 Q0.2344 -0.0312 0.25 -0.0312 Q0.2656 -0.0312 0.2656 -0.0156 Q0.2656 0 0.25 0 L0.1562 0 L0.1562 0 L0.0469 0 L0.0469 0 Q0.0312 0 0.0312 -0.0156 Q0.0312 -0.0312 0.0625 -0.0312 Q0.1406 -0.0312 0.1562 -0.0781 Q0.1562 -0.0938 0.1562 -0.1094 L0.2969 -0.6406 Q0.2969 -0.6562 0.2344 -0.6562 Q0.2031 -0.6562 0.2031 -0.6562 Q0.2031 -0.6875 0.2188 -0.6875 L0.2344 -0.6875 L0.3594 -0.6875 Q0.3906 -0.6875 0.3906 -0.6719 Q0.3906 -0.6719 0.3906 -0.6562 L0.625 -0.1406 L0.7344 -0.5938 Q0.7344 -0.5938 0.7344 -0.6094 Q0.7344 -0.6562 0.6719 -0.6562 Q0.6406 -0.6562 0.6406 -0.6562 Q0.6406 -0.6875 0.6719 -0.6875 L0.7656 -0.6875 L0.7656 -0.6875 L0.8594 -0.6875 L0.875 -0.6875 Q0.875 -0.6875 0.875 -0.6719 Q0.875 -0.6562 0.8594 -0.6562 Q0.7812 -0.6562 0.7656 -0.6094 L0.7656 -0.6094 Q0.7656 -0.5938 0.75 -0.5781 Z"
    /></g
    ><g transform="matrix(20,0,0,20,0,0) translate(1.0035,1.0333) scale(0.7,0.7)" style="font-size:1; text-rendering:geometricPrecision; color-rendering:optimizeQuality; image-rendering:optimizeQuality; font-family:&apos;jlm_cmr10&apos;; color-interpolation:linearRGB;"
    ><path style="stroke:none;" d="M0.3594 -0.3125 Q0.3281 -0.2188 0.2344 -0.2188 Q0.1562 -0.2188 0.0938 -0.2969 L0.0938 -0.2969 Q0.0469 -0.3594 0.0469 -0.4453 Q0.0469 -0.5312 0.0938 -0.5938 L0.1094 -0.6094 Q0.1719 -0.6719 0.25 -0.6719 Q0.3594 -0.6719 0.4062 -0.5625 Q0.4531 -0.4844 0.4531 -0.3281 Q0.4531 -0.1562 0.3594 -0.0625 Q0.2969 0.0156 0.2031 0.0156 Q0.1094 0.0156 0.0781 -0.0312 Q0.0625 -0.0625 0.0625 -0.0938 Q0.0625 -0.125 0.1094 -0.1406 Q0.1094 -0.1406 0.1094 -0.1406 Q0.1406 -0.1406 0.1562 -0.1094 Q0.1562 -0.0938 0.1562 -0.0938 Q0.1562 -0.0469 0.125 -0.0469 Q0.1094 -0.0469 0.1094 -0.0469 Q0.1406 0 0.2031 0 Q0.2812 0 0.3281 -0.0781 Q0.3594 -0.1562 0.3594 -0.2812 L0.3594 -0.3125 ZM0.25 -0.2344 Q0.3281 -0.2344 0.3594 -0.3281 Q0.3594 -0.375 0.3594 -0.4219 Q0.3594 -0.5156 0.3438 -0.5625 Q0.3281 -0.625 0.2656 -0.6406 Q0.2656 -0.6406 0.25 -0.6406 Q0.1875 -0.6406 0.1562 -0.5781 Q0.125 -0.5469 0.125 -0.4531 L0.125 -0.4375 Q0.125 -0.3438 0.1562 -0.2969 Q0.1875 -0.2344 0.25 -0.2344 Z"
    /></g
  ></g
></svg
>
<!--entity N10--><rect fill="#FFFFFF" height="45" rx="35" ry="35" style="stroke: #000000; stroke-width: 1.5;" width="59" x="149.5" y="499"/><svg x="159.5" y="509"><!--Generated by the Batik Graphics2D SVG Generator--><defs id="genericDefs"
  /><g
  ><g transform="scale(20,20) translate(0.2,0.8833)" style="font-size:1; text-rendering:geometricPrecision; color-rendering:optimizeQuality; image-rendering:optimizeQuality; font-family:&apos;jlm_cmmi10&apos;; color-interpolation:linearRGB;"
    ><path style="stroke:none;" d="M0.75 -0.5781 L0.6094 -0.0156 Q0.6094 0 0.6094 0 L0.6094 0 L0.5938 0 Q0.5938 0 0.5781 -0.0156 Q0.5781 -0.0156 0.5781 -0.0156 L0.3281 -0.6094 L0.3281 -0.625 L0.1875 -0.0938 Q0.1875 -0.0781 0.1875 -0.0781 Q0.1875 -0.0469 0.2344 -0.0312 Q0.2344 -0.0312 0.25 -0.0312 Q0.2656 -0.0312 0.2656 -0.0156 Q0.2656 0 0.25 0 L0.1562 0 L0.1562 0 L0.0469 0 L0.0469 0 Q0.0312 0 0.0312 -0.0156 Q0.0312 -0.0312 0.0625 -0.0312 Q0.1406 -0.0312 0.1562 -0.0781 Q0.1562 -0.0938 0.1562 -0.1094 L0.2969 -0.6406 Q0.2969 -0.6562 0.2344 -0.6562 Q0.2031 -0.6562 0.2031 -0.6562 Q0.2031 -0.6875 0.2188 -0.6875 L0.2344 -0.6875 L0.3594 -0.6875 Q0.3906 -0.6875 0.3906 -0.6719 Q0.3906 -0.6719 0.3906 -0.6562 L0.625 -0.1406 L0.7344 -0.5938 Q0.7344 -0.5938 0.7344 -0.6094 Q0.7344 -0.6562 0.6719 -0.6562 Q0.6406 -0.6562 0.6406 -0.6562 Q0.6406 -0.6875 0.6719 -0.6875 L0.7656 -0.6875 L0.7656 -0.6875 L0.8594 -0.6875 L0.875 -0.6875 Q0.875 -0.6875 0.875 -0.6719 Q0.875 -0.6562 0.8594 -0.6562 Q0.7812 -0.6562 0.7656 -0.6094 L0.7656 -0.6094 Q0.7656 -0.5938 0.75 -0.5781 Z"
    /></g
    ><g transform="matrix(20,0,0,20,0,0) translate(1.0035,1.0333) scale(0.7,0.7)" style="font-size:1; text-rendering:geometricPrecision; color-rendering:optimizeQuality; image-rendering:optimizeQuality; font-family:&apos;jlm_cmr10&apos;; color-interpolation:linearRGB;"
    ><path style="stroke:none;" d="M0.2969 -0.6406 L0.2969 -0.0781 Q0.2969 -0.0469 0.3125 -0.0469 Q0.3281 -0.0312 0.3906 -0.0312 L0.4219 -0.0312 L0.4219 0 Q0.3906 0 0.25 0 Q0.125 0 0.0938 0 L0.0938 -0.0312 L0.125 -0.0312 Q0.2031 -0.0312 0.2188 -0.0469 L0.2188 -0.0469 Q0.2188 -0.0625 0.2188 -0.0781 L0.2188 -0.5938 Q0.1719 -0.5781 0.0938 -0.5781 L0.0938 -0.6094 Q0.2031 -0.6094 0.2656 -0.6719 Q0.2969 -0.6719 0.2969 -0.6562 L0.2969 -0.6562 L0.2969 -0.6562 Q0.2969 -0.6562 0.2969 -0.6406 Z"
    /></g
    ><g transform="matrix(20,0,0,20,0,0) translate(1.3535,1.0333) scale(0.7,0.7)" style="font-size:1; text-rendering:geometricPrecision; color-rendering:optimizeQuality; image-rendering:optimizeQuality; font-family:&apos;jlm_cmr10&apos;; color-interpolation:linearRGB;"
    ><path style="stroke:none;" d="M0.4531 -0.3125 Q0.4531 -0.1719 0.4219 -0.0938 Q0.3594 0.0156 0.25 0.0156 Q0.1562 0.0156 0.1094 -0.0469 Q0.0938 -0.0625 0.0781 -0.0781 Q0.0312 -0.1562 0.0312 -0.3125 Q0.0312 -0.4688 0.0781 -0.5469 Q0.125 -0.6562 0.2344 -0.6719 L0.25 -0.6719 Q0.3438 -0.6719 0.3906 -0.5938 L0.3906 -0.5938 Q0.4062 -0.5781 0.4219 -0.5469 Q0.4531 -0.4688 0.4531 -0.3125 ZM0.25 0 L0.25 0 Q0.3125 0 0.3438 -0.0625 Q0.3594 -0.0938 0.3594 -0.125 Q0.375 -0.1875 0.375 -0.3281 Q0.375 -0.4688 0.3594 -0.5312 Q0.3438 -0.625 0.2812 -0.6406 Q0.2656 -0.6406 0.25 -0.6406 Q0.1719 -0.6406 0.1406 -0.5781 Q0.1406 -0.5469 0.125 -0.5156 Q0.125 -0.4688 0.125 -0.3281 Q0.125 -0.1875 0.1406 -0.125 Q0.1562 -0.0312 0.2188 0 Q0.2344 0 0.25 0 Z"
    /></g
  ></g
></svg
>
<!--entity N11--><rect fill="#FFFFFF" height="45" rx="35" ry="35" style="stroke: #000000; stroke-width: 1.5;" width="59" x="243.5" y="499"/><svg x="253.5" y="509"><!--Generated by the Batik Graphics2D SVG Generator--><defs id="genericDefs"
  /><g
  ><g transform="scale(20,20) translate(0.2,0.8833)" style="font-size:1; text-rendering:geometricPrecision; color-rendering:optimizeQuality; image-rendering:optimizeQuality; font-family:&apos;jlm_cmmi10&apos;; color-interpolation:linearRGB;"
    ><path style="stroke:none;" d="M0.75 -0.5781 L0.6094 -0.0156 Q0.6094 0 0.6094 0 L0.6094 0 L0.5938 0 Q0.5938 0 0.5781 -0.0156 Q0.5781 -0.0156 0.5781 -0.0156 L0.3281 -0.6094 L0.3281 -0.625 L0.1875 -0.0938 Q0.1875 -0.0781 0.1875 -0.0781 Q0.1875 -0.0469 0.2344 -0.0312 Q0.2344 -0.0312 0.25 -0.0312 Q0.2656 -0.0312 0.2656 -0.0156 Q0.2656 0 0.25 0 L0.1562 0 L0.1562 0 L0.0469 0 L0.0469 0 Q0.0312 0 0.0312 -0.0156 Q0.0312 -0.0312 0.0625 -0.0312 Q0.1406 -0.0312 0.1562 -0.0781 Q0.1562 -0.0938 0.1562 -0.1094 L0.2969 -0.6406 Q0.2969 -0.6562 0.2344 -0.6562 Q0.2031 -0.6562 0.2031 -0.6562 Q0.2031 -0.6875 0.2188 -0.6875 L0.2344 -0.6875 L0.3594 -0.6875 Q0.3906 -0.6875 0.3906 -0.6719 Q0.3906 -0.6719 0.3906 -0.6562 L0.625 -0.1406 L0.7344 -0.5938 Q0.7344 -0.5938 0.7344 -0.6094 Q0.7344 -0.6562 0.6719 -0.6562 Q0.6406 -0.6562 0.6406 -0.6562 Q0.6406 -0.6875 0.6719 -0.6875 L0.7656 -0.6875 L0.7656 -0.6875 L0.8594 -0.6875 L0.875 -0.6875 Q0.875 -0.6875 0.875 -0.6719 Q0.875 -0.6562 0.8594 -0.6562 Q0.7812 -0.6562 0.7656 -0.6094 L0.7656 -0.6094 Q0.7656 -0.5938 0.75 -0.5781 Z"
    /></g
    ><g transform="matrix(20,0,0,20,0,0) translate(1.0035,1.0333) scale(0.7,0.7)" style="font-size:1; text-rendering:geometricPrecision; color-rendering:optimizeQuality; image-rendering:optimizeQuality; font-family:&apos;jlm_cmr10&apos;; color-interpolation:linearRGB;"
    ><path style="stroke:none;" d="M0.2969 -0.6406 L0.2969 -0.0781 Q0.2969 -0.0469 0.3125 -0.0469 Q0.3281 -0.0312 0.3906 -0.0312 L0.4219 -0.0312 L0.4219 0 Q0.3906 0 0.25 0 Q0.125 0 0.0938 0 L0.0938 -0.0312 L0.125 -0.0312 Q0.2031 -0.0312 0.2188 -0.0469 L0.2188 -0.0469 Q0.2188 -0.0625 0.2188 -0.0781 L0.2188 -0.5938 Q0.1719 -0.5781 0.0938 -0.5781 L0.0938 -0.6094 Q0.2031 -0.6094 0.2656 -0.6719 Q0.2969 -0.6719 0.2969 -0.6562 L0.2969 -0.6562 L0.2969 -0.6562 Q0.2969 -0.6562 0.2969 -0.6406 Z"
    /></g
    ><g transform="matrix(20,0,0,20,0,0) translate(1.3535,1.0333) scale(0.7,0.7)" style="font-size:1; text-rendering:geometricPrecision; color-rendering:optimizeQuality; image-rendering:optimizeQuality; font-family:&apos;jlm_cmr10&apos;; color-interpolation:linearRGB;"
    ><path style="stroke:none;" d="M0.2969 -0.6406 L0.2969 -0.0781 Q0.2969 -0.0469 0.3125 -0.0469 Q0.3281 -0.0312 0.3906 -0.0312 L0.4219 -0.0312 L0.4219 0 Q0.3906 0 0.25 0 Q0.125 0 0.0938 0 L0.0938 -0.0312 L0.125 -0.0312 Q0.2031 -0.0312 0.2188 -0.0469 L0.2188 -0.0469 Q0.2188 -0.0625 0.2188 -0.0781 L0.2188 -0.5938 Q0.1719 -0.5781 0.0938 -0.5781 L0.0938 -0.6094 Q0.2031 -0.6094 0.2656 -0.6719 Q0.2969 -0.6719 0.2969 -0.6562 L0.2969 -0.6562 L0.2969 -0.6562 Q0.2969 -0.6562 0.2969 -0.6406 Z"
    /></g
  ></g
></svg
>
<!--entity N12--><rect fill="#FFFFFF" height="45" rx="35" ry="35" style="stroke: #000000; stroke-width: 1.5;" width="59" x="337.5" y="499"/><svg x="347.5" y="509"><!--Generated by the Batik Graphics2D SVG Generator--><defs id="genericDefs"
  /><g
  ><g transform="scale(20,20) translate(0.2,0.8833)" style="font-size:1; text-rendering:geometricPrecision; color-rendering:optimizeQuality; image-rendering:optimizeQuality; font-family:&apos;jlm_cmmi10&apos;; color-interpolation:linearRGB;"
    ><path style="stroke:none;" d="M0.75 -0.5781 L0.6094 -0.0156 Q0.6094 0 0.6094 0 L0.6094 0 L0.5938 0 Q0.5938 0 0.5781 -0.0156 Q0.5781 -0.0156 0.5781 -0.0156 L0.3281 -0.6094 L0.3281 -0.625 L0.1875 -0.0938 Q0.1875 -0.0781 0.1875 -0.0781 Q0.1875 -0.0469 0.2344 -0.0312 Q0.2344 -0.0312 0.25 -0.0312 Q0.2656 -0.0312 0.2656 -0.0156 Q0.2656 0 0.25 0 L0.1562 0 L0.1562 0 L0.0469 0 L0.0469 0 Q0.0312 0 0.0312 -0.0156 Q0.0312 -0.0312 0.0625 -0.0312 Q0.1406 -0.0312 0.1562 -0.0781 Q0.1562 -0.0938 0.1562 -0.1094 L0.2969 -0.6406 Q0.2969 -0.6562 0.2344 -0.6562 Q0.2031 -0.6562 0.2031 -0.6562 Q0.2031 -0.6875 0.2188 -0.6875 L0.2344 -0.6875 L0.3594 -0.6875 Q0.3906 -0.6875 0.3906 -0.6719 Q0.3906 -0.6719 0.3906 -0.6562 L0.625 -0.1406 L0.7344 -0.5938 Q0.7344 -0.5938 0.7344 -0.6094 Q0.7344 -0.6562 0.6719 -0.6562 Q0.6406 -0.6562 0.6406 -0.6562 Q0.6406 -0.6875 0.6719 -0.6875 L0.7656 -0.6875 L0.7656 -0.6875 L0.8594 -0.6875 L0.875 -0.6875 Q0.875 -0.6875 0.875 -0.6719 Q0.875 -0.6562 0.8594 -0.6562 Q0.7812 -0.6562 0.7656 -0.6094 L0.7656 -0.6094 Q0.7656 -0.5938 0.75 -0.5781 Z"
    /></g
    ><g transform="matrix(20,0,0,20,0,0) translate(1.0035,1.0333) scale(0.7,0.7)" style="font-size:1; text-rendering:geometricPrecision; color-rendering:optimizeQuality; image-rendering:optimizeQuality; font-family:&apos;jlm_cmr10&apos;; color-interpolation:linearRGB;"
    ><path style="stroke:none;" d="M0.2969 -0.6406 L0.2969 -0.0781 Q0.2969 -0.0469 0.3125 -0.0469 Q0.3281 -0.0312 0.3906 -0.0312 L0.4219 -0.0312 L0.4219 0 Q0.3906 0 0.25 0 Q0.125 0 0.0938 0 L0.0938 -0.0312 L0.125 -0.0312 Q0.2031 -0.0312 0.2188 -0.0469 L0.2188 -0.0469 Q0.2188 -0.0625 0.2188 -0.0781 L0.2188 -0.5938 Q0.1719 -0.5781 0.0938 -0.5781 L0.0938 -0.6094 Q0.2031 -0.6094 0.2656 -0.6719 Q0.2969 -0.6719 0.2969 -0.6562 L0.2969 -0.6562 L0.2969 -0.6562 Q0.2969 -0.6562 0.2969 -0.6406 Z"
    /></g
    ><g transform="matrix(20,0,0,20,0,0) translate(1.3535,1.0333) scale(0.7,0.7)" style="font-size:1; text-rendering:geometricPrecision; color-rendering:optimizeQuality; image-rendering:optimizeQuality; font-family:&apos;jlm_cmr10&apos;; color-interpolation:linearRGB;"
    ><path style="stroke:none;" d="M0.4531 -0.1719 L0.4531 -0.1719 L0.4219 0 L0.0469 0 Q0.0469 -0.0312 0.0625 -0.0312 L0.0625 -0.0312 L0.25 -0.25 Q0.3594 -0.375 0.3594 -0.4688 Q0.3594 -0.5625 0.2969 -0.6094 L0.2969 -0.6094 L0.2969 -0.6094 Q0.2656 -0.6406 0.2188 -0.6406 Q0.1562 -0.6406 0.1094 -0.5781 Q0.0938 -0.5625 0.0938 -0.5312 Q0.0938 -0.5312 0.1094 -0.5312 Q0.1406 -0.5312 0.1562 -0.5 L0.1562 -0.5 Q0.1562 -0.4844 0.1562 -0.4844 Q0.1562 -0.4375 0.1094 -0.4375 Q0.1094 -0.4219 0.1094 -0.4219 Q0.0625 -0.4219 0.0469 -0.4531 Q0.0469 -0.4688 0.0469 -0.4844 Q0.0469 -0.5625 0.1094 -0.6094 Q0.1562 -0.6719 0.2344 -0.6719 Q0.3438 -0.6719 0.4062 -0.5938 Q0.4375 -0.5469 0.4531 -0.4844 Q0.4531 -0.4844 0.4531 -0.4688 Q0.4531 -0.4062 0.3906 -0.3281 Q0.3594 -0.2969 0.2969 -0.25 L0.25 -0.1875 L0.2344 -0.1875 L0.125 -0.0781 L0.3125 -0.0781 Q0.3906 -0.0781 0.4062 -0.0781 Q0.4062 -0.0938 0.4219 -0.1719 L0.4531 -0.1719 Z"
    /></g
  ></g
></svg
>
<!--entity N13--><rect fill="#FFFFFF" height="45" rx="35" ry="35" style="stroke: #000000; stroke-width: 1.5;" width="59" x="431.5" y="499"/><svg x="441.5" y="509"><!--Generated by the Batik Graphics2D SVG Generator--><defs id="genericDefs"
  /><g
  ><g transform="scale(20,20) translate(0.2,0.8833)" style="font-size:1; text-rendering:geometricPrecision; color-rendering:optimizeQuality; image-rendering:optimizeQuality; font-family:&apos;jlm_cmmi10&apos;; color-interpolation:linearRGB;"
    ><path style="stroke:none;" d="M0.75 -0.5781 L0.6094 -0.0156 Q0.6094 0 0.6094 0 L0.6094 0 L0.5938 0 Q0.5938 0 0.5781 -0.0156 Q0.5781 -0.0156 0.5781 -0.0156 L0.3281 -0.6094 L0.3281 -0.625 L0.1875 -0.0938 Q0.1875 -0.0781 0.1875 -0.0781 Q0.1875 -0.0469 0.2344 -0.0312 Q0.2344 -0.0312 0.25 -0.0312 Q0.2656 -0.0312 0.2656 -0.0156 Q0.2656 0 0.25 0 L0.1562 0 L0.1562 0 L0.0469 0 L0.0469 0 Q0.0312 0 0.0312 -0.0156 Q0.0312 -0.0312 0.0625 -0.0312 Q0.1406 -0.0312 0.1562 -0.0781 Q0.1562 -0.0938 0.1562 -0.1094 L0.2969 -0.6406 Q0.2969 -0.6562 0.2344 -0.6562 Q0.2031 -0.6562 0.2031 -0.6562 Q0.2031 -0.6875 0.2188 -0.6875 L0.2344 -0.6875 L0.3594 -0.6875 Q0.3906 -0.6875 0.3906 -0.6719 Q0.3906 -0.6719 0.3906 -0.6562 L0.625 -0.1406 L0.7344 -0.5938 Q0.7344 -0.5938 0.7344 -0.6094 Q0.7344 -0.6562 0.6719 -0.6562 Q0.6406 -0.6562 0.6406 -0.6562 Q0.6406 -0.6875 0.6719 -0.6875 L0.7656 -0.6875 L0.7656 -0.6875 L0.8594 -0.6875 L0.875 -0.6875 Q0.875 -0.6875 0.875 -0.6719 Q0.875 -0.6562 0.8594 -0.6562 Q0.7812 -0.6562 0.7656 -0.6094 L0.7656 -0.6094 Q0.7656 -0.5938 0.75 -0.5781 Z"
    /></g
    ><g transform="matrix(20,0,0,20,0,0) translate(1.0035,1.0333) scale(0.7,0.7)" style="font-size:1; text-rendering:geometricPrecision; color-rendering:optimizeQuality; image-rendering:optimizeQuality; font-family:&apos;jlm_cmr10&apos;; color-interpolation:linearRGB;"
    ><path style="stroke:none;" d="M0.2969 -0.6406 L0.2969 -0.0781 Q0.2969 -0.0469 0.3125 -0.0469 Q0.3281 -0.0312 0.3906 -0.0312 L0.4219 -0.0312 L0.4219 0 Q0.3906 0 0.25 0 Q0.125 0 0.0938 0 L0.0938 -0.0312 L0.125 -0.0312 Q0.2031 -0.0312 0.2188 -0.0469 L0.2188 -0.0469 Q0.2188 -0.0625 0.2188 -0.0781 L0.2188 -0.5938 Q0.1719 -0.5781 0.0938 -0.5781 L0.0938 -0.6094 Q0.2031 -0.6094 0.2656 -0.6719 Q0.2969 -0.6719 0.2969 -0.6562 L0.2969 -0.6562 L0.2969 -0.6562 Q0.2969 -0.6562 0.2969 -0.6406 Z"
    /></g
    ><g transform="matrix(20,0,0,20,0,0) translate(1.3535,1.0333) scale(0.7,0.7)" style="font-size:1; text-rendering:geometricPrecision; color-rendering:optimizeQuality; image-rendering:optimizeQuality; font-family:&apos;jlm_cmr10&apos;; color-interpolation:linearRGB;"
    ><path style="stroke:none;" d="M0.2969 -0.3594 L0.2969 -0.3594 Q0.3906 -0.3281 0.4375 -0.25 Q0.4531 -0.2188 0.4531 -0.1719 Q0.4531 -0.0938 0.3906 -0.0312 Q0.3281 0.0156 0.25 0.0156 Q0.1406 0.0156 0.0781 -0.0312 Q0.0469 -0.0781 0.0469 -0.1406 Q0.0469 -0.1875 0.0781 -0.1875 Q0.0938 -0.1875 0.0938 -0.1875 Q0.1406 -0.1875 0.1562 -0.1562 Q0.1562 -0.1406 0.1562 -0.1406 Q0.1562 -0.0938 0.125 -0.0781 Q0.1094 -0.0781 0.0938 -0.0781 Q0.125 -0.0156 0.2188 -0.0156 Q0.2344 0 0.2344 0 Q0.3125 0 0.3281 -0.0625 Q0.3594 -0.1094 0.3594 -0.1719 Q0.3594 -0.2969 0.2812 -0.3281 Q0.25 -0.3438 0.2344 -0.3438 L0.1875 -0.3438 Q0.1719 -0.3438 0.1719 -0.3438 Q0.1719 -0.3594 0.1875 -0.3594 Q0.2031 -0.3594 0.2188 -0.3594 Q0.2656 -0.3594 0.2969 -0.4062 L0.2969 -0.4062 L0.2969 -0.4062 L0.2969 -0.4062 L0.2969 -0.4062 L0.3125 -0.4219 Q0.3438 -0.4688 0.3438 -0.5312 Q0.3438 -0.625 0.2656 -0.6406 Q0.25 -0.6406 0.2344 -0.6406 Q0.1719 -0.6406 0.125 -0.5938 Q0.1094 -0.5938 0.1094 -0.5781 Q0.1719 -0.5781 0.1719 -0.5312 Q0.1719 -0.5 0.1406 -0.4844 Q0.125 -0.4844 0.125 -0.4844 Q0.0781 -0.4844 0.0781 -0.5156 L0.0781 -0.5156 L0.0781 -0.5156 Q0.0625 -0.5156 0.0625 -0.5312 Q0.0625 -0.5938 0.1406 -0.6406 Q0.1875 -0.6719 0.25 -0.6719 Q0.3438 -0.6719 0.3906 -0.6094 L0.3906 -0.6094 Q0.4375 -0.5781 0.4375 -0.5312 Q0.4375 -0.4375 0.3594 -0.3906 Q0.3281 -0.3594 0.2969 -0.3594 Z"
    /></g
  ></g
></svg
>
<!--entity N14--><rect fill="#90EE90" height="45" rx="35" ry="35" style="stroke: #000000; stroke-width: 1.5;" width="59" x="525.5" y="499"/><svg x="535.5" y="509"><!--Generated by the Batik Graphics2D SVG Generator--><defs id="genericDefs"
  /><g
  ><g transform="scale(20,20) translate(0.2,0.8833)" style="font-size:1; text-rendering:geometricPrecision; color-rendering:optimizeQuality; image-rendering:optimizeQuality; font-family:&apos;jlm_cmmi10&apos;; color-interpolation:linearRGB;"
    ><path style="stroke:none;" d="M0.75 -0.5781 L0.6094 -0.0156 Q0.6094 0 0.6094 0 L0.6094 0 L0.5938 0 Q0.5938 0 0.5781 -0.0156 Q0.5781 -0.0156 0.5781 -0.0156 L0.3281 -0.6094 L0.3281 -0.625 L0.1875 -0.0938 Q0.1875 -0.0781 0.1875 -0.0781 Q0.1875 -0.0469 0.2344 -0.0312 Q0.2344 -0.0312 0.25 -0.0312 Q0.2656 -0.0312 0.2656 -0.0156 Q0.2656 0 0.25 0 L0.1562 0 L0.1562 0 L0.0469 0 L0.0469 0 Q0.0312 0 0.0312 -0.0156 Q0.0312 -0.0312 0.0625 -0.0312 Q0.1406 -0.0312 0.1562 -0.0781 Q0.1562 -0.0938 0.1562 -0.1094 L0.2969 -0.6406 Q0.2969 -0.6562 0.2344 -0.6562 Q0.2031 -0.6562 0.2031 -0.6562 Q0.2031 -0.6875 0.2188 -0.6875 L0.2344 -0.6875 L0.3594 -0.6875 Q0.3906 -0.6875 0.3906 -0.6719 Q0.3906 -0.6719 0.3906 -0.6562 L0.625 -0.1406 L0.7344 -0.5938 Q0.7344 -0.5938 0.7344 -0.6094 Q0.7344 -0.6562 0.6719 -0.6562 Q0.6406 -0.6562 0.6406 -0.6562 Q0.6406 -0.6875 0.6719 -0.6875 L0.7656 -0.6875 L0.7656 -0.6875 L0.8594 -0.6875 L0.875 -0.6875 Q0.875 -0.6875 0.875 -0.6719 Q0.875 -0.6562 0.8594 -0.6562 Q0.7812 -0.6562 0.7656 -0.6094 L0.7656 -0.6094 Q0.7656 -0.5938 0.75 -0.5781 Z"
    /></g
    ><g transform="matrix(20,0,0,20,0,0) translate(1.0035,1.0333) scale(0.7,0.7)" style="font-size:1; text-rendering:geometricPrecision; color-rendering:optimizeQuality; image-rendering:optimizeQuality; font-family:&apos;jlm_cmr10&apos;; color-interpolation:linearRGB;"
    ><path style="stroke:none;" d="M0.2969 -0.6406 L0.2969 -0.0781 Q0.2969 -0.0469 0.3125 -0.0469 Q0.3281 -0.0312 0.3906 -0.0312 L0.4219 -0.0312 L0.4219 0 Q0.3906 0 0.25 0 Q0.125 0 0.0938 0 L0.0938 -0.0312 L0.125 -0.0312 Q0.2031 -0.0312 0.2188 -0.0469 L0.2188 -0.0469 Q0.2188 -0.0625 0.2188 -0.0781 L0.2188 -0.5938 Q0.1719 -0.5781 0.0938 -0.5781 L0.0938 -0.6094 Q0.2031 -0.6094 0.2656 -0.6719 Q0.2969 -0.6719 0.2969 -0.6562 L0.2969 -0.6562 L0.2969 -0.6562 Q0.2969 -0.6562 0.2969 -0.6406 Z"
    /></g
    ><g transform="matrix(20,0,0,20,0,0) translate(1.3535,1.0333) scale(0.7,0.7)" style="font-size:1; text-rendering:geometricPrecision; color-rendering:optimizeQuality; image-rendering:optimizeQuality; font-family:&apos;jlm_cmr10&apos;; color-interpolation:linearRGB;"
    ><path style="stroke:none;" d="M0.0312 -0.1719 L0.0312 -0.2031 L0.3281 -0.6719 Q0.3438 -0.6719 0.3594 -0.6719 Q0.375 -0.6719 0.375 -0.6719 L0.375 -0.6562 L0.375 -0.2031 L0.4688 -0.2031 L0.4688 -0.1719 L0.375 -0.1719 L0.375 -0.0781 Q0.375 -0.0469 0.3906 -0.0469 Q0.3906 -0.0312 0.4531 -0.0312 L0.4688 -0.0312 L0.4688 0 Q0.4219 0 0.3281 0 Q0.2344 0 0.2031 0 L0.2031 -0.0312 L0.2188 -0.0312 Q0.2812 -0.0312 0.2969 -0.0469 Q0.2969 -0.0625 0.2969 -0.0781 L0.2969 -0.1719 L0.0312 -0.1719 ZM0.2969 -0.2031 L0.2969 -0.5625 L0.0625 -0.2031 L0.2969 -0.2031 Z"
    /></g
  ></g
></svg
>
<!--entity N15--><rect fill="#90EE90" height="45" rx="35" ry="35" style="stroke: #000000; stroke-width: 1.5;" width="59" x="680.5" y="499"/><svg x="690.5" y="509"><!--Generated by the Batik Graphics2D SVG Generator--><defs id="genericDefs"
  /><g
  ><g transform="scale(20,20) translate(0.2,0.8833)" style="font-size:1; text-rendering:geometricPrecision; color-rendering:optimizeQuality; image-rendering:optimizeQuality; font-family:&apos;jlm_cmmi10&apos;; color-interpolation:linearRGB;"
    ><path style="stroke:none;" d="M0.75 -0.5781 L0.6094 -0.0156 Q0.6094 0 0.6094 0 L0.6094 0 L0.5938 0 Q0.5938 0 0.5781 -0.0156 Q0.5781 -0.0156 0.5781 -0.0156 L0.3281 -0.6094 L0.3281 -0.625 L0.1875 -0.0938 Q0.1875 -0.0781 0.1875 -0.0781 Q0.1875 -0.0469 0.2344 -0.0312 Q0.2344 -0.0312 0.25 -0.0312 Q0.2656 -0.0312 0.2656 -0.0156 Q0.2656 0 0.25 0 L0.1562 0 L0.1562 0 L0.0469 0 L0.0469 0 Q0.0312 0 0.0312 -0.0156 Q0.0312 -0.0312 0.0625 -0.0312 Q0.1406 -0.0312 0.1562 -0.0781 Q0.1562 -0.0938 0.1562 -0.1094 L0.2969 -0.6406 Q0.2969 -0.6562 0.2344 -0.6562 Q0.2031 -0.6562 0.2031 -0.6562 Q0.2031 -0.6875 0.2188 -0.6875 L0.2344 -0.6875 L0.3594 -0.6875 Q0.3906 -0.6875 0.3906 -0.6719 Q0.3906 -0.6719 0.3906 -0.6562 L0.625 -0.1406 L0.7344 -0.5938 Q0.7344 -0.5938 0.7344 -0.6094 Q0.7344 -0.6562 0.6719 -0.6562 Q0.6406 -0.6562 0.6406 -0.6562 Q0.6406 -0.6875 0.6719 -0.6875 L0.7656 -0.6875 L0.7656 -0.6875 L0.8594 -0.6875 L0.875 -0.6875 Q0.875 -0.6875 0.875 -0.6719 Q0.875 -0.6562 0.8594 -0.6562 Q0.7812 -0.6562 0.7656 -0.6094 L0.7656 -0.6094 Q0.7656 -0.5938 0.75 -0.5781 Z"
    /></g
    ><g transform="matrix(20,0,0,20,0,0) translate(1.0035,1.0333) scale(0.7,0.7)" style="font-size:1; text-rendering:geometricPrecision; color-rendering:optimizeQuality; image-rendering:optimizeQuality; font-family:&apos;jlm_cmr10&apos;; color-interpolation:linearRGB;"
    ><path style="stroke:none;" d="M0.2969 -0.6406 L0.2969 -0.0781 Q0.2969 -0.0469 0.3125 -0.0469 Q0.3281 -0.0312 0.3906 -0.0312 L0.4219 -0.0312 L0.4219 0 Q0.3906 0 0.25 0 Q0.125 0 0.0938 0 L0.0938 -0.0312 L0.125 -0.0312 Q0.2031 -0.0312 0.2188 -0.0469 L0.2188 -0.0469 Q0.2188 -0.0625 0.2188 -0.0781 L0.2188 -0.5938 Q0.1719 -0.5781 0.0938 -0.5781 L0.0938 -0.6094 Q0.2031 -0.6094 0.2656 -0.6719 Q0.2969 -0.6719 0.2969 -0.6562 L0.2969 -0.6562 L0.2969 -0.6562 Q0.2969 -0.6562 0.2969 -0.6406 Z"
    /></g
    ><g transform="matrix(20,0,0,20,0,0) translate(1.3535,1.0333) scale(0.7,0.7)" style="font-size:1; text-rendering:geometricPrecision; color-rendering:optimizeQuality; image-rendering:optimizeQuality; font-family:&apos;jlm_cmr10&apos;; color-interpolation:linearRGB;"
    ><path style="stroke:none;" d="M0.4531 -0.2031 L0.4531 -0.2031 Q0.4531 -0.0938 0.375 -0.0312 Q0.3125 0.0156 0.2344 0.0156 Q0.1406 0.0156 0.0781 -0.0625 Q0.0469 -0.1094 0.0469 -0.1562 Q0.0469 -0.2031 0.0938 -0.2188 Q0.0938 -0.2188 0.0938 -0.2188 Q0.1406 -0.2188 0.1406 -0.1875 Q0.1562 -0.1719 0.1562 -0.1719 Q0.1562 -0.1406 0.125 -0.125 Q0.1094 -0.1094 0.0938 -0.1094 Q0.0938 -0.1094 0.0781 -0.125 Q0.0938 -0.0625 0.1562 -0.0312 Q0.1875 0 0.2344 0 Q0.2969 0 0.3438 -0.0781 Q0.3594 -0.1094 0.3594 -0.2031 Q0.3594 -0.2969 0.3438 -0.3281 Q0.3125 -0.3906 0.25 -0.3906 Q0.1719 -0.3906 0.125 -0.3281 Q0.125 -0.3125 0.1094 -0.3125 Q0.1094 -0.3125 0.0938 -0.3281 L0.0938 -0.3438 L0.0938 -0.6406 Q0.0938 -0.6562 0.1094 -0.6719 Q0.1094 -0.6719 0.125 -0.6562 Q0.1875 -0.6406 0.25 -0.6406 Q0.3281 -0.6406 0.3906 -0.6562 Q0.3906 -0.6719 0.4062 -0.6719 Q0.4062 -0.6719 0.4062 -0.6562 Q0.4062 -0.6406 0.375 -0.6094 Q0.3125 -0.5469 0.2188 -0.5469 Q0.1719 -0.5469 0.125 -0.5625 L0.125 -0.375 Q0.1875 -0.4219 0.2656 -0.4219 Q0.3438 -0.4219 0.4062 -0.3438 Q0.4531 -0.2812 0.4531 -0.2031 Z"
    /></g
  ></g
></svg
>
<!--entity N16--><rect fill="#F08080" height="45" rx="35" ry="35" style="stroke: #000000; stroke-width: 1.5;" width="59" x="774.5" y="499"/><svg x="784.5" y="509"><!--Generated by the Batik Graphics2D SVG Generator--><defs id="genericDefs"
  /><g
  ><g transform="scale(20,20) translate(0.2,0.8833)" style="font-size:1; text-rendering:geometricPrecision; color-rendering:optimizeQuality; image-rendering:optimizeQuality; font-family:&apos;jlm_cmmi10&apos;; color-interpolation:linearRGB;"
    ><path style="stroke:none;" d="M0.75 -0.5781 L0.6094 -0.0156 Q0.6094 0 0.6094 0 L0.6094 0 L0.5938 0 Q0.5938 0 0.5781 -0.0156 Q0.5781 -0.0156 0.5781 -0.0156 L0.3281 -0.6094 L0.3281 -0.625 L0.1875 -0.0938 Q0.1875 -0.0781 0.1875 -0.0781 Q0.1875 -0.0469 0.2344 -0.0312 Q0.2344 -0.0312 0.25 -0.0312 Q0.2656 -0.0312 0.2656 -0.0156 Q0.2656 0 0.25 0 L0.1562 0 L0.1562 0 L0.0469 0 L0.0469 0 Q0.0312 0 0.0312 -0.0156 Q0.0312 -0.0312 0.0625 -0.0312 Q0.1406 -0.0312 0.1562 -0.0781 Q0.1562 -0.0938 0.1562 -0.1094 L0.2969 -0.6406 Q0.2969 -0.6562 0.2344 -0.6562 Q0.2031 -0.6562 0.2031 -0.6562 Q0.2031 -0.6875 0.2188 -0.6875 L0.2344 -0.6875 L0.3594 -0.6875 Q0.3906 -0.6875 0.3906 -0.6719 Q0.3906 -0.6719 0.3906 -0.6562 L0.625 -0.1406 L0.7344 -0.5938 Q0.7344 -0.5938 0.7344 -0.6094 Q0.7344 -0.6562 0.6719 -0.6562 Q0.6406 -0.6562 0.6406 -0.6562 Q0.6406 -0.6875 0.6719 -0.6875 L0.7656 -0.6875 L0.7656 -0.6875 L0.8594 -0.6875 L0.875 -0.6875 Q0.875 -0.6875 0.875 -0.6719 Q0.875 -0.6562 0.8594 -0.6562 Q0.7812 -0.6562 0.7656 -0.6094 L0.7656 -0.6094 Q0.7656 -0.5938 0.75 -0.5781 Z"
    /></g
    ><g transform="matrix(20,0,0,20,0,0) translate(1.0035,1.0333) scale(0.7,0.7)" style="font-size:1; text-rendering:geometricPrecision; color-rendering:optimizeQuality; image-rendering:optimizeQuality; font-family:&apos;jlm_cmr10&apos;; color-interpolation:linearRGB;"
    ><path style="stroke:none;" d="M0.2969 -0.6406 L0.2969 -0.0781 Q0.2969 -0.0469 0.3125 -0.0469 Q0.3281 -0.0312 0.3906 -0.0312 L0.4219 -0.0312 L0.4219 0 Q0.3906 0 0.25 0 Q0.125 0 0.0938 0 L0.0938 -0.0312 L0.125 -0.0312 Q0.2031 -0.0312 0.2188 -0.0469 L0.2188 -0.0469 Q0.2188 -0.0625 0.2188 -0.0781 L0.2188 -0.5938 Q0.1719 -0.5781 0.0938 -0.5781 L0.0938 -0.6094 Q0.2031 -0.6094 0.2656 -0.6719 Q0.2969 -0.6719 0.2969 -0.6562 L0.2969 -0.6562 L0.2969 -0.6562 Q0.2969 -0.6562 0.2969 -0.6406 Z"
    /></g
    ><g transform="matrix(20,0,0,20,0,0) translate(1.3535,1.0333) scale(0.7,0.7)" style="font-size:1; text-rendering:geometricPrecision; color-rendering:optimizeQuality; image-rendering:optimizeQuality; font-family:&apos;jlm_cmr10&apos;; color-interpolation:linearRGB;"
    ><path style="stroke:none;" d="M0.125 -0.3281 L0.125 -0.3281 Q0.1719 -0.4219 0.25 -0.4219 Q0.3438 -0.4219 0.4062 -0.3438 Q0.4375 -0.3125 0.4531 -0.25 Q0.4531 -0.2344 0.4531 -0.2031 Q0.4531 -0.0938 0.375 -0.0312 Q0.3281 0.0156 0.25 0.0156 Q0.1562 0.0156 0.0938 -0.0781 Q0.0469 -0.1562 0.0469 -0.3125 Q0.0469 -0.4844 0.1406 -0.5938 Q0.2188 -0.6719 0.3125 -0.6719 Q0.3906 -0.6719 0.4219 -0.6094 Q0.4375 -0.5781 0.4375 -0.5625 Q0.4375 -0.5156 0.3906 -0.5156 Q0.3906 -0.5156 0.3906 -0.5156 Q0.3594 -0.5156 0.3438 -0.5312 Q0.3438 -0.5469 0.3438 -0.5625 Q0.3438 -0.5938 0.3906 -0.5938 Q0.375 -0.6406 0.3125 -0.6406 Q0.2344 -0.6406 0.1875 -0.5781 Q0.125 -0.5 0.125 -0.3594 L0.125 -0.3281 ZM0.25 0 L0.25 0 Q0.3125 0 0.3438 -0.0781 Q0.3594 -0.1094 0.3594 -0.2031 Q0.3594 -0.3125 0.3438 -0.3438 Q0.3125 -0.4062 0.25 -0.4062 Q0.1719 -0.4062 0.1406 -0.3125 Q0.1406 -0.2656 0.1406 -0.2188 Q0.1406 -0.125 0.1562 -0.0781 Q0.1719 -0.0312 0.2188 -0.0156 Q0.2344 0 0.25 0 Z"
    /></g
  ></g
></svg
>
<!--link N14 to N15--><path d="M589.823,521.5 C617.057,521.5 654.507,521.5 680.327,521.5 " fill="none" id="N14-N15" style="stroke: #0000FF; stroke-width: 1.0;"/><polygon fill="#0000FF" points="584.519,521.5,593.519,525.5,589.519,521.5,593.519,517.5,584.519,521.5" style="stroke: #0000FF; stroke-width: 1.0;"/><text fill="#000000" font-family="sans-serif" font-size="13" lengthAdjust="spacingAndGlyphs" textLength="55" x="603" y="499.5669">replicate</text><text fill="#000000" font-family="sans-serif" font-size="13" lengthAdjust="spacingAndGlyphs" textLength="39" x="613" y="514.6997">object</text><!--link N14 to N15--><!--link root to EU--><path d="M734.729,136.475 C709.211,152.745 668.977,178.397 641.137,196.148 " fill="none" id="root-EU" style="stroke: #000000; stroke-width: 1.0;"/><polygon fill="#000000" points="636.779,198.926,646.5184,197.4615,640.9953,196.2385,642.2183,190.7154,636.779,198.926" style="stroke: #000000; stroke-width: 1.0;"/><!--link root to US--><path d="M734.692,125.646 C655.252,140.831 402.698,189.106 303.023,208.158 " fill="none" id="root-US" style="stroke: #000000; stroke-width: 1.0;"/><polygon fill="#000000" points="298.108,209.098,307.6988,211.3376,303.0191,208.1595,306.1972,203.4798,298.108,209.098" style="stroke: #000000; stroke-width: 1.0;"/><!--link root to RU--><path d="M760.1,138.214 C762.687,184.782 767.052,311.712 740,341 C682.891,402.83 418.294,415.652 314.726,418.308 " fill="none" id="root-RU" style="stroke: #000000; stroke-width: 1.0;"/><polygon fill="#000000" points="309.62,418.434,318.7166,422.2091,314.6185,418.3097,318.5178,414.2115,309.62,418.434" style="stroke: #000000; stroke-width: 1.0;"/><!--link root to JA--><path d="M762.659,138.354 C764.438,147.199 766.509,158.143 768,168 C780.731,252.153 790.254,352.996 794.114,396.838 " fill="none" id="root-JA" style="stroke: #000000; stroke-width: 1.0;"/><polygon fill="#000000" points="794.557,401.897,797.7576,392.5827,794.1213,396.916,789.788,393.2798,794.557,401.897" style="stroke: #000000; stroke-width: 1.0;"/><!--link root to CA--><path d="M783.284,130.987 C822.817,147.245 901.492,179.601 949.564,199.37 " fill="none" id="root-CA" style="stroke: #000000; stroke-width: 1.0;"/><polygon fill="#000000" points="954.406,201.362,947.6034,194.2399,949.7817,199.4606,944.561,201.6389,954.406,201.362" style="stroke: #000000; stroke-width: 1.0;"/><!--link US to N1--><path d="M232.088,235.105 C200.415,253.217 150.668,281.664 118.699,299.945 " fill="none" id="US-N1" style="stroke: #000000; stroke-width: 1.0;"/><polygon fill="#000000" points="114.116,302.566,123.9143,301.5689,118.456,300.0832,119.9417,294.6249,114.116,302.566" style="stroke: #000000; stroke-width: 1.0;"/><!--link US to N2--><path d="M246.846,235.332 C233.177,250.964 212.895,274.161 197.362,291.925 " fill="none" id="US-N2" style="stroke: #000000; stroke-width: 1.0;"/><polygon fill="#000000" points="193.925,295.856,202.8604,291.7137,197.2162,292.092,196.8379,286.4478,193.925,295.856" style="stroke: #000000; stroke-width: 1.0;"/><!--link US to N3--><path d="M262,235.332 C262,250.57 262,272.996 262,290.571 " fill="none" id="US-N3" style="stroke: #000000; stroke-width: 1.0;"/><polygon fill="#000000" points="262,295.856,266,286.856,262,290.856,258,286.856,262,295.856" style="stroke: #000000; stroke-width: 1.0;"/><!--link US to N4--><path d="M277.154,235.332 C290.823,250.964 311.105,274.161 326.638,291.925 " fill="none" id="US-N4" style="stroke: #000000; stroke-width: 1.0;"/><polygon fill="#000000" points="330.075,295.856,327.1621,286.4478,326.7838,292.092,321.1396,291.7137,330.075,295.856" style="stroke: #000000; stroke-width: 1.0;"/><!--link EU to N5--><path d="M580.088,235.105 C548.415,253.217 498.668,281.664 466.699,299.945 " fill="none" id="EU-N5" style="stroke: #000000; stroke-width: 1.0;"/><polygon fill="#000000" points="462.116,302.566,471.9143,301.5689,466.456,300.0832,467.9417,294.6249,462.116,302.566" style="stroke: #000000; stroke-width: 1.0;"/><!--link EU to N6--><path d="M594.846,235.332 C581.177,250.964 560.895,274.161 545.362,291.925 " fill="none" id="EU-N6" style="stroke: #000000; stroke-width: 1.0;"/><polygon fill="#000000" points="541.925,295.856,550.8604,291.7137,545.2162,292.092,544.8379,286.4478,541.925,295.856" style="stroke: #000000; stroke-width: 1.0;"/><!--link EU to N7--><path d="M610,235.332 C610,250.57 610,272.996 610,290.571 " fill="none" id="EU-N7" style="stroke: #000000; stroke-width: 1.0;"/><polygon fill="#000000" points="610,295.856,614,286.856,610,290.856,606,286.856,610,295.856" style="stroke: #000000; stroke-width: 1.0;"/><!--link EU to N8--><path d="M625.154,235.332 C638.823,250.964 659.105,274.161 674.638,291.925 " fill="none" id="EU-N8" style="stroke: #000000; stroke-width: 1.0;"/><polygon fill="#000000" points="678.075,295.856,675.1621,286.4478,674.7838,292.092,669.1396,291.7137,678.075,295.856" style="stroke: #000000; stroke-width: 1.0;"/><!--link RU to N9--><path d="M241.197,438.105 C206.791,456.61 152.324,485.904 118.453,504.1213 " fill="none" id="RU-N9" style="stroke: #000000; stroke-width: 1.0;"/><polygon fill="#000000" points="114.019,506.506,123.84,505.7655,118.4224,504.1375,120.0504,498.72,114.019,506.506" style="stroke: #000000; stroke-width: 1.0;"/><!--link RU to N10--><path d="M256.626,438.332 C241.858,453.964 219.944,477.161 203.162,494.925 " fill="none" id="RU-N10" style="stroke: #000000; stroke-width: 1.0;"/><polygon fill="#000000" points="199.447,498.856,208.5357,495.0619,202.8811,495.2219,202.7211,489.5673,199.447,498.856" style="stroke: #000000; stroke-width: 1.0;"/><!--link RU to N11--><path d="M273,438.332 C273,453.57 273,475.996 273,493.571 " fill="none" id="RU-N11" style="stroke: #000000; stroke-width: 1.0;"/><polygon fill="#000000" points="273,498.856,277,489.856,273,493.856,269,489.856,273,498.856" style="stroke: #000000; stroke-width: 1.0;"/><!--link RU to N12--><path d="M289.374,438.332 C304.142,453.964 326.056,477.161 342.838,494.925 " fill="none" id="RU-N12" style="stroke: #000000; stroke-width: 1.0;"/><polygon fill="#000000" points="346.553,498.856,343.2789,489.5673,343.1189,495.2219,337.4643,495.0619,346.553,498.856" style="stroke: #000000; stroke-width: 1.0;"/><!--link JA to N13--><path d="M763.935,427.865 C710.185,439.775 598.859,466.167 508,499 C503.786,500.5228 499.427,502.2697 495.141,504.0951 " fill="none" id="JA-N13" style="stroke: #000000; stroke-width: 1.0;"/><polygon fill="#000000" points="490.529,506.1,500.3775,506.1813,495.1147,504.1071,497.1889,498.8442,490.529,506.1" style="stroke: #000000; stroke-width: 1.0;"/><!--link JA to N14--><path d="M763.997,434.213 C718.69,452.918 636.184,486.982 589.536,506.2415 " fill="none" id="JA-N14" style="stroke: #000000; stroke-width: 1.0;"/><polygon fill="#000000" points="584.859,508.1722,594.7044,508.434,589.4804,506.2637,591.6508,501.0397,584.859,508.1722" style="stroke: #000000; stroke-width: 1.0;"/><!--link JA to N15--><path d="M781.02,438.332 C767.508,453.964 747.459,477.161 732.105,494.925 " fill="none" id="JA-N15" style="stroke: #000000; stroke-width: 1.0;"/><polygon fill="#000000" points="728.707,498.856,737.6188,494.6631,731.9768,495.0734,731.5665,489.4314,728.707,498.856" style="stroke: #000000; stroke-width: 1.0;"/><!--link JA to N16--><path d="M797.393,438.332 C798.619,453.57 800.422,475.996 801.835,493.571 " fill="none" id="JA-N16" style="stroke: #000000; stroke-width: 1.0;"/><polygon fill="#000000" points="802.26,498.856,805.5244,489.5639,801.8585,493.8721,797.5502,490.2063,802.26,498.856" style="stroke: #000000; stroke-width: 1.0;"/><!--link JA to N17--><path d="M813.767,438.332 C829.792,453.964 853.572,477.161 871.782,494.925 " fill="none" id="JA-N17" style="stroke: #000000; stroke-width: 1.0;"/><polygon fill="#000000" points="875.813,498.856,872.1626,489.7086,872.2335,495.365,866.5771,495.4359,875.813,498.856" style="stroke: #000000; stroke-width: 1.0;"/><!--link JA to N18--><path d="M828.365,437.43 C864.057,455.549 921.245,484.581 957.694,503.0846 " fill="none" id="JA-N18" style="stroke: #000000; stroke-width: 1.0;"/><polygon fill="#000000" points="962.474,505.5113,956.2589,497.8711,958.0154,503.2484,952.6382,505.0049,962.474,505.5113" style="stroke: #000000; stroke-width: 1.0;"/><!--link CA to N19--><path d="M973.626,235.332 C958.858,250.964 936.944,274.161 920.162,291.925 " fill="none" id="CA-N19" style="stroke: #000000; stroke-width: 1.0;"/><polygon fill="#000000" points="916.447,295.856,925.5357,292.0619,919.8811,292.2219,919.7211,286.5673,916.447,295.856" style="stroke: #000000; stroke-width: 1.0;"/><!--link CA to N20--><path d="M990,235.332 C990,250.57 990,272.996 990,290.571 " fill="none" id="CA-N20" style="stroke: #000000; stroke-width: 1.0;"/><polygon fill="#000000" points="990,295.856,994,286.856,990,290.856,986,286.856,990,295.856" style="stroke: #000000; stroke-width: 1.0;"/><!--link CA to N21--><path d="M1006.37,235.332 C1021.14,250.964 1043.06,274.161 1059.84,291.925 " fill="none" id="CA-N21" style="stroke: #000000; stroke-width: 1.0;"/><polygon fill="#000000" points="1063.55,295.856,1060.2686,286.5699,1060.113,292.2246,1054.4583,292.069,1063.55,295.856" style="stroke: #000000; stroke-width: 1.0;"/><!--link CA to N22--><path d="M1022.32,235.105 C1056.18,253.025 1109.15,281.063 1143.73,299.361 " fill="none" id="CA-N22" style="stroke: #000000; stroke-width: 1.0;"/><polygon fill="#000000" points="1148.27,301.765,1142.1924,294.015,1143.8526,299.4227,1138.4448,301.0829,1148.27,301.765" style="stroke: #000000; stroke-width: 1.0;"/><!--link N1 to N2--><!--link N2 to N3--><!--link N3 to N4--><!--link N4 to N5--><!--link N5 to N6--><!--link N6 to N7--><!--link N7 to N8--><!--link N8 to N9--><!--link N9 to N10--><!--link N13 to N14--><!--
@startuml
skinparam shadowing false
skinparam ParticipantPadding 95


package "Network map" as NM {


storage "Loc: Ca" as CA #white

package "Container" as CN {
storage root #lightgreen
storage "Loc: US" as US #lightgreen
storage "Loc: EU" as EU #white
storage "Loc: RU" as RU #white
storage "Loc: Ja" as JA #lightgreen





storage "<math>N_1</math>" as N1 #white
storage "<math>N_2</math>" as N2 #lightgreen
storage "<math>N_3</math>" as N3 #white
storage "<math>N_4</math>" as N4 #lightgreen
storage "<math>N_5</math>" as N5  #white
storage "<math>N_6</math>" as N6  #white
storage "<math>N_7</math>" as N7  #white
storage "<math>N_8</math>" as N8  #white
storage "<math>N_9</math>" as N9  #white
storage "<math>N_10</math>" as N10  #white
storage "<math>N_11</math>" as N11  #white
storage "<math>N_12</math>" as N12  #white
storage "<math>N_13</math>" as N13 #white
storage "<math>N_14</math>" as N14 #lightgreen
storage "<math>N_15</math>" as N15 #lightgreen

storage "<math>N_16</math>" as N16 #lightcoral


}
storage "<math>N_17</math>" as N17 #white
storage "<math>N_18</math>" as N18 #white
storage "<math>N_19</math>" as N19 #white
storage "<math>N_20</math>" as N20 #white
storage "<math>N_21</math>" as N21 #white
storage "<math>N_22</math>" as N22 #white

}

N14 <-[#0000FF] N15 : replicate \nobject

root -down-> EU #black
root -down-> US #black
root -down- - -> RU #black
root -down- - -> JA #black

root -down-> CA #black

US -down-> N1 #black
US -down-> N2 #black
US -down-> N3 #black
US -down-> N4 #black

EU -down-> N5 #black
EU -down-> N6 #black
EU -down-> N7 #black
EU -down-> N8 #black

RU -down-> N9 #black
RU -down-> N10 #black
RU -down-> N11 #black
RU -down-> N12 #black

JA -down-> N13 #black
JA -down-> N14 #black
JA -down-> N15 #black
JA -down-> N16 #black

JA -down-> N17 #black
JA -down-> N18 #black

CA -down-> N19 #black
CA -down-> N20 #black
CA -down-> N21 #black
CA -down-> N22 #black

N1 -[hidden]right-> N2
N2 -[hidden]right-> N3
N3 -[hidden]right-> N4
N4 -[hidden]right-> N5
N5 -[hidden]right-> N6
N6 -[hidden]right-> N7
N7 -[hidden]right-> N8
N8 -[hidden]right-> N9
N9 -[hidden]right-> N10

N13 -[hidden]right-> N14
N14 -[hidden]right-> N15
@enduml

PlantUML version 1.2019.00(Sun Jan 13 15:46:42 UTC 2019)
(GPL source distribution)
Java Runtime: Java(TM) SE Runtime Environment
JVM: Java HotSpot(TM) 64-Bit Server VM
Java Version: 1.7.0_25-b15
Operating System: Linux
Default Encoding: UTF-8
Language: en
Country: US
--></g></svg>