<?xml version="1.0" encoding="UTF-8" standalone="no"?><svg xmlns="http://www.w3.org/2000/svg" xmlns:xlink="http://www.w3.org/1999/xlink" contentScriptType="application/ecmascript" contentStyleType="text/css" height="592px" preserveAspectRatio="none" style="width:1212px;height:592px;" version="1.1" viewBox="0 0 1212 592" width="1212px" zoomAndPan="magnify"><defs/><g><!--cluster NM--><polygon fill="#FFFFFF" points="22,24,133,24,140,46.2969,1190,46.2969,1190,580,22,580,22,24" style="stroke: #000000; stroke-width: 1.5;"/><line style="stroke: #000000; stroke-width: 1.5;" x1="22" x2="140" y1="46.2969" y2="46.2969"/><text fill="#000000" font-family="sans-serif" font-size="14" font-weight="bold" lengthAdjust="spacingAndGlyphs" textLength="105" x="26" y="38.9951">Network map</text><!--cluster CN--><polygon fill="#FFFFFF" points="46,67,129,67,136,89.2969,813,89.2969,813,556,46,556,46,67" style="stroke: #000000; stroke-width: 1.5;"/><line style="stroke: #000000; stroke-width: 1.5;" x1="46" x2="136" y1="89.2969" y2="89.2969"/><text fill="#000000" font-family="sans-serif" font-size="14" font-weight="bold" lengthAdjust="spacingAndGlyphs" textLength="77" x="50" y="81.9951">Container</text><!--entity CA--><rect fill="#FFFFFF" height="36.2969" rx="35" ry="35" style="stroke: #000000; stroke-width: 1.5;" width="71" x="920.5" y="198"/><text fill="#000000" font-family="sans-serif" font-size="14" lengthAdjust="spacingAndGlyphs" textLength="51" x="930.5" y="220.9951">Loc: Ca</text><!--entity N17--><rect fill="#FFFFFF" height="45" rx="35" ry="35" style="stroke: #000000; stroke-width: 1.5;" width="59" x="831.5" y="495"/><svg x="841.5" y="505"><!--Generated by the Batik Graphics2D SVG Generator--><defs id="genericDefs"
  /><g
  ><g transform="scale(20,20) translate(0.2,0.8833)" style="font-size:1; text-rendering:geometricPrecision; color-rendering:optimizeQuality; image-rendering:optimizeQuality; font-family:&apos;jlm_cmmi10&apos;; color-interpolation:linearRGB;"
    ><path style="stroke:none;" d="M0.75 -0.5781 L0.6094 -0.0156 Q0.6094 0 0.6094 0 L0.6094 0 L0.5938 0 Q0.5938 0 0.5781 -0.0156 Q0.5781 -0.0156 0.5781 -0.0156 L0.3281 -0.6094 L0.3281 -0.625 L0.1875 -0.0938 Q0.1875 -0.0781 0.1875 -0.0781 Q0.1875 -0.0469 0.2344 -0.0312 Q0.2344 -0.0312 0.25 -0.0312 Q0.2656 -0.0312 0.2656 -0.0156 Q0.2656 0 0.25 0 L0.1562 0 L0.1562 0 L0.0469 0 L0.0469 0 Q0.0312 0 0.0312 -0.0156 Q0.0312 -0.0312 0.0625 -0.0312 Q0.1406 -0.0312 0.1562 -0.0781 Q0.1562 -0.0938 0.1562 -0.1094 L0.2969 -0.6406 Q0.2969 -0.6562 0.2344 -0.6562 Q0.2031 -0.6562 0.2031 -0.6562 Q0.2031 -0.6875 0.2188 -0.6875 L0.2344 -0.6875 L0.3594 -0.6875 Q0.3906 -0.6875 0.3906 -0.6719 Q0.3906 -0.6719 0.3906 -0.6562 L0.625 -0.1406 L0.7344 -0.5938 Q0.7344 -0.5938 0.7344 -0.6094 Q0.7344 -0.6562 0.6719 -0.6562 Q0.6406 -0.6562 0.6406 -0.6562 Q0.6406 -0.6875 0.6719 -0.6875 L0.7656 -0.6875 L0.7656 -0.6875 L0.8594 -0.6875 L0.875 -0.6875 Q0.875 -0.6875 0.875 -0.6719 Q0.875 -0.6562 0.8594 -0.6562 Q0.7812 -0.6562 0.7656 -0.6094 L0.7656 -0.6094 Q0.7656 -0.5938 0.75 -0.5781 Z"
    /></g
    ><g transform="matrix(20,0,0,20,0,0) translate(1.0035,1.0333) scale(0.7,0.7)" style="font-size:1; text-rendering:geometricPrecision; color-rendering:optimizeQuality; image-rendering:optimizeQuality; font-family:&apos;jlm_cmr10&apos;; color-interpolation:linearRGB;"
    ><path style="stroke:none;" d="M0.2969 -0.6406 L0.2969 -0.0781 Q0.2969 -0.0469 0.3125 -0.0469 Q0.3281 -0.0312 0.3906 -0.0312 L0.4219 -0.0312 L0.4219 0 Q0.3906 0 0.25 0 Q0.125 0 0.0938 0 L0.0938 -0.0312 L0.125 -0.0312 Q0.2031 -0.0312 0.2188 -0.0469 L0.2188 -0.0469 Q0.2188 -0.0625 0.2188 -0.0781 L0.2188 -0.5938 Q0.1719 -0.5781 0.0938 -0.5781 L0.0938 -0.6094 Q0.2031 -0.6094 0.2656 -0.6719 Q0.2969 -0.6719 0.2969 -0.6562 L0.2969 -0.6562 L0.2969 -0.6562 Q0.2969 -0.6562 0.2969 -0.6406 Z"
    /></g
    ><g transform="matrix(20,0,0,20,0,0) translate(1.3535,1.0333) scale(0.7,0.7)" style="font-size:1; text-rendering:geometricPrecision; color-rendering:optimizeQuality; image-rendering:optimizeQuality; font-family:&apos;jlm_cmr10&apos;; color-interpolation:linearRGB;"
    ><path style="stroke:none;" d="M0.4688 -0.6094 L0.3438 -0.4219 Q0.2969 -0.3594 0.2812 -0.25 Q0.2656 -0.1719 0.2656 -0.0781 L0.2656 -0.0312 Q0.2656 0.0156 0.2188 0.0156 Q0.1719 0.0156 0.1719 -0.0312 Q0.1719 -0.2031 0.2656 -0.375 L0.2969 -0.4062 L0.4062 -0.5625 L0.2031 -0.5625 Q0.1094 -0.5625 0.1094 -0.5625 Q0.0938 -0.5469 0.0781 -0.4688 L0.0625 -0.4688 L0.0938 -0.6719 L0.1094 -0.6719 Q0.125 -0.6562 0.125 -0.6562 L0.1406 -0.6562 L0.1406 -0.6562 Q0.1562 -0.6406 0.2344 -0.6406 L0.4844 -0.6406 Q0.4844 -0.625 0.4688 -0.6094 Z"
    /></g
  ></g
></svg
>
<!--entity N18--><rect fill="#FFFFFF" height="45" rx="35" ry="35" style="stroke: #000000; stroke-width: 1.5;" width="59" x="925.5" y="495"/><svg x="935.5" y="505"><!--Generated by the Batik Graphics2D SVG Generator--><defs id="genericDefs"
  /><g
  ><g transform="scale(20,20) translate(0.2,0.8833)" style="font-size:1; text-rendering:geometricPrecision; color-rendering:optimizeQuality; image-rendering:optimizeQuality; font-family:&apos;jlm_cmmi10&apos;; color-interpolation:linearRGB;"
    ><path style="stroke:none;" d="M0.75 -0.5781 L0.6094 -0.0156 Q0.6094 0 0.6094 0 L0.6094 0 L0.5938 0 Q0.5938 0 0.5781 -0.0156 Q0.5781 -0.0156 0.5781 -0.0156 L0.3281 -0.6094 L0.3281 -0.625 L0.1875 -0.0938 Q0.1875 -0.0781 0.1875 -0.0781 Q0.1875 -0.0469 0.2344 -0.0312 Q0.2344 -0.0312 0.25 -0.0312 Q0.2656 -0.0312 0.2656 -0.0156 Q0.2656 0 0.25 0 L0.1562 0 L0.1562 0 L0.0469 0 L0.0469 0 Q0.0312 0 0.0312 -0.0156 Q0.0312 -0.0312 0.0625 -0.0312 Q0.1406 -0.0312 0.1562 -0.0781 Q0.1562 -0.0938 0.1562 -0.1094 L0.2969 -0.6406 Q0.2969 -0.6562 0.2344 -0.6562 Q0.2031 -0.6562 0.2031 -0.6562 Q0.2031 -0.6875 0.2188 -0.6875 L0.2344 -0.6875 L0.3594 -0.6875 Q0.3906 -0.6875 0.3906 -0.6719 Q0.3906 -0.6719 0.3906 -0.6562 L0.625 -0.1406 L0.7344 -0.5938 Q0.7344 -0.5938 0.7344 -0.6094 Q0.7344 -0.6562 0.6719 -0.6562 Q0.6406 -0.6562 0.6406 -0.6562 Q0.6406 -0.6875 0.6719 -0.6875 L0.7656 -0.6875 L0.7656 -0.6875 L0.8594 -0.6875 L0.875 -0.6875 Q0.875 -0.6875 0.875 -0.6719 Q0.875 -0.6562 0.8594 -0.6562 Q0.7812 -0.6562 0.7656 -0.6094 L0.7656 -0.6094 Q0.7656 -0.5938 0.75 -0.5781 Z"
    /></g
    ><g transform="matrix(20,0,0,20,0,0) translate(1.0035,1.0333) scale(0.7,0.7)" style="font-size:1; text-rendering:geometricPrecision; color-rendering:optimizeQuality; image-rendering:optimizeQuality; font-family:&apos;jlm_cmr10&apos;; color-interpolation:linearRGB;"
    ><path style="stroke:none;" d="M0.2969 -0.6406 L0.2969 -0.0781 Q0.2969 -0.0469 0.3125 -0.0469 Q0.3281 -0.0312 0.3906 -0.0312 L0.4219 -0.0312 L0.4219 0 Q0.3906 0 0.25 0 Q0.125 0 0.0938 0 L0.0938 -0.0312 L0.125 -0.0312 Q0.2031 -0.0312 0.2188 -0.0469 L0.2188 -0.0469 Q0.2188 -0.0625 0.2188 -0.0781 L0.2188 -0.5938 Q0.1719 -0.5781 0.0938 -0.5781 L0.0938 -0.6094 Q0.2031 -0.6094 0.2656 -0.6719 Q0.2969 -0.6719 0.2969 -0.6562 L0.2969 -0.6562 L0.2969 -0.6562 Q0.2969 -0.6562 0.2969 -0.6406 Z"
    /></g
    ><g transform="matrix(20,0,0,20,0,0) translate(1.3535,1.0333) scale(0.7,0.7)" style="font-size:1; text-rendering:geometricPrecision; color-rendering:optimizeQuality; image-rendering:optimizeQuality; font-family:&apos;jlm_cmr10&apos;; color-interpolation:linearRGB;"
    ><path style="stroke:none;" d="M0.1562 -0.4531 L0.2812 -0.375 Q0.3906 -0.4375 0.3906 -0.5156 Q0.3906 -0.5781 0.3281 -0.625 Q0.2969 -0.6406 0.25 -0.6406 Q0.1719 -0.6406 0.1406 -0.5938 L0.1406 -0.5938 L0.1406 -0.5938 Q0.1094 -0.5625 0.1094 -0.5312 Q0.1094 -0.4844 0.1562 -0.4531 ZM0.3125 -0.3594 L0.3125 -0.3594 Q0.3906 -0.3125 0.4062 -0.2969 Q0.4062 -0.2969 0.4062 -0.2969 Q0.4531 -0.2344 0.4531 -0.1719 Q0.4531 -0.0781 0.3906 -0.0156 Q0.3281 0.0156 0.25 0.0156 Q0.1562 0.0156 0.0938 -0.0312 Q0.0469 -0.0781 0.0469 -0.1562 Q0.0469 -0.2656 0.1875 -0.3281 Q0.125 -0.375 0.1094 -0.3906 Q0.0625 -0.4375 0.0625 -0.5 Q0.0625 -0.5781 0.1406 -0.625 Q0.1875 -0.6719 0.25 -0.6719 Q0.3438 -0.6719 0.3906 -0.6094 Q0.4375 -0.5781 0.4375 -0.5156 Q0.4375 -0.4219 0.3125 -0.3594 ZM0.2031 -0.3125 L0.2031 -0.3125 Q0.0938 -0.25 0.0938 -0.1562 Q0.0938 -0.0781 0.1562 -0.0312 Q0.2031 0 0.25 0 Q0.3281 0 0.375 -0.0625 Q0.4062 -0.0938 0.4062 -0.125 Q0.4062 -0.1875 0.3438 -0.2344 Q0.3438 -0.2344 0.3281 -0.2344 L0.2031 -0.3125 Z"
    /></g
  ></g
></svg
>
<!--entity N19--><rect fill="#FFFFFF" height="45" rx="35" ry="35" style="stroke: #000000; stroke-width: 1.5;" width="59" x="832.5" y="294"/><svg x="842.5" y="304"><!--Generated by the Batik Graphics2D SVG Generator--><defs id="genericDefs"
  /><g
  ><g transform="scale(20,20) translate(0.2,0.8833)" style="font-size:1; text-rendering:geometricPrecision; color-rendering:optimizeQuality; image-rendering:optimizeQuality; font-family:&apos;jlm_cmmi10&apos;; color-interpolation:linearRGB;"
    ><path style="stroke:none;" d="M0.75 -0.5781 L0.6094 -0.0156 Q0.6094 0 0.6094 0 L0.6094 0 L0.5938 0 Q0.5938 0 0.5781 -0.0156 Q0.5781 -0.0156 0.5781 -0.0156 L0.3281 -0.6094 L0.3281 -0.625 L0.1875 -0.0938 Q0.1875 -0.0781 0.1875 -0.0781 Q0.1875 -0.0469 0.2344 -0.0312 Q0.2344 -0.0312 0.25 -0.0312 Q0.2656 -0.0312 0.2656 -0.0156 Q0.2656 0 0.25 0 L0.1562 0 L0.1562 0 L0.0469 0 L0.0469 0 Q0.0312 0 0.0312 -0.0156 Q0.0312 -0.0312 0.0625 -0.0312 Q0.1406 -0.0312 0.1562 -0.0781 Q0.1562 -0.0938 0.1562 -0.1094 L0.2969 -0.6406 Q0.2969 -0.6562 0.2344 -0.6562 Q0.2031 -0.6562 0.2031 -0.6562 Q0.2031 -0.6875 0.2188 -0.6875 L0.2344 -0.6875 L0.3594 -0.6875 Q0.3906 -0.6875 0.3906 -0.6719 Q0.3906 -0.6719 0.3906 -0.6562 L0.625 -0.1406 L0.7344 -0.5938 Q0.7344 -0.5938 0.7344 -0.6094 Q0.7344 -0.6562 0.6719 -0.6562 Q0.6406 -0.6562 0.6406 -0.6562 Q0.6406 -0.6875 0.6719 -0.6875 L0.7656 -0.6875 L0.7656 -0.6875 L0.8594 -0.6875 L0.875 -0.6875 Q0.875 -0.6875 0.875 -0.6719 Q0.875 -0.6562 0.8594 -0.6562 Q0.7812 -0.6562 0.7656 -0.6094 L0.7656 -0.6094 Q0.7656 -0.5938 0.75 -0.5781 Z"
    /></g
    ><g transform="matrix(20,0,0,20,0,0) translate(1.0035,1.0333) scale(0.7,0.7)" style="font-size:1; text-rendering:geometricPrecision; color-rendering:optimizeQuality; image-rendering:optimizeQuality; font-family:&apos;jlm_cmr10&apos;; color-interpolation:linearRGB;"
    ><path style="stroke:none;" d="M0.2969 -0.6406 L0.2969 -0.0781 Q0.2969 -0.0469 0.3125 -0.0469 Q0.3281 -0.0312 0.3906 -0.0312 L0.4219 -0.0312 L0.4219 0 Q0.3906 0 0.25 0 Q0.125 0 0.0938 0 L0.0938 -0.0312 L0.125 -0.0312 Q0.2031 -0.0312 0.2188 -0.0469 L0.2188 -0.0469 Q0.2188 -0.0625 0.2188 -0.0781 L0.2188 -0.5938 Q0.1719 -0.5781 0.0938 -0.5781 L0.0938 -0.6094 Q0.2031 -0.6094 0.2656 -0.6719 Q0.2969 -0.6719 0.2969 -0.6562 L0.2969 -0.6562 L0.2969 -0.6562 Q0.2969 -0.6562 0.2969 -0.6406 Z"
    /></g
    ><g transform="matrix(20,0,0,20,0,0) translate(1.3535,1.0333) scale(0.7,0.7)" style="font-size:1; text-rendering:geometricPrecision; color-rendering:optimizeQuality; image-rendering:optimizeQuality; font-family:&apos;jlm_cmr10&apos;; color-interpolation:linearRGB;"
    ><path style="stroke:none;" d="M0.3594 -0.3125 Q0.3281 -0.2188 0.2344 -0.2188 Q0.1562 -0.2188 0.0938 -0.2969 L0.0938 -0.2969 Q0.0469 -0.3594 0.0469 -0.4453 Q0.0469 -0.5312 0.0938 -0.5938 L0.1094 -0.6094 Q0.1719 -0.6719 0.25 -0.6719 Q0.3594 -0.6719 0.4062 -0.5625 Q0.4531 -0.4844 0.4531 -0.3281 Q0.4531 -0.1562 0.3594 -0.0625 Q0.2969 0.0156 0.2031 0.0156 Q0.1094 0.0156 0.0781 -0.0312 Q0.0625 -0.0625 0.0625 -0.0938 Q0.0625 -0.125 0.1094 -0.1406 Q0.1094 -0.1406 0.1094 -0.1406 Q0.1406 -0.1406 0.1562 -0.1094 Q0.1562 -0.0938 0.1562 -0.0938 Q0.1562 -0.0469 0.125 -0.0469 Q0.1094 -0.0469 0.1094 -0.0469 Q0.1406 0 0.2031 0 Q0.2812 0 0.3281 -0.0781 Q0.3594 -0.1562 0.3594 -0.2812 L0.3594 -0.3125 ZM0.25 -0.2344 Q0.3281 -0.2344 0.3594 -0.3281 Q0.3594 -0.375 0.3594 -0.4219 Q0.3594 -0.5156 0.3438 -0.5625 Q0.3281 -0.625 0.2656 -0.6406 Q0.2656 -0.6406 0.25 -0.6406 Q0.1875 -0.6406 0.1562 -0.5781 Q0.125 -0.5469 0.125 -0.4531 L0.125 -0.4375 Q0.125 -0.3438 0.1562 -0.2969 Q0.1875 -0.2344 0.25 -0.2344 Z"
    /></g
  ></g
></svg
>
<!--entity N20--><rect fill="#FFFFFF" height="45" rx="35" ry="35" style="stroke: #000000; stroke-width: 1.5;" width="59" x="926.5" y="294"/><svg x="936.5" y="304"><!--Generated by the Batik Graphics2D SVG Generator--><defs id="genericDefs"
  /><g
  ><g transform="scale(20,20) translate(0.2,0.8833)" style="font-size:1; text-rendering:geometricPrecision; color-rendering:optimizeQuality; image-rendering:optimizeQuality; font-family:&apos;jlm_cmmi10&apos;; color-interpolation:linearRGB;"
    ><path style="stroke:none;" d="M0.75 -0.5781 L0.6094 -0.0156 Q0.6094 0 0.6094 0 L0.6094 0 L0.5938 0 Q0.5938 0 0.5781 -0.0156 Q0.5781 -0.0156 0.5781 -0.0156 L0.3281 -0.6094 L0.3281 -0.625 L0.1875 -0.0938 Q0.1875 -0.0781 0.1875 -0.0781 Q0.1875 -0.0469 0.2344 -0.0312 Q0.2344 -0.0312 0.25 -0.0312 Q0.2656 -0.0312 0.2656 -0.0156 Q0.2656 0 0.25 0 L0.1562 0 L0.1562 0 L0.0469 0 L0.0469 0 Q0.0312 0 0.0312 -0.0156 Q0.0312 -0.0312 0.0625 -0.0312 Q0.1406 -0.0312 0.1562 -0.0781 Q0.1562 -0.0938 0.1562 -0.1094 L0.2969 -0.6406 Q0.2969 -0.6562 0.2344 -0.6562 Q0.2031 -0.6562 0.2031 -0.6562 Q0.2031 -0.6875 0.2188 -0.6875 L0.2344 -0.6875 L0.3594 -0.6875 Q0.3906 -0.6875 0.3906 -0.6719 Q0.3906 -0.6719 0.3906 -0.6562 L0.625 -0.1406 L0.7344 -0.5938 Q0.7344 -0.5938 0.7344 -0.6094 Q0.7344 -0.6562 0.6719 -0.6562 Q0.6406 -0.6562 0.6406 -0.6562 Q0.6406 -0.6875 0.6719 -0.6875 L0.7656 -0.6875 L0.7656 -0.6875 L0.8594 -0.6875 L0.875 -0.6875 Q0.875 -0.6875 0.875 -0.6719 Q0.875 -0.6562 0.8594 -0.6562 Q0.7812 -0.6562 0.7656 -0.6094 L0.7656 -0.6094 Q0.7656 -0.5938 0.75 -0.5781 Z"
    /></g
    ><g transform="matrix(20,0,0,20,0,0) translate(1.0035,1.0333) scale(0.7,0.7)" style="font-size:1; text-rendering:geometricPrecision; color-rendering:optimizeQuality; image-rendering:optimizeQuality; font-family:&apos;jlm_cmr10&apos;; color-interpolation:linearRGB;"
    ><path style="stroke:none;" d="M0.4531 -0.1719 L0.4531 -0.1719 L0.4219 0 L0.0469 0 Q0.0469 -0.0312 0.0625 -0.0312 L0.0625 -0.0312 L0.25 -0.25 Q0.3594 -0.375 0.3594 -0.4688 Q0.3594 -0.5625 0.2969 -0.6094 L0.2969 -0.6094 L0.2969 -0.6094 Q0.2656 -0.6406 0.2188 -0.6406 Q0.1562 -0.6406 0.1094 -0.5781 Q0.0938 -0.5625 0.0938 -0.5312 Q0.0938 -0.5312 0.1094 -0.5312 Q0.1406 -0.5312 0.1562 -0.5 L0.1562 -0.5 Q0.1562 -0.4844 0.1562 -0.4844 Q0.1562 -0.4375 0.1094 -0.4375 Q0.1094 -0.4219 0.1094 -0.4219 Q0.0625 -0.4219 0.0469 -0.4531 Q0.0469 -0.4688 0.0469 -0.4844 Q0.0469 -0.5625 0.1094 -0.6094 Q0.1562 -0.6719 0.2344 -0.6719 Q0.3438 -0.6719 0.4062 -0.5938 Q0.4375 -0.5469 0.4531 -0.4844 Q0.4531 -0.4844 0.4531 -0.4688 Q0.4531 -0.4062 0.3906 -0.3281 Q0.3594 -0.2969 0.2969 -0.25 L0.25 -0.1875 L0.2344 -0.1875 L0.125 -0.0781 L0.3125 -0.0781 Q0.3906 -0.0781 0.4062 -0.0781 Q0.4062 -0.0938 0.4219 -0.1719 L0.4531 -0.1719 Z"
    /></g
    ><g transform="matrix(20,0,0,20,0,0) translate(1.3535,1.0333) scale(0.7,0.7)" style="font-size:1; text-rendering:geometricPrecision; color-rendering:optimizeQuality; image-rendering:optimizeQuality; font-family:&apos;jlm_cmr10&apos;; color-interpolation:linearRGB;"
    ><path style="stroke:none;" d="M0.4531 -0.3125 Q0.4531 -0.1719 0.4219 -0.0938 Q0.3594 0.0156 0.25 0.0156 Q0.1562 0.0156 0.1094 -0.0469 Q0.0938 -0.0625 0.0781 -0.0781 Q0.0312 -0.1562 0.0312 -0.3125 Q0.0312 -0.4688 0.0781 -0.5469 Q0.125 -0.6562 0.2344 -0.6719 L0.25 -0.6719 Q0.3438 -0.6719 0.3906 -0.5938 L0.3906 -0.5938 Q0.4062 -0.5781 0.4219 -0.5469 Q0.4531 -0.4688 0.4531 -0.3125 ZM0.25 0 L0.25 0 Q0.3125 0 0.3438 -0.0625 Q0.3594 -0.0938 0.3594 -0.125 Q0.375 -0.1875 0.375 -0.3281 Q0.375 -0.4688 0.3594 -0.5312 Q0.3438 -0.625 0.2812 -0.6406 Q0.2656 -0.6406 0.25 -0.6406 Q0.1719 -0.6406 0.1406 -0.5781 Q0.1406 -0.5469 0.125 -0.5156 Q0.125 -0.4688 0.125 -0.3281 Q0.125 -0.1875 0.1406 -0.125 Q0.1562 -0.0312 0.2188 0 Q0.2344 0 0.25 0 Z"
    /></g
  ></g
></svg
>
<!--entity N21--><rect fill="#FFFFFF" height="45" rx="35" ry="35" style="stroke: #000000; stroke-width: 1.5;" width="59" x="1020.5" y="294"/><svg x="1030.5" y="304"><!--Generated by the Batik Graphics2D SVG Generator--><defs id="genericDefs"
  /><g
  ><g transform="scale(20,20) translate(0.2,0.8833)" style="font-size:1; text-rendering:geometricPrecision; color-rendering:optimizeQuality; image-rendering:optimizeQuality; font-family:&apos;jlm_cmmi10&apos;; color-interpolation:linearRGB;"
    ><path style="stroke:none;" d="M0.75 -0.5781 L0.6094 -0.0156 Q0.6094 0 0.6094 0 L0.6094 0 L0.5938 0 Q0.5938 0 0.5781 -0.0156 Q0.5781 -0.0156 0.5781 -0.0156 L0.3281 -0.6094 L0.3281 -0.625 L0.1875 -0.0938 Q0.1875 -0.0781 0.1875 -0.0781 Q0.1875 -0.0469 0.2344 -0.0312 Q0.2344 -0.0312 0.25 -0.0312 Q0.2656 -0.0312 0.2656 -0.0156 Q0.2656 0 0.25 0 L0.1562 0 L0.1562 0 L0.0469 0 L0.0469 0 Q0.0312 0 0.0312 -0.0156 Q0.0312 -0.0312 0.0625 -0.0312 Q0.1406 -0.0312 0.1562 -0.0781 Q0.1562 -0.0938 0.1562 -0.1094 L0.2969 -0.6406 Q0.2969 -0.6562 0.2344 -0.6562 Q0.2031 -0.6562 0.2031 -0.6562 Q0.2031 -0.6875 0.2188 -0.6875 L0.2344 -0.6875 L0.3594 -0.6875 Q0.3906 -0.6875 0.3906 -0.6719 Q0.3906 -0.6719 0.3906 -0.6562 L0.625 -0.1406 L0.7344 -0.5938 Q0.7344 -0.5938 0.7344 -0.6094 Q0.7344 -0.6562 0.6719 -0.6562 Q0.6406 -0.6562 0.6406 -0.6562 Q0.6406 -0.6875 0.6719 -0.6875 L0.7656 -0.6875 L0.7656 -0.6875 L0.8594 -0.6875 L0.875 -0.6875 Q0.875 -0.6875 0.875 -0.6719 Q0.875 -0.6562 0.8594 -0.6562 Q0.7812 -0.6562 0.7656 -0.6094 L0.7656 -0.6094 Q0.7656 -0.5938 0.75 -0.5781 Z"
    /></g
    ><g transform="matrix(20,0,0,20,0,0) translate(1.0035,1.0333) scale(0.7,0.7)" style="font-size:1; text-rendering:geometricPrecision; color-rendering:optimizeQuality; image-rendering:optimizeQuality; font-family:&apos;jlm_cmr10&apos;; color-interpolation:linearRGB;"
    ><path style="stroke:none;" d="M0.4531 -0.1719 L0.4531 -0.1719 L0.4219 0 L0.0469 0 Q0.0469 -0.0312 0.0625 -0.0312 L0.0625 -0.0312 L0.25 -0.25 Q0.3594 -0.375 0.3594 -0.4688 Q0.3594 -0.5625 0.2969 -0.6094 L0.2969 -0.6094 L0.2969 -0.6094 Q0.2656 -0.6406 0.2188 -0.6406 Q0.1562 -0.6406 0.1094 -0.5781 Q0.0938 -0.5625 0.0938 -0.5312 Q0.0938 -0.5312 0.1094 -0.5312 Q0.1406 -0.5312 0.1562 -0.5 L0.1562 -0.5 Q0.1562 -0.4844 0.1562 -0.4844 Q0.1562 -0.4375 0.1094 -0.4375 Q0.1094 -0.4219 0.1094 -0.4219 Q0.0625 -0.4219 0.0469 -0.4531 Q0.0469 -0.4688 0.0469 -0.4844 Q0.0469 -0.5625 0.1094 -0.6094 Q0.1562 -0.6719 0.2344 -0.6719 Q0.3438 -0.6719 0.4062 -0.5938 Q0.4375 -0.5469 0.4531 -0.4844 Q0.4531 -0.4844 0.4531 -0.4688 Q0.4531 -0.4062 0.3906 -0.3281 Q0.3594 -0.2969 0.2969 -0.25 L0.25 -0.1875 L0.2344 -0.1875 L0.125 -0.0781 L0.3125 -0.0781 Q0.3906 -0.0781 0.4062 -0.0781 Q0.4062 -0.0938 0.4219 -0.1719 L0.4531 -0.1719 Z"
    /></g
    ><g transform="matrix(20,0,0,20,0,0) translate(1.3535,1.0333) scale(0.7,0.7)" style="font-size:1; text-rendering:geometricPrecision; color-rendering:optimizeQuality; image-rendering:optimizeQuality; font-family:&apos;jlm_cmr10&apos;; color-interpolation:linearRGB;"
    ><path style="stroke:none;" d="M0.2969 -0.6406 L0.2969 -0.0781 Q0.2969 -0.0469 0.3125 -0.0469 Q0.3281 -0.0312 0.3906 -0.0312 L0.4219 -0.0312 L0.4219 0 Q0.3906 0 0.25 0 Q0.125 0 0.0938 0 L0.0938 -0.0312 L0.125 -0.0312 Q0.2031 -0.0312 0.2188 -0.0469 L0.2188 -0.0469 Q0.2188 -0.0625 0.2188 -0.0781 L0.2188 -0.5938 Q0.1719 -0.5781 0.0938 -0.5781 L0.0938 -0.6094 Q0.2031 -0.6094 0.2656 -0.6719 Q0.2969 -0.6719 0.2969 -0.6562 L0.2969 -0.6562 L0.2969 -0.6562 Q0.2969 -0.6562 0.2969 -0.6406 Z"
    /></g
  ></g
></svg
>
<!--entity N22--><rect fill="#FFFFFF" height="45" rx="35" ry="35" style="stroke: #000000; stroke-width: 1.5;" width="59" x="1114.5" y="294"/><svg x="1124.5" y="304"><!--Generated by the Batik Graphics2D SVG Generator--><defs id="genericDefs"
  /><g
  ><g transform="scale(20,20) translate(0.2,0.8833)" style="font-size:1; text-rendering:geometricPrecision; color-rendering:optimizeQuality; image-rendering:optimizeQuality; font-family:&apos;jlm_cmmi10&apos;; color-interpolation:linearRGB;"
    ><path style="stroke:none;" d="M0.75 -0.5781 L0.6094 -0.0156 Q0.6094 0 0.6094 0 L0.6094 0 L0.5938 0 Q0.5938 0 0.5781 -0.0156 Q0.5781 -0.0156 0.5781 -0.0156 L0.3281 -0.6094 L0.3281 -0.625 L0.1875 -0.0938 Q0.1875 -0.0781 0.1875 -0.0781 Q0.1875 -0.0469 0.2344 -0.0312 Q0.2344 -0.0312 0.25 -0.0312 Q0.2656 -0.0312 0.2656 -0.0156 Q0.2656 0 0.25 0 L0.1562 0 L0.1562 0 L0.0469 0 L0.0469 0 Q0.0312 0 0.0312 -0.0156 Q0.0312 -0.0312 0.0625 -0.0312 Q0.1406 -0.0312 0.1562 -0.0781 Q0.1562 -0.0938 0.1562 -0.1094 L0.2969 -0.6406 Q0.2969 -0.6562 0.2344 -0.6562 Q0.2031 -0.6562 0.2031 -0.6562 Q0.2031 -0.6875 0.2188 -0.6875 L0.2344 -0.6875 L0.3594 -0.6875 Q0.3906 -0.6875 0.3906 -0.6719 Q0.3906 -0.6719 0.3906 -0.6562 L0.625 -0.1406 L0.7344 -0.5938 Q0.7344 -0.5938 0.7344 -0.6094 Q0.7344 -0.6562 0.6719 -0.6562 Q0.6406 -0.6562 0.6406 -0.6562 Q0.6406 -0.6875 0.6719 -0.6875 L0.7656 -0.6875 L0.7656 -0.6875 L0.8594 -0.6875 L0.875 -0.6875 Q0.875 -0.6875 0.875 -0.6719 Q0.875 -0.6562 0.8594 -0.6562 Q0.7812 -0.6562 0.7656 -0.6094 L0.7656 -0.6094 Q0.7656 -0.5938 0.75 -0.5781 Z"
    /></g
    ><g transform="matrix(20,0,0,20,0,0) translate(1.0035,1.0333) scale(0.7,0.7)" style="font-size:1; text-rendering:geometricPrecision; color-rendering:optimizeQuality; image-rendering:optimizeQuality; font-family:&apos;jlm_cmr10&apos;; color-interpolation:linearRGB;"
    ><path style="stroke:none;" d="M0.4531 -0.1719 L0.4531 -0.1719 L0.4219 0 L0.0469 0 Q0.0469 -0.0312 0.0625 -0.0312 L0.0625 -0.0312 L0.25 -0.25 Q0.3594 -0.375 0.3594 -0.4688 Q0.3594 -0.5625 0.2969 -0.6094 L0.2969 -0.6094 L0.2969 -0.6094 Q0.2656 -0.6406 0.2188 -0.6406 Q0.1562 -0.6406 0.1094 -0.5781 Q0.0938 -0.5625 0.0938 -0.5312 Q0.0938 -0.5312 0.1094 -0.5312 Q0.1406 -0.5312 0.1562 -0.5 L0.1562 -0.5 Q0.1562 -0.4844 0.1562 -0.4844 Q0.1562 -0.4375 0.1094 -0.4375 Q0.1094 -0.4219 0.1094 -0.4219 Q0.0625 -0.4219 0.0469 -0.4531 Q0.0469 -0.4688 0.0469 -0.4844 Q0.0469 -0.5625 0.1094 -0.6094 Q0.1562 -0.6719 0.2344 -0.6719 Q0.3438 -0.6719 0.4062 -0.5938 Q0.4375 -0.5469 0.4531 -0.4844 Q0.4531 -0.4844 0.4531 -0.4688 Q0.4531 -0.4062 0.3906 -0.3281 Q0.3594 -0.2969 0.2969 -0.25 L0.25 -0.1875 L0.2344 -0.1875 L0.125 -0.0781 L0.3125 -0.0781 Q0.3906 -0.0781 0.4062 -0.0781 Q0.4062 -0.0938 0.4219 -0.1719 L0.4531 -0.1719 Z"
    /></g
    ><g transform="matrix(20,0,0,20,0,0) translate(1.3535,1.0333) scale(0.7,0.7)" style="font-size:1; text-rendering:geometricPrecision; color-rendering:optimizeQuality; image-rendering:optimizeQuality; font-family:&apos;jlm_cmr10&apos;; color-interpolation:linearRGB;"
    ><path style="stroke:none;" d="M0.4531 -0.1719 L0.4531 -0.1719 L0.4219 0 L0.0469 0 Q0.0469 -0.0312 0.0625 -0.0312 L0.0625 -0.0312 L0.25 -0.25 Q0.3594 -0.375 0.3594 -0.4688 Q0.3594 -0.5625 0.2969 -0.6094 L0.2969 -0.6094 L0.2969 -0.6094 Q0.2656 -0.6406 0.2188 -0.6406 Q0.1562 -0.6406 0.1094 -0.5781 Q0.0938 -0.5625 0.0938 -0.5312 Q0.0938 -0.5312 0.1094 -0.5312 Q0.1406 -0.5312 0.1562 -0.5 L0.1562 -0.5 Q0.1562 -0.4844 0.1562 -0.4844 Q0.1562 -0.4375 0.1094 -0.4375 Q0.1094 -0.4219 0.1094 -0.4219 Q0.0625 -0.4219 0.0469 -0.4531 Q0.0469 -0.4688 0.0469 -0.4844 Q0.0469 -0.5625 0.1094 -0.6094 Q0.1562 -0.6719 0.2344 -0.6719 Q0.3438 -0.6719 0.4062 -0.5938 Q0.4375 -0.5469 0.4531 -0.4844 Q0.4531 -0.4844 0.4531 -0.4688 Q0.4531 -0.4062 0.3906 -0.3281 Q0.3594 -0.2969 0.2969 -0.25 L0.25 -0.1875 L0.2344 -0.1875 L0.125 -0.0781 L0.3125 -0.0781 Q0.3906 -0.0781 0.4062 -0.0781 Q0.4062 -0.0938 0.4219 -0.1719 L0.4531 -0.1719 Z"
    /></g
  ></g
></svg
>
<!--entity root--><rect fill="#90EE90" height="36.2969" rx="35" ry="35" style="stroke: #000000; stroke-width: 1.5;" width="48" x="735" y="102"/><text fill="#000000" font-family="sans-serif" font-size="14" lengthAdjust="spacingAndGlyphs" textLength="28" x="745" y="124.9951">root</text><!--entity US--><rect fill="#90EE90" height="36.2969" rx="35" ry="35" style="stroke: #000000; stroke-width: 1.5;" width="72" x="226" y="198"/><text fill="#000000" font-family="sans-serif" font-size="14" lengthAdjust="spacingAndGlyphs" textLength="52" x="236" y="220.9951">Loc: US</text><!--entity EU--><rect fill="#FFFFFF" height="36.2969" rx="35" ry="35" style="stroke: #000000; stroke-width: 1.5;" width="72" x="574" y="198"/><text fill="#000000" font-family="sans-serif" font-size="14" lengthAdjust="spacingAndGlyphs" textLength="52" x="584" y="220.9951">Loc: EU</text><!--entity RU--><rect fill="#FFFFFF" height="36.2969" rx="35" ry="35" style="stroke: #000000; stroke-width: 1.5;" width="73" x="260.5" y="399"/><text fill="#000000" font-family="sans-serif" font-size="14" lengthAdjust="spacingAndGlyphs" textLength="53" x="270.5" y="421.9951">Loc: RU</text><!--entity JA--><rect fill="#90EE90" height="36.2969" rx="35" ry="35" style="stroke: #000000; stroke-width: 1.5;" width="64" x="733" y="399"/><text fill="#000000" font-family="sans-serif" font-size="14" lengthAdjust="spacingAndGlyphs" textLength="44" x="743" y="421.9951">Loc: Ja</text><!--entity N1--><rect fill="#FFFFFF" height="45" rx="35" ry="35" style="stroke: #000000; stroke-width: 1.5;" width="52" x="62" y="294"/><svg x="72" y="304"><!--Generated by the Batik Graphics2D SVG Generator--><defs id="genericDefs"
  /><g
  ><g transform="scale(20,20) translate(0.2,0.8833)" style="font-size:1; text-rendering:geometricPrecision; color-rendering:optimizeQuality; image-rendering:optimizeQuality; font-family:&apos;jlm_cmmi10&apos;; color-interpolation:linearRGB;"
    ><path style="stroke:none;" d="M0.75 -0.5781 L0.6094 -0.0156 Q0.6094 0 0.6094 0 L0.6094 0 L0.5938 0 Q0.5938 0 0.5781 -0.0156 Q0.5781 -0.0156 0.5781 -0.0156 L0.3281 -0.6094 L0.3281 -0.625 L0.1875 -0.0938 Q0.1875 -0.0781 0.1875 -0.0781 Q0.1875 -0.0469 0.2344 -0.0312 Q0.2344 -0.0312 0.25 -0.0312 Q0.2656 -0.0312 0.2656 -0.0156 Q0.2656 0 0.25 0 L0.1562 0 L0.1562 0 L0.0469 0 L0.0469 0 Q0.0312 0 0.0312 -0.0156 Q0.0312 -0.0312 0.0625 -0.0312 Q0.1406 -0.0312 0.1562 -0.0781 Q0.1562 -0.0938 0.1562 -0.1094 L0.2969 -0.6406 Q0.2969 -0.6562 0.2344 -0.6562 Q0.2031 -0.6562 0.2031 -0.6562 Q0.2031 -0.6875 0.2188 -0.6875 L0.2344 -0.6875 L0.3594 -0.6875 Q0.3906 -0.6875 0.3906 -0.6719 Q0.3906 -0.6719 0.3906 -0.6562 L0.625 -0.1406 L0.7344 -0.5938 Q0.7344 -0.5938 0.7344 -0.6094 Q0.7344 -0.6562 0.6719 -0.6562 Q0.6406 -0.6562 0.6406 -0.6562 Q0.6406 -0.6875 0.6719 -0.6875 L0.7656 -0.6875 L0.7656 -0.6875 L0.8594 -0.6875 L0.875 -0.6875 Q0.875 -0.6875 0.875 -0.6719 Q0.875 -0.6562 0.8594 -0.6562 Q0.7812 -0.6562 0.7656 -0.6094 L0.7656 -0.6094 Q0.7656 -0.5938 0.75 -0.5781 Z"
    /></g
    ><g transform="matrix(20,0,0,20,0,0) translate(1.0035,1.0333) scale(0.7,0.7)" style="font-size:1; text-rendering:geometricPrecision; color-rendering:optimizeQuality; image-rendering:optimizeQuality; font-family:&apos;jlm_cmr10&apos;; color-interpolation:linearRGB;"
    ><path style="stroke:none;" d="M0.2969 -0.6406 L0.2969 -0.0781 Q0.2969 -0.0469 0.3125 -0.0469 Q0.3281 -0.0312 0.3906 -0.0312 L0.4219 -0.0312 L0.4219 0 Q0.3906 0 0.25 0 Q0.125 0 0.0938 0 L0.0938 -0.0312 L0.125 -0.0312 Q0.2031 -0.0312 0.2188 -0.0469 L0.2188 -0.0469 Q0.2188 -0.0625 0.2188 -0.0781 L0.2188 -0.5938 Q0.1719 -0.5781 0.0938 -0.5781 L0.0938 -0.6094 Q0.2031 -0.6094 0.2656 -0.6719 Q0.2969 -0.6719 0.2969 -0.6562 L0.2969 -0.6562 L0.2969 -0.6562 Q0.2969 -0.6562 0.2969 -0.6406 Z"
    /></g
  ></g
></svg
>
<!--entity N2--><rect fill="#90EE90" height="45" rx="35" ry="35" style="stroke: #000000; stroke-width: 1.5;" width="52" x="149" y="294"/><svg x="159" y="304"><!--Generated by the Batik Graphics2D SVG Generator--><defs id="genericDefs"
  /><g
  ><g transform="scale(20,20) translate(0.2,0.8833)" style="font-size:1; text-rendering:geometricPrecision; color-rendering:optimizeQuality; image-rendering:optimizeQuality; font-family:&apos;jlm_cmmi10&apos;; color-interpolation:linearRGB;"
    ><path style="stroke:none;" d="M0.75 -0.5781 L0.6094 -0.0156 Q0.6094 0 0.6094 0 L0.6094 0 L0.5938 0 Q0.5938 0 0.5781 -0.0156 Q0.5781 -0.0156 0.5781 -0.0156 L0.3281 -0.6094 L0.3281 -0.625 L0.1875 -0.0938 Q0.1875 -0.0781 0.1875 -0.0781 Q0.1875 -0.0469 0.2344 -0.0312 Q0.2344 -0.0312 0.25 -0.0312 Q0.2656 -0.0312 0.2656 -0.0156 Q0.2656 0 0.25 0 L0.1562 0 L0.1562 0 L0.0469 0 L0.0469 0 Q0.0312 0 0.0312 -0.0156 Q0.0312 -0.0312 0.0625 -0.0312 Q0.1406 -0.0312 0.1562 -0.0781 Q0.1562 -0.0938 0.1562 -0.1094 L0.2969 -0.6406 Q0.2969 -0.6562 0.2344 -0.6562 Q0.2031 -0.6562 0.2031 -0.6562 Q0.2031 -0.6875 0.2188 -0.6875 L0.2344 -0.6875 L0.3594 -0.6875 Q0.3906 -0.6875 0.3906 -0.6719 Q0.3906 -0.6719 0.3906 -0.6562 L0.625 -0.1406 L0.7344 -0.5938 Q0.7344 -0.5938 0.7344 -0.6094 Q0.7344 -0.6562 0.6719 -0.6562 Q0.6406 -0.6562 0.6406 -0.6562 Q0.6406 -0.6875 0.6719 -0.6875 L0.7656 -0.6875 L0.7656 -0.6875 L0.8594 -0.6875 L0.875 -0.6875 Q0.875 -0.6875 0.875 -0.6719 Q0.875 -0.6562 0.8594 -0.6562 Q0.7812 -0.6562 0.7656 -0.6094 L0.7656 -0.6094 Q0.7656 -0.5938 0.75 -0.5781 Z"
    /></g
    ><g transform="matrix(20,0,0,20,0,0) translate(1.0035,1.0333) scale(0.7,0.7)" style="font-size:1; text-rendering:geometricPrecision; color-rendering:optimizeQuality; image-rendering:optimizeQuality; font-family:&apos;jlm_cmr10&apos;; color-interpolation:linearRGB;"
    ><path style="stroke:none;" d="M0.4531 -0.1719 L0.4531 -0.1719 L0.4219 0 L0.0469 0 Q0.0469 -0.0312 0.0625 -0.0312 L0.0625 -0.0312 L0.25 -0.25 Q0.3594 -0.375 0.3594 -0.4688 Q0.3594 -0.5625 0.2969 -0.6094 L0.2969 -0.6094 L0.2969 -0.6094 Q0.2656 -0.6406 0.2188 -0.6406 Q0.1562 -0.6406 0.1094 -0.5781 Q0.0938 -0.5625 0.0938 -0.5312 Q0.0938 -0.5312 0.1094 -0.5312 Q0.1406 -0.5312 0.1562 -0.5 L0.1562 -0.5 Q0.1562 -0.4844 0.1562 -0.4844 Q0.1562 -0.4375 0.1094 -0.4375 Q0.1094 -0.4219 0.1094 -0.4219 Q0.0625 -0.4219 0.0469 -0.4531 Q0.0469 -0.4688 0.0469 -0.4844 Q0.0469 -0.5625 0.1094 -0.6094 Q0.1562 -0.6719 0.2344 -0.6719 Q0.3438 -0.6719 0.4062 -0.5938 Q0.4375 -0.5469 0.4531 -0.4844 Q0.4531 -0.4844 0.4531 -0.4688 Q0.4531 -0.4062 0.3906 -0.3281 Q0.3594 -0.2969 0.2969 -0.25 L0.25 -0.1875 L0.2344 -0.1875 L0.125 -0.0781 L0.3125 -0.0781 Q0.3906 -0.0781 0.4062 -0.0781 Q0.4062 -0.0938 0.4219 -0.1719 L0.4531 -0.1719 Z"
    /></g
  ></g
></svg
>
<!--entity N3--><rect fill="#FFFFFF" height="45" rx="35" ry="35" style="stroke: #000000; stroke-width: 1.5;" width="52" x="236" y="294"/><svg x="246" y="304"><!--Generated by the Batik Graphics2D SVG Generator--><defs id="genericDefs"
  /><g
  ><g transform="scale(20,20) translate(0.2,0.8833)" style="font-size:1; text-rendering:geometricPrecision; color-rendering:optimizeQuality; image-rendering:optimizeQuality; font-family:&apos;jlm_cmmi10&apos;; color-interpolation:linearRGB;"
    ><path style="stroke:none;" d="M0.75 -0.5781 L0.6094 -0.0156 Q0.6094 0 0.6094 0 L0.6094 0 L0.5938 0 Q0.5938 0 0.5781 -0.0156 Q0.5781 -0.0156 0.5781 -0.0156 L0.3281 -0.6094 L0.3281 -0.625 L0.1875 -0.0938 Q0.1875 -0.0781 0.1875 -0.0781 Q0.1875 -0.0469 0.2344 -0.0312 Q0.2344 -0.0312 0.25 -0.0312 Q0.2656 -0.0312 0.2656 -0.0156 Q0.2656 0 0.25 0 L0.1562 0 L0.1562 0 L0.0469 0 L0.0469 0 Q0.0312 0 0.0312 -0.0156 Q0.0312 -0.0312 0.0625 -0.0312 Q0.1406 -0.0312 0.1562 -0.0781 Q0.1562 -0.0938 0.1562 -0.1094 L0.2969 -0.6406 Q0.2969 -0.6562 0.2344 -0.6562 Q0.2031 -0.6562 0.2031 -0.6562 Q0.2031 -0.6875 0.2188 -0.6875 L0.2344 -0.6875 L0.3594 -0.6875 Q0.3906 -0.6875 0.3906 -0.6719 Q0.3906 -0.6719 0.3906 -0.6562 L0.625 -0.1406 L0.7344 -0.5938 Q0.7344 -0.5938 0.7344 -0.6094 Q0.7344 -0.6562 0.6719 -0.6562 Q0.6406 -0.6562 0.6406 -0.6562 Q0.6406 -0.6875 0.6719 -0.6875 L0.7656 -0.6875 L0.7656 -0.6875 L0.8594 -0.6875 L0.875 -0.6875 Q0.875 -0.6875 0.875 -0.6719 Q0.875 -0.6562 0.8594 -0.6562 Q0.7812 -0.6562 0.7656 -0.6094 L0.7656 -0.6094 Q0.7656 -0.5938 0.75 -0.5781 Z"
    /></g
    ><g transform="matrix(20,0,0,20,0,0) translate(1.0035,1.0333) scale(0.7,0.7)" style="font-size:1; text-rendering:geometricPrecision; color-rendering:optimizeQuality; image-rendering:optimizeQuality; font-family:&apos;jlm_cmr10&apos;; color-interpolation:linearRGB;"
    ><path style="stroke:none;" d="M0.2969 -0.3594 L0.2969 -0.3594 Q0.3906 -0.3281 0.4375 -0.25 Q0.4531 -0.2188 0.4531 -0.1719 Q0.4531 -0.0938 0.3906 -0.0312 Q0.3281 0.0156 0.25 0.0156 Q0.1406 0.0156 0.0781 -0.0312 Q0.0469 -0.0781 0.0469 -0.1406 Q0.0469 -0.1875 0.0781 -0.1875 Q0.0938 -0.1875 0.0938 -0.1875 Q0.1406 -0.1875 0.1562 -0.1562 Q0.1562 -0.1406 0.1562 -0.1406 Q0.1562 -0.0938 0.125 -0.0781 Q0.1094 -0.0781 0.0938 -0.0781 Q0.125 -0.0156 0.2188 -0.0156 Q0.2344 0 0.2344 0 Q0.3125 0 0.3281 -0.0625 Q0.3594 -0.1094 0.3594 -0.1719 Q0.3594 -0.2969 0.2812 -0.3281 Q0.25 -0.3438 0.2344 -0.3438 L0.1875 -0.3438 Q0.1719 -0.3438 0.1719 -0.3438 Q0.1719 -0.3594 0.1875 -0.3594 Q0.2031 -0.3594 0.2188 -0.3594 Q0.2656 -0.3594 0.2969 -0.4062 L0.2969 -0.4062 L0.2969 -0.4062 L0.2969 -0.4062 L0.2969 -0.4062 L0.3125 -0.4219 Q0.3438 -0.4688 0.3438 -0.5312 Q0.3438 -0.625 0.2656 -0.6406 Q0.25 -0.6406 0.2344 -0.6406 Q0.1719 -0.6406 0.125 -0.5938 Q0.1094 -0.5938 0.1094 -0.5781 Q0.1719 -0.5781 0.1719 -0.5312 Q0.1719 -0.5 0.1406 -0.4844 Q0.125 -0.4844 0.125 -0.4844 Q0.0781 -0.4844 0.0781 -0.5156 L0.0781 -0.5156 L0.0781 -0.5156 Q0.0625 -0.5156 0.0625 -0.5312 Q0.0625 -0.5938 0.1406 -0.6406 Q0.1875 -0.6719 0.25 -0.6719 Q0.3438 -0.6719 0.3906 -0.6094 L0.3906 -0.6094 Q0.4375 -0.5781 0.4375 -0.5312 Q0.4375 -0.4375 0.3594 -0.3906 Q0.3281 -0.3594 0.2969 -0.3594 Z"
    /></g
  ></g
></svg
>
<!--entity N4--><rect fill="#90EE90" height="45" rx="35" ry="35" style="stroke: #000000; stroke-width: 1.5;" width="52" x="323" y="294"/><svg x="333" y="304"><!--Generated by the Batik Graphics2D SVG Generator--><defs id="genericDefs"
  /><g
  ><g transform="scale(20,20) translate(0.2,0.8833)" style="font-size:1; text-rendering:geometricPrecision; color-rendering:optimizeQuality; image-rendering:optimizeQuality; font-family:&apos;jlm_cmmi10&apos;; color-interpolation:linearRGB;"
    ><path style="stroke:none;" d="M0.75 -0.5781 L0.6094 -0.0156 Q0.6094 0 0.6094 0 L0.6094 0 L0.5938 0 Q0.5938 0 0.5781 -0.0156 Q0.5781 -0.0156 0.5781 -0.0156 L0.3281 -0.6094 L0.3281 -0.625 L0.1875 -0.0938 Q0.1875 -0.0781 0.1875 -0.0781 Q0.1875 -0.0469 0.2344 -0.0312 Q0.2344 -0.0312 0.25 -0.0312 Q0.2656 -0.0312 0.2656 -0.0156 Q0.2656 0 0.25 0 L0.1562 0 L0.1562 0 L0.0469 0 L0.0469 0 Q0.0312 0 0.0312 -0.0156 Q0.0312 -0.0312 0.0625 -0.0312 Q0.1406 -0.0312 0.1562 -0.0781 Q0.1562 -0.0938 0.1562 -0.1094 L0.2969 -0.6406 Q0.2969 -0.6562 0.2344 -0.6562 Q0.2031 -0.6562 0.2031 -0.6562 Q0.2031 -0.6875 0.2188 -0.6875 L0.2344 -0.6875 L0.3594 -0.6875 Q0.3906 -0.6875 0.3906 -0.6719 Q0.3906 -0.6719 0.3906 -0.6562 L0.625 -0.1406 L0.7344 -0.5938 Q0.7344 -0.5938 0.7344 -0.6094 Q0.7344 -0.6562 0.6719 -0.6562 Q0.6406 -0.6562 0.6406 -0.6562 Q0.6406 -0.6875 0.6719 -0.6875 L0.7656 -0.6875 L0.7656 -0.6875 L0.8594 -0.6875 L0.875 -0.6875 Q0.875 -0.6875 0.875 -0.6719 Q0.875 -0.6562 0.8594 -0.6562 Q0.7812 -0.6562 0.7656 -0.6094 L0.7656 -0.6094 Q0.7656 -0.5938 0.75 -0.5781 Z"
    /></g
    ><g transform="matrix(20,0,0,20,0,0) translate(1.0035,1.0333) scale(0.7,0.7)" style="font-size:1; text-rendering:geometricPrecision; color-rendering:optimizeQuality; image-rendering:optimizeQuality; font-family:&apos;jlm_cmr10&apos;; color-interpolation:linearRGB;"
    ><path style="stroke:none;" d="M0.0312 -0.1719 L0.0312 -0.2031 L0.3281 -0.6719 Q0.3438 -0.6719 0.3594 -0.6719 Q0.375 -0.6719 0.375 -0.6719 L0.375 -0.6562 L0.375 -0.2031 L0.4688 -0.2031 L0.4688 -0.1719 L0.375 -0.1719 L0.375 -0.0781 Q0.375 -0.0469 0.3906 -0.0469 Q0.3906 -0.0312 0.4531 -0.0312 L0.4688 -0.0312 L0.4688 0 Q0.4219 0 0.3281 0 Q0.2344 0 0.2031 0 L0.2031 -0.0312 L0.2188 -0.0312 Q0.2812 -0.0312 0.2969 -0.0469 Q0.2969 -0.0625 0.2969 -0.0781 L0.2969 -0.1719 L0.0312 -0.1719 ZM0.2969 -0.2031 L0.2969 -0.5625 L0.0625 -0.2031 L0.2969 -0.2031 Z"
    /></g
  ></g
></svg
>
<!--entity N5--><rect fill="#FFFFFF" height="45" rx="35" ry="35" style="stroke: #000000; stroke-width: 1.5;" width="52" x="410" y="294"/><svg x="420" y="304"><!--Generated by the Batik Graphics2D SVG Generator--><defs id="genericDefs"
  /><g
  ><g transform="scale(20,20) translate(0.2,0.8833)" style="font-size:1; text-rendering:geometricPrecision; color-rendering:optimizeQuality; image-rendering:optimizeQuality; font-family:&apos;jlm_cmmi10&apos;; color-interpolation:linearRGB;"
    ><path style="stroke:none;" d="M0.75 -0.5781 L0.6094 -0.0156 Q0.6094 0 0.6094 0 L0.6094 0 L0.5938 0 Q0.5938 0 0.5781 -0.0156 Q0.5781 -0.0156 0.5781 -0.0156 L0.3281 -0.6094 L0.3281 -0.625 L0.1875 -0.0938 Q0.1875 -0.0781 0.1875 -0.0781 Q0.1875 -0.0469 0.2344 -0.0312 Q0.2344 -0.0312 0.25 -0.0312 Q0.2656 -0.0312 0.2656 -0.0156 Q0.2656 0 0.25 0 L0.1562 0 L0.1562 0 L0.0469 0 L0.0469 0 Q0.0312 0 0.0312 -0.0156 Q0.0312 -0.0312 0.0625 -0.0312 Q0.1406 -0.0312 0.1562 -0.0781 Q0.1562 -0.0938 0.1562 -0.1094 L0.2969 -0.6406 Q0.2969 -0.6562 0.2344 -0.6562 Q0.2031 -0.6562 0.2031 -0.6562 Q0.2031 -0.6875 0.2188 -0.6875 L0.2344 -0.6875 L0.3594 -0.6875 Q0.3906 -0.6875 0.3906 -0.6719 Q0.3906 -0.6719 0.3906 -0.6562 L0.625 -0.1406 L0.7344 -0.5938 Q0.7344 -0.5938 0.7344 -0.6094 Q0.7344 -0.6562 0.6719 -0.6562 Q0.6406 -0.6562 0.6406 -0.6562 Q0.6406 -0.6875 0.6719 -0.6875 L0.7656 -0.6875 L0.7656 -0.6875 L0.8594 -0.6875 L0.875 -0.6875 Q0.875 -0.6875 0.875 -0.6719 Q0.875 -0.6562 0.8594 -0.6562 Q0.7812 -0.6562 0.7656 -0.6094 L0.7656 -0.6094 Q0.7656 -0.5938 0.75 -0.5781 Z"
    /></g
    ><g transform="matrix(20,0,0,20,0,0) translate(1.0035,1.0333) scale(0.7,0.7)" style="font-size:1; text-rendering:geometricPrecision; color-rendering:optimizeQuality; image-rendering:optimizeQuality; font-family:&apos;jlm_cmr10&apos;; color-interpolation:linearRGB;"
    ><path style="stroke:none;" d="M0.4531 -0.2031 L0.4531 -0.2031 Q0.4531 -0.0938 0.375 -0.0312 Q0.3125 0.0156 0.2344 0.0156 Q0.1406 0.0156 0.0781 -0.0625 Q0.0469 -0.1094 0.0469 -0.1562 Q0.0469 -0.2031 0.0938 -0.2188 Q0.0938 -0.2188 0.0938 -0.2188 Q0.1406 -0.2188 0.1406 -0.1875 Q0.1562 -0.1719 0.1562 -0.1719 Q0.1562 -0.1406 0.125 -0.125 Q0.1094 -0.1094 0.0938 -0.1094 Q0.0938 -0.1094 0.0781 -0.125 Q0.0938 -0.0625 0.1562 -0.0312 Q0.1875 0 0.2344 0 Q0.2969 0 0.3438 -0.0781 Q0.3594 -0.1094 0.3594 -0.2031 Q0.3594 -0.2969 0.3438 -0.3281 Q0.3125 -0.3906 0.25 -0.3906 Q0.1719 -0.3906 0.125 -0.3281 Q0.125 -0.3125 0.1094 -0.3125 Q0.1094 -0.3125 0.0938 -0.3281 L0.0938 -0.3438 L0.0938 -0.6406 Q0.0938 -0.6562 0.1094 -0.6719 Q0.1094 -0.6719 0.125 -0.6562 Q0.1875 -0.6406 0.25 -0.6406 Q0.3281 -0.6406 0.3906 -0.6562 Q0.3906 -0.6719 0.4062 -0.6719 Q0.4062 -0.6719 0.4062 -0.6562 Q0.4062 -0.6406 0.375 -0.6094 Q0.3125 -0.5469 0.2188 -0.5469 Q0.1719 -0.5469 0.125 -0.5625 L0.125 -0.375 Q0.1875 -0.4219 0.2656 -0.4219 Q0.3438 -0.4219 0.4062 -0.3438 Q0.4531 -0.2812 0.4531 -0.2031 Z"
    /></g
  ></g
></svg
>
<!--entity N6--><rect fill="#FFFFFF" height="45" rx="35" ry="35" style="stroke: #000000; stroke-width: 1.5;" width="52" x="497" y="294"/><svg x="507" y="304"><!--Generated by the Batik Graphics2D SVG Generator--><defs id="genericDefs"
  /><g
  ><g transform="scale(20,20) translate(0.2,0.8833)" style="font-size:1; text-rendering:geometricPrecision; color-rendering:optimizeQuality; image-rendering:optimizeQuality; font-family:&apos;jlm_cmmi10&apos;; color-interpolation:linearRGB;"
    ><path style="stroke:none;" d="M0.75 -0.5781 L0.6094 -0.0156 Q0.6094 0 0.6094 0 L0.6094 0 L0.5938 0 Q0.5938 0 0.5781 -0.0156 Q0.5781 -0.0156 0.5781 -0.0156 L0.3281 -0.6094 L0.3281 -0.625 L0.1875 -0.0938 Q0.1875 -0.0781 0.1875 -0.0781 Q0.1875 -0.0469 0.2344 -0.0312 Q0.2344 -0.0312 0.25 -0.0312 Q0.2656 -0.0312 0.2656 -0.0156 Q0.2656 0 0.25 0 L0.1562 0 L0.1562 0 L0.0469 0 L0.0469 0 Q0.0312 0 0.0312 -0.0156 Q0.0312 -0.0312 0.0625 -0.0312 Q0.1406 -0.0312 0.1562 -0.0781 Q0.1562 -0.0938 0.1562 -0.1094 L0.2969 -0.6406 Q0.2969 -0.6562 0.2344 -0.6562 Q0.2031 -0.6562 0.2031 -0.6562 Q0.2031 -0.6875 0.2188 -0.6875 L0.2344 -0.6875 L0.3594 -0.6875 Q0.3906 -0.6875 0.3906 -0.6719 Q0.3906 -0.6719 0.3906 -0.6562 L0.625 -0.1406 L0.7344 -0.5938 Q0.7344 -0.5938 0.7344 -0.6094 Q0.7344 -0.6562 0.6719 -0.6562 Q0.6406 -0.6562 0.6406 -0.6562 Q0.6406 -0.6875 0.6719 -0.6875 L0.7656 -0.6875 L0.7656 -0.6875 L0.8594 -0.6875 L0.875 -0.6875 Q0.875 -0.6875 0.875 -0.6719 Q0.875 -0.6562 0.8594 -0.6562 Q0.7812 -0.6562 0.7656 -0.6094 L0.7656 -0.6094 Q0.7656 -0.5938 0.75 -0.5781 Z"
    /></g
    ><g transform="matrix(20,0,0,20,0,0) translate(1.0035,1.0333) scale(0.7,0.7)" style="font-size:1; text-rendering:geometricPrecision; color-rendering:optimizeQuality; image-rendering:optimizeQuality; font-family:&apos;jlm_cmr10&apos;; color-interpolation:linearRGB;"
    ><path style="stroke:none;" d="M0.125 -0.3281 L0.125 -0.3281 Q0.1719 -0.4219 0.25 -0.4219 Q0.3438 -0.4219 0.4062 -0.3438 Q0.4375 -0.3125 0.4531 -0.25 Q0.4531 -0.2344 0.4531 -0.2031 Q0.4531 -0.0938 0.375 -0.0312 Q0.3281 0.0156 0.25 0.0156 Q0.1562 0.0156 0.0938 -0.0781 Q0.0469 -0.1562 0.0469 -0.3125 Q0.0469 -0.4844 0.1406 -0.5938 Q0.2188 -0.6719 0.3125 -0.6719 Q0.3906 -0.6719 0.4219 -0.6094 Q0.4375 -0.5781 0.4375 -0.5625 Q0.4375 -0.5156 0.3906 -0.5156 Q0.3906 -0.5156 0.3906 -0.5156 Q0.3594 -0.5156 0.3438 -0.5312 Q0.3438 -0.5469 0.3438 -0.5625 Q0.3438 -0.5938 0.3906 -0.5938 Q0.375 -0.6406 0.3125 -0.6406 Q0.2344 -0.6406 0.1875 -0.5781 Q0.125 -0.5 0.125 -0.3594 L0.125 -0.3281 ZM0.25 0 L0.25 0 Q0.3125 0 0.3438 -0.0781 Q0.3594 -0.1094 0.3594 -0.2031 Q0.3594 -0.3125 0.3438 -0.3438 Q0.3125 -0.4062 0.25 -0.4062 Q0.1719 -0.4062 0.1406 -0.3125 Q0.1406 -0.2656 0.1406 -0.2188 Q0.1406 -0.125 0.1562 -0.0781 Q0.1719 -0.0312 0.2188 -0.0156 Q0.2344 0 0.25 0 Z"
    /></g
  ></g
></svg
>
<!--entity N7--><rect fill="#FFFFFF" height="45" rx="35" ry="35" style="stroke: #000000; stroke-width: 1.5;" width="52" x="584" y="294"/><svg x="594" y="304"><!--Generated by the Batik Graphics2D SVG Generator--><defs id="genericDefs"
  /><g
  ><g transform="scale(20,20) translate(0.2,0.8833)" style="font-size:1; text-rendering:geometricPrecision; color-rendering:optimizeQuality; image-rendering:optimizeQuality; font-family:&apos;jlm_cmmi10&apos;; color-interpolation:linearRGB;"
    ><path style="stroke:none;" d="M0.75 -0.5781 L0.6094 -0.0156 Q0.6094 0 0.6094 0 L0.6094 0 L0.5938 0 Q0.5938 0 0.5781 -0.0156 Q0.5781 -0.0156 0.5781 -0.0156 L0.3281 -0.6094 L0.3281 -0.625 L0.1875 -0.0938 Q0.1875 -0.0781 0.1875 -0.0781 Q0.1875 -0.0469 0.2344 -0.0312 Q0.2344 -0.0312 0.25 -0.0312 Q0.2656 -0.0312 0.2656 -0.0156 Q0.2656 0 0.25 0 L0.1562 0 L0.1562 0 L0.0469 0 L0.0469 0 Q0.0312 0 0.0312 -0.0156 Q0.0312 -0.0312 0.0625 -0.0312 Q0.1406 -0.0312 0.1562 -0.0781 Q0.1562 -0.0938 0.1562 -0.1094 L0.2969 -0.6406 Q0.2969 -0.6562 0.2344 -0.6562 Q0.2031 -0.6562 0.2031 -0.6562 Q0.2031 -0.6875 0.2188 -0.6875 L0.2344 -0.6875 L0.3594 -0.6875 Q0.3906 -0.6875 0.3906 -0.6719 Q0.3906 -0.6719 0.3906 -0.6562 L0.625 -0.1406 L0.7344 -0.5938 Q0.7344 -0.5938 0.7344 -0.6094 Q0.7344 -0.6562 0.6719 -0.6562 Q0.6406 -0.6562 0.6406 -0.6562 Q0.6406 -0.6875 0.6719 -0.6875 L0.7656 -0.6875 L0.7656 -0.6875 L0.8594 -0.6875 L0.875 -0.6875 Q0.875 -0.6875 0.875 -0.6719 Q0.875 -0.6562 0.8594 -0.6562 Q0.7812 -0.6562 0.7656 -0.6094 L0.7656 -0.6094 Q0.7656 -0.5938 0.75 -0.5781 Z"
    /></g
    ><g transform="matrix(20,0,0,20,0,0) translate(1.0035,1.0333) scale(0.7,0.7)" style="font-size:1; text-rendering:geometricPrecision; color-rendering:optimizeQuality; image-rendering:optimizeQuality; font-family:&apos;jlm_cmr10&apos;; color-interpolation:linearRGB;"
    ><path style="stroke:none;" d="M0.4688 -0.6094 L0.3438 -0.4219 Q0.2969 -0.3594 0.2812 -0.25 Q0.2656 -0.1719 0.2656 -0.0781 L0.2656 -0.0312 Q0.2656 0.0156 0.2188 0.0156 Q0.1719 0.0156 0.1719 -0.0312 Q0.1719 -0.2031 0.2656 -0.375 L0.2969 -0.4062 L0.4062 -0.5625 L0.2031 -0.5625 Q0.1094 -0.5625 0.1094 -0.5625 Q0.0938 -0.5469 0.0781 -0.4688 L0.0625 -0.4688 L0.0938 -0.6719 L0.1094 -0.6719 Q0.125 -0.6562 0.125 -0.6562 L0.1406 -0.6562 L0.1406 -0.6562 Q0.1562 -0.6406 0.2344 -0.6406 L0.4844 -0.6406 Q0.4844 -0.625 0.4688 -0.6094 Z"
    /></g
  ></g
></svg
>
<!--entity N8--><rect fill="#FFFFFF" height="45" rx="35" ry="35" style="stroke: #000000; stroke-width: 1.5;" width="52" x="671" y="294"/><svg x="681" y="304"><!--Generated by the Batik Graphics2D SVG Generator--><defs id="genericDefs"
  /><g
  ><g transform="scale(20,20) translate(0.2,0.8833)" style="font-size:1; text-rendering:geometricPrecision; color-rendering:optimizeQuality; image-rendering:optimizeQuality; font-family:&apos;jlm_cmmi10&apos;; color-interpolation:linearRGB;"
    ><path style="stroke:none;" d="M0.75 -0.5781 L0.6094 -0.0156 Q0.6094 0 0.6094 0 L0.6094 0 L0.5938 0 Q0.5938 0 0.5781 -0.0156 Q0.5781 -0.0156 0.5781 -0.0156 L0.3281 -0.6094 L0.3281 -0.625 L0.1875 -0.0938 Q0.1875 -0.0781 0.1875 -0.0781 Q0.1875 -0.0469 0.2344 -0.0312 Q0.2344 -0.0312 0.25 -0.0312 Q0.2656 -0.0312 0.2656 -0.0156 Q0.2656 0 0.25 0 L0.1562 0 L0.1562 0 L0.0469 0 L0.0469 0 Q0.0312 0 0.0312 -0.0156 Q0.0312 -0.0312 0.0625 -0.0312 Q0.1406 -0.0312 0.1562 -0.0781 Q0.1562 -0.0938 0.1562 -0.1094 L0.2969 -0.6406 Q0.2969 -0.6562 0.2344 -0.6562 Q0.2031 -0.6562 0.2031 -0.6562 Q0.2031 -0.6875 0.2188 -0.6875 L0.2344 -0.6875 L0.3594 -0.6875 Q0.3906 -0.6875 0.3906 -0.6719 Q0.3906 -0.6719 0.3906 -0.6562 L0.625 -0.1406 L0.7344 -0.5938 Q0.7344 -0.5938 0.7344 -0.6094 Q0.7344 -0.6562 0.6719 -0.6562 Q0.6406 -0.6562 0.6406 -0.6562 Q0.6406 -0.6875 0.6719 -0.6875 L0.7656 -0.6875 L0.7656 -0.6875 L0.8594 -0.6875 L0.875 -0.6875 Q0.875 -0.6875 0.875 -0.6719 Q0.875 -0.6562 0.8594 -0.6562 Q0.7812 -0.6562 0.7656 -0.6094 L0.7656 -0.6094 Q0.7656 -0.5938 0.75 -0.5781 Z"
    /></g
    ><g transform="matrix(20,0,0,20,0,0) translate(1.0035,1.0333) scale(0.7,0.7)" style="font-size:1; text-rendering:geometricPrecision; color-rendering:optimizeQuality; image-rendering:optimizeQuality; font-family:&apos;jlm_cmr10&apos;; color-interpolation:linearRGB;"
    ><path style="stroke:none;" d="M0.1562 -0.4531 L0.2812 -0.375 Q0.3906 -0.4375 0.3906 -0.5156 Q0.3906 -0.5781 0.3281 -0.625 Q0.2969 -0.6406 0.25 -0.6406 Q0.1719 -0.6406 0.1406 -0.5938 L0.1406 -0.5938 L0.1406 -0.5938 Q0.1094 -0.5625 0.1094 -0.5312 Q0.1094 -0.4844 0.1562 -0.4531 ZM0.3125 -0.3594 L0.3125 -0.3594 Q0.3906 -0.3125 0.4062 -0.2969 Q0.4062 -0.2969 0.4062 -0.2969 Q0.4531 -0.2344 0.4531 -0.1719 Q0.4531 -0.0781 0.3906 -0.0156 Q0.3281 0.0156 0.25 0.0156 Q0.1562 0.0156 0.0938 -0.0312 Q0.0469 -0.0781 0.0469 -0.1562 Q0.0469 -0.2656 0.1875 -0.3281 Q0.125 -0.375 0.1094 -0.3906 Q0.0625 -0.4375 0.0625 -0.5 Q0.0625 -0.5781 0.1406 -0.625 Q0.1875 -0.6719 0.25 -0.6719 Q0.3438 -0.6719 0.3906 -0.6094 Q0.4375 -0.5781 0.4375 -0.5156 Q0.4375 -0.4219 0.3125 -0.3594 ZM0.2031 -0.3125 L0.2031 -0.3125 Q0.0938 -0.25 0.0938 -0.1562 Q0.0938 -0.0781 0.1562 -0.0312 Q0.2031 0 0.25 0 Q0.3281 0 0.375 -0.0625 Q0.4062 -0.0938 0.4062 -0.125 Q0.4062 -0.1875 0.3438 -0.2344 Q0.3438 -0.2344 0.3281 -0.2344 L0.2031 -0.3125 Z"
    /></g
  ></g
></svg
>
<!--entity N9--><rect fill="#FFFFFF" height="45" rx="35" ry="35" style="stroke: #000000; stroke-width: 1.5;" width="52" x="86" y="495"/><svg x="96" y="505"><!--Generated by the Batik Graphics2D SVG Generator--><defs id="genericDefs"
  /><g
  ><g transform="scale(20,20) translate(0.2,0.8833)" style="font-size:1; text-rendering:geometricPrecision; color-rendering:optimizeQuality; image-rendering:optimizeQuality; font-family:&apos;jlm_cmmi10&apos;; color-interpolation:linearRGB;"
    ><path style="stroke:none;" d="M0.75 -0.5781 L0.6094 -0.0156 Q0.6094 0 0.6094 0 L0.6094 0 L0.5938 0 Q0.5938 0 0.5781 -0.0156 Q0.5781 -0.0156 0.5781 -0.0156 L0.3281 -0.6094 L0.3281 -0.625 L0.1875 -0.0938 Q0.1875 -0.0781 0.1875 -0.0781 Q0.1875 -0.0469 0.2344 -0.0312 Q0.2344 -0.0312 0.25 -0.0312 Q0.2656 -0.0312 0.2656 -0.0156 Q0.2656 0 0.25 0 L0.1562 0 L0.1562 0 L0.0469 0 L0.0469 0 Q0.0312 0 0.0312 -0.0156 Q0.0312 -0.0312 0.0625 -0.0312 Q0.1406 -0.0312 0.1562 -0.0781 Q0.1562 -0.0938 0.1562 -0.1094 L0.2969 -0.6406 Q0.2969 -0.6562 0.2344 -0.6562 Q0.2031 -0.6562 0.2031 -0.6562 Q0.2031 -0.6875 0.2188 -0.6875 L0.2344 -0.6875 L0.3594 -0.6875 Q0.3906 -0.6875 0.3906 -0.6719 Q0.3906 -0.6719 0.3906 -0.6562 L0.625 -0.1406 L0.7344 -0.5938 Q0.7344 -0.5938 0.7344 -0.6094 Q0.7344 -0.6562 0.6719 -0.6562 Q0.6406 -0.6562 0.6406 -0.6562 Q0.6406 -0.6875 0.6719 -0.6875 L0.7656 -0.6875 L0.7656 -0.6875 L0.8594 -0.6875 L0.875 -0.6875 Q0.875 -0.6875 0.875 -0.6719 Q0.875 -0.6562 0.8594 -0.6562 Q0.7812 -0.6562 0.7656 -0.6094 L0.7656 -0.6094 Q0.7656 -0.5938 0.75 -0.5781 Z"
    /></g
    ><g transform="matrix(20,0,0,20,0,0) translate(1.0035,1.0333) scale(0.7,0.7)" style="font-size:1; text-rendering:geometricPrecision; color-rendering:optimizeQuality; image-rendering:optimizeQuality; font-family:&apos;jlm_cmr10&apos;; color-interpolation:linearRGB;"
    ><path style="stroke:none;" d="M0.3594 -0.3125 Q0.3281 -0.2188 0.2344 -0.2188 Q0.1562 -0.2188 0.0938 -0.2969 L0.0938 -0.2969 Q0.0469 -0.3594 0.0469 -0.4453 Q0.0469 -0.5312 0.0938 -0.5938 L0.1094 -0.6094 Q0.1719 -0.6719 0.25 -0.6719 Q0.3594 -0.6719 0.4062 -0.5625 Q0.4531 -0.4844 0.4531 -0.3281 Q0.4531 -0.1562 0.3594 -0.0625 Q0.2969 0.0156 0.2031 0.0156 Q0.1094 0.0156 0.0781 -0.0312 Q0.0625 -0.0625 0.0625 -0.0938 Q0.0625 -0.125 0.1094 -0.1406 Q0.1094 -0.1406 0.1094 -0.1406 Q0.1406 -0.1406 0.1562 -0.1094 Q0.1562 -0.0938 0.1562 -0.0938 Q0.1562 -0.0469 0.125 -0.0469 Q0.1094 -0.0469 0.1094 -0.0469 Q0.1406 0 0.2031 0 Q0.2812 0 0.3281 -0.0781 Q0.3594 -0.1562 0.3594 -0.2812 L0.3594 -0.3125 ZM0.25 -0.2344 Q0.3281 -0.2344 0.3594 -0.3281 Q0.3594 -0.375 0.3594 -0.4219 Q0.3594 -0.5156 0.3438 -0.5625 Q0.3281 -0.625 0.2656 -0.6406 Q0.2656 -0.6406 0.25 -0.6406 Q0.1875 -0.6406 0.1562 -0.5781 Q0.125 -0.5469 0.125 -0.4531 L0.125 -0.4375 Q0.125 -0.3438 0.1562 -0.2969 Q0.1875 -0.2344 0.25 -0.2344 Z"
    /></g
  ></g
></svg
>
<!--entity N10--><rect fill="#FFFFFF" height="45" rx="35" ry="35" style="stroke: #000000; stroke-width: 1.5;" width="59" x="173.5" y="495"/><svg x="183.5" y="505"><!--Generated by the Batik Graphics2D SVG Generator--><defs id="genericDefs"
  /><g
  ><g transform="scale(20,20) translate(0.2,0.8833)" style="font-size:1; text-rendering:geometricPrecision; color-rendering:optimizeQuality; image-rendering:optimizeQuality; font-family:&apos;jlm_cmmi10&apos;; color-interpolation:linearRGB;"
    ><path style="stroke:none;" d="M0.75 -0.5781 L0.6094 -0.0156 Q0.6094 0 0.6094 0 L0.6094 0 L0.5938 0 Q0.5938 0 0.5781 -0.0156 Q0.5781 -0.0156 0.5781 -0.0156 L0.3281 -0.6094 L0.3281 -0.625 L0.1875 -0.0938 Q0.1875 -0.0781 0.1875 -0.0781 Q0.1875 -0.0469 0.2344 -0.0312 Q0.2344 -0.0312 0.25 -0.0312 Q0.2656 -0.0312 0.2656 -0.0156 Q0.2656 0 0.25 0 L0.1562 0 L0.1562 0 L0.0469 0 L0.0469 0 Q0.0312 0 0.0312 -0.0156 Q0.0312 -0.0312 0.0625 -0.0312 Q0.1406 -0.0312 0.1562 -0.0781 Q0.1562 -0.0938 0.1562 -0.1094 L0.2969 -0.6406 Q0.2969 -0.6562 0.2344 -0.6562 Q0.2031 -0.6562 0.2031 -0.6562 Q0.2031 -0.6875 0.2188 -0.6875 L0.2344 -0.6875 L0.3594 -0.6875 Q0.3906 -0.6875 0.3906 -0.6719 Q0.3906 -0.6719 0.3906 -0.6562 L0.625 -0.1406 L0.7344 -0.5938 Q0.7344 -0.5938 0.7344 -0.6094 Q0.7344 -0.6562 0.6719 -0.6562 Q0.6406 -0.6562 0.6406 -0.6562 Q0.6406 -0.6875 0.6719 -0.6875 L0.7656 -0.6875 L0.7656 -0.6875 L0.8594 -0.6875 L0.875 -0.6875 Q0.875 -0.6875 0.875 -0.6719 Q0.875 -0.6562 0.8594 -0.6562 Q0.7812 -0.6562 0.7656 -0.6094 L0.7656 -0.6094 Q0.7656 -0.5938 0.75 -0.5781 Z"
    /></g
    ><g transform="matrix(20,0,0,20,0,0) translate(1.0035,1.0333) scale(0.7,0.7)" style="font-size:1; text-rendering:geometricPrecision; color-rendering:optimizeQuality; image-rendering:optimizeQuality; font-family:&apos;jlm_cmr10&apos;; color-interpolation:linearRGB;"
    ><path style="stroke:none;" d="M0.2969 -0.6406 L0.2969 -0.0781 Q0.2969 -0.0469 0.3125 -0.0469 Q0.3281 -0.0312 0.3906 -0.0312 L0.4219 -0.0312 L0.4219 0 Q0.3906 0 0.25 0 Q0.125 0 0.0938 0 L0.0938 -0.0312 L0.125 -0.0312 Q0.2031 -0.0312 0.2188 -0.0469 L0.2188 -0.0469 Q0.2188 -0.0625 0.2188 -0.0781 L0.2188 -0.5938 Q0.1719 -0.5781 0.0938 -0.5781 L0.0938 -0.6094 Q0.2031 -0.6094 0.2656 -0.6719 Q0.2969 -0.6719 0.2969 -0.6562 L0.2969 -0.6562 L0.2969 -0.6562 Q0.2969 -0.6562 0.2969 -0.6406 Z"
    /></g
    ><g transform="matrix(20,0,0,20,0,0) translate(1.3535,1.0333) scale(0.7,0.7)" style="font-size:1; text-rendering:geometricPrecision; color-rendering:optimizeQuality; image-rendering:optimizeQuality; font-family:&apos;jlm_cmr10&apos;; color-interpolation:linearRGB;"
    ><path style="stroke:none;" d="M0.4531 -0.3125 Q0.4531 -0.1719 0.4219 -0.0938 Q0.3594 0.0156 0.25 0.0156 Q0.1562 0.0156 0.1094 -0.0469 Q0.0938 -0.0625 0.0781 -0.0781 Q0.0312 -0.1562 0.0312 -0.3125 Q0.0312 -0.4688 0.0781 -0.5469 Q0.125 -0.6562 0.2344 -0.6719 L0.25 -0.6719 Q0.3438 -0.6719 0.3906 -0.5938 L0.3906 -0.5938 Q0.4062 -0.5781 0.4219 -0.5469 Q0.4531 -0.4688 0.4531 -0.3125 ZM0.25 0 L0.25 0 Q0.3125 0 0.3438 -0.0625 Q0.3594 -0.0938 0.3594 -0.125 Q0.375 -0.1875 0.375 -0.3281 Q0.375 -0.4688 0.3594 -0.5312 Q0.3438 -0.625 0.2812 -0.6406 Q0.2656 -0.6406 0.25 -0.6406 Q0.1719 -0.6406 0.1406 -0.5781 Q0.1406 -0.5469 0.125 -0.5156 Q0.125 -0.4688 0.125 -0.3281 Q0.125 -0.1875 0.1406 -0.125 Q0.1562 -0.0312 0.2188 0 Q0.2344 0 0.25 0 Z"
    /></g
  ></g
></svg
>
<!--entity N11--><rect fill="#FFFFFF" height="45" rx="35" ry="35" style="stroke: #000000; stroke-width: 1.5;" width="59" x="267.5" y="495"/><svg x="277.5" y="505"><!--Generated by the Batik Graphics2D SVG Generator--><defs id="genericDefs"
  /><g
  ><g transform="scale(20,20) translate(0.2,0.8833)" style="font-size:1; text-rendering:geometricPrecision; color-rendering:optimizeQuality; image-rendering:optimizeQuality; font-family:&apos;jlm_cmmi10&apos;; color-interpolation:linearRGB;"
    ><path style="stroke:none;" d="M0.75 -0.5781 L0.6094 -0.0156 Q0.6094 0 0.6094 0 L0.6094 0 L0.5938 0 Q0.5938 0 0.5781 -0.0156 Q0.5781 -0.0156 0.5781 -0.0156 L0.3281 -0.6094 L0.3281 -0.625 L0.1875 -0.0938 Q0.1875 -0.0781 0.1875 -0.0781 Q0.1875 -0.0469 0.2344 -0.0312 Q0.2344 -0.0312 0.25 -0.0312 Q0.2656 -0.0312 0.2656 -0.0156 Q0.2656 0 0.25 0 L0.1562 0 L0.1562 0 L0.0469 0 L0.0469 0 Q0.0312 0 0.0312 -0.0156 Q0.0312 -0.0312 0.0625 -0.0312 Q0.1406 -0.0312 0.1562 -0.0781 Q0.1562 -0.0938 0.1562 -0.1094 L0.2969 -0.6406 Q0.2969 -0.6562 0.2344 -0.6562 Q0.2031 -0.6562 0.2031 -0.6562 Q0.2031 -0.6875 0.2188 -0.6875 L0.2344 -0.6875 L0.3594 -0.6875 Q0.3906 -0.6875 0.3906 -0.6719 Q0.3906 -0.6719 0.3906 -0.6562 L0.625 -0.1406 L0.7344 -0.5938 Q0.7344 -0.5938 0.7344 -0.6094 Q0.7344 -0.6562 0.6719 -0.6562 Q0.6406 -0.6562 0.6406 -0.6562 Q0.6406 -0.6875 0.6719 -0.6875 L0.7656 -0.6875 L0.7656 -0.6875 L0.8594 -0.6875 L0.875 -0.6875 Q0.875 -0.6875 0.875 -0.6719 Q0.875 -0.6562 0.8594 -0.6562 Q0.7812 -0.6562 0.7656 -0.6094 L0.7656 -0.6094 Q0.7656 -0.5938 0.75 -0.5781 Z"
    /></g
    ><g transform="matrix(20,0,0,20,0,0) translate(1.0035,1.0333) scale(0.7,0.7)" style="font-size:1; text-rendering:geometricPrecision; color-rendering:optimizeQuality; image-rendering:optimizeQuality; font-family:&apos;jlm_cmr10&apos;; color-interpolation:linearRGB;"
    ><path style="stroke:none;" d="M0.2969 -0.6406 L0.2969 -0.0781 Q0.2969 -0.0469 0.3125 -0.0469 Q0.3281 -0.0312 0.3906 -0.0312 L0.4219 -0.0312 L0.4219 0 Q0.3906 0 0.25 0 Q0.125 0 0.0938 0 L0.0938 -0.0312 L0.125 -0.0312 Q0.2031 -0.0312 0.2188 -0.0469 L0.2188 -0.0469 Q0.2188 -0.0625 0.2188 -0.0781 L0.2188 -0.5938 Q0.1719 -0.5781 0.0938 -0.5781 L0.0938 -0.6094 Q0.2031 -0.6094 0.2656 -0.6719 Q0.2969 -0.6719 0.2969 -0.6562 L0.2969 -0.6562 L0.2969 -0.6562 Q0.2969 -0.6562 0.2969 -0.6406 Z"
    /></g
    ><g transform="matrix(20,0,0,20,0,0) translate(1.3535,1.0333) scale(0.7,0.7)" style="font-size:1; text-rendering:geometricPrecision; color-rendering:optimizeQuality; image-rendering:optimizeQuality; font-family:&apos;jlm_cmr10&apos;; color-interpolation:linearRGB;"
    ><path style="stroke:none;" d="M0.2969 -0.6406 L0.2969 -0.0781 Q0.2969 -0.0469 0.3125 -0.0469 Q0.3281 -0.0312 0.3906 -0.0312 L0.4219 -0.0312 L0.4219 0 Q0.3906 0 0.25 0 Q0.125 0 0.0938 0 L0.0938 -0.0312 L0.125 -0.0312 Q0.2031 -0.0312 0.2188 -0.0469 L0.2188 -0.0469 Q0.2188 -0.0625 0.2188 -0.0781 L0.2188 -0.5938 Q0.1719 -0.5781 0.0938 -0.5781 L0.0938 -0.6094 Q0.2031 -0.6094 0.2656 -0.6719 Q0.2969 -0.6719 0.2969 -0.6562 L0.2969 -0.6562 L0.2969 -0.6562 Q0.2969 -0.6562 0.2969 -0.6406 Z"
    /></g
  ></g
></svg
>
<!--entity N12--><rect fill="#FFFFFF" height="45" rx="35" ry="35" style="stroke: #000000; stroke-width: 1.5;" width="59" x="361.5" y="495"/><svg x="371.5" y="505"><!--Generated by the Batik Graphics2D SVG Generator--><defs id="genericDefs"
  /><g
  ><g transform="scale(20,20) translate(0.2,0.8833)" style="font-size:1; text-rendering:geometricPrecision; color-rendering:optimizeQuality; image-rendering:optimizeQuality; font-family:&apos;jlm_cmmi10&apos;; color-interpolation:linearRGB;"
    ><path style="stroke:none;" d="M0.75 -0.5781 L0.6094 -0.0156 Q0.6094 0 0.6094 0 L0.6094 0 L0.5938 0 Q0.5938 0 0.5781 -0.0156 Q0.5781 -0.0156 0.5781 -0.0156 L0.3281 -0.6094 L0.3281 -0.625 L0.1875 -0.0938 Q0.1875 -0.0781 0.1875 -0.0781 Q0.1875 -0.0469 0.2344 -0.0312 Q0.2344 -0.0312 0.25 -0.0312 Q0.2656 -0.0312 0.2656 -0.0156 Q0.2656 0 0.25 0 L0.1562 0 L0.1562 0 L0.0469 0 L0.0469 0 Q0.0312 0 0.0312 -0.0156 Q0.0312 -0.0312 0.0625 -0.0312 Q0.1406 -0.0312 0.1562 -0.0781 Q0.1562 -0.0938 0.1562 -0.1094 L0.2969 -0.6406 Q0.2969 -0.6562 0.2344 -0.6562 Q0.2031 -0.6562 0.2031 -0.6562 Q0.2031 -0.6875 0.2188 -0.6875 L0.2344 -0.6875 L0.3594 -0.6875 Q0.3906 -0.6875 0.3906 -0.6719 Q0.3906 -0.6719 0.3906 -0.6562 L0.625 -0.1406 L0.7344 -0.5938 Q0.7344 -0.5938 0.7344 -0.6094 Q0.7344 -0.6562 0.6719 -0.6562 Q0.6406 -0.6562 0.6406 -0.6562 Q0.6406 -0.6875 0.6719 -0.6875 L0.7656 -0.6875 L0.7656 -0.6875 L0.8594 -0.6875 L0.875 -0.6875 Q0.875 -0.6875 0.875 -0.6719 Q0.875 -0.6562 0.8594 -0.6562 Q0.7812 -0.6562 0.7656 -0.6094 L0.7656 -0.6094 Q0.7656 -0.5938 0.75 -0.5781 Z"
    /></g
    ><g transform="matrix(20,0,0,20,0,0) translate(1.0035,1.0333) scale(0.7,0.7)" style="font-size:1; text-rendering:geometricPrecision; color-rendering:optimizeQuality; image-rendering:optimizeQuality; font-family:&apos;jlm_cmr10&apos;; color-interpolation:linearRGB;"
    ><path style="stroke:none;" d="M0.2969 -0.6406 L0.2969 -0.0781 Q0.2969 -0.0469 0.3125 -0.0469 Q0.3281 -0.0312 0.3906 -0.0312 L0.4219 -0.0312 L0.4219 0 Q0.3906 0 0.25 0 Q0.125 0 0.0938 0 L0.0938 -0.0312 L0.125 -0.0312 Q0.2031 -0.0312 0.2188 -0.0469 L0.2188 -0.0469 Q0.2188 -0.0625 0.2188 -0.0781 L0.2188 -0.5938 Q0.1719 -0.5781 0.0938 -0.5781 L0.0938 -0.6094 Q0.2031 -0.6094 0.2656 -0.6719 Q0.2969 -0.6719 0.2969 -0.6562 L0.2969 -0.6562 L0.2969 -0.6562 Q0.2969 -0.6562 0.2969 -0.6406 Z"
    /></g
    ><g transform="matrix(20,0,0,20,0,0) translate(1.3535,1.0333) scale(0.7,0.7)" style="font-size:1; text-rendering:geometricPrecision; color-rendering:optimizeQuality; image-rendering:optimizeQuality; font-family:&apos;jlm_cmr10&apos;; color-interpolation:linearRGB;"
    ><path style="stroke:none;" d="M0.4531 -0.1719 L0.4531 -0.1719 L0.4219 0 L0.0469 0 Q0.0469 -0.0312 0.0625 -0.0312 L0.0625 -0.0312 L0.25 -0.25 Q0.3594 -0.375 0.3594 -0.4688 Q0.3594 -0.5625 0.2969 -0.6094 L0.2969 -0.6094 L0.2969 -0.6094 Q0.2656 -0.6406 0.2188 -0.6406 Q0.1562 -0.6406 0.1094 -0.5781 Q0.0938 -0.5625 0.0938 -0.5312 Q0.0938 -0.5312 0.1094 -0.5312 Q0.1406 -0.5312 0.1562 -0.5 L0.1562 -0.5 Q0.1562 -0.4844 0.1562 -0.4844 Q0.1562 -0.4375 0.1094 -0.4375 Q0.1094 -0.4219 0.1094 -0.4219 Q0.0625 -0.4219 0.0469 -0.4531 Q0.0469 -0.4688 0.0469 -0.4844 Q0.0469 -0.5625 0.1094 -0.6094 Q0.1562 -0.6719 0.2344 -0.6719 Q0.3438 -0.6719 0.4062 -0.5938 Q0.4375 -0.5469 0.4531 -0.4844 Q0.4531 -0.4844 0.4531 -0.4688 Q0.4531 -0.4062 0.3906 -0.3281 Q0.3594 -0.2969 0.2969 -0.25 L0.25 -0.1875 L0.2344 -0.1875 L0.125 -0.0781 L0.3125 -0.0781 Q0.3906 -0.0781 0.4062 -0.0781 Q0.4062 -0.0938 0.4219 -0.1719 L0.4531 -0.1719 Z"
    /></g
  ></g
></svg
>
<!--entity N13--><rect fill="#FFFFFF" height="45" rx="35" ry="35" style="stroke: #000000; stroke-width: 1.5;" width="59" x="455.5" y="495"/><svg x="465.5" y="505"><!--Generated by the Batik Graphics2D SVG Generator--><defs id="genericDefs"
  /><g
  ><g transform="scale(20,20) translate(0.2,0.8833)" style="font-size:1; text-rendering:geometricPrecision; color-rendering:optimizeQuality; image-rendering:optimizeQuality; font-family:&apos;jlm_cmmi10&apos;; color-interpolation:linearRGB;"
    ><path style="stroke:none;" d="M0.75 -0.5781 L0.6094 -0.0156 Q0.6094 0 0.6094 0 L0.6094 0 L0.5938 0 Q0.5938 0 0.5781 -0.0156 Q0.5781 -0.0156 0.5781 -0.0156 L0.3281 -0.6094 L0.3281 -0.625 L0.1875 -0.0938 Q0.1875 -0.0781 0.1875 -0.0781 Q0.1875 -0.0469 0.2344 -0.0312 Q0.2344 -0.0312 0.25 -0.0312 Q0.2656 -0.0312 0.2656 -0.0156 Q0.2656 0 0.25 0 L0.1562 0 L0.1562 0 L0.0469 0 L0.0469 0 Q0.0312 0 0.0312 -0.0156 Q0.0312 -0.0312 0.0625 -0.0312 Q0.1406 -0.0312 0.1562 -0.0781 Q0.1562 -0.0938 0.1562 -0.1094 L0.2969 -0.6406 Q0.2969 -0.6562 0.2344 -0.6562 Q0.2031 -0.6562 0.2031 -0.6562 Q0.2031 -0.6875 0.2188 -0.6875 L0.2344 -0.6875 L0.3594 -0.6875 Q0.3906 -0.6875 0.3906 -0.6719 Q0.3906 -0.6719 0.3906 -0.6562 L0.625 -0.1406 L0.7344 -0.5938 Q0.7344 -0.5938 0.7344 -0.6094 Q0.7344 -0.6562 0.6719 -0.6562 Q0.6406 -0.6562 0.6406 -0.6562 Q0.6406 -0.6875 0.6719 -0.6875 L0.7656 -0.6875 L0.7656 -0.6875 L0.8594 -0.6875 L0.875 -0.6875 Q0.875 -0.6875 0.875 -0.6719 Q0.875 -0.6562 0.8594 -0.6562 Q0.7812 -0.6562 0.7656 -0.6094 L0.7656 -0.6094 Q0.7656 -0.5938 0.75 -0.5781 Z"
    /></g
    ><g transform="matrix(20,0,0,20,0,0) translate(1.0035,1.0333) scale(0.7,0.7)" style="font-size:1; text-rendering:geometricPrecision; color-rendering:optimizeQuality; image-rendering:optimizeQuality; font-family:&apos;jlm_cmr10&apos;; color-interpolation:linearRGB;"
    ><path style="stroke:none;" d="M0.2969 -0.6406 L0.2969 -0.0781 Q0.2969 -0.0469 0.3125 -0.0469 Q0.3281 -0.0312 0.3906 -0.0312 L0.4219 -0.0312 L0.4219 0 Q0.3906 0 0.25 0 Q0.125 0 0.0938 0 L0.0938 -0.0312 L0.125 -0.0312 Q0.2031 -0.0312 0.2188 -0.0469 L0.2188 -0.0469 Q0.2188 -0.0625 0.2188 -0.0781 L0.2188 -0.5938 Q0.1719 -0.5781 0.0938 -0.5781 L0.0938 -0.6094 Q0.2031 -0.6094 0.2656 -0.6719 Q0.2969 -0.6719 0.2969 -0.6562 L0.2969 -0.6562 L0.2969 -0.6562 Q0.2969 -0.6562 0.2969 -0.6406 Z"
    /></g
    ><g transform="matrix(20,0,0,20,0,0) translate(1.3535,1.0333) scale(0.7,0.7)" style="font-size:1; text-rendering:geometricPrecision; color-rendering:optimizeQuality; image-rendering:optimizeQuality; font-family:&apos;jlm_cmr10&apos;; color-interpolation:linearRGB;"
    ><path style="stroke:none;" d="M0.2969 -0.3594 L0.2969 -0.3594 Q0.3906 -0.3281 0.4375 -0.25 Q0.4531 -0.2188 0.4531 -0.1719 Q0.4531 -0.0938 0.3906 -0.0312 Q0.3281 0.0156 0.25 0.0156 Q0.1406 0.0156 0.0781 -0.0312 Q0.0469 -0.0781 0.0469 -0.1406 Q0.0469 -0.1875 0.0781 -0.1875 Q0.0938 -0.1875 0.0938 -0.1875 Q0.1406 -0.1875 0.1562 -0.1562 Q0.1562 -0.1406 0.1562 -0.1406 Q0.1562 -0.0938 0.125 -0.0781 Q0.1094 -0.0781 0.0938 -0.0781 Q0.125 -0.0156 0.2188 -0.0156 Q0.2344 0 0.2344 0 Q0.3125 0 0.3281 -0.0625 Q0.3594 -0.1094 0.3594 -0.1719 Q0.3594 -0.2969 0.2812 -0.3281 Q0.25 -0.3438 0.2344 -0.3438 L0.1875 -0.3438 Q0.1719 -0.3438 0.1719 -0.3438 Q0.1719 -0.3594 0.1875 -0.3594 Q0.2031 -0.3594 0.2188 -0.3594 Q0.2656 -0.3594 0.2969 -0.4062 L0.2969 -0.4062 L0.2969 -0.4062 L0.2969 -0.4062 L0.2969 -0.4062 L0.3125 -0.4219 Q0.3438 -0.4688 0.3438 -0.5312 Q0.3438 -0.625 0.2656 -0.6406 Q0.25 -0.6406 0.2344 -0.6406 Q0.1719 -0.6406 0.125 -0.5938 Q0.1094 -0.5938 0.1094 -0.5781 Q0.1719 -0.5781 0.1719 -0.5312 Q0.1719 -0.5 0.1406 -0.4844 Q0.125 -0.4844 0.125 -0.4844 Q0.0781 -0.4844 0.0781 -0.5156 L0.0781 -0.5156 L0.0781 -0.5156 Q0.0625 -0.5156 0.0625 -0.5312 Q0.0625 -0.5938 0.1406 -0.6406 Q0.1875 -0.6719 0.25 -0.6719 Q0.3438 -0.6719 0.3906 -0.6094 L0.3906 -0.6094 Q0.4375 -0.5781 0.4375 -0.5312 Q0.4375 -0.4375 0.3594 -0.3906 Q0.3281 -0.3594 0.2969 -0.3594 Z"
    /></g
  ></g
></svg
>
<!--entity N14--><rect fill="#FFFFFF" height="45" rx="35" ry="35" style="stroke: #000000; stroke-width: 1.5;" width="59" x="549.5" y="495"/><svg x="559.5" y="505"><!--Generated by the Batik Graphics2D SVG Generator--><defs id="genericDefs"
  /><g
  ><g transform="scale(20,20) translate(0.2,0.8833)" style="font-size:1; text-rendering:geometricPrecision; color-rendering:optimizeQuality; image-rendering:optimizeQuality; font-family:&apos;jlm_cmmi10&apos;; color-interpolation:linearRGB;"
    ><path style="stroke:none;" d="M0.75 -0.5781 L0.6094 -0.0156 Q0.6094 0 0.6094 0 L0.6094 0 L0.5938 0 Q0.5938 0 0.5781 -0.0156 Q0.5781 -0.0156 0.5781 -0.0156 L0.3281 -0.6094 L0.3281 -0.625 L0.1875 -0.0938 Q0.1875 -0.0781 0.1875 -0.0781 Q0.1875 -0.0469 0.2344 -0.0312 Q0.2344 -0.0312 0.25 -0.0312 Q0.2656 -0.0312 0.2656 -0.0156 Q0.2656 0 0.25 0 L0.1562 0 L0.1562 0 L0.0469 0 L0.0469 0 Q0.0312 0 0.0312 -0.0156 Q0.0312 -0.0312 0.0625 -0.0312 Q0.1406 -0.0312 0.1562 -0.0781 Q0.1562 -0.0938 0.1562 -0.1094 L0.2969 -0.6406 Q0.2969 -0.6562 0.2344 -0.6562 Q0.2031 -0.6562 0.2031 -0.6562 Q0.2031 -0.6875 0.2188 -0.6875 L0.2344 -0.6875 L0.3594 -0.6875 Q0.3906 -0.6875 0.3906 -0.6719 Q0.3906 -0.6719 0.3906 -0.6562 L0.625 -0.1406 L0.7344 -0.5938 Q0.7344 -0.5938 0.7344 -0.6094 Q0.7344 -0.6562 0.6719 -0.6562 Q0.6406 -0.6562 0.6406 -0.6562 Q0.6406 -0.6875 0.6719 -0.6875 L0.7656 -0.6875 L0.7656 -0.6875 L0.8594 -0.6875 L0.875 -0.6875 Q0.875 -0.6875 0.875 -0.6719 Q0.875 -0.6562 0.8594 -0.6562 Q0.7812 -0.6562 0.7656 -0.6094 L0.7656 -0.6094 Q0.7656 -0.5938 0.75 -0.5781 Z"
    /></g
    ><g transform="matrix(20,0,0,20,0,0) translate(1.0035,1.0333) scale(0.7,0.7)" style="font-size:1; text-rendering:geometricPrecision; color-rendering:optimizeQuality; image-rendering:optimizeQuality; font-family:&apos;jlm_cmr10&apos;; color-interpolation:linearRGB;"
    ><path style="stroke:none;" d="M0.2969 -0.6406 L0.2969 -0.0781 Q0.2969 -0.0469 0.3125 -0.0469 Q0.3281 -0.0312 0.3906 -0.0312 L0.4219 -0.0312 L0.4219 0 Q0.3906 0 0.25 0 Q0.125 0 0.0938 0 L0.0938 -0.0312 L0.125 -0.0312 Q0.2031 -0.0312 0.2188 -0.0469 L0.2188 -0.0469 Q0.2188 -0.0625 0.2188 -0.0781 L0.2188 -0.5938 Q0.1719 -0.5781 0.0938 -0.5781 L0.0938 -0.6094 Q0.2031 -0.6094 0.2656 -0.6719 Q0.2969 -0.6719 0.2969 -0.6562 L0.2969 -0.6562 L0.2969 -0.6562 Q0.2969 -0.6562 0.2969 -0.6406 Z"
    /></g
    ><g transform="matrix(20,0,0,20,0,0) translate(1.3535,1.0333) scale(0.7,0.7)" style="font-size:1; text-rendering:geometricPrecision; color-rendering:optimizeQuality; image-rendering:optimizeQuality; font-family:&apos;jlm_cmr10&apos;; color-interpolation:linearRGB;"
    ><path style="stroke:none;" d="M0.0312 -0.1719 L0.0312 -0.2031 L0.3281 -0.6719 Q0.3438 -0.6719 0.3594 -0.6719 Q0.375 -0.6719 0.375 -0.6719 L0.375 -0.6562 L0.375 -0.2031 L0.4688 -0.2031 L0.4688 -0.1719 L0.375 -0.1719 L0.375 -0.0781 Q0.375 -0.0469 0.3906 -0.0469 Q0.3906 -0.0312 0.4531 -0.0312 L0.4688 -0.0312 L0.4688 0 Q0.4219 0 0.3281 0 Q0.2344 0 0.2031 0 L0.2031 -0.0312 L0.2188 -0.0312 Q0.2812 -0.0312 0.2969 -0.0469 Q0.2969 -0.0625 0.2969 -0.0781 L0.2969 -0.1719 L0.0312 -0.1719 ZM0.2969 -0.2031 L0.2969 -0.5625 L0.0625 -0.2031 L0.2969 -0.2031 Z"
    /></g
  ></g
></svg
>
<!--entity N15--><rect fill="#90EE90" height="45" rx="35" ry="35" style="stroke: #000000; stroke-width: 1.5;" width="59" x="643.5" y="495"/><svg x="653.5" y="505"><!--Generated by the Batik Graphics2D SVG Generator--><defs id="genericDefs"
  /><g
  ><g transform="scale(20,20) translate(0.2,0.8833)" style="font-size:1; text-rendering:geometricPrecision; color-rendering:optimizeQuality; image-rendering:optimizeQuality; font-family:&apos;jlm_cmmi10&apos;; color-interpolation:linearRGB;"
    ><path style="stroke:none;" d="M0.75 -0.5781 L0.6094 -0.0156 Q0.6094 0 0.6094 0 L0.6094 0 L0.5938 0 Q0.5938 0 0.5781 -0.0156 Q0.5781 -0.0156 0.5781 -0.0156 L0.3281 -0.6094 L0.3281 -0.625 L0.1875 -0.0938 Q0.1875 -0.0781 0.1875 -0.0781 Q0.1875 -0.0469 0.2344 -0.0312 Q0.2344 -0.0312 0.25 -0.0312 Q0.2656 -0.0312 0.2656 -0.0156 Q0.2656 0 0.25 0 L0.1562 0 L0.1562 0 L0.0469 0 L0.0469 0 Q0.0312 0 0.0312 -0.0156 Q0.0312 -0.0312 0.0625 -0.0312 Q0.1406 -0.0312 0.1562 -0.0781 Q0.1562 -0.0938 0.1562 -0.1094 L0.2969 -0.6406 Q0.2969 -0.6562 0.2344 -0.6562 Q0.2031 -0.6562 0.2031 -0.6562 Q0.2031 -0.6875 0.2188 -0.6875 L0.2344 -0.6875 L0.3594 -0.6875 Q0.3906 -0.6875 0.3906 -0.6719 Q0.3906 -0.6719 0.3906 -0.6562 L0.625 -0.1406 L0.7344 -0.5938 Q0.7344 -0.5938 0.7344 -0.6094 Q0.7344 -0.6562 0.6719 -0.6562 Q0.6406 -0.6562 0.6406 -0.6562 Q0.6406 -0.6875 0.6719 -0.6875 L0.7656 -0.6875 L0.7656 -0.6875 L0.8594 -0.6875 L0.875 -0.6875 Q0.875 -0.6875 0.875 -0.6719 Q0.875 -0.6562 0.8594 -0.6562 Q0.7812 -0.6562 0.7656 -0.6094 L0.7656 -0.6094 Q0.7656 -0.5938 0.75 -0.5781 Z"
    /></g
    ><g transform="matrix(20,0,0,20,0,0) translate(1.0035,1.0333) scale(0.7,0.7)" style="font-size:1; text-rendering:geometricPrecision; color-rendering:optimizeQuality; image-rendering:optimizeQuality; font-family:&apos;jlm_cmr10&apos;; color-interpolation:linearRGB;"
    ><path style="stroke:none;" d="M0.2969 -0.6406 L0.2969 -0.0781 Q0.2969 -0.0469 0.3125 -0.0469 Q0.3281 -0.0312 0.3906 -0.0312 L0.4219 -0.0312 L0.4219 0 Q0.3906 0 0.25 0 Q0.125 0 0.0938 0 L0.0938 -0.0312 L0.125 -0.0312 Q0.2031 -0.0312 0.2188 -0.0469 L0.2188 -0.0469 Q0.2188 -0.0625 0.2188 -0.0781 L0.2188 -0.5938 Q0.1719 -0.5781 0.0938 -0.5781 L0.0938 -0.6094 Q0.2031 -0.6094 0.2656 -0.6719 Q0.2969 -0.6719 0.2969 -0.6562 L0.2969 -0.6562 L0.2969 -0.6562 Q0.2969 -0.6562 0.2969 -0.6406 Z"
    /></g
    ><g transform="matrix(20,0,0,20,0,0) translate(1.3535,1.0333) scale(0.7,0.7)" style="font-size:1; text-rendering:geometricPrecision; color-rendering:optimizeQuality; image-rendering:optimizeQuality; font-family:&apos;jlm_cmr10&apos;; color-interpolation:linearRGB;"
    ><path style="stroke:none;" d="M0.4531 -0.2031 L0.4531 -0.2031 Q0.4531 -0.0938 0.375 -0.0312 Q0.3125 0.0156 0.2344 0.0156 Q0.1406 0.0156 0.0781 -0.0625 Q0.0469 -0.1094 0.0469 -0.1562 Q0.0469 -0.2031 0.0938 -0.2188 Q0.0938 -0.2188 0.0938 -0.2188 Q0.1406 -0.2188 0.1406 -0.1875 Q0.1562 -0.1719 0.1562 -0.1719 Q0.1562 -0.1406 0.125 -0.125 Q0.1094 -0.1094 0.0938 -0.1094 Q0.0938 -0.1094 0.0781 -0.125 Q0.0938 -0.0625 0.1562 -0.0312 Q0.1875 0 0.2344 0 Q0.2969 0 0.3438 -0.0781 Q0.3594 -0.1094 0.3594 -0.2031 Q0.3594 -0.2969 0.3438 -0.3281 Q0.3125 -0.3906 0.25 -0.3906 Q0.1719 -0.3906 0.125 -0.3281 Q0.125 -0.3125 0.1094 -0.3125 Q0.1094 -0.3125 0.0938 -0.3281 L0.0938 -0.3438 L0.0938 -0.6406 Q0.0938 -0.6562 0.1094 -0.6719 Q0.1094 -0.6719 0.125 -0.6562 Q0.1875 -0.6406 0.25 -0.6406 Q0.3281 -0.6406 0.3906 -0.6562 Q0.3906 -0.6719 0.4062 -0.6719 Q0.4062 -0.6719 0.4062 -0.6562 Q0.4062 -0.6406 0.375 -0.6094 Q0.3125 -0.5469 0.2188 -0.5469 Q0.1719 -0.5469 0.125 -0.5625 L0.125 -0.375 Q0.1875 -0.4219 0.2656 -0.4219 Q0.3438 -0.4219 0.4062 -0.3438 Q0.4531 -0.2812 0.4531 -0.2031 Z"
    /></g
  ></g
></svg
>
<!--entity N16--><rect fill="#F08080" height="45" rx="35" ry="35" style="stroke: #000000; stroke-width: 1.5;" width="59" x="737.5" y="495"/><svg x="747.5" y="505"><!--Generated by the Batik Graphics2D SVG Generator--><defs id="genericDefs"
  /><g
  ><g transform="scale(20,20) translate(0.2,0.8833)" style="font-size:1; text-rendering:geometricPrecision; color-rendering:optimizeQuality; image-rendering:optimizeQuality; font-family:&apos;jlm_cmmi10&apos;; color-interpolation:linearRGB;"
    ><path style="stroke:none;" d="M0.75 -0.5781 L0.6094 -0.0156 Q0.6094 0 0.6094 0 L0.6094 0 L0.5938 0 Q0.5938 0 0.5781 -0.0156 Q0.5781 -0.0156 0.5781 -0.0156 L0.3281 -0.6094 L0.3281 -0.625 L0.1875 -0.0938 Q0.1875 -0.0781 0.1875 -0.0781 Q0.1875 -0.0469 0.2344 -0.0312 Q0.2344 -0.0312 0.25 -0.0312 Q0.2656 -0.0312 0.2656 -0.0156 Q0.2656 0 0.25 0 L0.1562 0 L0.1562 0 L0.0469 0 L0.0469 0 Q0.0312 0 0.0312 -0.0156 Q0.0312 -0.0312 0.0625 -0.0312 Q0.1406 -0.0312 0.1562 -0.0781 Q0.1562 -0.0938 0.1562 -0.1094 L0.2969 -0.6406 Q0.2969 -0.6562 0.2344 -0.6562 Q0.2031 -0.6562 0.2031 -0.6562 Q0.2031 -0.6875 0.2188 -0.6875 L0.2344 -0.6875 L0.3594 -0.6875 Q0.3906 -0.6875 0.3906 -0.6719 Q0.3906 -0.6719 0.3906 -0.6562 L0.625 -0.1406 L0.7344 -0.5938 Q0.7344 -0.5938 0.7344 -0.6094 Q0.7344 -0.6562 0.6719 -0.6562 Q0.6406 -0.6562 0.6406 -0.6562 Q0.6406 -0.6875 0.6719 -0.6875 L0.7656 -0.6875 L0.7656 -0.6875 L0.8594 -0.6875 L0.875 -0.6875 Q0.875 -0.6875 0.875 -0.6719 Q0.875 -0.6562 0.8594 -0.6562 Q0.7812 -0.6562 0.7656 -0.6094 L0.7656 -0.6094 Q0.7656 -0.5938 0.75 -0.5781 Z"
    /></g
    ><g transform="matrix(20,0,0,20,0,0) translate(1.0035,1.0333) scale(0.7,0.7)" style="font-size:1; text-rendering:geometricPrecision; color-rendering:optimizeQuality; image-rendering:optimizeQuality; font-family:&apos;jlm_cmr10&apos;; color-interpolation:linearRGB;"
    ><path style="stroke:none;" d="M0.2969 -0.6406 L0.2969 -0.0781 Q0.2969 -0.0469 0.3125 -0.0469 Q0.3281 -0.0312 0.3906 -0.0312 L0.4219 -0.0312 L0.4219 0 Q0.3906 0 0.25 0 Q0.125 0 0.0938 0 L0.0938 -0.0312 L0.125 -0.0312 Q0.2031 -0.0312 0.2188 -0.0469 L0.2188 -0.0469 Q0.2188 -0.0625 0.2188 -0.0781 L0.2188 -0.5938 Q0.1719 -0.5781 0.0938 -0.5781 L0.0938 -0.6094 Q0.2031 -0.6094 0.2656 -0.6719 Q0.2969 -0.6719 0.2969 -0.6562 L0.2969 -0.6562 L0.2969 -0.6562 Q0.2969 -0.6562 0.2969 -0.6406 Z"
    /></g
    ><g transform="matrix(20,0,0,20,0,0) translate(1.3535,1.0333) scale(0.7,0.7)" style="font-size:1; text-rendering:geometricPrecision; color-rendering:optimizeQuality; image-rendering:optimizeQuality; font-family:&apos;jlm_cmr10&apos;; color-interpolation:linearRGB;"
    ><path style="stroke:none;" d="M0.125 -0.3281 L0.125 -0.3281 Q0.1719 -0.4219 0.25 -0.4219 Q0.3438 -0.4219 0.4062 -0.3438 Q0.4375 -0.3125 0.4531 -0.25 Q0.4531 -0.2344 0.4531 -0.2031 Q0.4531 -0.0938 0.375 -0.0312 Q0.3281 0.0156 0.25 0.0156 Q0.1562 0.0156 0.0938 -0.0781 Q0.0469 -0.1562 0.0469 -0.3125 Q0.0469 -0.4844 0.1406 -0.5938 Q0.2188 -0.6719 0.3125 -0.6719 Q0.3906 -0.6719 0.4219 -0.6094 Q0.4375 -0.5781 0.4375 -0.5625 Q0.4375 -0.5156 0.3906 -0.5156 Q0.3906 -0.5156 0.3906 -0.5156 Q0.3594 -0.5156 0.3438 -0.5312 Q0.3438 -0.5469 0.3438 -0.5625 Q0.3438 -0.5938 0.3906 -0.5938 Q0.375 -0.6406 0.3125 -0.6406 Q0.2344 -0.6406 0.1875 -0.5781 Q0.125 -0.5 0.125 -0.3594 L0.125 -0.3281 ZM0.25 0 L0.25 0 Q0.3125 0 0.3438 -0.0781 Q0.3594 -0.1094 0.3594 -0.2031 Q0.3594 -0.3125 0.3438 -0.3438 Q0.3125 -0.4062 0.25 -0.4062 Q0.1719 -0.4062 0.1406 -0.3125 Q0.1406 -0.2656 0.1406 -0.2188 Q0.1406 -0.125 0.1562 -0.0781 Q0.1719 -0.0312 0.2188 -0.0156 Q0.2344 0 0.25 0 Z"
    /></g
  ></g
></svg
>
<!--link root to EU--><path d="M734.729,136.312 C709.29,152.361 669.224,177.637 641.394,195.195 " fill="none" id="root-EU" style="stroke: #000000; stroke-width: 1.0;"/><polygon fill="#000000" points="637.036,197.944,646.7819,196.5235,641.2644,195.2755,642.5123,189.7581,637.036,197.944" style="stroke: #000000; stroke-width: 1.0;"/><!--link root to US--><path d="M734.692,125.597 C655.252,140.622 402.698,188.389 303.023,207.241 " fill="none" id="root-US" style="stroke: #000000; stroke-width: 1.0;"/><polygon fill="#000000" points="298.108,208.171,307.6949,210.4272,303.0208,207.241,306.207,202.5668,298.108,208.171" style="stroke: #000000; stroke-width: 1.0;"/><!--link root to RU--><path d="M760.065,138.049 C762.564,184.173 766.723,309.898 740,339 C686.378,397.394 438.97,411.599 339.039,414.976 " fill="none" id="root-RU" style="stroke: #000000; stroke-width: 1.0;"/><polygon fill="#000000" points="333.819,415.147,342.9456,418.8491,338.8163,414.9827,342.6827,410.8534,333.819,415.147" style="stroke: #000000; stroke-width: 1.0;"/><!--link root to JA--><path d="M761.574,138.076 C763.783,153.647 766.795,177.308 768,198 C772.16,269.422 768.542,354.218 766.363,393.703 " fill="none" id="root-JA" style="stroke: #000000; stroke-width: 1.0;"/><polygon fill="#000000" points="766.079,398.743,770.5792,389.9824,766.3604,393.7509,762.5918,389.5322,766.079,398.743" style="stroke: #000000; stroke-width: 1.0;"/><!--link root to CA--><path d="M783.156,132.526 C816.132,148.261 875.685,176.677 915.537,195.693 " fill="none" id="root-CA" style="stroke: #000000; stroke-width: 1.0;"/><polygon fill="#000000" points="920.296,197.964,913.8952,190.4787,915.7832,195.8112,910.4507,197.6991,920.296,197.964" style="stroke: #000000; stroke-width: 1.0;"/><!--link US to N1--><path d="M231.692,234.157 C200.046,252.072 150.674,280.021 118.834,298.045 " fill="none" id="US-N1" style="stroke: #000000; stroke-width: 1.0;"/><polygon fill="#000000" points="114.267,300.63,124.0697,299.678,118.6184,298.1672,120.1292,292.7158,114.267,300.63" style="stroke: #000000; stroke-width: 1.0;"/><!--link US to N2--><path d="M246.846,234.157 C233.268,249.53 213.163,272.293 197.672,289.832 " fill="none" id="US-N2" style="stroke: #000000; stroke-width: 1.0;"/><polygon fill="#000000" points="194.241,293.716,203.1972,289.6189,197.5512,289.9686,197.2015,284.3226,194.241,293.716" style="stroke: #000000; stroke-width: 1.0;"/><!--link US to N3--><path d="M262,234.157 C262,249.143 262,271.15 262,288.495 " fill="none" id="US-N3" style="stroke: #000000; stroke-width: 1.0;"/><polygon fill="#000000" points="262,293.716,266,284.716,262,288.716,258,284.716,262,293.716" style="stroke: #000000; stroke-width: 1.0;"/><!--link US to N4--><path d="M277.154,234.157 C290.732,249.53 310.837,272.293 326.328,289.832 " fill="none" id="US-N4" style="stroke: #000000; stroke-width: 1.0;"/><polygon fill="#000000" points="329.759,293.716,326.7985,284.3226,326.4488,289.9686,320.8028,289.6189,329.759,293.716" style="stroke: #000000; stroke-width: 1.0;"/><!--link EU to N5--><path d="M579.692,234.157 C548.046,252.072 498.674,280.021 466.834,298.045 " fill="none" id="EU-N5" style="stroke: #000000; stroke-width: 1.0;"/><polygon fill="#000000" points="462.267,300.63,472.0697,299.678,466.6184,298.1672,468.1292,292.7158,462.267,300.63" style="stroke: #000000; stroke-width: 1.0;"/><!--link EU to N6--><path d="M594.846,234.157 C581.268,249.53 561.163,272.293 545.672,289.832 " fill="none" id="EU-N6" style="stroke: #000000; stroke-width: 1.0;"/><polygon fill="#000000" points="542.241,293.716,551.1972,289.6189,545.5512,289.9686,545.2015,284.3226,542.241,293.716" style="stroke: #000000; stroke-width: 1.0;"/><!--link EU to N7--><path d="M610,234.157 C610,249.143 610,271.15 610,288.495 " fill="none" id="EU-N7" style="stroke: #000000; stroke-width: 1.0;"/><polygon fill="#000000" points="610,293.716,614,284.716,610,288.716,606,284.716,610,293.716" style="stroke: #000000; stroke-width: 1.0;"/><!--link EU to N8--><path d="M625.154,234.157 C638.732,249.53 658.837,272.293 674.328,289.832 " fill="none" id="EU-N8" style="stroke: #000000; stroke-width: 1.0;"/><polygon fill="#000000" points="677.759,293.716,674.7985,284.3226,674.4488,289.9686,668.8028,289.6189,677.759,293.716" style="stroke: #000000; stroke-width: 1.0;"/><!--link RU to N9--><path d="M264.775,435.157 C230.397,453.462 176.342,482.242 142.599,500.2079 " fill="none" id="RU-N9" style="stroke: #000000; stroke-width: 1.0;"/><polygon fill="#000000" points="138.181,502.5604,148.005,501.8612,142.5944,500.2104,144.2451,494.7998,138.181,502.5604" style="stroke: #000000; stroke-width: 1.0;"/><!--link RU to N10--><path d="M280.626,435.157 C265.956,450.53 244.234,473.293 227.496,490.832 " fill="none" id="RU-N10" style="stroke: #000000; stroke-width: 1.0;"/><polygon fill="#000000" points="223.789,494.716,232.896,490.966,227.2407,491.0986,227.1081,485.4433,223.789,494.716" style="stroke: #000000; stroke-width: 1.0;"/><!--link RU to N11--><path d="M297,435.157 C297,450.143 297,472.15 297,489.495 " fill="none" id="RU-N11" style="stroke: #000000; stroke-width: 1.0;"/><polygon fill="#000000" points="297,494.716,301,485.716,297,489.716,293,485.716,297,494.716" style="stroke: #000000; stroke-width: 1.0;"/><!--link RU to N12--><path d="M313.374,435.157 C328.044,450.53 349.766,473.293 366.504,490.832 " fill="none" id="RU-N12" style="stroke: #000000; stroke-width: 1.0;"/><polygon fill="#000000" points="370.211,494.716,366.8919,485.4433,366.7593,491.0986,361.104,490.966,370.211,494.716" style="stroke: #000000; stroke-width: 1.0;"/><!--link JA to N13--><path d="M732.949,427.371 C687.661,440.886 602.589,467.288 532,495 C527.829,496.6375 523.497,498.4542 519.225,500.318 " fill="none" id="JA-N13" style="stroke: #000000; stroke-width: 1.0;"/><polygon fill="#000000" points="514.624,502.3526,524.4728,502.3697,519.1966,500.3299,521.2365,495.0536,514.624,502.3526" style="stroke: #000000; stroke-width: 1.0;"/><!--link JA to N14--><path d="M732.601,435.157 C699.132,452.882 647.116,480.428 613.051,498.4674 " fill="none" id="JA-N14" style="stroke: #000000; stroke-width: 1.0;"/><polygon fill="#000000" points="608.575,500.838,618.4006,500.161,612.9937,498.498,614.6566,493.0911,608.575,500.838" style="stroke: #000000; stroke-width: 1.0;"/><!--link JA to N15--><path d="M748.975,435.157 C734.616,450.53 713.356,473.293 696.975,490.832 " fill="none" id="JA-N15" style="stroke: #000000; stroke-width: 1.0;"/><polygon fill="#000000" points="693.346,494.716,702.4123,490.8687,696.7588,491.0618,696.5656,485.4083,693.346,494.716" style="stroke: #000000; stroke-width: 1.0;"/><!--link JA to N16--><path d="M765.348,435.157 C765.653,450.143 766.099,472.15 766.452,489.495 " fill="none" id="JA-N16" style="stroke: #000000; stroke-width: 1.0;"/><polygon fill="#000000" points="766.558,494.716,770.3746,485.6367,766.4566,489.717,762.3763,485.799,766.558,494.716" style="stroke: #000000; stroke-width: 1.0;"/><!--link JA to N17--><path d="M781.722,435.157 C796.705,450.53 818.889,473.293 835.983,490.832 " fill="none" id="JA-N17" style="stroke: #000000; stroke-width: 1.0;"/><polygon fill="#000000" points="839.769,494.716,836.3508,485.4794,836.2788,491.1357,830.6224,491.0637,839.769,494.716" style="stroke: #000000; stroke-width: 1.0;"/><!--link JA to N18--><path d="M797.231,434.709 C831.58,452.517 885.746,480.597 920.823,498.7817 " fill="none" id="JA-N18" style="stroke: #000000; stroke-width: 1.0;"/><polygon fill="#000000" points="925.428,501.1694,919.2791,493.4758,920.9891,498.868,915.5969,500.578,925.428,501.1694" style="stroke: #000000; stroke-width: 1.0;"/><!--link CA to N19--><path d="M939.626,234.157 C924.956,249.53 903.234,272.293 886.496,289.832 " fill="none" id="CA-N19" style="stroke: #000000; stroke-width: 1.0;"/><polygon fill="#000000" points="882.789,293.716,891.896,289.966,886.2407,290.0986,886.1081,284.4433,882.789,293.716" style="stroke: #000000; stroke-width: 1.0;"/><!--link CA to N20--><path d="M956,234.157 C956,249.143 956,271.15 956,288.495 " fill="none" id="CA-N20" style="stroke: #000000; stroke-width: 1.0;"/><polygon fill="#000000" points="956,293.716,960,284.716,956,288.716,952,284.716,956,293.716" style="stroke: #000000; stroke-width: 1.0;"/><!--link CA to N21--><path d="M972.374,234.157 C987.044,249.53 1008.77,272.293 1025.5,289.832 " fill="none" id="CA-N21" style="stroke: #000000; stroke-width: 1.0;"/><polygon fill="#000000" points="1029.21,293.716,1025.9055,284.4381,1025.764,290.0931,1020.1089,289.9516,1029.21,293.716" style="stroke: #000000; stroke-width: 1.0;"/><!--link CA to N22--><path d="M988.747,234.157 C1022.68,251.934 1075.46,279.592 1109.89,297.628 " fill="none" id="CA-N22" style="stroke: #000000; stroke-width: 1.0;"/><polygon fill="#000000" points="1114.41,299.998,1108.2861,292.2845,1109.9786,297.6822,1104.5809,299.3747,1114.41,299.998" style="stroke: #000000; stroke-width: 1.0;"/><!--link N1 to N2--><!--link N2 to N3--><!--link N3 to N4--><!--link N4 to N5--><!--link N5 to N6--><!--link N6 to N7--><!--link N7 to N8--><!--link N8 to N9--><!--link N9 to N10--><!--
@startuml
skinparam shadowing false
skinparam ParticipantPadding 95


package "Network map" as NM {


storage "Loc: Ca" as CA #white

package "Container" as CN {
storage root #lightgreen
storage "Loc: US" as US #lightgreen
storage "Loc: EU" as EU #white
storage "Loc: RU" as RU #white
storage "Loc: Ja" as JA #lightgreen





storage "<math>N_1</math>" as N1 #white
storage "<math>N_2</math>" as N2 #lightgreen
storage "<math>N_3</math>" as N3 #white
storage "<math>N_4</math>" as N4 #lightgreen
storage "<math>N_5</math>" as N5  #white
storage "<math>N_6</math>" as N6  #white
storage "<math>N_7</math>" as N7  #white
storage "<math>N_8</math>" as N8  #white
storage "<math>N_9</math>" as N9  #white
storage "<math>N_10</math>" as N10  #white
storage "<math>N_11</math>" as N11  #white
storage "<math>N_12</math>" as N12  #white
storage "<math>N_13</math>" as N13 #white
storage "<math>N_14</math>" as N14  #white
storage "<math>N_15</math>" as N15 #lightgreen
storage "<math>N_16</math>" as N16 #lightcoral



}

storage "<math>N_17</math>" as N17  #white
storage "<math>N_18</math>" as N18  #white
storage "<math>N_19</math>" as N19  #white
storage "<math>N_20</math>" as N20  #white
storage "<math>N_21</math>" as N21 #white
storage "<math>N_22</math>" as N22 #white

}



root -down-> EU #black
root -down-> US #black
root -down- - -> RU #black
root -down- - -> JA #black

root -down-> CA #black

US -down-> N1 #black
US -down-> N2 #black
US -down-> N3 #black
US -down-> N4 #black

EU -down-> N5 #black
EU -down-> N6 #black
EU -down-> N7 #black
EU -down-> N8 #black

RU -down-> N9 #black
RU -down-> N10 #black
RU -down-> N11 #black
RU -down-> N12 #black

JA -down-> N13 #black
JA -down-> N14 #black
JA -down-> N15 #black
JA -down-> N16 #black

JA -down-> N17 #black
JA -down-> N18 #black

CA -down-> N19 #black
CA -down-> N20 #black
CA -down-> N21 #black
CA -down-> N22 #black

N1 -[hidden]right-> N2
N2 -[hidden]right-> N3
N3 -[hidden]right-> N4
N4 -[hidden]right-> N5
N5 -[hidden]right-> N6
N6 -[hidden]right-> N7
N7 -[hidden]right-> N8
N8 -[hidden]right-> N9
N9 -[hidden]right-> N10
@enduml

PlantUML version 1.2019.00(Sun Jan 13 15:46:42 UTC 2019)
(GPL source distribution)
Java Runtime: Java(TM) SE Runtime Environment
JVM: Java HotSpot(TM) 64-Bit Server VM
Java Version: 1.7.0_25-b15
Operating System: Linux
Default Encoding: UTF-8
Language: en
Country: US
--></g></svg>